{
  "header": {
    "keySignatures": [],
    "meta": [
      {
        "text": "By sh Blow - I WON'T HOLD BACK!!!",
        "ticks": 0,
        "type": "text"
      },
      {
        "text": "Generated by NoteWorthy Composer",
        "ticks": 0,
        "type": "text"
      }
    ],
    "name": "QsV - Long Road Ahead",
    "ppq": 192,
    "tempos": [
      {
        "bpm": 140.00014000014,
        "ticks": 0
      }
    ],
    "timeSignatures": [
      {
        "ticks": 0,
        "timeSignature": [
          4,
          4
        ],
        "measures": 0
      }
    ]
  },
  "tracks": [
    {
      "channel": 0,
      "controlChanges": {
        "7": [
          {
            "number": 7,
            "ticks": 0,
            "time": 0,
            "value": 0.6614173228346457
          },
          {
            "number": 7,
            "ticks": 0,
            "time": 0,
            "value": 0.6614173228346457
          }
        ],
        "10": [
          {
            "number": 10,
            "ticks": 0,
            "time": 0,
            "value": 0.6614173228346457
          },
          {
            "number": 10,
            "ticks": 0,
            "time": 0,
            "value": 0.6614173228346457
          }
        ]
      },
      "pitchBends": [],
      "instrument": {
        "family": "ensemble",
        "name": "string ensemble 1",
        "number": 48
      },
      "name": "QsV - Long Road Ahead",
      "notes": [
        {
          "duration": 0.35714250000000014,
          "durationTicks": 160,
          "midi": 59,
          "name": "B3",
          "ticks": 576,
          "time": 1.285713,
          "velocity": 0.8661417322834646
        },
        {
          "duration": 0.7499992500000001,
          "durationTicks": 336,
          "midi": 62,
          "name": "D4",
          "ticks": 768,
          "time": 1.7142840000000001,
          "velocity": 0.8661417322834646
        },
        {
          "duration": 0.7499992500000001,
          "durationTicks": 336,
          "midi": 62,
          "name": "D4",
          "ticks": 1152,
          "time": 2.571426,
          "velocity": 0.8661417322834646
        },
        {
          "duration": 0.7499992500000001,
          "durationTicks": 336,
          "midi": 61,
          "name": "C#4",
          "ticks": 1536,
          "time": 3.4285680000000003,
          "velocity": 0.8661417322834646
        },
        {
          "duration": 0.35714250000000103,
          "durationTicks": 160,
          "midi": 61,
          "name": "C#4",
          "ticks": 1920,
          "time": 4.28571,
          "velocity": 0.8661417322834646
        },
        {
          "duration": 0.35714250000000014,
          "durationTicks": 160,
          "midi": 61,
          "name": "C#4",
          "ticks": 2112,
          "time": 4.714281000000001,
          "velocity": 0.8661417322834646
        },
        {
          "duration": 0.7499992500000001,
          "durationTicks": 336,
          "midi": 62,
          "name": "D4",
          "ticks": 2304,
          "time": 5.142852,
          "velocity": 0.8661417322834646
        },
        {
          "duration": 0.35714250000000014,
          "durationTicks": 160,
          "midi": 62,
          "name": "D4",
          "ticks": 2688,
          "time": 5.999994000000001,
          "velocity": 0.8661417322834646
        },
        {
          "duration": 0.35714250000000014,
          "durationTicks": 160,
          "midi": 62,
          "name": "D4",
          "ticks": 2880,
          "time": 6.428565000000001,
          "velocity": 0.8661417322834646
        },
        {
          "duration": 0.35714249999999925,
          "durationTicks": 160,
          "midi": 55,
          "name": "G3",
          "ticks": 3072,
          "time": 6.857136000000001,
          "velocity": 0.8661417322834646
        },
        {
          "duration": 0.35714250000000014,
          "durationTicks": 160,
          "midi": 62,
          "name": "D4",
          "ticks": 3264,
          "time": 7.285707,
          "velocity": 0.8661417322834646
        },
        {
          "duration": 0.35714250000000014,
          "durationTicks": 160,
          "midi": 66,
          "name": "F#4",
          "ticks": 3456,
          "time": 7.714278,
          "velocity": 0.8661417322834646
        },
        {
          "duration": 0.35714250000000014,
          "durationTicks": 160,
          "midi": 62,
          "name": "D4",
          "ticks": 3648,
          "time": 8.142849,
          "velocity": 0.8661417322834646
        },
        {
          "duration": 0.7499992500000001,
          "durationTicks": 336,
          "midi": 62,
          "name": "D4",
          "ticks": 3840,
          "time": 8.57142,
          "velocity": 0.8661417322834646
        },
        {
          "duration": 0.35714249999999836,
          "durationTicks": 160,
          "midi": 62,
          "name": "D4",
          "ticks": 4224,
          "time": 9.428562000000001,
          "velocity": 0.8661417322834646
        },
        {
          "duration": 0.35714250000000014,
          "durationTicks": 160,
          "midi": 62,
          "name": "D4",
          "ticks": 4416,
          "time": 9.857133000000001,
          "velocity": 0.8661417322834646
        },
        {
          "duration": 0.7499992500000001,
          "durationTicks": 336,
          "midi": 61,
          "name": "C#4",
          "ticks": 4608,
          "time": 10.285704,
          "velocity": 0.8661417322834646
        },
        {
          "duration": 0.35714250000000014,
          "durationTicks": 160,
          "midi": 61,
          "name": "C#4",
          "ticks": 4992,
          "time": 11.142846,
          "velocity": 0.8661417322834646
        },
        {
          "duration": 0.35714250000000014,
          "durationTicks": 160,
          "midi": 61,
          "name": "C#4",
          "ticks": 5184,
          "time": 11.571417,
          "velocity": 0.8661417322834646
        },
        {
          "duration": 0.7499992499999983,
          "durationTicks": 336,
          "midi": 62,
          "name": "D4",
          "ticks": 5376,
          "time": 11.999988000000002,
          "velocity": 0.8661417322834646
        },
        {
          "duration": 0.35714249999999836,
          "durationTicks": 160,
          "midi": 62,
          "name": "D4",
          "ticks": 5760,
          "time": 12.857130000000002,
          "velocity": 0.8661417322834646
        },
        {
          "duration": 0.35714250000000014,
          "durationTicks": 160,
          "midi": 62,
          "name": "D4",
          "ticks": 5952,
          "time": 13.285701000000001,
          "velocity": 0.8661417322834646
        },
        {
          "duration": 0.7499992500000001,
          "durationTicks": 336,
          "midi": 61,
          "name": "C#4",
          "ticks": 6144,
          "time": 13.714272000000001,
          "velocity": 0.8661417322834646
        },
        {
          "duration": 0.3571425000000019,
          "durationTicks": 160,
          "midi": 61,
          "name": "C#4",
          "ticks": 6528,
          "time": 14.571414,
          "velocity": 0.8661417322834646
        },
        {
          "duration": 0.3571425000000019,
          "durationTicks": 160,
          "midi": 61,
          "name": "C#4",
          "ticks": 6720,
          "time": 14.999985,
          "velocity": 0.8661417322834646
        },
        {
          "duration": 0.7499992500000019,
          "durationTicks": 336,
          "midi": 62,
          "name": "D4",
          "ticks": 6912,
          "time": 15.428556,
          "velocity": 0.8661417322834646
        },
        {
          "duration": 0.7499992500000019,
          "durationTicks": 336,
          "midi": 62,
          "name": "D4",
          "ticks": 7296,
          "time": 16.285698,
          "velocity": 0.8661417322834646
        },
        {
          "duration": 0.7499992500000019,
          "durationTicks": 336,
          "midi": 61,
          "name": "C#4",
          "ticks": 7680,
          "time": 17.14284,
          "velocity": 0.8661417322834646
        },
        {
          "duration": 0.35714249999999836,
          "durationTicks": 160,
          "midi": 61,
          "name": "C#4",
          "ticks": 8064,
          "time": 17.999982000000003,
          "velocity": 0.8661417322834646
        },
        {
          "duration": 0.3571425000000019,
          "durationTicks": 160,
          "midi": 61,
          "name": "C#4",
          "ticks": 8256,
          "time": 18.428553,
          "velocity": 0.8661417322834646
        },
        {
          "duration": 0.7499992499999983,
          "durationTicks": 336,
          "midi": 62,
          "name": "D4",
          "ticks": 8448,
          "time": 18.857124000000002,
          "velocity": 0.8661417322834646
        },
        {
          "duration": 0.3571425000000019,
          "durationTicks": 160,
          "midi": 62,
          "name": "D4",
          "ticks": 8832,
          "time": 19.714266000000002,
          "velocity": 0.8661417322834646
        },
        {
          "duration": 0.3571425000000019,
          "durationTicks": 160,
          "midi": 62,
          "name": "D4",
          "ticks": 9024,
          "time": 20.142837,
          "velocity": 0.8661417322834646
        },
        {
          "duration": 0.3571425000000019,
          "durationTicks": 160,
          "midi": 55,
          "name": "G3",
          "ticks": 9216,
          "time": 20.571408,
          "velocity": 0.8661417322834646
        },
        {
          "duration": 0.35714249999999836,
          "durationTicks": 160,
          "midi": 62,
          "name": "D4",
          "ticks": 9408,
          "time": 20.999979000000003,
          "velocity": 0.8661417322834646
        },
        {
          "duration": 0.3571425000000019,
          "durationTicks": 160,
          "midi": 66,
          "name": "F#4",
          "ticks": 9600,
          "time": 21.42855,
          "velocity": 0.8661417322834646
        },
        {
          "duration": 0.35714249999999836,
          "durationTicks": 160,
          "midi": 62,
          "name": "D4",
          "ticks": 9792,
          "time": 21.857121000000003,
          "velocity": 0.8661417322834646
        },
        {
          "duration": 0.3571425000000019,
          "durationTicks": 160,
          "midi": 62,
          "name": "D4",
          "ticks": 10176,
          "time": 22.714263000000003,
          "velocity": 0.8661417322834646
        },
        {
          "duration": 0.7499992500000019,
          "durationTicks": 336,
          "midi": 67,
          "name": "G4",
          "ticks": 10368,
          "time": 23.142834,
          "velocity": 0.8661417322834646
        },
        {
          "duration": 0.3571425000000019,
          "durationTicks": 160,
          "midi": 62,
          "name": "D4",
          "ticks": 10944,
          "time": 24.428547000000002,
          "velocity": 0.8661417322834646
        },
        {
          "duration": 0.7499992499999983,
          "durationTicks": 336,
          "midi": 67,
          "name": "G4",
          "ticks": 11136,
          "time": 24.857118000000003,
          "velocity": 0.8661417322834646
        },
        {
          "duration": 0.3571425000000019,
          "durationTicks": 160,
          "midi": 64,
          "name": "E4",
          "ticks": 11712,
          "time": 26.142831,
          "velocity": 0.8661417322834646
        },
        {
          "duration": 0.7499992499999983,
          "durationTicks": 336,
          "midi": 67,
          "name": "G4",
          "ticks": 11904,
          "time": 26.571402000000003,
          "velocity": 0.8661417322834646
        },
        {
          "duration": 0.3571424999999948,
          "durationTicks": 160,
          "midi": 62,
          "name": "D4",
          "ticks": 12480,
          "time": 27.857115000000004,
          "velocity": 0.8661417322834646
        },
        {
          "duration": 0.7499992500000019,
          "durationTicks": 336,
          "midi": 67,
          "name": "G4",
          "ticks": 12672,
          "time": 28.285686000000002,
          "velocity": 0.8661417322834646
        },
        {
          "duration": 0.35714249999999836,
          "durationTicks": 160,
          "midi": 62,
          "name": "D4",
          "ticks": 13248,
          "time": 29.571399000000003,
          "velocity": 0.8661417322834646
        },
        {
          "duration": 0.7499992500000019,
          "durationTicks": 336,
          "midi": 67,
          "name": "G4",
          "ticks": 13440,
          "time": 29.99997,
          "velocity": 0.8661417322834646
        },
        {
          "duration": 0.35714249999999836,
          "durationTicks": 160,
          "midi": 62,
          "name": "D4",
          "ticks": 14016,
          "time": 31.285683000000002,
          "velocity": 0.8661417322834646
        },
        {
          "duration": 0.7499992500000019,
          "durationTicks": 336,
          "midi": 67,
          "name": "G4",
          "ticks": 14208,
          "time": 31.714254000000004,
          "velocity": 0.8661417322834646
        },
        {
          "duration": 0.3571424999999948,
          "durationTicks": 160,
          "midi": 64,
          "name": "E4",
          "ticks": 14784,
          "time": 32.999967000000005,
          "velocity": 0.8661417322834646
        },
        {
          "duration": 0.7499992500000019,
          "durationTicks": 336,
          "midi": 67,
          "name": "G4",
          "ticks": 14976,
          "time": 33.428538,
          "velocity": 0.8661417322834646
        },
        {
          "duration": 0.3571424999999948,
          "durationTicks": 160,
          "midi": 62,
          "name": "D4",
          "ticks": 15552,
          "time": 34.714251000000004,
          "velocity": 0.8661417322834646
        },
        {
          "duration": 0.7499992500000019,
          "durationTicks": 336,
          "midi": 67,
          "name": "G4",
          "ticks": 15744,
          "time": 35.142822,
          "velocity": 0.8661417322834646
        },
        {
          "duration": 0.3571424999999948,
          "durationTicks": 160,
          "midi": 62,
          "name": "D4",
          "ticks": 16320,
          "time": 36.428535000000004,
          "velocity": 0.8661417322834646
        },
        {
          "duration": 0.3571425000000019,
          "durationTicks": 160,
          "midi": 64,
          "name": "E4",
          "ticks": 16512,
          "time": 36.857106,
          "velocity": 0.8661417322834646
        },
        {
          "duration": 0.20982121875000104,
          "durationTicks": 94,
          "midi": 66,
          "name": "F#4",
          "ticks": 16704,
          "time": 37.285677,
          "velocity": 0.8661417322834646
        },
        {
          "duration": 0.5714279999999974,
          "durationTicks": 256,
          "midi": 64,
          "name": "E4",
          "ticks": 16800,
          "time": 37.4999625,
          "velocity": 0.8661417322834646
        },
        {
          "duration": 0.3571424999999948,
          "durationTicks": 160,
          "midi": 62,
          "name": "D4",
          "ticks": 17088,
          "time": 38.142819,
          "velocity": 0.8661417322834646
        },
        {
          "duration": 0.3571425000000019,
          "durationTicks": 160,
          "midi": 67,
          "name": "G4",
          "ticks": 17280,
          "time": 38.57139,
          "velocity": 0.8661417322834646
        },
        {
          "duration": 0.3571424999999948,
          "durationTicks": 160,
          "midi": 62,
          "name": "D4",
          "ticks": 17472,
          "time": 38.999961000000006,
          "velocity": 0.8661417322834646
        },
        {
          "duration": 0.3571424999999948,
          "durationTicks": 160,
          "midi": 62,
          "name": "D4",
          "ticks": 17664,
          "time": 39.428532000000004,
          "velocity": 0.8661417322834646
        },
        {
          "duration": 0.3571425000000019,
          "durationTicks": 160,
          "midi": 64,
          "name": "E4",
          "ticks": 17856,
          "time": 39.857103,
          "velocity": 0.8661417322834646
        },
        {
          "duration": 0.3571425000000019,
          "durationTicks": 160,
          "midi": 62,
          "name": "D4",
          "ticks": 18048,
          "time": 40.285674,
          "velocity": 0.8661417322834646
        },
        {
          "duration": 0.3571424999999948,
          "durationTicks": 160,
          "midi": 59,
          "name": "B3",
          "ticks": 18240,
          "time": 40.714245000000005,
          "velocity": 0.8661417322834646
        },
        {
          "duration": 0.3571424999999948,
          "durationTicks": 160,
          "midi": 55,
          "name": "G3",
          "ticks": 18432,
          "time": 41.142816,
          "velocity": 0.8661417322834646
        },
        {
          "duration": 0.13839271875000492,
          "durationTicks": 62,
          "midi": 62,
          "name": "D4",
          "ticks": 18624,
          "time": 41.571387,
          "velocity": 0.8661417322834646
        },
        {
          "duration": 0.13839271875000492,
          "durationTicks": 62,
          "midi": 66,
          "name": "F#4",
          "ticks": 18688,
          "time": 41.714244,
          "velocity": 0.8661417322834646
        },
        {
          "duration": 0.1383927187499907,
          "durationTicks": 62,
          "midi": 67,
          "name": "G4",
          "ticks": 18752,
          "time": 41.85710100000001,
          "velocity": 0.8661417322834646
        },
        {
          "duration": 0.3571424999999948,
          "durationTicks": 160,
          "midi": 66,
          "name": "F#4",
          "ticks": 18816,
          "time": 41.99995800000001,
          "velocity": 0.8661417322834646
        },
        {
          "duration": 0.3571424999999948,
          "durationTicks": 160,
          "midi": 62,
          "name": "D4",
          "ticks": 19008,
          "time": 42.428529000000005,
          "velocity": 0.8661417322834646
        },
        {
          "duration": 1.607141249999998,
          "durationTicks": 720,
          "midi": 62,
          "name": "D4",
          "ticks": 19200,
          "time": 42.8571,
          "velocity": 0.8661417322834646
        },
        {
          "duration": 0.7499992500000019,
          "durationTicks": 336,
          "midi": 61,
          "name": "C#4",
          "ticks": 19968,
          "time": 44.571384,
          "velocity": 0.8661417322834646
        },
        {
          "duration": 0.3571424999999948,
          "durationTicks": 160,
          "midi": 61,
          "name": "C#4",
          "ticks": 20352,
          "time": 45.428526000000005,
          "velocity": 0.8661417322834646
        },
        {
          "duration": 0.3571425000000019,
          "durationTicks": 160,
          "midi": 61,
          "name": "C#4",
          "ticks": 20544,
          "time": 45.857097,
          "velocity": 0.8661417322834646
        },
        {
          "duration": 0.7499992500000019,
          "durationTicks": 336,
          "midi": 62,
          "name": "D4",
          "ticks": 20736,
          "time": 46.285668,
          "velocity": 0.8661417322834646
        },
        {
          "duration": 0.3571424999999948,
          "durationTicks": 160,
          "midi": 62,
          "name": "D4",
          "ticks": 21120,
          "time": 47.142810000000004,
          "velocity": 0.8661417322834646
        },
        {
          "duration": 0.3571425000000019,
          "durationTicks": 160,
          "midi": 62,
          "name": "D4",
          "ticks": 21312,
          "time": 47.571381,
          "velocity": 0.8661417322834646
        },
        {
          "duration": 0.3571424999999948,
          "durationTicks": 160,
          "midi": 55,
          "name": "G3",
          "ticks": 21504,
          "time": 47.99995200000001,
          "velocity": 0.8661417322834646
        },
        {
          "duration": 0.3571424999999948,
          "durationTicks": 160,
          "midi": 62,
          "name": "D4",
          "ticks": 21696,
          "time": 48.428523000000006,
          "velocity": 0.8661417322834646
        },
        {
          "duration": 0.3571425000000019,
          "durationTicks": 160,
          "midi": 66,
          "name": "F#4",
          "ticks": 21888,
          "time": 48.857094000000004,
          "velocity": 0.8661417322834646
        },
        {
          "duration": 0.3571425000000019,
          "durationTicks": 160,
          "midi": 62,
          "name": "D4",
          "ticks": 22080,
          "time": 49.285665,
          "velocity": 0.8661417322834646
        },
        {
          "duration": 0.7499992499999948,
          "durationTicks": 336,
          "midi": 62,
          "name": "D4",
          "ticks": 22272,
          "time": 49.71423600000001,
          "velocity": 0.8661417322834646
        },
        {
          "duration": 0.3571425000000019,
          "durationTicks": 160,
          "midi": 62,
          "name": "D4",
          "ticks": 22656,
          "time": 50.571378,
          "velocity": 0.8661417322834646
        },
        {
          "duration": 0.3571425000000019,
          "durationTicks": 160,
          "midi": 62,
          "name": "D4",
          "ticks": 22848,
          "time": 50.999949,
          "velocity": 0.8661417322834646
        },
        {
          "duration": 0.7499992499999948,
          "durationTicks": 336,
          "midi": 61,
          "name": "C#4",
          "ticks": 23040,
          "time": 51.428520000000006,
          "velocity": 0.8661417322834646
        },
        {
          "duration": 0.3571425000000019,
          "durationTicks": 160,
          "midi": 61,
          "name": "C#4",
          "ticks": 23424,
          "time": 52.285662,
          "velocity": 0.8661417322834646
        },
        {
          "duration": 0.3571424999999948,
          "durationTicks": 160,
          "midi": 61,
          "name": "C#4",
          "ticks": 23616,
          "time": 52.71423300000001,
          "velocity": 0.8661417322834646
        },
        {
          "duration": 0.7499992500000019,
          "durationTicks": 336,
          "midi": 62,
          "name": "D4",
          "ticks": 23808,
          "time": 53.142804000000005,
          "velocity": 0.8661417322834646
        },
        {
          "duration": 0.3571425000000019,
          "durationTicks": 160,
          "midi": 62,
          "name": "D4",
          "ticks": 24192,
          "time": 53.999946,
          "velocity": 0.8661417322834646
        },
        {
          "duration": 0.3571424999999948,
          "durationTicks": 160,
          "midi": 62,
          "name": "D4",
          "ticks": 24384,
          "time": 54.42851700000001,
          "velocity": 0.8661417322834646
        },
        {
          "duration": 0.7499992500000019,
          "durationTicks": 336,
          "midi": 61,
          "name": "C#4",
          "ticks": 24576,
          "time": 54.857088000000005,
          "velocity": 0.8661417322834646
        },
        {
          "duration": 0.3571425000000019,
          "durationTicks": 160,
          "midi": 61,
          "name": "C#4",
          "ticks": 24960,
          "time": 55.71423000000001,
          "velocity": 0.8661417322834646
        },
        {
          "duration": 0.3571425000000019,
          "durationTicks": 160,
          "midi": 61,
          "name": "C#4",
          "ticks": 25152,
          "time": 56.142801000000006,
          "velocity": 0.8661417322834646
        },
        {
          "duration": 0.7499992500000019,
          "durationTicks": 336,
          "midi": 62,
          "name": "D4",
          "ticks": 25344,
          "time": 56.571372000000004,
          "velocity": 0.8661417322834646
        },
        {
          "duration": 0.7499992499999948,
          "durationTicks": 336,
          "midi": 62,
          "name": "D4",
          "ticks": 25728,
          "time": 57.42851400000001,
          "velocity": 0.8661417322834646
        },
        {
          "duration": 0.7499992500000019,
          "durationTicks": 336,
          "midi": 61,
          "name": "C#4",
          "ticks": 26112,
          "time": 58.285656,
          "velocity": 0.8661417322834646
        },
        {
          "duration": 0.3571425000000019,
          "durationTicks": 160,
          "midi": 61,
          "name": "C#4",
          "ticks": 26496,
          "time": 59.142798000000006,
          "velocity": 0.8661417322834646
        },
        {
          "duration": 0.3571425000000019,
          "durationTicks": 160,
          "midi": 61,
          "name": "C#4",
          "ticks": 26688,
          "time": 59.571369000000004,
          "velocity": 0.8661417322834646
        },
        {
          "duration": 0.7499992500000019,
          "durationTicks": 336,
          "midi": 62,
          "name": "D4",
          "ticks": 26880,
          "time": 59.99994,
          "velocity": 0.8661417322834646
        },
        {
          "duration": 0.3571425000000019,
          "durationTicks": 160,
          "midi": 62,
          "name": "D4",
          "ticks": 27264,
          "time": 60.857082000000005,
          "velocity": 0.8661417322834646
        },
        {
          "duration": 0.357142500000009,
          "durationTicks": 160,
          "midi": 62,
          "name": "D4",
          "ticks": 27456,
          "time": 61.285653,
          "velocity": 0.8661417322834646
        },
        {
          "duration": 0.357142500000009,
          "durationTicks": 160,
          "midi": 55,
          "name": "G3",
          "ticks": 27648,
          "time": 61.714224,
          "velocity": 0.8661417322834646
        },
        {
          "duration": 0.3571425000000019,
          "durationTicks": 160,
          "midi": 62,
          "name": "D4",
          "ticks": 27840,
          "time": 62.14279500000001,
          "velocity": 0.8661417322834646
        },
        {
          "duration": 0.3571425000000019,
          "durationTicks": 160,
          "midi": 66,
          "name": "F#4",
          "ticks": 28032,
          "time": 62.571366000000005,
          "velocity": 0.8661417322834646
        },
        {
          "duration": 0.357142500000009,
          "durationTicks": 160,
          "midi": 62,
          "name": "D4",
          "ticks": 28224,
          "time": 62.999937,
          "velocity": 0.8661417322834646
        },
        {
          "duration": 0.3571425000000019,
          "durationTicks": 160,
          "midi": 62,
          "name": "D4",
          "ticks": 28608,
          "time": 63.857079000000006,
          "velocity": 0.8661417322834646
        },
        {
          "duration": 0.7499992500000019,
          "durationTicks": 336,
          "midi": 67,
          "name": "G4",
          "ticks": 28800,
          "time": 64.28565,
          "velocity": 0.8661417322834646
        },
        {
          "duration": 0.357142500000009,
          "durationTicks": 160,
          "midi": 62,
          "name": "D4",
          "ticks": 29376,
          "time": 65.571363,
          "velocity": 0.8661417322834646
        },
        {
          "duration": 0.7499992500000019,
          "durationTicks": 336,
          "midi": 67,
          "name": "G4",
          "ticks": 29568,
          "time": 65.99993400000001,
          "velocity": 0.8661417322834646
        },
        {
          "duration": 0.3571424999999948,
          "durationTicks": 160,
          "midi": 64,
          "name": "E4",
          "ticks": 30144,
          "time": 67.28564700000001,
          "velocity": 0.8661417322834646
        },
        {
          "duration": 0.7499992500000019,
          "durationTicks": 336,
          "midi": 67,
          "name": "G4",
          "ticks": 30336,
          "time": 67.714218,
          "velocity": 0.8661417322834646
        },
        {
          "duration": 0.357142500000009,
          "durationTicks": 160,
          "midi": 62,
          "name": "D4",
          "ticks": 30912,
          "time": 68.999931,
          "velocity": 0.8661417322834646
        },
        {
          "duration": 0.7499992500000019,
          "durationTicks": 336,
          "midi": 67,
          "name": "G4",
          "ticks": 31104,
          "time": 69.42850200000001,
          "velocity": 0.8661417322834646
        },
        {
          "duration": 0.3571424999999948,
          "durationTicks": 160,
          "midi": 62,
          "name": "D4",
          "ticks": 31680,
          "time": 70.71421500000001,
          "velocity": 0.8661417322834646
        },
        {
          "duration": 0.7499992500000019,
          "durationTicks": 336,
          "midi": 67,
          "name": "G4",
          "ticks": 31872,
          "time": 71.142786,
          "velocity": 0.8661417322834646
        },
        {
          "duration": 0.357142500000009,
          "durationTicks": 160,
          "midi": 62,
          "name": "D4",
          "ticks": 32448,
          "time": 72.428499,
          "velocity": 0.8661417322834646
        },
        {
          "duration": 0.7499992500000019,
          "durationTicks": 336,
          "midi": 67,
          "name": "G4",
          "ticks": 32640,
          "time": 72.85707000000001,
          "velocity": 0.8661417322834646
        },
        {
          "duration": 0.3571424999999948,
          "durationTicks": 160,
          "midi": 64,
          "name": "E4",
          "ticks": 33216,
          "time": 74.14278300000001,
          "velocity": 0.8661417322834646
        },
        {
          "duration": 0.7499992500000019,
          "durationTicks": 336,
          "midi": 67,
          "name": "G4",
          "ticks": 33408,
          "time": 74.571354,
          "velocity": 0.8661417322834646
        },
        {
          "duration": 0.357142500000009,
          "durationTicks": 160,
          "midi": 62,
          "name": "D4",
          "ticks": 33984,
          "time": 75.857067,
          "velocity": 0.8661417322834646
        },
        {
          "duration": 0.7499992500000019,
          "durationTicks": 336,
          "midi": 67,
          "name": "G4",
          "ticks": 34176,
          "time": 76.285638,
          "velocity": 0.8661417322834646
        },
        {
          "duration": 0.357142500000009,
          "durationTicks": 160,
          "midi": 62,
          "name": "D4",
          "ticks": 34752,
          "time": 77.571351,
          "velocity": 0.8661417322834646
        },
        {
          "duration": 0.3571424999999948,
          "durationTicks": 160,
          "midi": 64,
          "name": "E4",
          "ticks": 34944,
          "time": 77.99992200000001,
          "velocity": 0.8661417322834646
        },
        {
          "duration": 0.20982121875000814,
          "durationTicks": 94,
          "midi": 66,
          "name": "F#4",
          "ticks": 35136,
          "time": 78.428493,
          "velocity": 0.8661417322834646
        },
        {
          "duration": 0.5714280000000116,
          "durationTicks": 256,
          "midi": 64,
          "name": "E4",
          "ticks": 35232,
          "time": 78.6427785,
          "velocity": 0.8661417322834646
        },
        {
          "duration": 0.3571424999999948,
          "durationTicks": 160,
          "midi": 62,
          "name": "D4",
          "ticks": 35520,
          "time": 79.28563500000001,
          "velocity": 0.8661417322834646
        },
        {
          "duration": 0.357142500000009,
          "durationTicks": 160,
          "midi": 67,
          "name": "G4",
          "ticks": 35712,
          "time": 79.714206,
          "velocity": 0.8661417322834646
        },
        {
          "duration": 0.3571424999999948,
          "durationTicks": 160,
          "midi": 62,
          "name": "D4",
          "ticks": 35904,
          "time": 80.14277700000001,
          "velocity": 0.8661417322834646
        },
        {
          "duration": 0.357142500000009,
          "durationTicks": 160,
          "midi": 62,
          "name": "D4",
          "ticks": 36096,
          "time": 80.571348,
          "velocity": 0.8661417322834646
        },
        {
          "duration": 0.357142500000009,
          "durationTicks": 160,
          "midi": 64,
          "name": "E4",
          "ticks": 36288,
          "time": 80.999919,
          "velocity": 0.8661417322834646
        },
        {
          "duration": 0.3571424999999948,
          "durationTicks": 160,
          "midi": 62,
          "name": "D4",
          "ticks": 36480,
          "time": 81.42849000000001,
          "velocity": 0.8661417322834646
        },
        {
          "duration": 0.357142500000009,
          "durationTicks": 160,
          "midi": 59,
          "name": "B3",
          "ticks": 36672,
          "time": 81.857061,
          "velocity": 0.8661417322834646
        },
        {
          "duration": 0.357142500000009,
          "durationTicks": 160,
          "midi": 55,
          "name": "G3",
          "ticks": 36864,
          "time": 82.285632,
          "velocity": 0.8661417322834646
        },
        {
          "duration": 0.1383927187499978,
          "durationTicks": 62,
          "midi": 62,
          "name": "D4",
          "ticks": 37056,
          "time": 82.71420300000001,
          "velocity": 0.8661417322834646
        },
        {
          "duration": 0.1383927187499978,
          "durationTicks": 62,
          "midi": 66,
          "name": "F#4",
          "ticks": 37120,
          "time": 82.85706,
          "velocity": 0.8661417322834646
        },
        {
          "duration": 0.13839271875001202,
          "durationTicks": 62,
          "midi": 67,
          "name": "G4",
          "ticks": 37184,
          "time": 82.999917,
          "velocity": 0.8661417322834646
        },
        {
          "duration": 0.357142500000009,
          "durationTicks": 160,
          "midi": 66,
          "name": "F#4",
          "ticks": 37248,
          "time": 83.142774,
          "velocity": 0.8661417322834646
        },
        {
          "duration": 0.357142500000009,
          "durationTicks": 160,
          "midi": 62,
          "name": "D4",
          "ticks": 37440,
          "time": 83.57134500000001,
          "velocity": 0.8661417322834646
        },
        {
          "duration": 1.607141249999998,
          "durationTicks": 720,
          "midi": 62,
          "name": "D4",
          "ticks": 37632,
          "time": 83.99991600000001,
          "velocity": 0.8661417322834646
        }
      ]
    },
    {
      "channel": 1,
      "controlChanges": {
        "7": [
          {
            "number": 7,
            "ticks": 0,
            "time": 0,
            "value": 0.7401574803149606
          }
        ],
        "10": [
          {
            "number": 10,
            "ticks": 0,
            "time": 0,
            "value": 0.5826771653543307
          }
        ]
      },
      "pitchBends": [],
      "instrument": {
        "family": "ensemble",
        "name": "string ensemble 1",
        "number": 48
      },
      "name": "",
      "notes": [
        {
          "duration": 0.35714250000000014,
          "durationTicks": 160,
          "midi": 62,
          "name": "D4",
          "ticks": 576,
          "time": 1.285713,
          "velocity": 0.8661417322834646
        },
        {
          "duration": 0.7499992500000001,
          "durationTicks": 336,
          "midi": 66,
          "name": "F#4",
          "ticks": 768,
          "time": 1.7142840000000001,
          "velocity": 0.8661417322834646
        },
        {
          "duration": 0.7499992500000001,
          "durationTicks": 336,
          "midi": 69,
          "name": "A4",
          "ticks": 1152,
          "time": 2.571426,
          "velocity": 0.8661417322834646
        },
        {
          "duration": 0.7499992500000001,
          "durationTicks": 336,
          "midi": 66,
          "name": "F#4",
          "ticks": 1536,
          "time": 3.4285680000000003,
          "velocity": 0.8661417322834646
        },
        {
          "duration": 0.35714250000000103,
          "durationTicks": 160,
          "midi": 64,
          "name": "E4",
          "ticks": 1920,
          "time": 4.28571,
          "velocity": 0.8661417322834646
        },
        {
          "duration": 0.35714250000000014,
          "durationTicks": 160,
          "midi": 66,
          "name": "F#4",
          "ticks": 2112,
          "time": 4.714281000000001,
          "velocity": 0.8661417322834646
        },
        {
          "duration": 0.35714250000000014,
          "durationTicks": 160,
          "midi": 69,
          "name": "A4",
          "ticks": 2304,
          "time": 5.142852,
          "velocity": 0.8661417322834646
        },
        {
          "duration": 0.35714250000000014,
          "durationTicks": 160,
          "midi": 67,
          "name": "G4",
          "ticks": 2496,
          "time": 5.571423,
          "velocity": 0.8661417322834646
        },
        {
          "duration": 0.35714250000000014,
          "durationTicks": 160,
          "midi": 66,
          "name": "F#4",
          "ticks": 2688,
          "time": 5.999994000000001,
          "velocity": 0.8661417322834646
        },
        {
          "duration": 0.35714250000000014,
          "durationTicks": 160,
          "midi": 59,
          "name": "B3",
          "ticks": 2880,
          "time": 6.428565000000001,
          "velocity": 0.8661417322834646
        },
        {
          "duration": 0.7499992500000001,
          "durationTicks": 336,
          "midi": 62,
          "name": "D4",
          "ticks": 3072,
          "time": 6.857136000000001,
          "velocity": 0.8661417322834646
        },
        {
          "duration": 0.7499992500000001,
          "durationTicks": 336,
          "midi": 59,
          "name": "B3",
          "ticks": 3456,
          "time": 7.714278,
          "velocity": 0.8661417322834646
        },
        {
          "duration": 0.7499992500000001,
          "durationTicks": 336,
          "midi": 66,
          "name": "F#4",
          "ticks": 3840,
          "time": 8.57142,
          "velocity": 0.8661417322834646
        },
        {
          "duration": 0.35714249999999836,
          "durationTicks": 160,
          "midi": 69,
          "name": "A4",
          "ticks": 4224,
          "time": 9.428562000000001,
          "velocity": 0.8661417322834646
        },
        {
          "duration": 0.35714250000000014,
          "durationTicks": 160,
          "midi": 66,
          "name": "F#4",
          "ticks": 4416,
          "time": 9.857133000000001,
          "velocity": 0.8661417322834646
        },
        {
          "duration": 0.7499992500000001,
          "durationTicks": 336,
          "midi": 66,
          "name": "F#4",
          "ticks": 4608,
          "time": 10.285704,
          "velocity": 0.8661417322834646
        },
        {
          "duration": 0.35714250000000014,
          "durationTicks": 160,
          "midi": 64,
          "name": "E4",
          "ticks": 4992,
          "time": 11.142846,
          "velocity": 0.8661417322834646
        },
        {
          "duration": 0.35714250000000014,
          "durationTicks": 160,
          "midi": 66,
          "name": "F#4",
          "ticks": 5184,
          "time": 11.571417,
          "velocity": 0.8661417322834646
        },
        {
          "duration": 0.35714249999999836,
          "durationTicks": 160,
          "midi": 69,
          "name": "A4",
          "ticks": 5376,
          "time": 11.999988000000002,
          "velocity": 0.8661417322834646
        },
        {
          "duration": 0.35714249999999836,
          "durationTicks": 160,
          "midi": 67,
          "name": "G4",
          "ticks": 5568,
          "time": 12.428559000000002,
          "velocity": 0.8661417322834646
        },
        {
          "duration": 0.35714249999999836,
          "durationTicks": 160,
          "midi": 66,
          "name": "F#4",
          "ticks": 5760,
          "time": 12.857130000000002,
          "velocity": 0.8661417322834646
        },
        {
          "duration": 0.35714250000000014,
          "durationTicks": 160,
          "midi": 59,
          "name": "B3",
          "ticks": 5952,
          "time": 13.285701000000001,
          "velocity": 0.8661417322834646
        },
        {
          "duration": 0.3571425000000019,
          "durationTicks": 160,
          "midi": 66,
          "name": "F#4",
          "ticks": 6144,
          "time": 13.714272000000001,
          "velocity": 0.8661417322834646
        },
        {
          "duration": 0.3571425000000019,
          "durationTicks": 160,
          "midi": 67,
          "name": "G4",
          "ticks": 6336,
          "time": 14.142843000000001,
          "velocity": 0.8661417322834646
        },
        {
          "duration": 0.3571425000000019,
          "durationTicks": 160,
          "midi": 64,
          "name": "E4",
          "ticks": 6528,
          "time": 14.571414,
          "velocity": 0.8661417322834646
        },
        {
          "duration": 0.3571425000000019,
          "durationTicks": 160,
          "midi": 66,
          "name": "F#4",
          "ticks": 6720,
          "time": 14.999985,
          "velocity": 0.8661417322834646
        },
        {
          "duration": 0.7499992500000019,
          "durationTicks": 336,
          "midi": 66,
          "name": "F#4",
          "ticks": 6912,
          "time": 15.428556,
          "velocity": 0.8661417322834646
        },
        {
          "duration": 0.7499992500000019,
          "durationTicks": 336,
          "midi": 69,
          "name": "A4",
          "ticks": 7296,
          "time": 16.285698,
          "velocity": 0.8661417322834646
        },
        {
          "duration": 0.7499992500000019,
          "durationTicks": 336,
          "midi": 66,
          "name": "F#4",
          "ticks": 7680,
          "time": 17.14284,
          "velocity": 0.8661417322834646
        },
        {
          "duration": 0.35714249999999836,
          "durationTicks": 160,
          "midi": 64,
          "name": "E4",
          "ticks": 8064,
          "time": 17.999982000000003,
          "velocity": 0.8661417322834646
        },
        {
          "duration": 0.3571425000000019,
          "durationTicks": 160,
          "midi": 66,
          "name": "F#4",
          "ticks": 8256,
          "time": 18.428553,
          "velocity": 0.8661417322834646
        },
        {
          "duration": 0.3571425000000019,
          "durationTicks": 160,
          "midi": 69,
          "name": "A4",
          "ticks": 8448,
          "time": 18.857124000000002,
          "velocity": 0.8661417322834646
        },
        {
          "duration": 0.3571425000000019,
          "durationTicks": 160,
          "midi": 67,
          "name": "G4",
          "ticks": 8640,
          "time": 19.285695,
          "velocity": 0.8661417322834646
        },
        {
          "duration": 0.3571425000000019,
          "durationTicks": 160,
          "midi": 66,
          "name": "F#4",
          "ticks": 8832,
          "time": 19.714266000000002,
          "velocity": 0.8661417322834646
        },
        {
          "duration": 0.3571425000000019,
          "durationTicks": 160,
          "midi": 59,
          "name": "B3",
          "ticks": 9024,
          "time": 20.142837,
          "velocity": 0.8661417322834646
        },
        {
          "duration": 0.7499992499999983,
          "durationTicks": 336,
          "midi": 62,
          "name": "D4",
          "ticks": 9216,
          "time": 20.571408,
          "velocity": 0.8661417322834646
        },
        {
          "duration": 0.7499992500000019,
          "durationTicks": 336,
          "midi": 59,
          "name": "B3",
          "ticks": 9600,
          "time": 21.42855,
          "velocity": 0.8661417322834646
        },
        {
          "duration": 1.6071412500000015,
          "durationTicks": 720,
          "midi": 58,
          "name": "A#3",
          "ticks": 9984,
          "time": 22.285692,
          "velocity": 0.8661417322834646
        },
        {
          "duration": 1.607141249999998,
          "durationTicks": 720,
          "midi": 59,
          "name": "B3",
          "ticks": 10752,
          "time": 23.999976000000004,
          "velocity": 0.8661417322834646
        },
        {
          "duration": 1.607141249999998,
          "durationTicks": 720,
          "midi": 60,
          "name": "C4",
          "ticks": 11520,
          "time": 25.714260000000003,
          "velocity": 0.8661417322834646
        },
        {
          "duration": 1.6071412500000015,
          "durationTicks": 720,
          "midi": 59,
          "name": "B3",
          "ticks": 12288,
          "time": 27.428544000000002,
          "velocity": 0.8661417322834646
        },
        {
          "duration": 1.6071412500000015,
          "durationTicks": 720,
          "midi": 58,
          "name": "A#3",
          "ticks": 13056,
          "time": 29.142828,
          "velocity": 0.8661417322834646
        },
        {
          "duration": 1.607141250000005,
          "durationTicks": 720,
          "midi": 59,
          "name": "B3",
          "ticks": 13824,
          "time": 30.857112,
          "velocity": 0.8661417322834646
        },
        {
          "duration": 1.607141250000005,
          "durationTicks": 720,
          "midi": 60,
          "name": "C4",
          "ticks": 14592,
          "time": 32.571396,
          "velocity": 0.8661417322834646
        },
        {
          "duration": 1.607141250000005,
          "durationTicks": 720,
          "midi": 59,
          "name": "B3",
          "ticks": 15360,
          "time": 34.28568,
          "velocity": 0.8661417322834646
        },
        {
          "duration": 0.7499992499999948,
          "durationTicks": 336,
          "midi": 66,
          "name": "F#4",
          "ticks": 16128,
          "time": 35.999964000000006,
          "velocity": 0.8661417322834646
        },
        {
          "duration": 0.7499992500000019,
          "durationTicks": 336,
          "midi": 69,
          "name": "A4",
          "ticks": 16512,
          "time": 36.857106,
          "velocity": 0.8661417322834646
        },
        {
          "duration": 0.7499992499999948,
          "durationTicks": 336,
          "midi": 66,
          "name": "F#4",
          "ticks": 16896,
          "time": 37.714248000000005,
          "velocity": 0.8661417322834646
        },
        {
          "duration": 0.3571425000000019,
          "durationTicks": 160,
          "midi": 64,
          "name": "E4",
          "ticks": 17280,
          "time": 38.57139,
          "velocity": 0.8661417322834646
        },
        {
          "duration": 0.3571424999999948,
          "durationTicks": 160,
          "midi": 66,
          "name": "F#4",
          "ticks": 17472,
          "time": 38.999961000000006,
          "velocity": 0.8661417322834646
        },
        {
          "duration": 0.3571424999999948,
          "durationTicks": 160,
          "midi": 69,
          "name": "A4",
          "ticks": 17664,
          "time": 39.428532000000004,
          "velocity": 0.8661417322834646
        },
        {
          "duration": 0.3571425000000019,
          "durationTicks": 160,
          "midi": 67,
          "name": "G4",
          "ticks": 17856,
          "time": 39.857103,
          "velocity": 0.8661417322834646
        },
        {
          "duration": 0.3571425000000019,
          "durationTicks": 160,
          "midi": 66,
          "name": "F#4",
          "ticks": 18048,
          "time": 40.285674,
          "velocity": 0.8661417322834646
        },
        {
          "duration": 0.3571424999999948,
          "durationTicks": 160,
          "midi": 62,
          "name": "D4",
          "ticks": 18240,
          "time": 40.714245000000005,
          "velocity": 0.8661417322834646
        },
        {
          "duration": 0.7499992500000019,
          "durationTicks": 336,
          "midi": 62,
          "name": "D4",
          "ticks": 18432,
          "time": 41.142816,
          "velocity": 0.8661417322834646
        },
        {
          "duration": 0.3571424999999948,
          "durationTicks": 160,
          "midi": 66,
          "name": "F#4",
          "ticks": 18816,
          "time": 41.99995800000001,
          "velocity": 0.8661417322834646
        },
        {
          "duration": 0.3571424999999948,
          "durationTicks": 160,
          "midi": 59,
          "name": "B3",
          "ticks": 19008,
          "time": 42.428529000000005,
          "velocity": 0.8661417322834646
        },
        {
          "duration": 0.7499992500000019,
          "durationTicks": 336,
          "midi": 59,
          "name": "B3",
          "ticks": 19200,
          "time": 42.8571,
          "velocity": 0.8661417322834646
        },
        {
          "duration": 0.7499992499999948,
          "durationTicks": 336,
          "midi": 66,
          "name": "F#4",
          "ticks": 19584,
          "time": 43.714242000000006,
          "velocity": 0.8661417322834646
        },
        {
          "duration": 0.7499992500000019,
          "durationTicks": 336,
          "midi": 66,
          "name": "F#4",
          "ticks": 19968,
          "time": 44.571384,
          "velocity": 0.8661417322834646
        },
        {
          "duration": 0.3571424999999948,
          "durationTicks": 160,
          "midi": 64,
          "name": "E4",
          "ticks": 20352,
          "time": 45.428526000000005,
          "velocity": 0.8661417322834646
        },
        {
          "duration": 0.3571425000000019,
          "durationTicks": 160,
          "midi": 66,
          "name": "F#4",
          "ticks": 20544,
          "time": 45.857097,
          "velocity": 0.8661417322834646
        },
        {
          "duration": 0.3571425000000019,
          "durationTicks": 160,
          "midi": 69,
          "name": "A4",
          "ticks": 20736,
          "time": 46.285668,
          "velocity": 0.8661417322834646
        },
        {
          "duration": 0.3571424999999948,
          "durationTicks": 160,
          "midi": 67,
          "name": "G4",
          "ticks": 20928,
          "time": 46.714239000000006,
          "velocity": 0.8661417322834646
        },
        {
          "duration": 0.3571424999999948,
          "durationTicks": 160,
          "midi": 66,
          "name": "F#4",
          "ticks": 21120,
          "time": 47.142810000000004,
          "velocity": 0.8661417322834646
        },
        {
          "duration": 0.3571425000000019,
          "durationTicks": 160,
          "midi": 59,
          "name": "B3",
          "ticks": 21312,
          "time": 47.571381,
          "velocity": 0.8661417322834646
        },
        {
          "duration": 0.7499992499999948,
          "durationTicks": 336,
          "midi": 62,
          "name": "D4",
          "ticks": 21504,
          "time": 47.99995200000001,
          "velocity": 0.8661417322834646
        },
        {
          "duration": 0.7499992500000019,
          "durationTicks": 336,
          "midi": 59,
          "name": "B3",
          "ticks": 21888,
          "time": 48.857094000000004,
          "velocity": 0.8661417322834646
        },
        {
          "duration": 0.7499992499999948,
          "durationTicks": 336,
          "midi": 66,
          "name": "F#4",
          "ticks": 22272,
          "time": 49.71423600000001,
          "velocity": 0.8661417322834646
        },
        {
          "duration": 0.3571425000000019,
          "durationTicks": 160,
          "midi": 69,
          "name": "A4",
          "ticks": 22656,
          "time": 50.571378,
          "velocity": 0.8661417322834646
        },
        {
          "duration": 0.3571425000000019,
          "durationTicks": 160,
          "midi": 66,
          "name": "F#4",
          "ticks": 22848,
          "time": 50.999949,
          "velocity": 0.8661417322834646
        },
        {
          "duration": 0.7499992499999948,
          "durationTicks": 336,
          "midi": 66,
          "name": "F#4",
          "ticks": 23040,
          "time": 51.428520000000006,
          "velocity": 0.8661417322834646
        },
        {
          "duration": 0.3571425000000019,
          "durationTicks": 160,
          "midi": 64,
          "name": "E4",
          "ticks": 23424,
          "time": 52.285662,
          "velocity": 0.8661417322834646
        },
        {
          "duration": 0.3571424999999948,
          "durationTicks": 160,
          "midi": 66,
          "name": "F#4",
          "ticks": 23616,
          "time": 52.71423300000001,
          "velocity": 0.8661417322834646
        },
        {
          "duration": 0.3571424999999948,
          "durationTicks": 160,
          "midi": 69,
          "name": "A4",
          "ticks": 23808,
          "time": 53.142804000000005,
          "velocity": 0.8661417322834646
        },
        {
          "duration": 0.3571425000000019,
          "durationTicks": 160,
          "midi": 67,
          "name": "G4",
          "ticks": 24000,
          "time": 53.571375,
          "velocity": 0.8661417322834646
        },
        {
          "duration": 0.3571425000000019,
          "durationTicks": 160,
          "midi": 66,
          "name": "F#4",
          "ticks": 24192,
          "time": 53.999946,
          "velocity": 0.8661417322834646
        },
        {
          "duration": 0.3571424999999948,
          "durationTicks": 160,
          "midi": 59,
          "name": "B3",
          "ticks": 24384,
          "time": 54.42851700000001,
          "velocity": 0.8661417322834646
        },
        {
          "duration": 0.3571425000000019,
          "durationTicks": 160,
          "midi": 66,
          "name": "F#4",
          "ticks": 24576,
          "time": 54.857088000000005,
          "velocity": 0.8661417322834646
        },
        {
          "duration": 0.357142500000009,
          "durationTicks": 160,
          "midi": 67,
          "name": "G4",
          "ticks": 24768,
          "time": 55.285659,
          "velocity": 0.8661417322834646
        },
        {
          "duration": 0.3571425000000019,
          "durationTicks": 160,
          "midi": 64,
          "name": "E4",
          "ticks": 24960,
          "time": 55.71423000000001,
          "velocity": 0.8661417322834646
        },
        {
          "duration": 0.3571425000000019,
          "durationTicks": 160,
          "midi": 66,
          "name": "F#4",
          "ticks": 25152,
          "time": 56.142801000000006,
          "velocity": 0.8661417322834646
        },
        {
          "duration": 0.7499992500000019,
          "durationTicks": 336,
          "midi": 66,
          "name": "F#4",
          "ticks": 25344,
          "time": 56.571372000000004,
          "velocity": 0.8661417322834646
        },
        {
          "duration": 0.7499992499999948,
          "durationTicks": 336,
          "midi": 69,
          "name": "A4",
          "ticks": 25728,
          "time": 57.42851400000001,
          "velocity": 0.8661417322834646
        },
        {
          "duration": 0.7499992500000019,
          "durationTicks": 336,
          "midi": 66,
          "name": "F#4",
          "ticks": 26112,
          "time": 58.285656,
          "velocity": 0.8661417322834646
        },
        {
          "duration": 0.3571425000000019,
          "durationTicks": 160,
          "midi": 64,
          "name": "E4",
          "ticks": 26496,
          "time": 59.142798000000006,
          "velocity": 0.8661417322834646
        },
        {
          "duration": 0.3571425000000019,
          "durationTicks": 160,
          "midi": 66,
          "name": "F#4",
          "ticks": 26688,
          "time": 59.571369000000004,
          "velocity": 0.8661417322834646
        },
        {
          "duration": 0.357142500000009,
          "durationTicks": 160,
          "midi": 69,
          "name": "A4",
          "ticks": 26880,
          "time": 59.99994,
          "velocity": 0.8661417322834646
        },
        {
          "duration": 0.3571425000000019,
          "durationTicks": 160,
          "midi": 67,
          "name": "G4",
          "ticks": 27072,
          "time": 60.42851100000001,
          "velocity": 0.8661417322834646
        },
        {
          "duration": 0.3571425000000019,
          "durationTicks": 160,
          "midi": 66,
          "name": "F#4",
          "ticks": 27264,
          "time": 60.857082000000005,
          "velocity": 0.8661417322834646
        },
        {
          "duration": 0.357142500000009,
          "durationTicks": 160,
          "midi": 59,
          "name": "B3",
          "ticks": 27456,
          "time": 61.285653,
          "velocity": 0.8661417322834646
        },
        {
          "duration": 0.7499992500000019,
          "durationTicks": 336,
          "midi": 62,
          "name": "D4",
          "ticks": 27648,
          "time": 61.714224,
          "velocity": 0.8661417322834646
        },
        {
          "duration": 0.7499992500000019,
          "durationTicks": 336,
          "midi": 59,
          "name": "B3",
          "ticks": 28032,
          "time": 62.571366000000005,
          "velocity": 0.8661417322834646
        },
        {
          "duration": 1.607141249999998,
          "durationTicks": 720,
          "midi": 58,
          "name": "A#3",
          "ticks": 28416,
          "time": 63.42850800000001,
          "velocity": 0.8661417322834646
        },
        {
          "duration": 1.6071412500000122,
          "durationTicks": 720,
          "midi": 59,
          "name": "B3",
          "ticks": 29184,
          "time": 65.142792,
          "velocity": 0.8661417322834646
        },
        {
          "duration": 1.607141249999998,
          "durationTicks": 720,
          "midi": 60,
          "name": "C4",
          "ticks": 29952,
          "time": 66.857076,
          "velocity": 0.8661417322834646
        },
        {
          "duration": 1.6071412500000122,
          "durationTicks": 720,
          "midi": 59,
          "name": "B3",
          "ticks": 30720,
          "time": 68.57136,
          "velocity": 0.8661417322834646
        },
        {
          "duration": 1.607141249999998,
          "durationTicks": 720,
          "midi": 58,
          "name": "A#3",
          "ticks": 31488,
          "time": 70.285644,
          "velocity": 0.8661417322834646
        },
        {
          "duration": 1.607141249999998,
          "durationTicks": 720,
          "midi": 59,
          "name": "B3",
          "ticks": 32256,
          "time": 71.99992800000001,
          "velocity": 0.8661417322834646
        },
        {
          "duration": 1.607141249999998,
          "durationTicks": 720,
          "midi": 60,
          "name": "C4",
          "ticks": 33024,
          "time": 73.714212,
          "velocity": 0.8661417322834646
        },
        {
          "duration": 1.607141249999998,
          "durationTicks": 720,
          "midi": 59,
          "name": "B3",
          "ticks": 33792,
          "time": 75.42849600000001,
          "velocity": 0.8661417322834646
        },
        {
          "duration": 0.7499992500000019,
          "durationTicks": 336,
          "midi": 66,
          "name": "F#4",
          "ticks": 34560,
          "time": 77.14278,
          "velocity": 0.8661417322834646
        },
        {
          "duration": 0.7499992499999877,
          "durationTicks": 336,
          "midi": 69,
          "name": "A4",
          "ticks": 34944,
          "time": 77.99992200000001,
          "velocity": 0.8661417322834646
        },
        {
          "duration": 0.7499992500000019,
          "durationTicks": 336,
          "midi": 66,
          "name": "F#4",
          "ticks": 35328,
          "time": 78.85706400000001,
          "velocity": 0.8661417322834646
        },
        {
          "duration": 0.357142500000009,
          "durationTicks": 160,
          "midi": 64,
          "name": "E4",
          "ticks": 35712,
          "time": 79.714206,
          "velocity": 0.8661417322834646
        },
        {
          "duration": 0.3571424999999948,
          "durationTicks": 160,
          "midi": 66,
          "name": "F#4",
          "ticks": 35904,
          "time": 80.14277700000001,
          "velocity": 0.8661417322834646
        },
        {
          "duration": 0.357142500000009,
          "durationTicks": 160,
          "midi": 69,
          "name": "A4",
          "ticks": 36096,
          "time": 80.571348,
          "velocity": 0.8661417322834646
        },
        {
          "duration": 0.357142500000009,
          "durationTicks": 160,
          "midi": 67,
          "name": "G4",
          "ticks": 36288,
          "time": 80.999919,
          "velocity": 0.8661417322834646
        },
        {
          "duration": 0.3571424999999948,
          "durationTicks": 160,
          "midi": 66,
          "name": "F#4",
          "ticks": 36480,
          "time": 81.42849000000001,
          "velocity": 0.8661417322834646
        },
        {
          "duration": 0.357142500000009,
          "durationTicks": 160,
          "midi": 62,
          "name": "D4",
          "ticks": 36672,
          "time": 81.857061,
          "velocity": 0.8661417322834646
        },
        {
          "duration": 0.7499992500000019,
          "durationTicks": 336,
          "midi": 62,
          "name": "D4",
          "ticks": 36864,
          "time": 82.285632,
          "velocity": 0.8661417322834646
        },
        {
          "duration": 0.357142500000009,
          "durationTicks": 160,
          "midi": 66,
          "name": "F#4",
          "ticks": 37248,
          "time": 83.142774,
          "velocity": 0.8661417322834646
        },
        {
          "duration": 0.357142500000009,
          "durationTicks": 160,
          "midi": 59,
          "name": "B3",
          "ticks": 37440,
          "time": 83.57134500000001,
          "velocity": 0.8661417322834646
        },
        {
          "duration": 1.607141249999998,
          "durationTicks": 720,
          "midi": 59,
          "name": "B3",
          "ticks": 37632,
          "time": 83.99991600000001,
          "velocity": 0.8661417322834646
        }
      ]
    },
    {
      "channel": 2,
      "controlChanges": {
        "7": [
          {
            "number": 7,
            "ticks": 0,
            "time": 0,
            "value": 0.6614173228346457
          }
        ],
        "10": [
          {
            "number": 10,
            "ticks": 0,
            "time": 0,
            "value": 0.5039370078740157
          }
        ]
      },
      "pitchBends": [],
      "instrument": {
        "family": "bass",
        "name": "fretless bass",
        "number": 35
      },
      "name": "",
      "notes": [
        {
          "duration": 0.35714250000000014,
          "durationTicks": 160,
          "midi": 31,
          "name": "G1",
          "ticks": 576,
          "time": 1.285713,
          "velocity": 0.8661417322834646
        },
        {
          "duration": 0.7499992500000001,
          "durationTicks": 336,
          "midi": 35,
          "name": "B1",
          "ticks": 768,
          "time": 1.7142840000000001,
          "velocity": 0.8661417322834646
        },
        {
          "duration": 2.03571225,
          "durationTicks": 912,
          "midi": 38,
          "name": "D2",
          "ticks": 1152,
          "time": 2.571426,
          "velocity": 0.8661417322834646
        },
        {
          "duration": 0.35714250000000014,
          "durationTicks": 160,
          "midi": 31,
          "name": "G1",
          "ticks": 2112,
          "time": 4.714281000000001,
          "velocity": 0.8661417322834646
        },
        {
          "duration": 0.7499992500000001,
          "durationTicks": 336,
          "midi": 35,
          "name": "B1",
          "ticks": 2304,
          "time": 5.142852,
          "velocity": 0.8661417322834646
        },
        {
          "duration": 2.0357122499999996,
          "durationTicks": 912,
          "midi": 38,
          "name": "D2",
          "ticks": 2688,
          "time": 5.999994000000001,
          "velocity": 0.8661417322834646
        },
        {
          "duration": 0.35714250000000014,
          "durationTicks": 160,
          "midi": 31,
          "name": "G1",
          "ticks": 3648,
          "time": 8.142849,
          "velocity": 0.8661417322834646
        },
        {
          "duration": 0.7499992500000001,
          "durationTicks": 336,
          "midi": 35,
          "name": "B1",
          "ticks": 3840,
          "time": 8.57142,
          "velocity": 0.8661417322834646
        },
        {
          "duration": 2.0357122499999996,
          "durationTicks": 912,
          "midi": 38,
          "name": "D2",
          "ticks": 4224,
          "time": 9.428562000000001,
          "velocity": 0.8661417322834646
        },
        {
          "duration": 0.35714250000000014,
          "durationTicks": 160,
          "midi": 31,
          "name": "G1",
          "ticks": 5184,
          "time": 11.571417,
          "velocity": 0.8661417322834646
        },
        {
          "duration": 0.7499992499999983,
          "durationTicks": 336,
          "midi": 35,
          "name": "B1",
          "ticks": 5376,
          "time": 11.999988000000002,
          "velocity": 0.8661417322834646
        },
        {
          "duration": 2.0357122499999996,
          "durationTicks": 912,
          "midi": 38,
          "name": "D2",
          "ticks": 5760,
          "time": 12.857130000000002,
          "velocity": 0.8661417322834646
        },
        {
          "duration": 0.3571425000000019,
          "durationTicks": 160,
          "midi": 31,
          "name": "G1",
          "ticks": 6720,
          "time": 14.999985,
          "velocity": 0.8661417322834646
        },
        {
          "duration": 0.7499992500000019,
          "durationTicks": 336,
          "midi": 35,
          "name": "B1",
          "ticks": 6912,
          "time": 15.428556,
          "velocity": 0.8661417322834646
        },
        {
          "duration": 2.035712250000003,
          "durationTicks": 912,
          "midi": 38,
          "name": "D2",
          "ticks": 7296,
          "time": 16.285698,
          "velocity": 0.8661417322834646
        },
        {
          "duration": 0.3571425000000019,
          "durationTicks": 160,
          "midi": 31,
          "name": "G1",
          "ticks": 8256,
          "time": 18.428553,
          "velocity": 0.8661417322834646
        },
        {
          "duration": 0.7499992499999983,
          "durationTicks": 336,
          "midi": 35,
          "name": "B1",
          "ticks": 8448,
          "time": 18.857124000000002,
          "velocity": 0.8661417322834646
        },
        {
          "duration": 2.0357122499999996,
          "durationTicks": 912,
          "midi": 38,
          "name": "D2",
          "ticks": 8832,
          "time": 19.714266000000002,
          "velocity": 0.8661417322834646
        },
        {
          "duration": 0.35714249999999836,
          "durationTicks": 160,
          "midi": 31,
          "name": "G1",
          "ticks": 9792,
          "time": 21.857121000000003,
          "velocity": 0.8661417322834646
        },
        {
          "duration": 1.17857025,
          "durationTicks": 528,
          "midi": 31,
          "name": "G1",
          "ticks": 9984,
          "time": 22.285692,
          "velocity": 0.8661417322834646
        },
        {
          "duration": 0.3571425000000019,
          "durationTicks": 160,
          "midi": 31,
          "name": "G1",
          "ticks": 10560,
          "time": 23.571405000000002,
          "velocity": 0.8661417322834646
        },
        {
          "duration": 1.17857025,
          "durationTicks": 528,
          "midi": 31,
          "name": "G1",
          "ticks": 10752,
          "time": 23.999976000000004,
          "velocity": 0.8661417322834646
        },
        {
          "duration": 0.3571425000000019,
          "durationTicks": 160,
          "midi": 31,
          "name": "G1",
          "ticks": 11328,
          "time": 25.285689,
          "velocity": 0.8661417322834646
        },
        {
          "duration": 1.17857025,
          "durationTicks": 528,
          "midi": 31,
          "name": "G1",
          "ticks": 11520,
          "time": 25.714260000000003,
          "velocity": 0.8661417322834646
        },
        {
          "duration": 0.3571425000000019,
          "durationTicks": 160,
          "midi": 31,
          "name": "G1",
          "ticks": 12096,
          "time": 26.999973,
          "velocity": 0.8661417322834646
        },
        {
          "duration": 1.17857025,
          "durationTicks": 528,
          "midi": 31,
          "name": "G1",
          "ticks": 12288,
          "time": 27.428544000000002,
          "velocity": 0.8661417322834646
        },
        {
          "duration": 0.35714249999999836,
          "durationTicks": 160,
          "midi": 31,
          "name": "G1",
          "ticks": 12864,
          "time": 28.714257000000003,
          "velocity": 0.8661417322834646
        },
        {
          "duration": 1.17857025,
          "durationTicks": 528,
          "midi": 31,
          "name": "G1",
          "ticks": 13056,
          "time": 29.142828,
          "velocity": 0.8661417322834646
        },
        {
          "duration": 0.35714249999999836,
          "durationTicks": 160,
          "midi": 31,
          "name": "G1",
          "ticks": 13632,
          "time": 30.428541000000003,
          "velocity": 0.8661417322834646
        },
        {
          "duration": 1.17857025,
          "durationTicks": 528,
          "midi": 31,
          "name": "G1",
          "ticks": 13824,
          "time": 30.857112,
          "velocity": 0.8661417322834646
        },
        {
          "duration": 0.3571425000000019,
          "durationTicks": 160,
          "midi": 31,
          "name": "G1",
          "ticks": 14400,
          "time": 32.142825,
          "velocity": 0.8661417322834646
        },
        {
          "duration": 1.17857025,
          "durationTicks": 528,
          "midi": 31,
          "name": "G1",
          "ticks": 14592,
          "time": 32.571396,
          "velocity": 0.8661417322834646
        },
        {
          "duration": 0.3571425000000019,
          "durationTicks": 160,
          "midi": 31,
          "name": "G1",
          "ticks": 15168,
          "time": 33.857109,
          "velocity": 0.8661417322834646
        },
        {
          "duration": 1.178570250000007,
          "durationTicks": 528,
          "midi": 31,
          "name": "G1",
          "ticks": 15360,
          "time": 34.28568,
          "velocity": 0.8661417322834646
        },
        {
          "duration": 0.3571425000000019,
          "durationTicks": 160,
          "midi": 31,
          "name": "G1",
          "ticks": 15936,
          "time": 35.571393,
          "velocity": 0.8661417322834646
        },
        {
          "duration": 0.7499992499999948,
          "durationTicks": 336,
          "midi": 35,
          "name": "B1",
          "ticks": 16128,
          "time": 35.999964000000006,
          "velocity": 0.8661417322834646
        },
        {
          "duration": 2.035712250000003,
          "durationTicks": 912,
          "midi": 38,
          "name": "D2",
          "ticks": 16512,
          "time": 36.857106,
          "velocity": 0.8661417322834646
        },
        {
          "duration": 0.3571424999999948,
          "durationTicks": 160,
          "midi": 31,
          "name": "G1",
          "ticks": 17472,
          "time": 38.999961000000006,
          "velocity": 0.8661417322834646
        },
        {
          "duration": 0.7499992500000019,
          "durationTicks": 336,
          "midi": 35,
          "name": "B1",
          "ticks": 17664,
          "time": 39.428532000000004,
          "velocity": 0.8661417322834646
        },
        {
          "duration": 2.035712250000003,
          "durationTicks": 912,
          "midi": 38,
          "name": "D2",
          "ticks": 18048,
          "time": 40.285674,
          "velocity": 0.8661417322834646
        },
        {
          "duration": 0.3571424999999948,
          "durationTicks": 160,
          "midi": 31,
          "name": "G1",
          "ticks": 19008,
          "time": 42.428529000000005,
          "velocity": 0.8661417322834646
        },
        {
          "duration": 0.7499992500000019,
          "durationTicks": 336,
          "midi": 35,
          "name": "B1",
          "ticks": 19200,
          "time": 42.8571,
          "velocity": 0.8661417322834646
        },
        {
          "duration": 2.035712249999996,
          "durationTicks": 912,
          "midi": 38,
          "name": "D2",
          "ticks": 19584,
          "time": 43.714242000000006,
          "velocity": 0.8661417322834646
        },
        {
          "duration": 0.3571425000000019,
          "durationTicks": 160,
          "midi": 31,
          "name": "G1",
          "ticks": 20544,
          "time": 45.857097,
          "velocity": 0.8661417322834646
        },
        {
          "duration": 0.7499992500000019,
          "durationTicks": 336,
          "midi": 35,
          "name": "B1",
          "ticks": 20736,
          "time": 46.285668,
          "velocity": 0.8661417322834646
        },
        {
          "duration": 2.035712250000003,
          "durationTicks": 912,
          "midi": 38,
          "name": "D2",
          "ticks": 21120,
          "time": 47.142810000000004,
          "velocity": 0.8661417322834646
        },
        {
          "duration": 0.3571425000000019,
          "durationTicks": 160,
          "midi": 31,
          "name": "G1",
          "ticks": 22080,
          "time": 49.285665,
          "velocity": 0.8661417322834646
        },
        {
          "duration": 0.7499992499999948,
          "durationTicks": 336,
          "midi": 35,
          "name": "B1",
          "ticks": 22272,
          "time": 49.71423600000001,
          "velocity": 0.8661417322834646
        },
        {
          "duration": 2.035712250000003,
          "durationTicks": 912,
          "midi": 38,
          "name": "D2",
          "ticks": 22656,
          "time": 50.571378,
          "velocity": 0.8661417322834646
        },
        {
          "duration": 0.3571424999999948,
          "durationTicks": 160,
          "midi": 31,
          "name": "G1",
          "ticks": 23616,
          "time": 52.71423300000001,
          "velocity": 0.8661417322834646
        },
        {
          "duration": 0.7499992500000019,
          "durationTicks": 336,
          "midi": 35,
          "name": "B1",
          "ticks": 23808,
          "time": 53.142804000000005,
          "velocity": 0.8661417322834646
        },
        {
          "duration": 2.035712250000003,
          "durationTicks": 912,
          "midi": 38,
          "name": "D2",
          "ticks": 24192,
          "time": 53.999946,
          "velocity": 0.8661417322834646
        },
        {
          "duration": 0.3571425000000019,
          "durationTicks": 160,
          "midi": 31,
          "name": "G1",
          "ticks": 25152,
          "time": 56.142801000000006,
          "velocity": 0.8661417322834646
        },
        {
          "duration": 0.7499992500000019,
          "durationTicks": 336,
          "midi": 35,
          "name": "B1",
          "ticks": 25344,
          "time": 56.571372000000004,
          "velocity": 0.8661417322834646
        },
        {
          "duration": 2.035712249999996,
          "durationTicks": 912,
          "midi": 38,
          "name": "D2",
          "ticks": 25728,
          "time": 57.42851400000001,
          "velocity": 0.8661417322834646
        },
        {
          "duration": 0.3571425000000019,
          "durationTicks": 160,
          "midi": 31,
          "name": "G1",
          "ticks": 26688,
          "time": 59.571369000000004,
          "velocity": 0.8661417322834646
        },
        {
          "duration": 0.7499992500000019,
          "durationTicks": 336,
          "midi": 35,
          "name": "B1",
          "ticks": 26880,
          "time": 59.99994,
          "velocity": 0.8661417322834646
        },
        {
          "duration": 2.035712250000003,
          "durationTicks": 912,
          "midi": 38,
          "name": "D2",
          "ticks": 27264,
          "time": 60.857082000000005,
          "velocity": 0.8661417322834646
        },
        {
          "duration": 0.357142500000009,
          "durationTicks": 160,
          "midi": 31,
          "name": "G1",
          "ticks": 28224,
          "time": 62.999937,
          "velocity": 0.8661417322834646
        },
        {
          "duration": 1.1785702499999928,
          "durationTicks": 528,
          "midi": 31,
          "name": "G1",
          "ticks": 28416,
          "time": 63.42850800000001,
          "velocity": 0.8661417322834646
        },
        {
          "duration": 0.3571424999999948,
          "durationTicks": 160,
          "midi": 31,
          "name": "G1",
          "ticks": 28992,
          "time": 64.71422100000001,
          "velocity": 0.8661417322834646
        },
        {
          "duration": 1.178570250000007,
          "durationTicks": 528,
          "midi": 31,
          "name": "G1",
          "ticks": 29184,
          "time": 65.142792,
          "velocity": 0.8661417322834646
        },
        {
          "duration": 0.357142500000009,
          "durationTicks": 160,
          "midi": 31,
          "name": "G1",
          "ticks": 29760,
          "time": 66.428505,
          "velocity": 0.8661417322834646
        },
        {
          "duration": 1.1785702499999928,
          "durationTicks": 528,
          "midi": 31,
          "name": "G1",
          "ticks": 29952,
          "time": 66.857076,
          "velocity": 0.8661417322834646
        },
        {
          "duration": 0.357142500000009,
          "durationTicks": 160,
          "midi": 31,
          "name": "G1",
          "ticks": 30528,
          "time": 68.14278900000001,
          "velocity": 0.8661417322834646
        },
        {
          "duration": 1.178570250000007,
          "durationTicks": 528,
          "midi": 31,
          "name": "G1",
          "ticks": 30720,
          "time": 68.57136,
          "velocity": 0.8661417322834646
        },
        {
          "duration": 0.357142500000009,
          "durationTicks": 160,
          "midi": 31,
          "name": "G1",
          "ticks": 31296,
          "time": 69.857073,
          "velocity": 0.8661417322834646
        },
        {
          "duration": 1.178570250000007,
          "durationTicks": 528,
          "midi": 31,
          "name": "G1",
          "ticks": 31488,
          "time": 70.285644,
          "velocity": 0.8661417322834646
        },
        {
          "duration": 0.357142500000009,
          "durationTicks": 160,
          "midi": 31,
          "name": "G1",
          "ticks": 32064,
          "time": 71.571357,
          "velocity": 0.8661417322834646
        },
        {
          "duration": 1.1785702499999928,
          "durationTicks": 528,
          "midi": 31,
          "name": "G1",
          "ticks": 32256,
          "time": 71.99992800000001,
          "velocity": 0.8661417322834646
        },
        {
          "duration": 0.3571424999999948,
          "durationTicks": 160,
          "midi": 31,
          "name": "G1",
          "ticks": 32832,
          "time": 73.28564100000001,
          "velocity": 0.8661417322834646
        },
        {
          "duration": 1.178570250000007,
          "durationTicks": 528,
          "midi": 31,
          "name": "G1",
          "ticks": 33024,
          "time": 73.714212,
          "velocity": 0.8661417322834646
        },
        {
          "duration": 0.357142500000009,
          "durationTicks": 160,
          "midi": 31,
          "name": "G1",
          "ticks": 33600,
          "time": 74.999925,
          "velocity": 0.8661417322834646
        },
        {
          "duration": 1.1785702499999928,
          "durationTicks": 528,
          "midi": 31,
          "name": "G1",
          "ticks": 33792,
          "time": 75.42849600000001,
          "velocity": 0.8661417322834646
        },
        {
          "duration": 0.3571424999999948,
          "durationTicks": 160,
          "midi": 31,
          "name": "G1",
          "ticks": 34368,
          "time": 76.71420900000001,
          "velocity": 0.8661417322834646
        },
        {
          "duration": 0.7499992500000019,
          "durationTicks": 336,
          "midi": 35,
          "name": "B1",
          "ticks": 34560,
          "time": 77.14278,
          "velocity": 0.8661417322834646
        },
        {
          "duration": 2.035712249999989,
          "durationTicks": 912,
          "midi": 38,
          "name": "D2",
          "ticks": 34944,
          "time": 77.99992200000001,
          "velocity": 0.8661417322834646
        },
        {
          "duration": 0.3571424999999948,
          "durationTicks": 160,
          "midi": 31,
          "name": "G1",
          "ticks": 35904,
          "time": 80.14277700000001,
          "velocity": 0.8661417322834646
        },
        {
          "duration": 0.7499992500000019,
          "durationTicks": 336,
          "midi": 35,
          "name": "B1",
          "ticks": 36096,
          "time": 80.571348,
          "velocity": 0.8661417322834646
        },
        {
          "duration": 2.035712250000003,
          "durationTicks": 912,
          "midi": 38,
          "name": "D2",
          "ticks": 36480,
          "time": 81.42849000000001,
          "velocity": 0.8661417322834646
        },
        {
          "duration": 0.357142500000009,
          "durationTicks": 160,
          "midi": 31,
          "name": "G1",
          "ticks": 37440,
          "time": 83.57134500000001,
          "velocity": 0.8661417322834646
        },
        {
          "duration": 1.607141249999998,
          "durationTicks": 720,
          "midi": 35,
          "name": "B1",
          "ticks": 37632,
          "time": 83.99991600000001,
          "velocity": 0.8661417322834646
        }
      ]
    },
    {
      "channel": 3,
      "controlChanges": {
        "7": [
          {
            "number": 7,
            "ticks": 0,
            "time": 0,
            "value": 0.5826771653543307
          }
        ],
        "10": [
          {
            "number": 10,
            "ticks": 0,
            "time": 0,
            "value": 0.4251968503937008
          }
        ]
      },
      "pitchBends": [],
      "instrument": {
        "family": "strings",
        "name": "tremolo strings",
        "number": 44
      },
      "name": "",
      "notes": [
        {
          "duration": 0.35714249999999925,
          "durationTicks": 160,
          "midi": 55,
          "name": "G3",
          "ticks": 3072,
          "time": 6.857136000000001,
          "velocity": 0.8661417322834646
        },
        {
          "duration": 0.35714250000000014,
          "durationTicks": 160,
          "midi": 62,
          "name": "D4",
          "ticks": 3264,
          "time": 7.285707,
          "velocity": 0.8661417322834646
        },
        {
          "duration": 0.35714250000000014,
          "durationTicks": 160,
          "midi": 66,
          "name": "F#4",
          "ticks": 3456,
          "time": 7.714278,
          "velocity": 0.8661417322834646
        },
        {
          "duration": 0.35714250000000014,
          "durationTicks": 160,
          "midi": 62,
          "name": "D4",
          "ticks": 3648,
          "time": 8.142849,
          "velocity": 0.8661417322834646
        },
        {
          "duration": 0.3571425000000019,
          "durationTicks": 160,
          "midi": 55,
          "name": "G3",
          "ticks": 9216,
          "time": 20.571408,
          "velocity": 0.8661417322834646
        },
        {
          "duration": 0.35714249999999836,
          "durationTicks": 160,
          "midi": 62,
          "name": "D4",
          "ticks": 9408,
          "time": 20.999979000000003,
          "velocity": 0.8661417322834646
        },
        {
          "duration": 0.3571425000000019,
          "durationTicks": 160,
          "midi": 66,
          "name": "F#4",
          "ticks": 9600,
          "time": 21.42855,
          "velocity": 0.8661417322834646
        },
        {
          "duration": 0.35714249999999836,
          "durationTicks": 160,
          "midi": 62,
          "name": "D4",
          "ticks": 9792,
          "time": 21.857121000000003,
          "velocity": 0.8661417322834646
        },
        {
          "duration": 0.3571424999999948,
          "durationTicks": 160,
          "midi": 55,
          "name": "G3",
          "ticks": 21504,
          "time": 47.99995200000001,
          "velocity": 0.8661417322834646
        },
        {
          "duration": 0.3571424999999948,
          "durationTicks": 160,
          "midi": 62,
          "name": "D4",
          "ticks": 21696,
          "time": 48.428523000000006,
          "velocity": 0.8661417322834646
        },
        {
          "duration": 0.3571425000000019,
          "durationTicks": 160,
          "midi": 66,
          "name": "F#4",
          "ticks": 21888,
          "time": 48.857094000000004,
          "velocity": 0.8661417322834646
        },
        {
          "duration": 0.3571425000000019,
          "durationTicks": 160,
          "midi": 62,
          "name": "D4",
          "ticks": 22080,
          "time": 49.285665,
          "velocity": 0.8661417322834646
        },
        {
          "duration": 0.357142500000009,
          "durationTicks": 160,
          "midi": 55,
          "name": "G3",
          "ticks": 27648,
          "time": 61.714224,
          "velocity": 0.8661417322834646
        },
        {
          "duration": 0.3571425000000019,
          "durationTicks": 160,
          "midi": 62,
          "name": "D4",
          "ticks": 27840,
          "time": 62.14279500000001,
          "velocity": 0.8661417322834646
        },
        {
          "duration": 0.3571425000000019,
          "durationTicks": 160,
          "midi": 66,
          "name": "F#4",
          "ticks": 28032,
          "time": 62.571366000000005,
          "velocity": 0.8661417322834646
        },
        {
          "duration": 0.357142500000009,
          "durationTicks": 160,
          "midi": 62,
          "name": "D4",
          "ticks": 28224,
          "time": 62.999937,
          "velocity": 0.8661417322834646
        }
      ]
    }
  ]
}
