{
  "header": {
    "keySignatures": [],
    "meta": [
      {
        "text": "Generated by NoteWorthy Composer",
        "ticks": 0,
        "type": "text"
      }
    ],
    "name": "QsV - Among Friends",
    "ppq": 192,
    "tempos": [
      {
        "bpm": 120,
        "ticks": 0
      }
    ],
    "timeSignatures": [
      {
        "ticks": 0,
        "timeSignature": [
          4,
          4
        ],
        "measures": 0
      }
    ]
  },
  "tracks": [
    {
      "channel": 0,
      "controlChanges": {
        "7": [
          {
            "number": 7,
            "ticks": 0,
            "time": 0,
            "value": 0.8976377952755905
          },
          {
            "number": 7,
            "ticks": 0,
            "time": 0,
            "value": 0.8976377952755905
          }
        ],
        "10": [
          {
            "number": 10,
            "ticks": 0,
            "time": 0,
            "value": 0.3464566929133858
          },
          {
            "number": 10,
            "ticks": 0,
            "time": 0,
            "value": 0.3464566929133858
          }
        ]
      },
      "pitchBends": [],
      "instrument": {
        "family": "pipe",
        "name": "recorder",
        "number": 74
      },
      "name": "QsV - Among Friends",
      "notes": [
        {
          "duration": 0.24479166666666674,
          "durationTicks": 94,
          "midi": 66,
          "name": "F#4",
          "ticks": 384,
          "time": 1,
          "velocity": 0.8661417322834646
        },
        {
          "duration": 0.24479166666666674,
          "durationTicks": 94,
          "midi": 70,
          "name": "A#4",
          "ticks": 480,
          "time": 1.25,
          "velocity": 0.8661417322834646
        },
        {
          "duration": 0.24479166666666674,
          "durationTicks": 94,
          "midi": 73,
          "name": "C#5",
          "ticks": 576,
          "time": 1.5,
          "velocity": 0.8661417322834646
        },
        {
          "duration": 0.24479166666666674,
          "durationTicks": 94,
          "midi": 75,
          "name": "D#5",
          "ticks": 672,
          "time": 1.75,
          "velocity": 0.8661417322834646
        },
        {
          "duration": 0.875,
          "durationTicks": 336,
          "midi": 78,
          "name": "F#5",
          "ticks": 768,
          "time": 2,
          "velocity": 0.8661417322834646
        },
        {
          "duration": 0.4166666666666665,
          "durationTicks": 160,
          "midi": 80,
          "name": "G#5",
          "ticks": 1152,
          "time": 3,
          "velocity": 0.8661417322834646
        },
        {
          "duration": 0.24479166666666652,
          "durationTicks": 94,
          "midi": 82,
          "name": "A#5",
          "ticks": 1344,
          "time": 3.5,
          "velocity": 0.8661417322834646
        },
        {
          "duration": 0.24479166666666652,
          "durationTicks": 94,
          "midi": 80,
          "name": "G#5",
          "ticks": 1440,
          "time": 3.75,
          "velocity": 0.8661417322834646
        },
        {
          "duration": 0.875,
          "durationTicks": 336,
          "midi": 76,
          "name": "E5",
          "ticks": 1536,
          "time": 4,
          "velocity": 0.8661417322834646
        },
        {
          "duration": 0.41666666666666696,
          "durationTicks": 160,
          "midi": 78,
          "name": "F#5",
          "ticks": 1920,
          "time": 5,
          "velocity": 0.8661417322834646
        },
        {
          "duration": 0.24479166666666696,
          "durationTicks": 94,
          "midi": 75,
          "name": "D#5",
          "ticks": 2112,
          "time": 5.5,
          "velocity": 0.8661417322834646
        },
        {
          "duration": 0.24479166666666696,
          "durationTicks": 94,
          "midi": 73,
          "name": "C#5",
          "ticks": 2208,
          "time": 5.75,
          "velocity": 0.8661417322834646
        },
        {
          "duration": 0.666666666666667,
          "durationTicks": 256,
          "midi": 73,
          "name": "C#5",
          "ticks": 2304,
          "time": 6,
          "velocity": 0.8661417322834646
        },
        {
          "duration": 0.11979166666666696,
          "durationTicks": 46,
          "midi": 75,
          "name": "D#5",
          "ticks": 2592,
          "time": 6.75,
          "velocity": 0.8661417322834646
        },
        {
          "duration": 0.11979166666666696,
          "durationTicks": 46,
          "midi": 73,
          "name": "C#5",
          "ticks": 2640,
          "time": 6.875,
          "velocity": 0.8661417322834646
        },
        {
          "duration": 0.875,
          "durationTicks": 336,
          "midi": 71,
          "name": "B4",
          "ticks": 2688,
          "time": 7,
          "velocity": 0.8661417322834646
        },
        {
          "duration": 0.6666666666666661,
          "durationTicks": 256,
          "midi": 71,
          "name": "B4",
          "ticks": 3072,
          "time": 8,
          "velocity": 0.8661417322834646
        },
        {
          "duration": 0.11979166666666607,
          "durationTicks": 46,
          "midi": 68,
          "name": "G#4",
          "ticks": 3360,
          "time": 8.75,
          "velocity": 0.8661417322834646
        },
        {
          "duration": 0.11979166666666607,
          "durationTicks": 46,
          "midi": 71,
          "name": "B4",
          "ticks": 3408,
          "time": 8.875,
          "velocity": 0.8661417322834646
        },
        {
          "duration": 0.4166666666666661,
          "durationTicks": 160,
          "midi": 73,
          "name": "C#5",
          "ticks": 3456,
          "time": 9,
          "velocity": 0.8661417322834646
        },
        {
          "duration": 0.4166666666666661,
          "durationTicks": 160,
          "midi": 70,
          "name": "A#4",
          "ticks": 3648,
          "time": 9.5,
          "velocity": 0.8661417322834646
        },
        {
          "duration": 0.24479166666666607,
          "durationTicks": 94,
          "midi": 71,
          "name": "B4",
          "ticks": 3840,
          "time": 10,
          "velocity": 0.8661417322834646
        },
        {
          "duration": 0.24479166666666607,
          "durationTicks": 94,
          "midi": 73,
          "name": "C#5",
          "ticks": 3936,
          "time": 10.25,
          "velocity": 0.8661417322834646
        },
        {
          "duration": 0.24479166666666607,
          "durationTicks": 94,
          "midi": 75,
          "name": "D#5",
          "ticks": 4032,
          "time": 10.5,
          "velocity": 0.8661417322834646
        },
        {
          "duration": 0.24479166666666607,
          "durationTicks": 94,
          "midi": 78,
          "name": "F#5",
          "ticks": 4128,
          "time": 10.75,
          "velocity": 0.8661417322834646
        },
        {
          "duration": 0.4166666666666661,
          "durationTicks": 160,
          "midi": 80,
          "name": "G#5",
          "ticks": 4224,
          "time": 11,
          "velocity": 0.8661417322834646
        },
        {
          "duration": 0.4166666666666661,
          "durationTicks": 160,
          "midi": 75,
          "name": "D#5",
          "ticks": 4416,
          "time": 11.5,
          "velocity": 0.8661417322834646
        },
        {
          "duration": 0.4166666666666661,
          "durationTicks": 160,
          "midi": 71,
          "name": "B4",
          "ticks": 4608,
          "time": 12,
          "velocity": 0.8661417322834646
        },
        {
          "duration": 0.24479166666666607,
          "durationTicks": 94,
          "midi": 73,
          "name": "C#5",
          "ticks": 4800,
          "time": 12.5,
          "velocity": 0.8661417322834646
        },
        {
          "duration": 0.24479166666666607,
          "durationTicks": 94,
          "midi": 68,
          "name": "G#4",
          "ticks": 4896,
          "time": 12.75,
          "velocity": 0.8661417322834646
        },
        {
          "duration": 0.4166666666666661,
          "durationTicks": 160,
          "midi": 75,
          "name": "D#5",
          "ticks": 4992,
          "time": 13,
          "velocity": 0.8661417322834646
        },
        {
          "duration": 0.4166666666666661,
          "durationTicks": 160,
          "midi": 73,
          "name": "C#5",
          "ticks": 5184,
          "time": 13.5,
          "velocity": 0.8661417322834646
        },
        {
          "duration": 0.6666666666666661,
          "durationTicks": 256,
          "midi": 71,
          "name": "B4",
          "ticks": 5376,
          "time": 14,
          "velocity": 0.8661417322834646
        },
        {
          "duration": 0.11979166666666607,
          "durationTicks": 46,
          "midi": 71,
          "name": "B4",
          "ticks": 5664,
          "time": 14.75,
          "velocity": 0.8661417322834646
        },
        {
          "duration": 0.11979166666666607,
          "durationTicks": 46,
          "midi": 73,
          "name": "C#5",
          "ticks": 5712,
          "time": 14.875,
          "velocity": 0.8661417322834646
        },
        {
          "duration": 0.4166666666666661,
          "durationTicks": 160,
          "midi": 75,
          "name": "D#5",
          "ticks": 5760,
          "time": 15,
          "velocity": 0.8661417322834646
        },
        {
          "duration": 0.4166666666666661,
          "durationTicks": 160,
          "midi": 71,
          "name": "B4",
          "ticks": 5952,
          "time": 15.5,
          "velocity": 0.8661417322834646
        },
        {
          "duration": 0.41666666666666785,
          "durationTicks": 160,
          "midi": 71,
          "name": "B4",
          "ticks": 6144,
          "time": 16,
          "velocity": 0.8661417322834646
        },
        {
          "duration": 0.24479166666666785,
          "durationTicks": 94,
          "midi": 73,
          "name": "C#5",
          "ticks": 6336,
          "time": 16.5,
          "velocity": 0.8661417322834646
        },
        {
          "duration": 0.24479166666666785,
          "durationTicks": 94,
          "midi": 68,
          "name": "G#4",
          "ticks": 6432,
          "time": 16.75,
          "velocity": 0.8661417322834646
        },
        {
          "duration": 0.41666666666666785,
          "durationTicks": 160,
          "midi": 75,
          "name": "D#5",
          "ticks": 6528,
          "time": 17,
          "velocity": 0.8661417322834646
        },
        {
          "duration": 0.41666666666666785,
          "durationTicks": 160,
          "midi": 70,
          "name": "A#4",
          "ticks": 6720,
          "time": 17.5,
          "velocity": 0.8661417322834646
        },
        {
          "duration": 0.875,
          "durationTicks": 336,
          "midi": 71,
          "name": "B4",
          "ticks": 6912,
          "time": 18,
          "velocity": 0.8661417322834646
        },
        {
          "duration": 0.41666666666666785,
          "durationTicks": 160,
          "midi": 68,
          "name": "G#4",
          "ticks": 7296,
          "time": 19,
          "velocity": 0.8661417322834646
        },
        {
          "duration": 0.41666666666666785,
          "durationTicks": 160,
          "midi": 71,
          "name": "B4",
          "ticks": 7488,
          "time": 19.5,
          "velocity": 0.8661417322834646
        },
        {
          "duration": 0.875,
          "durationTicks": 336,
          "midi": 71,
          "name": "B4",
          "ticks": 7680,
          "time": 20,
          "velocity": 0.8661417322834646
        },
        {
          "duration": 0.41666666666666785,
          "durationTicks": 160,
          "midi": 66,
          "name": "F#4",
          "ticks": 8064,
          "time": 21,
          "velocity": 0.8661417322834646
        },
        {
          "duration": 0.41666666666666785,
          "durationTicks": 160,
          "midi": 70,
          "name": "A#4",
          "ticks": 8256,
          "time": 21.5,
          "velocity": 0.8661417322834646
        },
        {
          "duration": 0.875,
          "durationTicks": 336,
          "midi": 71,
          "name": "B4",
          "ticks": 8448,
          "time": 22,
          "velocity": 0.8661417322834646
        },
        {
          "duration": 0.41666666666666785,
          "durationTicks": 160,
          "midi": 68,
          "name": "G#4",
          "ticks": 8832,
          "time": 23,
          "velocity": 0.8661417322834646
        },
        {
          "duration": 0.41666666666666785,
          "durationTicks": 160,
          "midi": 71,
          "name": "B4",
          "ticks": 9024,
          "time": 23.5,
          "velocity": 0.8661417322834646
        },
        {
          "duration": 0.875,
          "durationTicks": 336,
          "midi": 71,
          "name": "B4",
          "ticks": 9216,
          "time": 24,
          "velocity": 0.8661417322834646
        },
        {
          "duration": 0.41666666666666785,
          "durationTicks": 160,
          "midi": 66,
          "name": "F#4",
          "ticks": 9600,
          "time": 25,
          "velocity": 0.8661417322834646
        },
        {
          "duration": 0.41666666666666785,
          "durationTicks": 160,
          "midi": 70,
          "name": "A#4",
          "ticks": 9792,
          "time": 25.5,
          "velocity": 0.8661417322834646
        },
        {
          "duration": 0.875,
          "durationTicks": 336,
          "midi": 71,
          "name": "B4",
          "ticks": 9984,
          "time": 26,
          "velocity": 0.8661417322834646
        },
        {
          "duration": 0.41666666666666785,
          "durationTicks": 160,
          "midi": 68,
          "name": "G#4",
          "ticks": 10368,
          "time": 27,
          "velocity": 0.8661417322834646
        },
        {
          "duration": 0.41666666666666785,
          "durationTicks": 160,
          "midi": 71,
          "name": "B4",
          "ticks": 10560,
          "time": 27.5,
          "velocity": 0.8661417322834646
        },
        {
          "duration": 0.875,
          "durationTicks": 336,
          "midi": 71,
          "name": "B4",
          "ticks": 10752,
          "time": 28,
          "velocity": 0.8661417322834646
        },
        {
          "duration": 0.41666666666666785,
          "durationTicks": 160,
          "midi": 66,
          "name": "F#4",
          "ticks": 11136,
          "time": 29,
          "velocity": 0.8661417322834646
        },
        {
          "duration": 0.41666666666666785,
          "durationTicks": 160,
          "midi": 70,
          "name": "A#4",
          "ticks": 11328,
          "time": 29.5,
          "velocity": 0.8661417322834646
        },
        {
          "duration": 0.875,
          "durationTicks": 336,
          "midi": 71,
          "name": "B4",
          "ticks": 11520,
          "time": 30,
          "velocity": 0.8661417322834646
        },
        {
          "duration": 0.41666666666666785,
          "durationTicks": 160,
          "midi": 68,
          "name": "G#4",
          "ticks": 11904,
          "time": 31,
          "velocity": 0.8661417322834646
        },
        {
          "duration": 0.41666666666666785,
          "durationTicks": 160,
          "midi": 71,
          "name": "B4",
          "ticks": 12096,
          "time": 31.5,
          "velocity": 0.8661417322834646
        },
        {
          "duration": 0.875,
          "durationTicks": 336,
          "midi": 71,
          "name": "B4",
          "ticks": 12288,
          "time": 32,
          "velocity": 0.8661417322834646
        },
        {
          "duration": 0.2447916666666643,
          "durationTicks": 94,
          "midi": 66,
          "name": "F#4",
          "ticks": 12672,
          "time": 33,
          "velocity": 0.8661417322834646
        },
        {
          "duration": 0.2447916666666643,
          "durationTicks": 94,
          "midi": 70,
          "name": "A#4",
          "ticks": 12768,
          "time": 33.25,
          "velocity": 0.8661417322834646
        },
        {
          "duration": 0.2447916666666643,
          "durationTicks": 94,
          "midi": 73,
          "name": "C#5",
          "ticks": 12864,
          "time": 33.5,
          "velocity": 0.8661417322834646
        },
        {
          "duration": 0.2447916666666643,
          "durationTicks": 94,
          "midi": 75,
          "name": "D#5",
          "ticks": 12960,
          "time": 33.75,
          "velocity": 0.8661417322834646
        },
        {
          "duration": 0.875,
          "durationTicks": 336,
          "midi": 78,
          "name": "F#5",
          "ticks": 13056,
          "time": 34,
          "velocity": 0.8661417322834646
        },
        {
          "duration": 0.4166666666666643,
          "durationTicks": 160,
          "midi": 80,
          "name": "G#5",
          "ticks": 13440,
          "time": 35,
          "velocity": 0.8661417322834646
        },
        {
          "duration": 0.2447916666666643,
          "durationTicks": 94,
          "midi": 82,
          "name": "A#5",
          "ticks": 13632,
          "time": 35.5,
          "velocity": 0.8661417322834646
        },
        {
          "duration": 0.2447916666666643,
          "durationTicks": 94,
          "midi": 80,
          "name": "G#5",
          "ticks": 13728,
          "time": 35.75,
          "velocity": 0.8661417322834646
        },
        {
          "duration": 0.875,
          "durationTicks": 336,
          "midi": 76,
          "name": "E5",
          "ticks": 13824,
          "time": 36,
          "velocity": 0.8661417322834646
        },
        {
          "duration": 0.4166666666666643,
          "durationTicks": 160,
          "midi": 78,
          "name": "F#5",
          "ticks": 14208,
          "time": 37,
          "velocity": 0.8661417322834646
        },
        {
          "duration": 0.2447916666666643,
          "durationTicks": 94,
          "midi": 75,
          "name": "D#5",
          "ticks": 14400,
          "time": 37.5,
          "velocity": 0.8661417322834646
        },
        {
          "duration": 0.2447916666666643,
          "durationTicks": 94,
          "midi": 73,
          "name": "C#5",
          "ticks": 14496,
          "time": 37.75,
          "velocity": 0.8661417322834646
        },
        {
          "duration": 0.6666666666666643,
          "durationTicks": 256,
          "midi": 73,
          "name": "C#5",
          "ticks": 14592,
          "time": 38,
          "velocity": 0.8661417322834646
        },
        {
          "duration": 0.1197916666666643,
          "durationTicks": 46,
          "midi": 75,
          "name": "D#5",
          "ticks": 14880,
          "time": 38.75,
          "velocity": 0.8661417322834646
        },
        {
          "duration": 0.1197916666666643,
          "durationTicks": 46,
          "midi": 73,
          "name": "C#5",
          "ticks": 14928,
          "time": 38.875,
          "velocity": 0.8661417322834646
        },
        {
          "duration": 0.875,
          "durationTicks": 336,
          "midi": 71,
          "name": "B4",
          "ticks": 14976,
          "time": 39,
          "velocity": 0.8661417322834646
        },
        {
          "duration": 0.6666666666666643,
          "durationTicks": 256,
          "midi": 71,
          "name": "B4",
          "ticks": 15360,
          "time": 40,
          "velocity": 0.8661417322834646
        },
        {
          "duration": 0.1197916666666643,
          "durationTicks": 46,
          "midi": 68,
          "name": "G#4",
          "ticks": 15648,
          "time": 40.75,
          "velocity": 0.8661417322834646
        },
        {
          "duration": 0.1197916666666643,
          "durationTicks": 46,
          "midi": 71,
          "name": "B4",
          "ticks": 15696,
          "time": 40.875,
          "velocity": 0.8661417322834646
        },
        {
          "duration": 0.4166666666666643,
          "durationTicks": 160,
          "midi": 73,
          "name": "C#5",
          "ticks": 15744,
          "time": 41,
          "velocity": 0.8661417322834646
        },
        {
          "duration": 0.4166666666666643,
          "durationTicks": 160,
          "midi": 70,
          "name": "A#4",
          "ticks": 15936,
          "time": 41.5,
          "velocity": 0.8661417322834646
        },
        {
          "duration": 0.2447916666666643,
          "durationTicks": 94,
          "midi": 71,
          "name": "B4",
          "ticks": 16128,
          "time": 42,
          "velocity": 0.8661417322834646
        },
        {
          "duration": 0.2447916666666643,
          "durationTicks": 94,
          "midi": 73,
          "name": "C#5",
          "ticks": 16224,
          "time": 42.25,
          "velocity": 0.8661417322834646
        },
        {
          "duration": 0.2447916666666643,
          "durationTicks": 94,
          "midi": 75,
          "name": "D#5",
          "ticks": 16320,
          "time": 42.5,
          "velocity": 0.8661417322834646
        },
        {
          "duration": 0.2447916666666643,
          "durationTicks": 94,
          "midi": 78,
          "name": "F#5",
          "ticks": 16416,
          "time": 42.75,
          "velocity": 0.8661417322834646
        },
        {
          "duration": 0.4166666666666643,
          "durationTicks": 160,
          "midi": 80,
          "name": "G#5",
          "ticks": 16512,
          "time": 43,
          "velocity": 0.8661417322834646
        },
        {
          "duration": 0.4166666666666643,
          "durationTicks": 160,
          "midi": 75,
          "name": "D#5",
          "ticks": 16704,
          "time": 43.5,
          "velocity": 0.8661417322834646
        },
        {
          "duration": 0.4166666666666643,
          "durationTicks": 160,
          "midi": 71,
          "name": "B4",
          "ticks": 16896,
          "time": 44,
          "velocity": 0.8661417322834646
        },
        {
          "duration": 0.2447916666666643,
          "durationTicks": 94,
          "midi": 73,
          "name": "C#5",
          "ticks": 17088,
          "time": 44.5,
          "velocity": 0.8661417322834646
        },
        {
          "duration": 0.2447916666666643,
          "durationTicks": 94,
          "midi": 68,
          "name": "G#4",
          "ticks": 17184,
          "time": 44.75,
          "velocity": 0.8661417322834646
        },
        {
          "duration": 0.4166666666666643,
          "durationTicks": 160,
          "midi": 75,
          "name": "D#5",
          "ticks": 17280,
          "time": 45,
          "velocity": 0.8661417322834646
        },
        {
          "duration": 0.4166666666666643,
          "durationTicks": 160,
          "midi": 73,
          "name": "C#5",
          "ticks": 17472,
          "time": 45.5,
          "velocity": 0.8661417322834646
        },
        {
          "duration": 0.6666666666666643,
          "durationTicks": 256,
          "midi": 71,
          "name": "B4",
          "ticks": 17664,
          "time": 46,
          "velocity": 0.8661417322834646
        },
        {
          "duration": 0.1197916666666643,
          "durationTicks": 46,
          "midi": 71,
          "name": "B4",
          "ticks": 17952,
          "time": 46.75,
          "velocity": 0.8661417322834646
        },
        {
          "duration": 0.1197916666666643,
          "durationTicks": 46,
          "midi": 73,
          "name": "C#5",
          "ticks": 18000,
          "time": 46.875,
          "velocity": 0.8661417322834646
        },
        {
          "duration": 0.4166666666666643,
          "durationTicks": 160,
          "midi": 75,
          "name": "D#5",
          "ticks": 18048,
          "time": 47,
          "velocity": 0.8661417322834646
        },
        {
          "duration": 0.4166666666666643,
          "durationTicks": 160,
          "midi": 71,
          "name": "B4",
          "ticks": 18240,
          "time": 47.5,
          "velocity": 0.8661417322834646
        },
        {
          "duration": 0.4166666666666643,
          "durationTicks": 160,
          "midi": 71,
          "name": "B4",
          "ticks": 18432,
          "time": 48,
          "velocity": 0.8661417322834646
        },
        {
          "duration": 0.2447916666666643,
          "durationTicks": 94,
          "midi": 73,
          "name": "C#5",
          "ticks": 18624,
          "time": 48.5,
          "velocity": 0.8661417322834646
        },
        {
          "duration": 0.2447916666666643,
          "durationTicks": 94,
          "midi": 68,
          "name": "G#4",
          "ticks": 18720,
          "time": 48.75,
          "velocity": 0.8661417322834646
        },
        {
          "duration": 0.4166666666666643,
          "durationTicks": 160,
          "midi": 75,
          "name": "D#5",
          "ticks": 18816,
          "time": 49,
          "velocity": 0.8661417322834646
        },
        {
          "duration": 0.4166666666666643,
          "durationTicks": 160,
          "midi": 70,
          "name": "A#4",
          "ticks": 19008,
          "time": 49.5,
          "velocity": 0.8661417322834646
        },
        {
          "duration": 0.2447916666666643,
          "durationTicks": 94,
          "midi": 73,
          "name": "C#5",
          "ticks": 19200,
          "time": 50,
          "velocity": 0.8661417322834646
        },
        {
          "duration": 0.2447916666666643,
          "durationTicks": 94,
          "midi": 75,
          "name": "D#5",
          "ticks": 19296,
          "time": 50.25,
          "velocity": 0.8661417322834646
        },
        {
          "duration": 0.2447916666666643,
          "durationTicks": 94,
          "midi": 73,
          "name": "C#5",
          "ticks": 19392,
          "time": 50.5,
          "velocity": 0.8661417322834646
        },
        {
          "duration": 0.2447916666666643,
          "durationTicks": 94,
          "midi": 71,
          "name": "B4",
          "ticks": 19488,
          "time": 50.75,
          "velocity": 0.8661417322834646
        },
        {
          "duration": 0.4166666666666643,
          "durationTicks": 160,
          "midi": 71,
          "name": "B4",
          "ticks": 19584,
          "time": 51,
          "velocity": 0.8661417322834646
        },
        {
          "duration": 0.4166666666666643,
          "durationTicks": 160,
          "midi": 68,
          "name": "G#4",
          "ticks": 19776,
          "time": 51.5,
          "velocity": 0.8661417322834646
        },
        {
          "duration": 0.2447916666666643,
          "durationTicks": 94,
          "midi": 64,
          "name": "E4",
          "ticks": 19968,
          "time": 52,
          "velocity": 0.8661417322834646
        },
        {
          "duration": 0.2447916666666643,
          "durationTicks": 94,
          "midi": 68,
          "name": "G#4",
          "ticks": 20064,
          "time": 52.25,
          "velocity": 0.8661417322834646
        },
        {
          "duration": 0.2447916666666643,
          "durationTicks": 94,
          "midi": 71,
          "name": "B4",
          "ticks": 20160,
          "time": 52.5,
          "velocity": 0.8661417322834646
        },
        {
          "duration": 0.2447916666666643,
          "durationTicks": 94,
          "midi": 73,
          "name": "C#5",
          "ticks": 20256,
          "time": 52.75,
          "velocity": 0.8661417322834646
        },
        {
          "duration": 0.2447916666666643,
          "durationTicks": 94,
          "midi": 66,
          "name": "F#4",
          "ticks": 20352,
          "time": 53,
          "velocity": 0.8661417322834646
        },
        {
          "duration": 0.2447916666666643,
          "durationTicks": 94,
          "midi": 70,
          "name": "A#4",
          "ticks": 20448,
          "time": 53.25,
          "velocity": 0.8661417322834646
        },
        {
          "duration": 0.2447916666666643,
          "durationTicks": 94,
          "midi": 73,
          "name": "C#5",
          "ticks": 20544,
          "time": 53.5,
          "velocity": 0.8661417322834646
        },
        {
          "duration": 0.2447916666666643,
          "durationTicks": 94,
          "midi": 75,
          "name": "D#5",
          "ticks": 20640,
          "time": 53.75,
          "velocity": 0.8661417322834646
        },
        {
          "duration": 0.2447916666666643,
          "durationTicks": 94,
          "midi": 73,
          "name": "C#5",
          "ticks": 20736,
          "time": 54,
          "velocity": 0.8661417322834646
        },
        {
          "duration": 0.2447916666666643,
          "durationTicks": 94,
          "midi": 75,
          "name": "D#5",
          "ticks": 20832,
          "time": 54.25,
          "velocity": 0.8661417322834646
        },
        {
          "duration": 0.2447916666666643,
          "durationTicks": 94,
          "midi": 73,
          "name": "C#5",
          "ticks": 20928,
          "time": 54.5,
          "velocity": 0.8661417322834646
        },
        {
          "duration": 0.2447916666666643,
          "durationTicks": 94,
          "midi": 71,
          "name": "B4",
          "ticks": 21024,
          "time": 54.75,
          "velocity": 0.8661417322834646
        },
        {
          "duration": 0.4166666666666643,
          "durationTicks": 160,
          "midi": 71,
          "name": "B4",
          "ticks": 21120,
          "time": 55,
          "velocity": 0.8661417322834646
        },
        {
          "duration": 0.4166666666666643,
          "durationTicks": 160,
          "midi": 68,
          "name": "G#4",
          "ticks": 21312,
          "time": 55.5,
          "velocity": 0.8661417322834646
        },
        {
          "duration": 0.2447916666666643,
          "durationTicks": 94,
          "midi": 64,
          "name": "E4",
          "ticks": 21504,
          "time": 56,
          "velocity": 0.8661417322834646
        },
        {
          "duration": 0.2447916666666643,
          "durationTicks": 94,
          "midi": 68,
          "name": "G#4",
          "ticks": 21600,
          "time": 56.25,
          "velocity": 0.8661417322834646
        },
        {
          "duration": 0.2447916666666643,
          "durationTicks": 94,
          "midi": 71,
          "name": "B4",
          "ticks": 21696,
          "time": 56.5,
          "velocity": 0.8661417322834646
        },
        {
          "duration": 0.2447916666666643,
          "durationTicks": 94,
          "midi": 73,
          "name": "C#5",
          "ticks": 21792,
          "time": 56.75,
          "velocity": 0.8661417322834646
        },
        {
          "duration": 0.2447916666666643,
          "durationTicks": 94,
          "midi": 66,
          "name": "F#4",
          "ticks": 21888,
          "time": 57,
          "velocity": 0.8661417322834646
        },
        {
          "duration": 0.2447916666666643,
          "durationTicks": 94,
          "midi": 70,
          "name": "A#4",
          "ticks": 21984,
          "time": 57.25,
          "velocity": 0.8661417322834646
        },
        {
          "duration": 0.2447916666666643,
          "durationTicks": 94,
          "midi": 73,
          "name": "C#5",
          "ticks": 22080,
          "time": 57.5,
          "velocity": 0.8661417322834646
        },
        {
          "duration": 0.2447916666666643,
          "durationTicks": 94,
          "midi": 75,
          "name": "D#5",
          "ticks": 22176,
          "time": 57.75,
          "velocity": 0.8661417322834646
        },
        {
          "duration": 0.2447916666666643,
          "durationTicks": 94,
          "midi": 73,
          "name": "C#5",
          "ticks": 22272,
          "time": 58,
          "velocity": 0.8661417322834646
        },
        {
          "duration": 0.2447916666666643,
          "durationTicks": 94,
          "midi": 75,
          "name": "D#5",
          "ticks": 22368,
          "time": 58.25,
          "velocity": 0.8661417322834646
        },
        {
          "duration": 0.2447916666666643,
          "durationTicks": 94,
          "midi": 73,
          "name": "C#5",
          "ticks": 22464,
          "time": 58.5,
          "velocity": 0.8661417322834646
        },
        {
          "duration": 0.2447916666666643,
          "durationTicks": 94,
          "midi": 71,
          "name": "B4",
          "ticks": 22560,
          "time": 58.75,
          "velocity": 0.8661417322834646
        },
        {
          "duration": 0.4166666666666643,
          "durationTicks": 160,
          "midi": 71,
          "name": "B4",
          "ticks": 22656,
          "time": 59,
          "velocity": 0.8661417322834646
        },
        {
          "duration": 0.4166666666666643,
          "durationTicks": 160,
          "midi": 68,
          "name": "G#4",
          "ticks": 22848,
          "time": 59.5,
          "velocity": 0.8661417322834646
        },
        {
          "duration": 0.2447916666666643,
          "durationTicks": 94,
          "midi": 64,
          "name": "E4",
          "ticks": 23040,
          "time": 60,
          "velocity": 0.8661417322834646
        },
        {
          "duration": 0.2447916666666643,
          "durationTicks": 94,
          "midi": 68,
          "name": "G#4",
          "ticks": 23136,
          "time": 60.25,
          "velocity": 0.8661417322834646
        },
        {
          "duration": 0.2447916666666643,
          "durationTicks": 94,
          "midi": 71,
          "name": "B4",
          "ticks": 23232,
          "time": 60.5,
          "velocity": 0.8661417322834646
        },
        {
          "duration": 0.2447916666666643,
          "durationTicks": 94,
          "midi": 73,
          "name": "C#5",
          "ticks": 23328,
          "time": 60.75,
          "velocity": 0.8661417322834646
        },
        {
          "duration": 0.2447916666666643,
          "durationTicks": 94,
          "midi": 66,
          "name": "F#4",
          "ticks": 23424,
          "time": 61,
          "velocity": 0.8661417322834646
        },
        {
          "duration": 0.2447916666666643,
          "durationTicks": 94,
          "midi": 70,
          "name": "A#4",
          "ticks": 23520,
          "time": 61.25,
          "velocity": 0.8661417322834646
        },
        {
          "duration": 0.2447916666666643,
          "durationTicks": 94,
          "midi": 73,
          "name": "C#5",
          "ticks": 23616,
          "time": 61.5,
          "velocity": 0.8661417322834646
        },
        {
          "duration": 0.2447916666666643,
          "durationTicks": 94,
          "midi": 75,
          "name": "D#5",
          "ticks": 23712,
          "time": 61.75,
          "velocity": 0.8661417322834646
        },
        {
          "duration": 0.2447916666666643,
          "durationTicks": 94,
          "midi": 73,
          "name": "C#5",
          "ticks": 23808,
          "time": 62,
          "velocity": 0.8661417322834646
        },
        {
          "duration": 0.2447916666666643,
          "durationTicks": 94,
          "midi": 75,
          "name": "D#5",
          "ticks": 23904,
          "time": 62.25,
          "velocity": 0.8661417322834646
        },
        {
          "duration": 0.2447916666666643,
          "durationTicks": 94,
          "midi": 73,
          "name": "C#5",
          "ticks": 24000,
          "time": 62.5,
          "velocity": 0.8661417322834646
        },
        {
          "duration": 0.2447916666666643,
          "durationTicks": 94,
          "midi": 71,
          "name": "B4",
          "ticks": 24096,
          "time": 62.75,
          "velocity": 0.8661417322834646
        },
        {
          "duration": 0.4166666666666643,
          "durationTicks": 160,
          "midi": 71,
          "name": "B4",
          "ticks": 24192,
          "time": 63,
          "velocity": 0.8661417322834646
        },
        {
          "duration": 0.4166666666666643,
          "durationTicks": 160,
          "midi": 68,
          "name": "G#4",
          "ticks": 24384,
          "time": 63.5,
          "velocity": 0.8661417322834646
        },
        {
          "duration": 0.2447916666666714,
          "durationTicks": 94,
          "midi": 64,
          "name": "E4",
          "ticks": 24576,
          "time": 64,
          "velocity": 0.8661417322834646
        },
        {
          "duration": 0.2447916666666714,
          "durationTicks": 94,
          "midi": 68,
          "name": "G#4",
          "ticks": 24672,
          "time": 64.25,
          "velocity": 0.8661417322834646
        },
        {
          "duration": 0.2447916666666714,
          "durationTicks": 94,
          "midi": 71,
          "name": "B4",
          "ticks": 24768,
          "time": 64.5,
          "velocity": 0.8661417322834646
        },
        {
          "duration": 0.2447916666666714,
          "durationTicks": 94,
          "midi": 73,
          "name": "C#5",
          "ticks": 24864,
          "time": 64.75,
          "velocity": 0.8661417322834646
        },
        {
          "duration": 0.2447916666666714,
          "durationTicks": 94,
          "midi": 66,
          "name": "F#4",
          "ticks": 24960,
          "time": 65,
          "velocity": 0.8661417322834646
        },
        {
          "duration": 0.2447916666666714,
          "durationTicks": 94,
          "midi": 70,
          "name": "A#4",
          "ticks": 25056,
          "time": 65.25,
          "velocity": 0.8661417322834646
        },
        {
          "duration": 0.2447916666666714,
          "durationTicks": 94,
          "midi": 73,
          "name": "C#5",
          "ticks": 25152,
          "time": 65.5,
          "velocity": 0.8661417322834646
        },
        {
          "duration": 0.2447916666666714,
          "durationTicks": 94,
          "midi": 75,
          "name": "D#5",
          "ticks": 25248,
          "time": 65.75,
          "velocity": 0.8661417322834646
        },
        {
          "duration": 0.4166666666666714,
          "durationTicks": 160,
          "midi": 78,
          "name": "F#5",
          "ticks": 25344,
          "time": 66,
          "velocity": 0.8661417322834646
        },
        {
          "duration": 0.2447916666666714,
          "durationTicks": 94,
          "midi": 80,
          "name": "G#5",
          "ticks": 25536,
          "time": 66.5,
          "velocity": 0.8661417322834646
        },
        {
          "duration": 0.2447916666666714,
          "durationTicks": 94,
          "midi": 78,
          "name": "F#5",
          "ticks": 25632,
          "time": 66.75,
          "velocity": 0.8661417322834646
        },
        {
          "duration": 0.4166666666666714,
          "durationTicks": 160,
          "midi": 75,
          "name": "D#5",
          "ticks": 25728,
          "time": 67,
          "velocity": 0.8661417322834646
        },
        {
          "duration": 0.4166666666666714,
          "durationTicks": 160,
          "midi": 78,
          "name": "F#5",
          "ticks": 25920,
          "time": 67.5,
          "velocity": 0.8661417322834646
        },
        {
          "duration": 0.4166666666666714,
          "durationTicks": 160,
          "midi": 76,
          "name": "E5",
          "ticks": 26112,
          "time": 68,
          "velocity": 0.8661417322834646
        },
        {
          "duration": 0.2447916666666714,
          "durationTicks": 94,
          "midi": 78,
          "name": "F#5",
          "ticks": 26304,
          "time": 68.5,
          "velocity": 0.8661417322834646
        },
        {
          "duration": 0.2447916666666714,
          "durationTicks": 94,
          "midi": 76,
          "name": "E5",
          "ticks": 26400,
          "time": 68.75,
          "velocity": 0.8661417322834646
        },
        {
          "duration": 0.4166666666666714,
          "durationTicks": 160,
          "midi": 73,
          "name": "C#5",
          "ticks": 26496,
          "time": 69,
          "velocity": 0.8661417322834646
        },
        {
          "duration": 0.4166666666666714,
          "durationTicks": 160,
          "midi": 70,
          "name": "A#4",
          "ticks": 26688,
          "time": 69.5,
          "velocity": 0.8661417322834646
        },
        {
          "duration": 0.875,
          "durationTicks": 336,
          "midi": 71,
          "name": "B4",
          "ticks": 26880,
          "time": 70,
          "velocity": 0.8661417322834646
        }
      ]
    },
    {
      "channel": 1,
      "controlChanges": {
        "7": [
          {
            "number": 7,
            "ticks": 0,
            "time": 0,
            "value": 0.6614173228346457
          }
        ],
        "10": [
          {
            "number": 10,
            "ticks": 0,
            "time": 0,
            "value": 0.6614173228346457
          }
        ]
      },
      "pitchBends": [],
      "instrument": {
        "family": "brass",
        "name": "french horn",
        "number": 60
      },
      "name": "",
      "notes": [
        {
          "duration": 0.24479166666666674,
          "durationTicks": 94,
          "midi": 54,
          "name": "F#3",
          "ticks": 384,
          "time": 1,
          "velocity": 0.8661417322834646
        },
        {
          "duration": 0.24479166666666674,
          "durationTicks": 94,
          "midi": 58,
          "name": "A#3",
          "ticks": 480,
          "time": 1.25,
          "velocity": 0.8661417322834646
        },
        {
          "duration": 0.24479166666666674,
          "durationTicks": 94,
          "midi": 61,
          "name": "C#4",
          "ticks": 576,
          "time": 1.5,
          "velocity": 0.8661417322834646
        },
        {
          "duration": 0.24479166666666674,
          "durationTicks": 94,
          "midi": 63,
          "name": "D#4",
          "ticks": 672,
          "time": 1.75,
          "velocity": 0.8661417322834646
        },
        {
          "duration": 0.875,
          "durationTicks": 336,
          "midi": 66,
          "name": "F#4",
          "ticks": 768,
          "time": 2,
          "velocity": 0.8661417322834646
        },
        {
          "duration": 0.4166666666666665,
          "durationTicks": 160,
          "midi": 68,
          "name": "G#4",
          "ticks": 1152,
          "time": 3,
          "velocity": 0.8661417322834646
        },
        {
          "duration": 0.24479166666666652,
          "durationTicks": 94,
          "midi": 70,
          "name": "A#4",
          "ticks": 1344,
          "time": 3.5,
          "velocity": 0.8661417322834646
        },
        {
          "duration": 0.24479166666666652,
          "durationTicks": 94,
          "midi": 68,
          "name": "G#4",
          "ticks": 1440,
          "time": 3.75,
          "velocity": 0.8661417322834646
        },
        {
          "duration": 0.875,
          "durationTicks": 336,
          "midi": 64,
          "name": "E4",
          "ticks": 1536,
          "time": 4,
          "velocity": 0.8661417322834646
        },
        {
          "duration": 0.41666666666666696,
          "durationTicks": 160,
          "midi": 66,
          "name": "F#4",
          "ticks": 1920,
          "time": 5,
          "velocity": 0.8661417322834646
        },
        {
          "duration": 0.24479166666666696,
          "durationTicks": 94,
          "midi": 63,
          "name": "D#4",
          "ticks": 2112,
          "time": 5.5,
          "velocity": 0.8661417322834646
        },
        {
          "duration": 0.24479166666666696,
          "durationTicks": 94,
          "midi": 61,
          "name": "C#4",
          "ticks": 2208,
          "time": 5.75,
          "velocity": 0.8661417322834646
        },
        {
          "duration": 0.666666666666667,
          "durationTicks": 256,
          "midi": 61,
          "name": "C#4",
          "ticks": 2304,
          "time": 6,
          "velocity": 0.8661417322834646
        },
        {
          "duration": 0.11979166666666696,
          "durationTicks": 46,
          "midi": 63,
          "name": "D#4",
          "ticks": 2592,
          "time": 6.75,
          "velocity": 0.8661417322834646
        },
        {
          "duration": 0.11979166666666696,
          "durationTicks": 46,
          "midi": 61,
          "name": "C#4",
          "ticks": 2640,
          "time": 6.875,
          "velocity": 0.8661417322834646
        },
        {
          "duration": 0.875,
          "durationTicks": 336,
          "midi": 59,
          "name": "B3",
          "ticks": 2688,
          "time": 7,
          "velocity": 0.8661417322834646
        },
        {
          "duration": 0.6666666666666661,
          "durationTicks": 256,
          "midi": 59,
          "name": "B3",
          "ticks": 3072,
          "time": 8,
          "velocity": 0.8661417322834646
        },
        {
          "duration": 0.11979166666666607,
          "durationTicks": 46,
          "midi": 56,
          "name": "G#3",
          "ticks": 3360,
          "time": 8.75,
          "velocity": 0.8661417322834646
        },
        {
          "duration": 0.11979166666666607,
          "durationTicks": 46,
          "midi": 59,
          "name": "B3",
          "ticks": 3408,
          "time": 8.875,
          "velocity": 0.8661417322834646
        },
        {
          "duration": 0.4166666666666661,
          "durationTicks": 160,
          "midi": 61,
          "name": "C#4",
          "ticks": 3456,
          "time": 9,
          "velocity": 0.8661417322834646
        },
        {
          "duration": 0.4166666666666661,
          "durationTicks": 160,
          "midi": 58,
          "name": "A#3",
          "ticks": 3648,
          "time": 9.5,
          "velocity": 0.8661417322834646
        },
        {
          "duration": 0.24479166666666607,
          "durationTicks": 94,
          "midi": 59,
          "name": "B3",
          "ticks": 3840,
          "time": 10,
          "velocity": 0.8661417322834646
        },
        {
          "duration": 0.24479166666666607,
          "durationTicks": 94,
          "midi": 61,
          "name": "C#4",
          "ticks": 3936,
          "time": 10.25,
          "velocity": 0.8661417322834646
        },
        {
          "duration": 0.24479166666666607,
          "durationTicks": 94,
          "midi": 63,
          "name": "D#4",
          "ticks": 4032,
          "time": 10.5,
          "velocity": 0.8661417322834646
        },
        {
          "duration": 0.24479166666666607,
          "durationTicks": 94,
          "midi": 66,
          "name": "F#4",
          "ticks": 4128,
          "time": 10.75,
          "velocity": 0.8661417322834646
        },
        {
          "duration": 0.4166666666666661,
          "durationTicks": 160,
          "midi": 68,
          "name": "G#4",
          "ticks": 4224,
          "time": 11,
          "velocity": 0.8661417322834646
        },
        {
          "duration": 0.4166666666666661,
          "durationTicks": 160,
          "midi": 63,
          "name": "D#4",
          "ticks": 4416,
          "time": 11.5,
          "velocity": 0.8661417322834646
        },
        {
          "duration": 0.4166666666666661,
          "durationTicks": 160,
          "midi": 59,
          "name": "B3",
          "ticks": 4608,
          "time": 12,
          "velocity": 0.8661417322834646
        },
        {
          "duration": 0.24479166666666607,
          "durationTicks": 94,
          "midi": 61,
          "name": "C#4",
          "ticks": 4800,
          "time": 12.5,
          "velocity": 0.8661417322834646
        },
        {
          "duration": 0.24479166666666607,
          "durationTicks": 94,
          "midi": 56,
          "name": "G#3",
          "ticks": 4896,
          "time": 12.75,
          "velocity": 0.8661417322834646
        },
        {
          "duration": 0.4166666666666661,
          "durationTicks": 160,
          "midi": 63,
          "name": "D#4",
          "ticks": 4992,
          "time": 13,
          "velocity": 0.8661417322834646
        },
        {
          "duration": 0.4166666666666661,
          "durationTicks": 160,
          "midi": 61,
          "name": "C#4",
          "ticks": 5184,
          "time": 13.5,
          "velocity": 0.8661417322834646
        },
        {
          "duration": 0.6666666666666661,
          "durationTicks": 256,
          "midi": 59,
          "name": "B3",
          "ticks": 5376,
          "time": 14,
          "velocity": 0.8661417322834646
        },
        {
          "duration": 0.11979166666666607,
          "durationTicks": 46,
          "midi": 59,
          "name": "B3",
          "ticks": 5664,
          "time": 14.75,
          "velocity": 0.8661417322834646
        },
        {
          "duration": 0.11979166666666607,
          "durationTicks": 46,
          "midi": 61,
          "name": "C#4",
          "ticks": 5712,
          "time": 14.875,
          "velocity": 0.8661417322834646
        },
        {
          "duration": 0.4166666666666661,
          "durationTicks": 160,
          "midi": 63,
          "name": "D#4",
          "ticks": 5760,
          "time": 15,
          "velocity": 0.8661417322834646
        },
        {
          "duration": 0.4166666666666661,
          "durationTicks": 160,
          "midi": 59,
          "name": "B3",
          "ticks": 5952,
          "time": 15.5,
          "velocity": 0.8661417322834646
        },
        {
          "duration": 0.41666666666666785,
          "durationTicks": 160,
          "midi": 59,
          "name": "B3",
          "ticks": 6144,
          "time": 16,
          "velocity": 0.8661417322834646
        },
        {
          "duration": 0.24479166666666785,
          "durationTicks": 94,
          "midi": 61,
          "name": "C#4",
          "ticks": 6336,
          "time": 16.5,
          "velocity": 0.8661417322834646
        },
        {
          "duration": 0.24479166666666785,
          "durationTicks": 94,
          "midi": 56,
          "name": "G#3",
          "ticks": 6432,
          "time": 16.75,
          "velocity": 0.8661417322834646
        },
        {
          "duration": 0.41666666666666785,
          "durationTicks": 160,
          "midi": 63,
          "name": "D#4",
          "ticks": 6528,
          "time": 17,
          "velocity": 0.8661417322834646
        },
        {
          "duration": 0.41666666666666785,
          "durationTicks": 160,
          "midi": 58,
          "name": "A#3",
          "ticks": 6720,
          "time": 17.5,
          "velocity": 0.8661417322834646
        },
        {
          "duration": 0.875,
          "durationTicks": 336,
          "midi": 59,
          "name": "B3",
          "ticks": 6912,
          "time": 18,
          "velocity": 0.8661417322834646
        },
        {
          "duration": 0.41666666666666785,
          "durationTicks": 160,
          "midi": 56,
          "name": "G#3",
          "ticks": 7296,
          "time": 19,
          "velocity": 0.8661417322834646
        },
        {
          "duration": 0.41666666666666785,
          "durationTicks": 160,
          "midi": 59,
          "name": "B3",
          "ticks": 7488,
          "time": 19.5,
          "velocity": 0.8661417322834646
        },
        {
          "duration": 0.875,
          "durationTicks": 336,
          "midi": 59,
          "name": "B3",
          "ticks": 7680,
          "time": 20,
          "velocity": 0.8661417322834646
        },
        {
          "duration": 0.41666666666666785,
          "durationTicks": 160,
          "midi": 54,
          "name": "F#3",
          "ticks": 8064,
          "time": 21,
          "velocity": 0.8661417322834646
        },
        {
          "duration": 0.41666666666666785,
          "durationTicks": 160,
          "midi": 58,
          "name": "A#3",
          "ticks": 8256,
          "time": 21.5,
          "velocity": 0.8661417322834646
        },
        {
          "duration": 0.875,
          "durationTicks": 336,
          "midi": 59,
          "name": "B3",
          "ticks": 8448,
          "time": 22,
          "velocity": 0.8661417322834646
        },
        {
          "duration": 0.41666666666666785,
          "durationTicks": 160,
          "midi": 56,
          "name": "G#3",
          "ticks": 8832,
          "time": 23,
          "velocity": 0.8661417322834646
        },
        {
          "duration": 0.41666666666666785,
          "durationTicks": 160,
          "midi": 59,
          "name": "B3",
          "ticks": 9024,
          "time": 23.5,
          "velocity": 0.8661417322834646
        },
        {
          "duration": 0.875,
          "durationTicks": 336,
          "midi": 59,
          "name": "B3",
          "ticks": 9216,
          "time": 24,
          "velocity": 0.8661417322834646
        },
        {
          "duration": 0.41666666666666785,
          "durationTicks": 160,
          "midi": 54,
          "name": "F#3",
          "ticks": 9600,
          "time": 25,
          "velocity": 0.8661417322834646
        },
        {
          "duration": 0.41666666666666785,
          "durationTicks": 160,
          "midi": 58,
          "name": "A#3",
          "ticks": 9792,
          "time": 25.5,
          "velocity": 0.8661417322834646
        },
        {
          "duration": 0.875,
          "durationTicks": 336,
          "midi": 59,
          "name": "B3",
          "ticks": 9984,
          "time": 26,
          "velocity": 0.8661417322834646
        },
        {
          "duration": 0.41666666666666785,
          "durationTicks": 160,
          "midi": 56,
          "name": "G#3",
          "ticks": 10368,
          "time": 27,
          "velocity": 0.8661417322834646
        },
        {
          "duration": 0.41666666666666785,
          "durationTicks": 160,
          "midi": 59,
          "name": "B3",
          "ticks": 10560,
          "time": 27.5,
          "velocity": 0.8661417322834646
        },
        {
          "duration": 0.875,
          "durationTicks": 336,
          "midi": 59,
          "name": "B3",
          "ticks": 10752,
          "time": 28,
          "velocity": 0.8661417322834646
        },
        {
          "duration": 0.41666666666666785,
          "durationTicks": 160,
          "midi": 54,
          "name": "F#3",
          "ticks": 11136,
          "time": 29,
          "velocity": 0.8661417322834646
        },
        {
          "duration": 0.41666666666666785,
          "durationTicks": 160,
          "midi": 58,
          "name": "A#3",
          "ticks": 11328,
          "time": 29.5,
          "velocity": 0.8661417322834646
        },
        {
          "duration": 0.875,
          "durationTicks": 336,
          "midi": 59,
          "name": "B3",
          "ticks": 11520,
          "time": 30,
          "velocity": 0.8661417322834646
        },
        {
          "duration": 0.41666666666666785,
          "durationTicks": 160,
          "midi": 56,
          "name": "G#3",
          "ticks": 11904,
          "time": 31,
          "velocity": 0.8661417322834646
        },
        {
          "duration": 0.41666666666666785,
          "durationTicks": 160,
          "midi": 59,
          "name": "B3",
          "ticks": 12096,
          "time": 31.5,
          "velocity": 0.8661417322834646
        },
        {
          "duration": 0.875,
          "durationTicks": 336,
          "midi": 59,
          "name": "B3",
          "ticks": 12288,
          "time": 32,
          "velocity": 0.8661417322834646
        },
        {
          "duration": 0.2447916666666643,
          "durationTicks": 94,
          "midi": 54,
          "name": "F#3",
          "ticks": 12672,
          "time": 33,
          "velocity": 0.8661417322834646
        },
        {
          "duration": 0.2447916666666643,
          "durationTicks": 94,
          "midi": 58,
          "name": "A#3",
          "ticks": 12768,
          "time": 33.25,
          "velocity": 0.8661417322834646
        },
        {
          "duration": 0.2447916666666643,
          "durationTicks": 94,
          "midi": 61,
          "name": "C#4",
          "ticks": 12864,
          "time": 33.5,
          "velocity": 0.8661417322834646
        },
        {
          "duration": 0.2447916666666643,
          "durationTicks": 94,
          "midi": 63,
          "name": "D#4",
          "ticks": 12960,
          "time": 33.75,
          "velocity": 0.8661417322834646
        },
        {
          "duration": 0.875,
          "durationTicks": 336,
          "midi": 66,
          "name": "F#4",
          "ticks": 13056,
          "time": 34,
          "velocity": 0.8661417322834646
        },
        {
          "duration": 0.4166666666666643,
          "durationTicks": 160,
          "midi": 68,
          "name": "G#4",
          "ticks": 13440,
          "time": 35,
          "velocity": 0.8661417322834646
        },
        {
          "duration": 0.2447916666666643,
          "durationTicks": 94,
          "midi": 70,
          "name": "A#4",
          "ticks": 13632,
          "time": 35.5,
          "velocity": 0.8661417322834646
        },
        {
          "duration": 0.2447916666666643,
          "durationTicks": 94,
          "midi": 68,
          "name": "G#4",
          "ticks": 13728,
          "time": 35.75,
          "velocity": 0.8661417322834646
        },
        {
          "duration": 0.875,
          "durationTicks": 336,
          "midi": 64,
          "name": "E4",
          "ticks": 13824,
          "time": 36,
          "velocity": 0.8661417322834646
        },
        {
          "duration": 0.4166666666666643,
          "durationTicks": 160,
          "midi": 66,
          "name": "F#4",
          "ticks": 14208,
          "time": 37,
          "velocity": 0.8661417322834646
        },
        {
          "duration": 0.2447916666666643,
          "durationTicks": 94,
          "midi": 63,
          "name": "D#4",
          "ticks": 14400,
          "time": 37.5,
          "velocity": 0.8661417322834646
        },
        {
          "duration": 0.2447916666666643,
          "durationTicks": 94,
          "midi": 61,
          "name": "C#4",
          "ticks": 14496,
          "time": 37.75,
          "velocity": 0.8661417322834646
        },
        {
          "duration": 0.6666666666666643,
          "durationTicks": 256,
          "midi": 61,
          "name": "C#4",
          "ticks": 14592,
          "time": 38,
          "velocity": 0.8661417322834646
        },
        {
          "duration": 0.1197916666666643,
          "durationTicks": 46,
          "midi": 63,
          "name": "D#4",
          "ticks": 14880,
          "time": 38.75,
          "velocity": 0.8661417322834646
        },
        {
          "duration": 0.1197916666666643,
          "durationTicks": 46,
          "midi": 61,
          "name": "C#4",
          "ticks": 14928,
          "time": 38.875,
          "velocity": 0.8661417322834646
        },
        {
          "duration": 0.875,
          "durationTicks": 336,
          "midi": 59,
          "name": "B3",
          "ticks": 14976,
          "time": 39,
          "velocity": 0.8661417322834646
        },
        {
          "duration": 0.6666666666666643,
          "durationTicks": 256,
          "midi": 59,
          "name": "B3",
          "ticks": 15360,
          "time": 40,
          "velocity": 0.8661417322834646
        },
        {
          "duration": 0.1197916666666643,
          "durationTicks": 46,
          "midi": 56,
          "name": "G#3",
          "ticks": 15648,
          "time": 40.75,
          "velocity": 0.8661417322834646
        },
        {
          "duration": 0.1197916666666643,
          "durationTicks": 46,
          "midi": 59,
          "name": "B3",
          "ticks": 15696,
          "time": 40.875,
          "velocity": 0.8661417322834646
        },
        {
          "duration": 0.4166666666666643,
          "durationTicks": 160,
          "midi": 61,
          "name": "C#4",
          "ticks": 15744,
          "time": 41,
          "velocity": 0.8661417322834646
        },
        {
          "duration": 0.4166666666666643,
          "durationTicks": 160,
          "midi": 58,
          "name": "A#3",
          "ticks": 15936,
          "time": 41.5,
          "velocity": 0.8661417322834646
        },
        {
          "duration": 0.2447916666666643,
          "durationTicks": 94,
          "midi": 59,
          "name": "B3",
          "ticks": 16128,
          "time": 42,
          "velocity": 0.8661417322834646
        },
        {
          "duration": 0.2447916666666643,
          "durationTicks": 94,
          "midi": 61,
          "name": "C#4",
          "ticks": 16224,
          "time": 42.25,
          "velocity": 0.8661417322834646
        },
        {
          "duration": 0.2447916666666643,
          "durationTicks": 94,
          "midi": 63,
          "name": "D#4",
          "ticks": 16320,
          "time": 42.5,
          "velocity": 0.8661417322834646
        },
        {
          "duration": 0.2447916666666643,
          "durationTicks": 94,
          "midi": 66,
          "name": "F#4",
          "ticks": 16416,
          "time": 42.75,
          "velocity": 0.8661417322834646
        },
        {
          "duration": 0.4166666666666643,
          "durationTicks": 160,
          "midi": 68,
          "name": "G#4",
          "ticks": 16512,
          "time": 43,
          "velocity": 0.8661417322834646
        },
        {
          "duration": 0.4166666666666643,
          "durationTicks": 160,
          "midi": 63,
          "name": "D#4",
          "ticks": 16704,
          "time": 43.5,
          "velocity": 0.8661417322834646
        },
        {
          "duration": 0.4166666666666643,
          "durationTicks": 160,
          "midi": 59,
          "name": "B3",
          "ticks": 16896,
          "time": 44,
          "velocity": 0.8661417322834646
        },
        {
          "duration": 0.2447916666666643,
          "durationTicks": 94,
          "midi": 61,
          "name": "C#4",
          "ticks": 17088,
          "time": 44.5,
          "velocity": 0.8661417322834646
        },
        {
          "duration": 0.2447916666666643,
          "durationTicks": 94,
          "midi": 56,
          "name": "G#3",
          "ticks": 17184,
          "time": 44.75,
          "velocity": 0.8661417322834646
        },
        {
          "duration": 0.4166666666666643,
          "durationTicks": 160,
          "midi": 63,
          "name": "D#4",
          "ticks": 17280,
          "time": 45,
          "velocity": 0.8661417322834646
        },
        {
          "duration": 0.4166666666666643,
          "durationTicks": 160,
          "midi": 61,
          "name": "C#4",
          "ticks": 17472,
          "time": 45.5,
          "velocity": 0.8661417322834646
        },
        {
          "duration": 0.6666666666666643,
          "durationTicks": 256,
          "midi": 59,
          "name": "B3",
          "ticks": 17664,
          "time": 46,
          "velocity": 0.8661417322834646
        },
        {
          "duration": 0.1197916666666643,
          "durationTicks": 46,
          "midi": 59,
          "name": "B3",
          "ticks": 17952,
          "time": 46.75,
          "velocity": 0.8661417322834646
        },
        {
          "duration": 0.1197916666666643,
          "durationTicks": 46,
          "midi": 61,
          "name": "C#4",
          "ticks": 18000,
          "time": 46.875,
          "velocity": 0.8661417322834646
        },
        {
          "duration": 0.4166666666666643,
          "durationTicks": 160,
          "midi": 63,
          "name": "D#4",
          "ticks": 18048,
          "time": 47,
          "velocity": 0.8661417322834646
        },
        {
          "duration": 0.4166666666666643,
          "durationTicks": 160,
          "midi": 59,
          "name": "B3",
          "ticks": 18240,
          "time": 47.5,
          "velocity": 0.8661417322834646
        },
        {
          "duration": 0.4166666666666643,
          "durationTicks": 160,
          "midi": 59,
          "name": "B3",
          "ticks": 18432,
          "time": 48,
          "velocity": 0.8661417322834646
        },
        {
          "duration": 0.2447916666666643,
          "durationTicks": 94,
          "midi": 61,
          "name": "C#4",
          "ticks": 18624,
          "time": 48.5,
          "velocity": 0.8661417322834646
        },
        {
          "duration": 0.2447916666666643,
          "durationTicks": 94,
          "midi": 56,
          "name": "G#3",
          "ticks": 18720,
          "time": 48.75,
          "velocity": 0.8661417322834646
        },
        {
          "duration": 0.4166666666666643,
          "durationTicks": 160,
          "midi": 63,
          "name": "D#4",
          "ticks": 18816,
          "time": 49,
          "velocity": 0.8661417322834646
        },
        {
          "duration": 0.4166666666666643,
          "durationTicks": 160,
          "midi": 58,
          "name": "A#3",
          "ticks": 19008,
          "time": 49.5,
          "velocity": 0.8661417322834646
        },
        {
          "duration": 0.2447916666666643,
          "durationTicks": 94,
          "midi": 61,
          "name": "C#4",
          "ticks": 19200,
          "time": 50,
          "velocity": 0.8661417322834646
        },
        {
          "duration": 0.2447916666666643,
          "durationTicks": 94,
          "midi": 63,
          "name": "D#4",
          "ticks": 19296,
          "time": 50.25,
          "velocity": 0.8661417322834646
        },
        {
          "duration": 0.2447916666666643,
          "durationTicks": 94,
          "midi": 61,
          "name": "C#4",
          "ticks": 19392,
          "time": 50.5,
          "velocity": 0.8661417322834646
        },
        {
          "duration": 0.2447916666666643,
          "durationTicks": 94,
          "midi": 59,
          "name": "B3",
          "ticks": 19488,
          "time": 50.75,
          "velocity": 0.8661417322834646
        },
        {
          "duration": 0.4166666666666643,
          "durationTicks": 160,
          "midi": 59,
          "name": "B3",
          "ticks": 19584,
          "time": 51,
          "velocity": 0.8661417322834646
        },
        {
          "duration": 0.4166666666666643,
          "durationTicks": 160,
          "midi": 56,
          "name": "G#3",
          "ticks": 19776,
          "time": 51.5,
          "velocity": 0.8661417322834646
        },
        {
          "duration": 0.2447916666666643,
          "durationTicks": 94,
          "midi": 52,
          "name": "E3",
          "ticks": 19968,
          "time": 52,
          "velocity": 0.8661417322834646
        },
        {
          "duration": 0.2447916666666643,
          "durationTicks": 94,
          "midi": 56,
          "name": "G#3",
          "ticks": 20064,
          "time": 52.25,
          "velocity": 0.8661417322834646
        },
        {
          "duration": 0.2447916666666643,
          "durationTicks": 94,
          "midi": 59,
          "name": "B3",
          "ticks": 20160,
          "time": 52.5,
          "velocity": 0.8661417322834646
        },
        {
          "duration": 0.2447916666666643,
          "durationTicks": 94,
          "midi": 61,
          "name": "C#4",
          "ticks": 20256,
          "time": 52.75,
          "velocity": 0.8661417322834646
        },
        {
          "duration": 0.2447916666666643,
          "durationTicks": 94,
          "midi": 54,
          "name": "F#3",
          "ticks": 20352,
          "time": 53,
          "velocity": 0.8661417322834646
        },
        {
          "duration": 0.2447916666666643,
          "durationTicks": 94,
          "midi": 58,
          "name": "A#3",
          "ticks": 20448,
          "time": 53.25,
          "velocity": 0.8661417322834646
        },
        {
          "duration": 0.2447916666666643,
          "durationTicks": 94,
          "midi": 61,
          "name": "C#4",
          "ticks": 20544,
          "time": 53.5,
          "velocity": 0.8661417322834646
        },
        {
          "duration": 0.2447916666666643,
          "durationTicks": 94,
          "midi": 63,
          "name": "D#4",
          "ticks": 20640,
          "time": 53.75,
          "velocity": 0.8661417322834646
        },
        {
          "duration": 0.2447916666666643,
          "durationTicks": 94,
          "midi": 61,
          "name": "C#4",
          "ticks": 20736,
          "time": 54,
          "velocity": 0.8661417322834646
        },
        {
          "duration": 0.2447916666666643,
          "durationTicks": 94,
          "midi": 63,
          "name": "D#4",
          "ticks": 20832,
          "time": 54.25,
          "velocity": 0.8661417322834646
        },
        {
          "duration": 0.2447916666666643,
          "durationTicks": 94,
          "midi": 61,
          "name": "C#4",
          "ticks": 20928,
          "time": 54.5,
          "velocity": 0.8661417322834646
        },
        {
          "duration": 0.2447916666666643,
          "durationTicks": 94,
          "midi": 59,
          "name": "B3",
          "ticks": 21024,
          "time": 54.75,
          "velocity": 0.8661417322834646
        },
        {
          "duration": 0.4166666666666643,
          "durationTicks": 160,
          "midi": 59,
          "name": "B3",
          "ticks": 21120,
          "time": 55,
          "velocity": 0.8661417322834646
        },
        {
          "duration": 0.4166666666666643,
          "durationTicks": 160,
          "midi": 56,
          "name": "G#3",
          "ticks": 21312,
          "time": 55.5,
          "velocity": 0.8661417322834646
        },
        {
          "duration": 0.2447916666666643,
          "durationTicks": 94,
          "midi": 52,
          "name": "E3",
          "ticks": 21504,
          "time": 56,
          "velocity": 0.8661417322834646
        },
        {
          "duration": 0.2447916666666643,
          "durationTicks": 94,
          "midi": 56,
          "name": "G#3",
          "ticks": 21600,
          "time": 56.25,
          "velocity": 0.8661417322834646
        },
        {
          "duration": 0.2447916666666643,
          "durationTicks": 94,
          "midi": 59,
          "name": "B3",
          "ticks": 21696,
          "time": 56.5,
          "velocity": 0.8661417322834646
        },
        {
          "duration": 0.2447916666666643,
          "durationTicks": 94,
          "midi": 61,
          "name": "C#4",
          "ticks": 21792,
          "time": 56.75,
          "velocity": 0.8661417322834646
        },
        {
          "duration": 0.2447916666666643,
          "durationTicks": 94,
          "midi": 54,
          "name": "F#3",
          "ticks": 21888,
          "time": 57,
          "velocity": 0.8661417322834646
        },
        {
          "duration": 0.2447916666666643,
          "durationTicks": 94,
          "midi": 58,
          "name": "A#3",
          "ticks": 21984,
          "time": 57.25,
          "velocity": 0.8661417322834646
        },
        {
          "duration": 0.2447916666666643,
          "durationTicks": 94,
          "midi": 61,
          "name": "C#4",
          "ticks": 22080,
          "time": 57.5,
          "velocity": 0.8661417322834646
        },
        {
          "duration": 0.2447916666666643,
          "durationTicks": 94,
          "midi": 63,
          "name": "D#4",
          "ticks": 22176,
          "time": 57.75,
          "velocity": 0.8661417322834646
        },
        {
          "duration": 0.2447916666666643,
          "durationTicks": 94,
          "midi": 61,
          "name": "C#4",
          "ticks": 22272,
          "time": 58,
          "velocity": 0.8661417322834646
        },
        {
          "duration": 0.2447916666666643,
          "durationTicks": 94,
          "midi": 63,
          "name": "D#4",
          "ticks": 22368,
          "time": 58.25,
          "velocity": 0.8661417322834646
        },
        {
          "duration": 0.2447916666666643,
          "durationTicks": 94,
          "midi": 61,
          "name": "C#4",
          "ticks": 22464,
          "time": 58.5,
          "velocity": 0.8661417322834646
        },
        {
          "duration": 0.2447916666666643,
          "durationTicks": 94,
          "midi": 59,
          "name": "B3",
          "ticks": 22560,
          "time": 58.75,
          "velocity": 0.8661417322834646
        },
        {
          "duration": 0.4166666666666643,
          "durationTicks": 160,
          "midi": 59,
          "name": "B3",
          "ticks": 22656,
          "time": 59,
          "velocity": 0.8661417322834646
        },
        {
          "duration": 0.4166666666666643,
          "durationTicks": 160,
          "midi": 56,
          "name": "G#3",
          "ticks": 22848,
          "time": 59.5,
          "velocity": 0.8661417322834646
        },
        {
          "duration": 0.2447916666666643,
          "durationTicks": 94,
          "midi": 52,
          "name": "E3",
          "ticks": 23040,
          "time": 60,
          "velocity": 0.8661417322834646
        },
        {
          "duration": 0.2447916666666643,
          "durationTicks": 94,
          "midi": 56,
          "name": "G#3",
          "ticks": 23136,
          "time": 60.25,
          "velocity": 0.8661417322834646
        },
        {
          "duration": 0.2447916666666643,
          "durationTicks": 94,
          "midi": 59,
          "name": "B3",
          "ticks": 23232,
          "time": 60.5,
          "velocity": 0.8661417322834646
        },
        {
          "duration": 0.2447916666666643,
          "durationTicks": 94,
          "midi": 61,
          "name": "C#4",
          "ticks": 23328,
          "time": 60.75,
          "velocity": 0.8661417322834646
        },
        {
          "duration": 0.2447916666666643,
          "durationTicks": 94,
          "midi": 54,
          "name": "F#3",
          "ticks": 23424,
          "time": 61,
          "velocity": 0.8661417322834646
        },
        {
          "duration": 0.2447916666666643,
          "durationTicks": 94,
          "midi": 58,
          "name": "A#3",
          "ticks": 23520,
          "time": 61.25,
          "velocity": 0.8661417322834646
        },
        {
          "duration": 0.2447916666666643,
          "durationTicks": 94,
          "midi": 61,
          "name": "C#4",
          "ticks": 23616,
          "time": 61.5,
          "velocity": 0.8661417322834646
        },
        {
          "duration": 0.2447916666666643,
          "durationTicks": 94,
          "midi": 63,
          "name": "D#4",
          "ticks": 23712,
          "time": 61.75,
          "velocity": 0.8661417322834646
        },
        {
          "duration": 0.2447916666666643,
          "durationTicks": 94,
          "midi": 61,
          "name": "C#4",
          "ticks": 23808,
          "time": 62,
          "velocity": 0.8661417322834646
        },
        {
          "duration": 0.2447916666666643,
          "durationTicks": 94,
          "midi": 63,
          "name": "D#4",
          "ticks": 23904,
          "time": 62.25,
          "velocity": 0.8661417322834646
        },
        {
          "duration": 0.2447916666666643,
          "durationTicks": 94,
          "midi": 61,
          "name": "C#4",
          "ticks": 24000,
          "time": 62.5,
          "velocity": 0.8661417322834646
        },
        {
          "duration": 0.2447916666666643,
          "durationTicks": 94,
          "midi": 59,
          "name": "B3",
          "ticks": 24096,
          "time": 62.75,
          "velocity": 0.8661417322834646
        },
        {
          "duration": 0.4166666666666643,
          "durationTicks": 160,
          "midi": 59,
          "name": "B3",
          "ticks": 24192,
          "time": 63,
          "velocity": 0.8661417322834646
        },
        {
          "duration": 0.4166666666666643,
          "durationTicks": 160,
          "midi": 56,
          "name": "G#3",
          "ticks": 24384,
          "time": 63.5,
          "velocity": 0.8661417322834646
        },
        {
          "duration": 0.2447916666666714,
          "durationTicks": 94,
          "midi": 52,
          "name": "E3",
          "ticks": 24576,
          "time": 64,
          "velocity": 0.8661417322834646
        },
        {
          "duration": 0.2447916666666714,
          "durationTicks": 94,
          "midi": 56,
          "name": "G#3",
          "ticks": 24672,
          "time": 64.25,
          "velocity": 0.8661417322834646
        },
        {
          "duration": 0.2447916666666714,
          "durationTicks": 94,
          "midi": 59,
          "name": "B3",
          "ticks": 24768,
          "time": 64.5,
          "velocity": 0.8661417322834646
        },
        {
          "duration": 0.2447916666666714,
          "durationTicks": 94,
          "midi": 61,
          "name": "C#4",
          "ticks": 24864,
          "time": 64.75,
          "velocity": 0.8661417322834646
        },
        {
          "duration": 0.2447916666666714,
          "durationTicks": 94,
          "midi": 54,
          "name": "F#3",
          "ticks": 24960,
          "time": 65,
          "velocity": 0.8661417322834646
        },
        {
          "duration": 0.2447916666666714,
          "durationTicks": 94,
          "midi": 58,
          "name": "A#3",
          "ticks": 25056,
          "time": 65.25,
          "velocity": 0.8661417322834646
        },
        {
          "duration": 0.2447916666666714,
          "durationTicks": 94,
          "midi": 61,
          "name": "C#4",
          "ticks": 25152,
          "time": 65.5,
          "velocity": 0.8661417322834646
        },
        {
          "duration": 0.2447916666666714,
          "durationTicks": 94,
          "midi": 63,
          "name": "D#4",
          "ticks": 25248,
          "time": 65.75,
          "velocity": 0.8661417322834646
        },
        {
          "duration": 0.4166666666666714,
          "durationTicks": 160,
          "midi": 66,
          "name": "F#4",
          "ticks": 25344,
          "time": 66,
          "velocity": 0.8661417322834646
        },
        {
          "duration": 0.2447916666666714,
          "durationTicks": 94,
          "midi": 68,
          "name": "G#4",
          "ticks": 25536,
          "time": 66.5,
          "velocity": 0.8661417322834646
        },
        {
          "duration": 0.2447916666666714,
          "durationTicks": 94,
          "midi": 66,
          "name": "F#4",
          "ticks": 25632,
          "time": 66.75,
          "velocity": 0.8661417322834646
        },
        {
          "duration": 0.4166666666666714,
          "durationTicks": 160,
          "midi": 63,
          "name": "D#4",
          "ticks": 25728,
          "time": 67,
          "velocity": 0.8661417322834646
        },
        {
          "duration": 0.4166666666666714,
          "durationTicks": 160,
          "midi": 66,
          "name": "F#4",
          "ticks": 25920,
          "time": 67.5,
          "velocity": 0.8661417322834646
        },
        {
          "duration": 0.4166666666666714,
          "durationTicks": 160,
          "midi": 64,
          "name": "E4",
          "ticks": 26112,
          "time": 68,
          "velocity": 0.8661417322834646
        },
        {
          "duration": 0.2447916666666714,
          "durationTicks": 94,
          "midi": 66,
          "name": "F#4",
          "ticks": 26304,
          "time": 68.5,
          "velocity": 0.8661417322834646
        },
        {
          "duration": 0.2447916666666714,
          "durationTicks": 94,
          "midi": 64,
          "name": "E4",
          "ticks": 26400,
          "time": 68.75,
          "velocity": 0.8661417322834646
        },
        {
          "duration": 0.4166666666666714,
          "durationTicks": 160,
          "midi": 61,
          "name": "C#4",
          "ticks": 26496,
          "time": 69,
          "velocity": 0.8661417322834646
        },
        {
          "duration": 0.4166666666666714,
          "durationTicks": 160,
          "midi": 58,
          "name": "A#3",
          "ticks": 26688,
          "time": 69.5,
          "velocity": 0.8661417322834646
        },
        {
          "duration": 0.875,
          "durationTicks": 336,
          "midi": 59,
          "name": "B3",
          "ticks": 26880,
          "time": 70,
          "velocity": 0.8661417322834646
        }
      ]
    },
    {
      "channel": 2,
      "controlChanges": {
        "7": [
          {
            "number": 7,
            "ticks": 0,
            "time": 0,
            "value": 0.5039370078740157
          }
        ],
        "10": [
          {
            "number": 10,
            "ticks": 0,
            "time": 0,
            "value": 0.1889763779527559
          }
        ]
      },
      "pitchBends": [],
      "instrument": {
        "family": "chromatic percussion",
        "name": "tubular bells",
        "number": 14
      },
      "name": "",
      "notes": [
        {
          "duration": 0.875,
          "durationTicks": 336,
          "midi": 54,
          "name": "F#3",
          "ticks": 768,
          "time": 2,
          "velocity": 0.8661417322834646
        },
        {
          "duration": 0.875,
          "durationTicks": 336,
          "midi": 59,
          "name": "B3",
          "ticks": 768,
          "time": 2,
          "velocity": 0.8661417322834646
        },
        {
          "duration": 0.875,
          "durationTicks": 336,
          "midi": 66,
          "name": "F#4",
          "ticks": 768,
          "time": 2,
          "velocity": 0.8661417322834646
        },
        {
          "duration": 0.875,
          "durationTicks": 336,
          "midi": 71,
          "name": "B4",
          "ticks": 768,
          "time": 2,
          "velocity": 0.8661417322834646
        },
        {
          "duration": 0.875,
          "durationTicks": 336,
          "midi": 54,
          "name": "F#3",
          "ticks": 3840,
          "time": 10,
          "velocity": 0.8661417322834646
        },
        {
          "duration": 0.875,
          "durationTicks": 336,
          "midi": 59,
          "name": "B3",
          "ticks": 3840,
          "time": 10,
          "velocity": 0.8661417322834646
        },
        {
          "duration": 0.875,
          "durationTicks": 336,
          "midi": 66,
          "name": "F#4",
          "ticks": 3840,
          "time": 10,
          "velocity": 0.8661417322834646
        },
        {
          "duration": 0.875,
          "durationTicks": 336,
          "midi": 71,
          "name": "B4",
          "ticks": 3840,
          "time": 10,
          "velocity": 0.8661417322834646
        },
        {
          "duration": 0.875,
          "durationTicks": 336,
          "midi": 54,
          "name": "F#3",
          "ticks": 6912,
          "time": 18,
          "velocity": 0.8661417322834646
        },
        {
          "duration": 0.875,
          "durationTicks": 336,
          "midi": 59,
          "name": "B3",
          "ticks": 6912,
          "time": 18,
          "velocity": 0.8661417322834646
        },
        {
          "duration": 0.875,
          "durationTicks": 336,
          "midi": 66,
          "name": "F#4",
          "ticks": 6912,
          "time": 18,
          "velocity": 0.8661417322834646
        },
        {
          "duration": 0.875,
          "durationTicks": 336,
          "midi": 71,
          "name": "B4",
          "ticks": 6912,
          "time": 18,
          "velocity": 0.8661417322834646
        },
        {
          "duration": 0.875,
          "durationTicks": 336,
          "midi": 54,
          "name": "F#3",
          "ticks": 9984,
          "time": 26,
          "velocity": 0.8661417322834646
        },
        {
          "duration": 0.875,
          "durationTicks": 336,
          "midi": 59,
          "name": "B3",
          "ticks": 9984,
          "time": 26,
          "velocity": 0.8661417322834646
        },
        {
          "duration": 0.875,
          "durationTicks": 336,
          "midi": 66,
          "name": "F#4",
          "ticks": 9984,
          "time": 26,
          "velocity": 0.8661417322834646
        },
        {
          "duration": 0.875,
          "durationTicks": 336,
          "midi": 71,
          "name": "B4",
          "ticks": 9984,
          "time": 26,
          "velocity": 0.8661417322834646
        },
        {
          "duration": 0.875,
          "durationTicks": 336,
          "midi": 54,
          "name": "F#3",
          "ticks": 13056,
          "time": 34,
          "velocity": 0.8661417322834646
        },
        {
          "duration": 0.875,
          "durationTicks": 336,
          "midi": 59,
          "name": "B3",
          "ticks": 13056,
          "time": 34,
          "velocity": 0.8661417322834646
        },
        {
          "duration": 0.875,
          "durationTicks": 336,
          "midi": 66,
          "name": "F#4",
          "ticks": 13056,
          "time": 34,
          "velocity": 0.8661417322834646
        },
        {
          "duration": 0.875,
          "durationTicks": 336,
          "midi": 71,
          "name": "B4",
          "ticks": 13056,
          "time": 34,
          "velocity": 0.8661417322834646
        },
        {
          "duration": 0.875,
          "durationTicks": 336,
          "midi": 54,
          "name": "F#3",
          "ticks": 16128,
          "time": 42,
          "velocity": 0.8661417322834646
        },
        {
          "duration": 0.875,
          "durationTicks": 336,
          "midi": 59,
          "name": "B3",
          "ticks": 16128,
          "time": 42,
          "velocity": 0.8661417322834646
        },
        {
          "duration": 0.875,
          "durationTicks": 336,
          "midi": 66,
          "name": "F#4",
          "ticks": 16128,
          "time": 42,
          "velocity": 0.8661417322834646
        },
        {
          "duration": 0.875,
          "durationTicks": 336,
          "midi": 71,
          "name": "B4",
          "ticks": 16128,
          "time": 42,
          "velocity": 0.8661417322834646
        },
        {
          "duration": 0.875,
          "durationTicks": 336,
          "midi": 54,
          "name": "F#3",
          "ticks": 19200,
          "time": 50,
          "velocity": 0.8661417322834646
        },
        {
          "duration": 0.875,
          "durationTicks": 336,
          "midi": 59,
          "name": "B3",
          "ticks": 19200,
          "time": 50,
          "velocity": 0.8661417322834646
        },
        {
          "duration": 0.875,
          "durationTicks": 336,
          "midi": 66,
          "name": "F#4",
          "ticks": 19200,
          "time": 50,
          "velocity": 0.8661417322834646
        },
        {
          "duration": 0.875,
          "durationTicks": 336,
          "midi": 71,
          "name": "B4",
          "ticks": 19200,
          "time": 50,
          "velocity": 0.8661417322834646
        },
        {
          "duration": 0.875,
          "durationTicks": 336,
          "midi": 54,
          "name": "F#3",
          "ticks": 22272,
          "time": 58,
          "velocity": 0.8661417322834646
        },
        {
          "duration": 0.875,
          "durationTicks": 336,
          "midi": 59,
          "name": "B3",
          "ticks": 22272,
          "time": 58,
          "velocity": 0.8661417322834646
        },
        {
          "duration": 0.875,
          "durationTicks": 336,
          "midi": 66,
          "name": "F#4",
          "ticks": 22272,
          "time": 58,
          "velocity": 0.8661417322834646
        },
        {
          "duration": 0.875,
          "durationTicks": 336,
          "midi": 71,
          "name": "B4",
          "ticks": 22272,
          "time": 58,
          "velocity": 0.8661417322834646
        },
        {
          "duration": 0.875,
          "durationTicks": 336,
          "midi": 54,
          "name": "F#3",
          "ticks": 25344,
          "time": 66,
          "velocity": 0.8661417322834646
        },
        {
          "duration": 0.875,
          "durationTicks": 336,
          "midi": 59,
          "name": "B3",
          "ticks": 25344,
          "time": 66,
          "velocity": 0.8661417322834646
        },
        {
          "duration": 0.875,
          "durationTicks": 336,
          "midi": 66,
          "name": "F#4",
          "ticks": 25344,
          "time": 66,
          "velocity": 0.8661417322834646
        },
        {
          "duration": 0.875,
          "durationTicks": 336,
          "midi": 71,
          "name": "B4",
          "ticks": 25344,
          "time": 66,
          "velocity": 0.8661417322834646
        }
      ]
    },
    {
      "channel": 3,
      "controlChanges": {
        "7": [
          {
            "number": 7,
            "ticks": 0,
            "time": 0,
            "value": 0.5826771653543307
          }
        ],
        "10": [
          {
            "number": 10,
            "ticks": 0,
            "time": 0,
            "value": 0.2677165354330709
          }
        ]
      },
      "pitchBends": [],
      "instrument": {
        "family": "guitar",
        "name": "acoustic guitar (nylon)",
        "number": 24
      },
      "name": "",
      "notes": [
        {
          "duration": 0.24479166666666674,
          "durationTicks": 94,
          "midi": 54,
          "name": "F#3",
          "ticks": 384,
          "time": 1,
          "velocity": 0.8661417322834646
        },
        {
          "duration": 0.24479166666666674,
          "durationTicks": 94,
          "midi": 61,
          "name": "C#4",
          "ticks": 480,
          "time": 1.25,
          "velocity": 0.8661417322834646
        },
        {
          "duration": 0.24479166666666674,
          "durationTicks": 94,
          "midi": 66,
          "name": "F#4",
          "ticks": 576,
          "time": 1.5,
          "velocity": 0.8661417322834646
        },
        {
          "duration": 0.24479166666666674,
          "durationTicks": 94,
          "midi": 70,
          "name": "A#4",
          "ticks": 672,
          "time": 1.75,
          "velocity": 0.8661417322834646
        },
        {
          "duration": 0.24479166666666652,
          "durationTicks": 94,
          "midi": 54,
          "name": "F#3",
          "ticks": 768,
          "time": 2,
          "velocity": 0.8661417322834646
        },
        {
          "duration": 0.24479166666666652,
          "durationTicks": 94,
          "midi": 59,
          "name": "B3",
          "ticks": 864,
          "time": 2.25,
          "velocity": 0.8661417322834646
        },
        {
          "duration": 0.24479166666666652,
          "durationTicks": 94,
          "midi": 66,
          "name": "F#4",
          "ticks": 960,
          "time": 2.5,
          "velocity": 0.8661417322834646
        },
        {
          "duration": 0.24479166666666652,
          "durationTicks": 94,
          "midi": 71,
          "name": "B4",
          "ticks": 1056,
          "time": 2.75,
          "velocity": 0.8661417322834646
        },
        {
          "duration": 0.24479166666666652,
          "durationTicks": 94,
          "midi": 56,
          "name": "G#3",
          "ticks": 1152,
          "time": 3,
          "velocity": 0.8661417322834646
        },
        {
          "duration": 0.24479166666666652,
          "durationTicks": 94,
          "midi": 63,
          "name": "D#4",
          "ticks": 1248,
          "time": 3.25,
          "velocity": 0.8661417322834646
        },
        {
          "duration": 0.24479166666666652,
          "durationTicks": 94,
          "midi": 68,
          "name": "G#4",
          "ticks": 1344,
          "time": 3.5,
          "velocity": 0.8661417322834646
        },
        {
          "duration": 0.24479166666666652,
          "durationTicks": 94,
          "midi": 71,
          "name": "B4",
          "ticks": 1440,
          "time": 3.75,
          "velocity": 0.8661417322834646
        },
        {
          "duration": 0.24479166666666696,
          "durationTicks": 94,
          "midi": 52,
          "name": "E3",
          "ticks": 1536,
          "time": 4,
          "velocity": 0.8661417322834646
        },
        {
          "duration": 0.24479166666666696,
          "durationTicks": 94,
          "midi": 59,
          "name": "B3",
          "ticks": 1632,
          "time": 4.25,
          "velocity": 0.8661417322834646
        },
        {
          "duration": 0.24479166666666696,
          "durationTicks": 94,
          "midi": 64,
          "name": "E4",
          "ticks": 1728,
          "time": 4.5,
          "velocity": 0.8661417322834646
        },
        {
          "duration": 0.24479166666666696,
          "durationTicks": 94,
          "midi": 68,
          "name": "G#4",
          "ticks": 1824,
          "time": 4.75,
          "velocity": 0.8661417322834646
        },
        {
          "duration": 0.24479166666666696,
          "durationTicks": 94,
          "midi": 54,
          "name": "F#3",
          "ticks": 1920,
          "time": 5,
          "velocity": 0.8661417322834646
        },
        {
          "duration": 0.24479166666666696,
          "durationTicks": 94,
          "midi": 61,
          "name": "C#4",
          "ticks": 2016,
          "time": 5.25,
          "velocity": 0.8661417322834646
        },
        {
          "duration": 0.24479166666666696,
          "durationTicks": 94,
          "midi": 66,
          "name": "F#4",
          "ticks": 2112,
          "time": 5.5,
          "velocity": 0.8661417322834646
        },
        {
          "duration": 0.24479166666666696,
          "durationTicks": 94,
          "midi": 70,
          "name": "A#4",
          "ticks": 2208,
          "time": 5.75,
          "velocity": 0.8661417322834646
        },
        {
          "duration": 0.24479166666666696,
          "durationTicks": 94,
          "midi": 54,
          "name": "F#3",
          "ticks": 2304,
          "time": 6,
          "velocity": 0.8661417322834646
        },
        {
          "duration": 0.24479166666666696,
          "durationTicks": 94,
          "midi": 59,
          "name": "B3",
          "ticks": 2400,
          "time": 6.25,
          "velocity": 0.8661417322834646
        },
        {
          "duration": 0.24479166666666696,
          "durationTicks": 94,
          "midi": 66,
          "name": "F#4",
          "ticks": 2496,
          "time": 6.5,
          "velocity": 0.8661417322834646
        },
        {
          "duration": 0.24479166666666696,
          "durationTicks": 94,
          "midi": 71,
          "name": "B4",
          "ticks": 2592,
          "time": 6.75,
          "velocity": 0.8661417322834646
        },
        {
          "duration": 0.24479166666666696,
          "durationTicks": 94,
          "midi": 56,
          "name": "G#3",
          "ticks": 2688,
          "time": 7,
          "velocity": 0.8661417322834646
        },
        {
          "duration": 0.24479166666666696,
          "durationTicks": 94,
          "midi": 63,
          "name": "D#4",
          "ticks": 2784,
          "time": 7.25,
          "velocity": 0.8661417322834646
        },
        {
          "duration": 0.24479166666666696,
          "durationTicks": 94,
          "midi": 68,
          "name": "G#4",
          "ticks": 2880,
          "time": 7.5,
          "velocity": 0.8661417322834646
        },
        {
          "duration": 0.24479166666666696,
          "durationTicks": 94,
          "midi": 71,
          "name": "B4",
          "ticks": 2976,
          "time": 7.75,
          "velocity": 0.8661417322834646
        },
        {
          "duration": 0.24479166666666607,
          "durationTicks": 94,
          "midi": 52,
          "name": "E3",
          "ticks": 3072,
          "time": 8,
          "velocity": 0.8661417322834646
        },
        {
          "duration": 0.24479166666666607,
          "durationTicks": 94,
          "midi": 59,
          "name": "B3",
          "ticks": 3168,
          "time": 8.25,
          "velocity": 0.8661417322834646
        },
        {
          "duration": 0.24479166666666607,
          "durationTicks": 94,
          "midi": 64,
          "name": "E4",
          "ticks": 3264,
          "time": 8.5,
          "velocity": 0.8661417322834646
        },
        {
          "duration": 0.24479166666666607,
          "durationTicks": 94,
          "midi": 68,
          "name": "G#4",
          "ticks": 3360,
          "time": 8.75,
          "velocity": 0.8661417322834646
        },
        {
          "duration": 0.24479166666666607,
          "durationTicks": 94,
          "midi": 54,
          "name": "F#3",
          "ticks": 3456,
          "time": 9,
          "velocity": 0.8661417322834646
        },
        {
          "duration": 0.24479166666666607,
          "durationTicks": 94,
          "midi": 61,
          "name": "C#4",
          "ticks": 3552,
          "time": 9.25,
          "velocity": 0.8661417322834646
        },
        {
          "duration": 0.24479166666666607,
          "durationTicks": 94,
          "midi": 66,
          "name": "F#4",
          "ticks": 3648,
          "time": 9.5,
          "velocity": 0.8661417322834646
        },
        {
          "duration": 0.24479166666666607,
          "durationTicks": 94,
          "midi": 70,
          "name": "A#4",
          "ticks": 3744,
          "time": 9.75,
          "velocity": 0.8661417322834646
        },
        {
          "duration": 0.24479166666666607,
          "durationTicks": 94,
          "midi": 54,
          "name": "F#3",
          "ticks": 3840,
          "time": 10,
          "velocity": 0.8661417322834646
        },
        {
          "duration": 0.24479166666666607,
          "durationTicks": 94,
          "midi": 59,
          "name": "B3",
          "ticks": 3936,
          "time": 10.25,
          "velocity": 0.8661417322834646
        },
        {
          "duration": 0.24479166666666607,
          "durationTicks": 94,
          "midi": 66,
          "name": "F#4",
          "ticks": 4032,
          "time": 10.5,
          "velocity": 0.8661417322834646
        },
        {
          "duration": 0.24479166666666607,
          "durationTicks": 94,
          "midi": 71,
          "name": "B4",
          "ticks": 4128,
          "time": 10.75,
          "velocity": 0.8661417322834646
        },
        {
          "duration": 0.24479166666666607,
          "durationTicks": 94,
          "midi": 56,
          "name": "G#3",
          "ticks": 4224,
          "time": 11,
          "velocity": 0.8661417322834646
        },
        {
          "duration": 0.24479166666666607,
          "durationTicks": 94,
          "midi": 63,
          "name": "D#4",
          "ticks": 4320,
          "time": 11.25,
          "velocity": 0.8661417322834646
        },
        {
          "duration": 0.24479166666666607,
          "durationTicks": 94,
          "midi": 68,
          "name": "G#4",
          "ticks": 4416,
          "time": 11.5,
          "velocity": 0.8661417322834646
        },
        {
          "duration": 0.24479166666666607,
          "durationTicks": 94,
          "midi": 71,
          "name": "B4",
          "ticks": 4512,
          "time": 11.75,
          "velocity": 0.8661417322834646
        },
        {
          "duration": 0.24479166666666607,
          "durationTicks": 94,
          "midi": 52,
          "name": "E3",
          "ticks": 4608,
          "time": 12,
          "velocity": 0.8661417322834646
        },
        {
          "duration": 0.24479166666666607,
          "durationTicks": 94,
          "midi": 59,
          "name": "B3",
          "ticks": 4704,
          "time": 12.25,
          "velocity": 0.8661417322834646
        },
        {
          "duration": 0.24479166666666607,
          "durationTicks": 94,
          "midi": 64,
          "name": "E4",
          "ticks": 4800,
          "time": 12.5,
          "velocity": 0.8661417322834646
        },
        {
          "duration": 0.24479166666666607,
          "durationTicks": 94,
          "midi": 68,
          "name": "G#4",
          "ticks": 4896,
          "time": 12.75,
          "velocity": 0.8661417322834646
        },
        {
          "duration": 0.24479166666666607,
          "durationTicks": 94,
          "midi": 54,
          "name": "F#3",
          "ticks": 4992,
          "time": 13,
          "velocity": 0.8661417322834646
        },
        {
          "duration": 0.24479166666666607,
          "durationTicks": 94,
          "midi": 61,
          "name": "C#4",
          "ticks": 5088,
          "time": 13.25,
          "velocity": 0.8661417322834646
        },
        {
          "duration": 0.24479166666666607,
          "durationTicks": 94,
          "midi": 66,
          "name": "F#4",
          "ticks": 5184,
          "time": 13.5,
          "velocity": 0.8661417322834646
        },
        {
          "duration": 0.24479166666666607,
          "durationTicks": 94,
          "midi": 70,
          "name": "A#4",
          "ticks": 5280,
          "time": 13.75,
          "velocity": 0.8661417322834646
        },
        {
          "duration": 0.24479166666666607,
          "durationTicks": 94,
          "midi": 54,
          "name": "F#3",
          "ticks": 5376,
          "time": 14,
          "velocity": 0.8661417322834646
        },
        {
          "duration": 0.24479166666666607,
          "durationTicks": 94,
          "midi": 59,
          "name": "B3",
          "ticks": 5472,
          "time": 14.25,
          "velocity": 0.8661417322834646
        },
        {
          "duration": 0.24479166666666607,
          "durationTicks": 94,
          "midi": 66,
          "name": "F#4",
          "ticks": 5568,
          "time": 14.5,
          "velocity": 0.8661417322834646
        },
        {
          "duration": 0.24479166666666607,
          "durationTicks": 94,
          "midi": 71,
          "name": "B4",
          "ticks": 5664,
          "time": 14.75,
          "velocity": 0.8661417322834646
        },
        {
          "duration": 0.24479166666666607,
          "durationTicks": 94,
          "midi": 56,
          "name": "G#3",
          "ticks": 5760,
          "time": 15,
          "velocity": 0.8661417322834646
        },
        {
          "duration": 0.24479166666666607,
          "durationTicks": 94,
          "midi": 63,
          "name": "D#4",
          "ticks": 5856,
          "time": 15.25,
          "velocity": 0.8661417322834646
        },
        {
          "duration": 0.24479166666666607,
          "durationTicks": 94,
          "midi": 68,
          "name": "G#4",
          "ticks": 5952,
          "time": 15.5,
          "velocity": 0.8661417322834646
        },
        {
          "duration": 0.24479166666666607,
          "durationTicks": 94,
          "midi": 71,
          "name": "B4",
          "ticks": 6048,
          "time": 15.75,
          "velocity": 0.8661417322834646
        },
        {
          "duration": 0.24479166666666785,
          "durationTicks": 94,
          "midi": 52,
          "name": "E3",
          "ticks": 6144,
          "time": 16,
          "velocity": 0.8661417322834646
        },
        {
          "duration": 0.24479166666666785,
          "durationTicks": 94,
          "midi": 59,
          "name": "B3",
          "ticks": 6240,
          "time": 16.25,
          "velocity": 0.8661417322834646
        },
        {
          "duration": 0.24479166666666785,
          "durationTicks": 94,
          "midi": 64,
          "name": "E4",
          "ticks": 6336,
          "time": 16.5,
          "velocity": 0.8661417322834646
        },
        {
          "duration": 0.24479166666666785,
          "durationTicks": 94,
          "midi": 68,
          "name": "G#4",
          "ticks": 6432,
          "time": 16.75,
          "velocity": 0.8661417322834646
        },
        {
          "duration": 0.24479166666666785,
          "durationTicks": 94,
          "midi": 54,
          "name": "F#3",
          "ticks": 6528,
          "time": 17,
          "velocity": 0.8661417322834646
        },
        {
          "duration": 0.24479166666666785,
          "durationTicks": 94,
          "midi": 61,
          "name": "C#4",
          "ticks": 6624,
          "time": 17.25,
          "velocity": 0.8661417322834646
        },
        {
          "duration": 0.24479166666666785,
          "durationTicks": 94,
          "midi": 66,
          "name": "F#4",
          "ticks": 6720,
          "time": 17.5,
          "velocity": 0.8661417322834646
        },
        {
          "duration": 0.24479166666666785,
          "durationTicks": 94,
          "midi": 70,
          "name": "A#4",
          "ticks": 6816,
          "time": 17.75,
          "velocity": 0.8661417322834646
        },
        {
          "duration": 0.24479166666666785,
          "durationTicks": 94,
          "midi": 54,
          "name": "F#3",
          "ticks": 6912,
          "time": 18,
          "velocity": 0.8661417322834646
        },
        {
          "duration": 0.24479166666666785,
          "durationTicks": 94,
          "midi": 59,
          "name": "B3",
          "ticks": 7008,
          "time": 18.25,
          "velocity": 0.8661417322834646
        },
        {
          "duration": 0.24479166666666785,
          "durationTicks": 94,
          "midi": 66,
          "name": "F#4",
          "ticks": 7104,
          "time": 18.5,
          "velocity": 0.8661417322834646
        },
        {
          "duration": 0.24479166666666785,
          "durationTicks": 94,
          "midi": 71,
          "name": "B4",
          "ticks": 7200,
          "time": 18.75,
          "velocity": 0.8661417322834646
        },
        {
          "duration": 0.24479166666666785,
          "durationTicks": 94,
          "midi": 56,
          "name": "G#3",
          "ticks": 7296,
          "time": 19,
          "velocity": 0.8661417322834646
        },
        {
          "duration": 0.24479166666666785,
          "durationTicks": 94,
          "midi": 63,
          "name": "D#4",
          "ticks": 7392,
          "time": 19.25,
          "velocity": 0.8661417322834646
        },
        {
          "duration": 0.24479166666666785,
          "durationTicks": 94,
          "midi": 68,
          "name": "G#4",
          "ticks": 7488,
          "time": 19.5,
          "velocity": 0.8661417322834646
        },
        {
          "duration": 0.24479166666666785,
          "durationTicks": 94,
          "midi": 71,
          "name": "B4",
          "ticks": 7584,
          "time": 19.75,
          "velocity": 0.8661417322834646
        },
        {
          "duration": 0.24479166666666785,
          "durationTicks": 94,
          "midi": 52,
          "name": "E3",
          "ticks": 7680,
          "time": 20,
          "velocity": 0.8661417322834646
        },
        {
          "duration": 0.24479166666666785,
          "durationTicks": 94,
          "midi": 59,
          "name": "B3",
          "ticks": 7776,
          "time": 20.25,
          "velocity": 0.8661417322834646
        },
        {
          "duration": 0.24479166666666785,
          "durationTicks": 94,
          "midi": 64,
          "name": "E4",
          "ticks": 7872,
          "time": 20.5,
          "velocity": 0.8661417322834646
        },
        {
          "duration": 0.24479166666666785,
          "durationTicks": 94,
          "midi": 68,
          "name": "G#4",
          "ticks": 7968,
          "time": 20.75,
          "velocity": 0.8661417322834646
        },
        {
          "duration": 0.24479166666666785,
          "durationTicks": 94,
          "midi": 54,
          "name": "F#3",
          "ticks": 8064,
          "time": 21,
          "velocity": 0.8661417322834646
        },
        {
          "duration": 0.24479166666666785,
          "durationTicks": 94,
          "midi": 61,
          "name": "C#4",
          "ticks": 8160,
          "time": 21.25,
          "velocity": 0.8661417322834646
        },
        {
          "duration": 0.24479166666666785,
          "durationTicks": 94,
          "midi": 66,
          "name": "F#4",
          "ticks": 8256,
          "time": 21.5,
          "velocity": 0.8661417322834646
        },
        {
          "duration": 0.24479166666666785,
          "durationTicks": 94,
          "midi": 70,
          "name": "A#4",
          "ticks": 8352,
          "time": 21.75,
          "velocity": 0.8661417322834646
        },
        {
          "duration": 0.24479166666666785,
          "durationTicks": 94,
          "midi": 54,
          "name": "F#3",
          "ticks": 8448,
          "time": 22,
          "velocity": 0.8661417322834646
        },
        {
          "duration": 0.24479166666666785,
          "durationTicks": 94,
          "midi": 59,
          "name": "B3",
          "ticks": 8544,
          "time": 22.25,
          "velocity": 0.8661417322834646
        },
        {
          "duration": 0.24479166666666785,
          "durationTicks": 94,
          "midi": 66,
          "name": "F#4",
          "ticks": 8640,
          "time": 22.5,
          "velocity": 0.8661417322834646
        },
        {
          "duration": 0.24479166666666785,
          "durationTicks": 94,
          "midi": 71,
          "name": "B4",
          "ticks": 8736,
          "time": 22.75,
          "velocity": 0.8661417322834646
        },
        {
          "duration": 0.24479166666666785,
          "durationTicks": 94,
          "midi": 56,
          "name": "G#3",
          "ticks": 8832,
          "time": 23,
          "velocity": 0.8661417322834646
        },
        {
          "duration": 0.24479166666666785,
          "durationTicks": 94,
          "midi": 63,
          "name": "D#4",
          "ticks": 8928,
          "time": 23.25,
          "velocity": 0.8661417322834646
        },
        {
          "duration": 0.24479166666666785,
          "durationTicks": 94,
          "midi": 68,
          "name": "G#4",
          "ticks": 9024,
          "time": 23.5,
          "velocity": 0.8661417322834646
        },
        {
          "duration": 0.24479166666666785,
          "durationTicks": 94,
          "midi": 71,
          "name": "B4",
          "ticks": 9120,
          "time": 23.75,
          "velocity": 0.8661417322834646
        },
        {
          "duration": 0.24479166666666785,
          "durationTicks": 94,
          "midi": 52,
          "name": "E3",
          "ticks": 9216,
          "time": 24,
          "velocity": 0.8661417322834646
        },
        {
          "duration": 0.24479166666666785,
          "durationTicks": 94,
          "midi": 59,
          "name": "B3",
          "ticks": 9312,
          "time": 24.25,
          "velocity": 0.8661417322834646
        },
        {
          "duration": 0.24479166666666785,
          "durationTicks": 94,
          "midi": 64,
          "name": "E4",
          "ticks": 9408,
          "time": 24.5,
          "velocity": 0.8661417322834646
        },
        {
          "duration": 0.24479166666666785,
          "durationTicks": 94,
          "midi": 68,
          "name": "G#4",
          "ticks": 9504,
          "time": 24.75,
          "velocity": 0.8661417322834646
        },
        {
          "duration": 0.24479166666666785,
          "durationTicks": 94,
          "midi": 54,
          "name": "F#3",
          "ticks": 9600,
          "time": 25,
          "velocity": 0.8661417322834646
        },
        {
          "duration": 0.24479166666666785,
          "durationTicks": 94,
          "midi": 61,
          "name": "C#4",
          "ticks": 9696,
          "time": 25.25,
          "velocity": 0.8661417322834646
        },
        {
          "duration": 0.24479166666666785,
          "durationTicks": 94,
          "midi": 66,
          "name": "F#4",
          "ticks": 9792,
          "time": 25.5,
          "velocity": 0.8661417322834646
        },
        {
          "duration": 0.24479166666666785,
          "durationTicks": 94,
          "midi": 70,
          "name": "A#4",
          "ticks": 9888,
          "time": 25.75,
          "velocity": 0.8661417322834646
        },
        {
          "duration": 0.24479166666666785,
          "durationTicks": 94,
          "midi": 54,
          "name": "F#3",
          "ticks": 9984,
          "time": 26,
          "velocity": 0.8661417322834646
        },
        {
          "duration": 0.24479166666666785,
          "durationTicks": 94,
          "midi": 59,
          "name": "B3",
          "ticks": 10080,
          "time": 26.25,
          "velocity": 0.8661417322834646
        },
        {
          "duration": 0.24479166666666785,
          "durationTicks": 94,
          "midi": 66,
          "name": "F#4",
          "ticks": 10176,
          "time": 26.5,
          "velocity": 0.8661417322834646
        },
        {
          "duration": 0.24479166666666785,
          "durationTicks": 94,
          "midi": 71,
          "name": "B4",
          "ticks": 10272,
          "time": 26.75,
          "velocity": 0.8661417322834646
        },
        {
          "duration": 0.24479166666666785,
          "durationTicks": 94,
          "midi": 56,
          "name": "G#3",
          "ticks": 10368,
          "time": 27,
          "velocity": 0.8661417322834646
        },
        {
          "duration": 0.24479166666666785,
          "durationTicks": 94,
          "midi": 63,
          "name": "D#4",
          "ticks": 10464,
          "time": 27.25,
          "velocity": 0.8661417322834646
        },
        {
          "duration": 0.24479166666666785,
          "durationTicks": 94,
          "midi": 68,
          "name": "G#4",
          "ticks": 10560,
          "time": 27.5,
          "velocity": 0.8661417322834646
        },
        {
          "duration": 0.24479166666666785,
          "durationTicks": 94,
          "midi": 71,
          "name": "B4",
          "ticks": 10656,
          "time": 27.75,
          "velocity": 0.8661417322834646
        },
        {
          "duration": 0.24479166666666785,
          "durationTicks": 94,
          "midi": 52,
          "name": "E3",
          "ticks": 10752,
          "time": 28,
          "velocity": 0.8661417322834646
        },
        {
          "duration": 0.24479166666666785,
          "durationTicks": 94,
          "midi": 59,
          "name": "B3",
          "ticks": 10848,
          "time": 28.25,
          "velocity": 0.8661417322834646
        },
        {
          "duration": 0.24479166666666785,
          "durationTicks": 94,
          "midi": 64,
          "name": "E4",
          "ticks": 10944,
          "time": 28.5,
          "velocity": 0.8661417322834646
        },
        {
          "duration": 0.24479166666666785,
          "durationTicks": 94,
          "midi": 68,
          "name": "G#4",
          "ticks": 11040,
          "time": 28.75,
          "velocity": 0.8661417322834646
        },
        {
          "duration": 0.24479166666666785,
          "durationTicks": 94,
          "midi": 54,
          "name": "F#3",
          "ticks": 11136,
          "time": 29,
          "velocity": 0.8661417322834646
        },
        {
          "duration": 0.24479166666666785,
          "durationTicks": 94,
          "midi": 61,
          "name": "C#4",
          "ticks": 11232,
          "time": 29.25,
          "velocity": 0.8661417322834646
        },
        {
          "duration": 0.24479166666666785,
          "durationTicks": 94,
          "midi": 66,
          "name": "F#4",
          "ticks": 11328,
          "time": 29.5,
          "velocity": 0.8661417322834646
        },
        {
          "duration": 0.24479166666666785,
          "durationTicks": 94,
          "midi": 70,
          "name": "A#4",
          "ticks": 11424,
          "time": 29.75,
          "velocity": 0.8661417322834646
        },
        {
          "duration": 0.24479166666666785,
          "durationTicks": 94,
          "midi": 54,
          "name": "F#3",
          "ticks": 11520,
          "time": 30,
          "velocity": 0.8661417322834646
        },
        {
          "duration": 0.24479166666666785,
          "durationTicks": 94,
          "midi": 59,
          "name": "B3",
          "ticks": 11616,
          "time": 30.25,
          "velocity": 0.8661417322834646
        },
        {
          "duration": 0.24479166666666785,
          "durationTicks": 94,
          "midi": 66,
          "name": "F#4",
          "ticks": 11712,
          "time": 30.5,
          "velocity": 0.8661417322834646
        },
        {
          "duration": 0.24479166666666785,
          "durationTicks": 94,
          "midi": 71,
          "name": "B4",
          "ticks": 11808,
          "time": 30.75,
          "velocity": 0.8661417322834646
        },
        {
          "duration": 0.24479166666666785,
          "durationTicks": 94,
          "midi": 56,
          "name": "G#3",
          "ticks": 11904,
          "time": 31,
          "velocity": 0.8661417322834646
        },
        {
          "duration": 0.24479166666666785,
          "durationTicks": 94,
          "midi": 63,
          "name": "D#4",
          "ticks": 12000,
          "time": 31.25,
          "velocity": 0.8661417322834646
        },
        {
          "duration": 0.24479166666666785,
          "durationTicks": 94,
          "midi": 68,
          "name": "G#4",
          "ticks": 12096,
          "time": 31.5,
          "velocity": 0.8661417322834646
        },
        {
          "duration": 0.24479166666666785,
          "durationTicks": 94,
          "midi": 71,
          "name": "B4",
          "ticks": 12192,
          "time": 31.75,
          "velocity": 0.8661417322834646
        },
        {
          "duration": 0.2447916666666643,
          "durationTicks": 94,
          "midi": 52,
          "name": "E3",
          "ticks": 12288,
          "time": 32,
          "velocity": 0.8661417322834646
        },
        {
          "duration": 0.2447916666666643,
          "durationTicks": 94,
          "midi": 59,
          "name": "B3",
          "ticks": 12384,
          "time": 32.25,
          "velocity": 0.8661417322834646
        },
        {
          "duration": 0.2447916666666643,
          "durationTicks": 94,
          "midi": 64,
          "name": "E4",
          "ticks": 12480,
          "time": 32.5,
          "velocity": 0.8661417322834646
        },
        {
          "duration": 0.2447916666666643,
          "durationTicks": 94,
          "midi": 68,
          "name": "G#4",
          "ticks": 12576,
          "time": 32.75,
          "velocity": 0.8661417322834646
        },
        {
          "duration": 0.2447916666666643,
          "durationTicks": 94,
          "midi": 54,
          "name": "F#3",
          "ticks": 12672,
          "time": 33,
          "velocity": 0.8661417322834646
        },
        {
          "duration": 0.2447916666666643,
          "durationTicks": 94,
          "midi": 61,
          "name": "C#4",
          "ticks": 12768,
          "time": 33.25,
          "velocity": 0.8661417322834646
        },
        {
          "duration": 0.2447916666666643,
          "durationTicks": 94,
          "midi": 66,
          "name": "F#4",
          "ticks": 12864,
          "time": 33.5,
          "velocity": 0.8661417322834646
        },
        {
          "duration": 0.2447916666666643,
          "durationTicks": 94,
          "midi": 70,
          "name": "A#4",
          "ticks": 12960,
          "time": 33.75,
          "velocity": 0.8661417322834646
        },
        {
          "duration": 0.2447916666666643,
          "durationTicks": 94,
          "midi": 54,
          "name": "F#3",
          "ticks": 13056,
          "time": 34,
          "velocity": 0.8661417322834646
        },
        {
          "duration": 0.2447916666666643,
          "durationTicks": 94,
          "midi": 59,
          "name": "B3",
          "ticks": 13152,
          "time": 34.25,
          "velocity": 0.8661417322834646
        },
        {
          "duration": 0.2447916666666643,
          "durationTicks": 94,
          "midi": 66,
          "name": "F#4",
          "ticks": 13248,
          "time": 34.5,
          "velocity": 0.8661417322834646
        },
        {
          "duration": 0.2447916666666643,
          "durationTicks": 94,
          "midi": 71,
          "name": "B4",
          "ticks": 13344,
          "time": 34.75,
          "velocity": 0.8661417322834646
        },
        {
          "duration": 0.2447916666666643,
          "durationTicks": 94,
          "midi": 56,
          "name": "G#3",
          "ticks": 13440,
          "time": 35,
          "velocity": 0.8661417322834646
        },
        {
          "duration": 0.2447916666666643,
          "durationTicks": 94,
          "midi": 63,
          "name": "D#4",
          "ticks": 13536,
          "time": 35.25,
          "velocity": 0.8661417322834646
        },
        {
          "duration": 0.2447916666666643,
          "durationTicks": 94,
          "midi": 68,
          "name": "G#4",
          "ticks": 13632,
          "time": 35.5,
          "velocity": 0.8661417322834646
        },
        {
          "duration": 0.2447916666666643,
          "durationTicks": 94,
          "midi": 71,
          "name": "B4",
          "ticks": 13728,
          "time": 35.75,
          "velocity": 0.8661417322834646
        },
        {
          "duration": 0.2447916666666643,
          "durationTicks": 94,
          "midi": 52,
          "name": "E3",
          "ticks": 13824,
          "time": 36,
          "velocity": 0.8661417322834646
        },
        {
          "duration": 0.2447916666666643,
          "durationTicks": 94,
          "midi": 59,
          "name": "B3",
          "ticks": 13920,
          "time": 36.25,
          "velocity": 0.8661417322834646
        },
        {
          "duration": 0.2447916666666643,
          "durationTicks": 94,
          "midi": 64,
          "name": "E4",
          "ticks": 14016,
          "time": 36.5,
          "velocity": 0.8661417322834646
        },
        {
          "duration": 0.2447916666666643,
          "durationTicks": 94,
          "midi": 68,
          "name": "G#4",
          "ticks": 14112,
          "time": 36.75,
          "velocity": 0.8661417322834646
        },
        {
          "duration": 0.2447916666666643,
          "durationTicks": 94,
          "midi": 54,
          "name": "F#3",
          "ticks": 14208,
          "time": 37,
          "velocity": 0.8661417322834646
        },
        {
          "duration": 0.2447916666666643,
          "durationTicks": 94,
          "midi": 61,
          "name": "C#4",
          "ticks": 14304,
          "time": 37.25,
          "velocity": 0.8661417322834646
        },
        {
          "duration": 0.2447916666666643,
          "durationTicks": 94,
          "midi": 66,
          "name": "F#4",
          "ticks": 14400,
          "time": 37.5,
          "velocity": 0.8661417322834646
        },
        {
          "duration": 0.2447916666666643,
          "durationTicks": 94,
          "midi": 70,
          "name": "A#4",
          "ticks": 14496,
          "time": 37.75,
          "velocity": 0.8661417322834646
        },
        {
          "duration": 0.2447916666666643,
          "durationTicks": 94,
          "midi": 54,
          "name": "F#3",
          "ticks": 14592,
          "time": 38,
          "velocity": 0.8661417322834646
        },
        {
          "duration": 0.2447916666666643,
          "durationTicks": 94,
          "midi": 59,
          "name": "B3",
          "ticks": 14688,
          "time": 38.25,
          "velocity": 0.8661417322834646
        },
        {
          "duration": 0.2447916666666643,
          "durationTicks": 94,
          "midi": 66,
          "name": "F#4",
          "ticks": 14784,
          "time": 38.5,
          "velocity": 0.8661417322834646
        },
        {
          "duration": 0.2447916666666643,
          "durationTicks": 94,
          "midi": 71,
          "name": "B4",
          "ticks": 14880,
          "time": 38.75,
          "velocity": 0.8661417322834646
        },
        {
          "duration": 0.2447916666666643,
          "durationTicks": 94,
          "midi": 56,
          "name": "G#3",
          "ticks": 14976,
          "time": 39,
          "velocity": 0.8661417322834646
        },
        {
          "duration": 0.2447916666666643,
          "durationTicks": 94,
          "midi": 63,
          "name": "D#4",
          "ticks": 15072,
          "time": 39.25,
          "velocity": 0.8661417322834646
        },
        {
          "duration": 0.2447916666666643,
          "durationTicks": 94,
          "midi": 68,
          "name": "G#4",
          "ticks": 15168,
          "time": 39.5,
          "velocity": 0.8661417322834646
        },
        {
          "duration": 0.2447916666666643,
          "durationTicks": 94,
          "midi": 71,
          "name": "B4",
          "ticks": 15264,
          "time": 39.75,
          "velocity": 0.8661417322834646
        },
        {
          "duration": 0.2447916666666643,
          "durationTicks": 94,
          "midi": 52,
          "name": "E3",
          "ticks": 15360,
          "time": 40,
          "velocity": 0.8661417322834646
        },
        {
          "duration": 0.2447916666666643,
          "durationTicks": 94,
          "midi": 59,
          "name": "B3",
          "ticks": 15456,
          "time": 40.25,
          "velocity": 0.8661417322834646
        },
        {
          "duration": 0.2447916666666643,
          "durationTicks": 94,
          "midi": 64,
          "name": "E4",
          "ticks": 15552,
          "time": 40.5,
          "velocity": 0.8661417322834646
        },
        {
          "duration": 0.2447916666666643,
          "durationTicks": 94,
          "midi": 68,
          "name": "G#4",
          "ticks": 15648,
          "time": 40.75,
          "velocity": 0.8661417322834646
        },
        {
          "duration": 0.2447916666666643,
          "durationTicks": 94,
          "midi": 54,
          "name": "F#3",
          "ticks": 15744,
          "time": 41,
          "velocity": 0.8661417322834646
        },
        {
          "duration": 0.2447916666666643,
          "durationTicks": 94,
          "midi": 61,
          "name": "C#4",
          "ticks": 15840,
          "time": 41.25,
          "velocity": 0.8661417322834646
        },
        {
          "duration": 0.2447916666666643,
          "durationTicks": 94,
          "midi": 66,
          "name": "F#4",
          "ticks": 15936,
          "time": 41.5,
          "velocity": 0.8661417322834646
        },
        {
          "duration": 0.2447916666666643,
          "durationTicks": 94,
          "midi": 70,
          "name": "A#4",
          "ticks": 16032,
          "time": 41.75,
          "velocity": 0.8661417322834646
        },
        {
          "duration": 0.2447916666666643,
          "durationTicks": 94,
          "midi": 54,
          "name": "F#3",
          "ticks": 16128,
          "time": 42,
          "velocity": 0.8661417322834646
        },
        {
          "duration": 0.2447916666666643,
          "durationTicks": 94,
          "midi": 59,
          "name": "B3",
          "ticks": 16224,
          "time": 42.25,
          "velocity": 0.8661417322834646
        },
        {
          "duration": 0.2447916666666643,
          "durationTicks": 94,
          "midi": 66,
          "name": "F#4",
          "ticks": 16320,
          "time": 42.5,
          "velocity": 0.8661417322834646
        },
        {
          "duration": 0.2447916666666643,
          "durationTicks": 94,
          "midi": 71,
          "name": "B4",
          "ticks": 16416,
          "time": 42.75,
          "velocity": 0.8661417322834646
        },
        {
          "duration": 0.2447916666666643,
          "durationTicks": 94,
          "midi": 56,
          "name": "G#3",
          "ticks": 16512,
          "time": 43,
          "velocity": 0.8661417322834646
        },
        {
          "duration": 0.2447916666666643,
          "durationTicks": 94,
          "midi": 63,
          "name": "D#4",
          "ticks": 16608,
          "time": 43.25,
          "velocity": 0.8661417322834646
        },
        {
          "duration": 0.2447916666666643,
          "durationTicks": 94,
          "midi": 68,
          "name": "G#4",
          "ticks": 16704,
          "time": 43.5,
          "velocity": 0.8661417322834646
        },
        {
          "duration": 0.2447916666666643,
          "durationTicks": 94,
          "midi": 71,
          "name": "B4",
          "ticks": 16800,
          "time": 43.75,
          "velocity": 0.8661417322834646
        },
        {
          "duration": 0.2447916666666643,
          "durationTicks": 94,
          "midi": 52,
          "name": "E3",
          "ticks": 16896,
          "time": 44,
          "velocity": 0.8661417322834646
        },
        {
          "duration": 0.2447916666666643,
          "durationTicks": 94,
          "midi": 59,
          "name": "B3",
          "ticks": 16992,
          "time": 44.25,
          "velocity": 0.8661417322834646
        },
        {
          "duration": 0.2447916666666643,
          "durationTicks": 94,
          "midi": 64,
          "name": "E4",
          "ticks": 17088,
          "time": 44.5,
          "velocity": 0.8661417322834646
        },
        {
          "duration": 0.2447916666666643,
          "durationTicks": 94,
          "midi": 68,
          "name": "G#4",
          "ticks": 17184,
          "time": 44.75,
          "velocity": 0.8661417322834646
        },
        {
          "duration": 0.2447916666666643,
          "durationTicks": 94,
          "midi": 54,
          "name": "F#3",
          "ticks": 17280,
          "time": 45,
          "velocity": 0.8661417322834646
        },
        {
          "duration": 0.2447916666666643,
          "durationTicks": 94,
          "midi": 61,
          "name": "C#4",
          "ticks": 17376,
          "time": 45.25,
          "velocity": 0.8661417322834646
        },
        {
          "duration": 0.2447916666666643,
          "durationTicks": 94,
          "midi": 66,
          "name": "F#4",
          "ticks": 17472,
          "time": 45.5,
          "velocity": 0.8661417322834646
        },
        {
          "duration": 0.2447916666666643,
          "durationTicks": 94,
          "midi": 70,
          "name": "A#4",
          "ticks": 17568,
          "time": 45.75,
          "velocity": 0.8661417322834646
        },
        {
          "duration": 0.2447916666666643,
          "durationTicks": 94,
          "midi": 54,
          "name": "F#3",
          "ticks": 17664,
          "time": 46,
          "velocity": 0.8661417322834646
        },
        {
          "duration": 0.2447916666666643,
          "durationTicks": 94,
          "midi": 59,
          "name": "B3",
          "ticks": 17760,
          "time": 46.25,
          "velocity": 0.8661417322834646
        },
        {
          "duration": 0.2447916666666643,
          "durationTicks": 94,
          "midi": 66,
          "name": "F#4",
          "ticks": 17856,
          "time": 46.5,
          "velocity": 0.8661417322834646
        },
        {
          "duration": 0.2447916666666643,
          "durationTicks": 94,
          "midi": 71,
          "name": "B4",
          "ticks": 17952,
          "time": 46.75,
          "velocity": 0.8661417322834646
        },
        {
          "duration": 0.2447916666666643,
          "durationTicks": 94,
          "midi": 56,
          "name": "G#3",
          "ticks": 18048,
          "time": 47,
          "velocity": 0.8661417322834646
        },
        {
          "duration": 0.2447916666666643,
          "durationTicks": 94,
          "midi": 63,
          "name": "D#4",
          "ticks": 18144,
          "time": 47.25,
          "velocity": 0.8661417322834646
        },
        {
          "duration": 0.2447916666666643,
          "durationTicks": 94,
          "midi": 68,
          "name": "G#4",
          "ticks": 18240,
          "time": 47.5,
          "velocity": 0.8661417322834646
        },
        {
          "duration": 0.2447916666666643,
          "durationTicks": 94,
          "midi": 71,
          "name": "B4",
          "ticks": 18336,
          "time": 47.75,
          "velocity": 0.8661417322834646
        },
        {
          "duration": 0.2447916666666643,
          "durationTicks": 94,
          "midi": 52,
          "name": "E3",
          "ticks": 18432,
          "time": 48,
          "velocity": 0.8661417322834646
        },
        {
          "duration": 0.2447916666666643,
          "durationTicks": 94,
          "midi": 59,
          "name": "B3",
          "ticks": 18528,
          "time": 48.25,
          "velocity": 0.8661417322834646
        },
        {
          "duration": 0.2447916666666643,
          "durationTicks": 94,
          "midi": 64,
          "name": "E4",
          "ticks": 18624,
          "time": 48.5,
          "velocity": 0.8661417322834646
        },
        {
          "duration": 0.2447916666666643,
          "durationTicks": 94,
          "midi": 68,
          "name": "G#4",
          "ticks": 18720,
          "time": 48.75,
          "velocity": 0.8661417322834646
        },
        {
          "duration": 0.2447916666666643,
          "durationTicks": 94,
          "midi": 54,
          "name": "F#3",
          "ticks": 18816,
          "time": 49,
          "velocity": 0.8661417322834646
        },
        {
          "duration": 0.2447916666666643,
          "durationTicks": 94,
          "midi": 61,
          "name": "C#4",
          "ticks": 18912,
          "time": 49.25,
          "velocity": 0.8661417322834646
        },
        {
          "duration": 0.2447916666666643,
          "durationTicks": 94,
          "midi": 66,
          "name": "F#4",
          "ticks": 19008,
          "time": 49.5,
          "velocity": 0.8661417322834646
        },
        {
          "duration": 0.2447916666666643,
          "durationTicks": 94,
          "midi": 70,
          "name": "A#4",
          "ticks": 19104,
          "time": 49.75,
          "velocity": 0.8661417322834646
        },
        {
          "duration": 0.2447916666666643,
          "durationTicks": 94,
          "midi": 54,
          "name": "F#3",
          "ticks": 19200,
          "time": 50,
          "velocity": 0.8661417322834646
        },
        {
          "duration": 0.2447916666666643,
          "durationTicks": 94,
          "midi": 59,
          "name": "B3",
          "ticks": 19296,
          "time": 50.25,
          "velocity": 0.8661417322834646
        },
        {
          "duration": 0.2447916666666643,
          "durationTicks": 94,
          "midi": 66,
          "name": "F#4",
          "ticks": 19392,
          "time": 50.5,
          "velocity": 0.8661417322834646
        },
        {
          "duration": 0.2447916666666643,
          "durationTicks": 94,
          "midi": 71,
          "name": "B4",
          "ticks": 19488,
          "time": 50.75,
          "velocity": 0.8661417322834646
        },
        {
          "duration": 0.2447916666666643,
          "durationTicks": 94,
          "midi": 56,
          "name": "G#3",
          "ticks": 19584,
          "time": 51,
          "velocity": 0.8661417322834646
        },
        {
          "duration": 0.2447916666666643,
          "durationTicks": 94,
          "midi": 63,
          "name": "D#4",
          "ticks": 19680,
          "time": 51.25,
          "velocity": 0.8661417322834646
        },
        {
          "duration": 0.2447916666666643,
          "durationTicks": 94,
          "midi": 68,
          "name": "G#4",
          "ticks": 19776,
          "time": 51.5,
          "velocity": 0.8661417322834646
        },
        {
          "duration": 0.2447916666666643,
          "durationTicks": 94,
          "midi": 71,
          "name": "B4",
          "ticks": 19872,
          "time": 51.75,
          "velocity": 0.8661417322834646
        },
        {
          "duration": 0.2447916666666643,
          "durationTicks": 94,
          "midi": 52,
          "name": "E3",
          "ticks": 19968,
          "time": 52,
          "velocity": 0.8661417322834646
        },
        {
          "duration": 0.2447916666666643,
          "durationTicks": 94,
          "midi": 59,
          "name": "B3",
          "ticks": 20064,
          "time": 52.25,
          "velocity": 0.8661417322834646
        },
        {
          "duration": 0.2447916666666643,
          "durationTicks": 94,
          "midi": 64,
          "name": "E4",
          "ticks": 20160,
          "time": 52.5,
          "velocity": 0.8661417322834646
        },
        {
          "duration": 0.2447916666666643,
          "durationTicks": 94,
          "midi": 68,
          "name": "G#4",
          "ticks": 20256,
          "time": 52.75,
          "velocity": 0.8661417322834646
        },
        {
          "duration": 0.2447916666666643,
          "durationTicks": 94,
          "midi": 54,
          "name": "F#3",
          "ticks": 20352,
          "time": 53,
          "velocity": 0.8661417322834646
        },
        {
          "duration": 0.2447916666666643,
          "durationTicks": 94,
          "midi": 61,
          "name": "C#4",
          "ticks": 20448,
          "time": 53.25,
          "velocity": 0.8661417322834646
        },
        {
          "duration": 0.2447916666666643,
          "durationTicks": 94,
          "midi": 66,
          "name": "F#4",
          "ticks": 20544,
          "time": 53.5,
          "velocity": 0.8661417322834646
        },
        {
          "duration": 0.2447916666666643,
          "durationTicks": 94,
          "midi": 70,
          "name": "A#4",
          "ticks": 20640,
          "time": 53.75,
          "velocity": 0.8661417322834646
        },
        {
          "duration": 0.2447916666666643,
          "durationTicks": 94,
          "midi": 54,
          "name": "F#3",
          "ticks": 20736,
          "time": 54,
          "velocity": 0.8661417322834646
        },
        {
          "duration": 0.2447916666666643,
          "durationTicks": 94,
          "midi": 59,
          "name": "B3",
          "ticks": 20832,
          "time": 54.25,
          "velocity": 0.8661417322834646
        },
        {
          "duration": 0.2447916666666643,
          "durationTicks": 94,
          "midi": 66,
          "name": "F#4",
          "ticks": 20928,
          "time": 54.5,
          "velocity": 0.8661417322834646
        },
        {
          "duration": 0.2447916666666643,
          "durationTicks": 94,
          "midi": 71,
          "name": "B4",
          "ticks": 21024,
          "time": 54.75,
          "velocity": 0.8661417322834646
        },
        {
          "duration": 0.2447916666666643,
          "durationTicks": 94,
          "midi": 56,
          "name": "G#3",
          "ticks": 21120,
          "time": 55,
          "velocity": 0.8661417322834646
        },
        {
          "duration": 0.2447916666666643,
          "durationTicks": 94,
          "midi": 63,
          "name": "D#4",
          "ticks": 21216,
          "time": 55.25,
          "velocity": 0.8661417322834646
        },
        {
          "duration": 0.2447916666666643,
          "durationTicks": 94,
          "midi": 68,
          "name": "G#4",
          "ticks": 21312,
          "time": 55.5,
          "velocity": 0.8661417322834646
        },
        {
          "duration": 0.2447916666666643,
          "durationTicks": 94,
          "midi": 71,
          "name": "B4",
          "ticks": 21408,
          "time": 55.75,
          "velocity": 0.8661417322834646
        },
        {
          "duration": 0.2447916666666643,
          "durationTicks": 94,
          "midi": 52,
          "name": "E3",
          "ticks": 21504,
          "time": 56,
          "velocity": 0.8661417322834646
        },
        {
          "duration": 0.2447916666666643,
          "durationTicks": 94,
          "midi": 59,
          "name": "B3",
          "ticks": 21600,
          "time": 56.25,
          "velocity": 0.8661417322834646
        },
        {
          "duration": 0.2447916666666643,
          "durationTicks": 94,
          "midi": 64,
          "name": "E4",
          "ticks": 21696,
          "time": 56.5,
          "velocity": 0.8661417322834646
        },
        {
          "duration": 0.2447916666666643,
          "durationTicks": 94,
          "midi": 68,
          "name": "G#4",
          "ticks": 21792,
          "time": 56.75,
          "velocity": 0.8661417322834646
        },
        {
          "duration": 0.2447916666666643,
          "durationTicks": 94,
          "midi": 54,
          "name": "F#3",
          "ticks": 21888,
          "time": 57,
          "velocity": 0.8661417322834646
        },
        {
          "duration": 0.2447916666666643,
          "durationTicks": 94,
          "midi": 61,
          "name": "C#4",
          "ticks": 21984,
          "time": 57.25,
          "velocity": 0.8661417322834646
        },
        {
          "duration": 0.2447916666666643,
          "durationTicks": 94,
          "midi": 66,
          "name": "F#4",
          "ticks": 22080,
          "time": 57.5,
          "velocity": 0.8661417322834646
        },
        {
          "duration": 0.2447916666666643,
          "durationTicks": 94,
          "midi": 70,
          "name": "A#4",
          "ticks": 22176,
          "time": 57.75,
          "velocity": 0.8661417322834646
        },
        {
          "duration": 0.2447916666666643,
          "durationTicks": 94,
          "midi": 54,
          "name": "F#3",
          "ticks": 22272,
          "time": 58,
          "velocity": 0.8661417322834646
        },
        {
          "duration": 0.2447916666666643,
          "durationTicks": 94,
          "midi": 59,
          "name": "B3",
          "ticks": 22368,
          "time": 58.25,
          "velocity": 0.8661417322834646
        },
        {
          "duration": 0.2447916666666643,
          "durationTicks": 94,
          "midi": 66,
          "name": "F#4",
          "ticks": 22464,
          "time": 58.5,
          "velocity": 0.8661417322834646
        },
        {
          "duration": 0.2447916666666643,
          "durationTicks": 94,
          "midi": 71,
          "name": "B4",
          "ticks": 22560,
          "time": 58.75,
          "velocity": 0.8661417322834646
        },
        {
          "duration": 0.2447916666666643,
          "durationTicks": 94,
          "midi": 56,
          "name": "G#3",
          "ticks": 22656,
          "time": 59,
          "velocity": 0.8661417322834646
        },
        {
          "duration": 0.2447916666666643,
          "durationTicks": 94,
          "midi": 63,
          "name": "D#4",
          "ticks": 22752,
          "time": 59.25,
          "velocity": 0.8661417322834646
        },
        {
          "duration": 0.2447916666666643,
          "durationTicks": 94,
          "midi": 68,
          "name": "G#4",
          "ticks": 22848,
          "time": 59.5,
          "velocity": 0.8661417322834646
        },
        {
          "duration": 0.2447916666666643,
          "durationTicks": 94,
          "midi": 71,
          "name": "B4",
          "ticks": 22944,
          "time": 59.75,
          "velocity": 0.8661417322834646
        },
        {
          "duration": 0.2447916666666643,
          "durationTicks": 94,
          "midi": 52,
          "name": "E3",
          "ticks": 23040,
          "time": 60,
          "velocity": 0.8661417322834646
        },
        {
          "duration": 0.2447916666666643,
          "durationTicks": 94,
          "midi": 59,
          "name": "B3",
          "ticks": 23136,
          "time": 60.25,
          "velocity": 0.8661417322834646
        },
        {
          "duration": 0.2447916666666643,
          "durationTicks": 94,
          "midi": 64,
          "name": "E4",
          "ticks": 23232,
          "time": 60.5,
          "velocity": 0.8661417322834646
        },
        {
          "duration": 0.2447916666666643,
          "durationTicks": 94,
          "midi": 68,
          "name": "G#4",
          "ticks": 23328,
          "time": 60.75,
          "velocity": 0.8661417322834646
        },
        {
          "duration": 0.2447916666666643,
          "durationTicks": 94,
          "midi": 54,
          "name": "F#3",
          "ticks": 23424,
          "time": 61,
          "velocity": 0.8661417322834646
        },
        {
          "duration": 0.2447916666666643,
          "durationTicks": 94,
          "midi": 61,
          "name": "C#4",
          "ticks": 23520,
          "time": 61.25,
          "velocity": 0.8661417322834646
        },
        {
          "duration": 0.2447916666666643,
          "durationTicks": 94,
          "midi": 66,
          "name": "F#4",
          "ticks": 23616,
          "time": 61.5,
          "velocity": 0.8661417322834646
        },
        {
          "duration": 0.2447916666666643,
          "durationTicks": 94,
          "midi": 70,
          "name": "A#4",
          "ticks": 23712,
          "time": 61.75,
          "velocity": 0.8661417322834646
        },
        {
          "duration": 0.2447916666666643,
          "durationTicks": 94,
          "midi": 54,
          "name": "F#3",
          "ticks": 23808,
          "time": 62,
          "velocity": 0.8661417322834646
        },
        {
          "duration": 0.2447916666666643,
          "durationTicks": 94,
          "midi": 59,
          "name": "B3",
          "ticks": 23904,
          "time": 62.25,
          "velocity": 0.8661417322834646
        },
        {
          "duration": 0.2447916666666643,
          "durationTicks": 94,
          "midi": 66,
          "name": "F#4",
          "ticks": 24000,
          "time": 62.5,
          "velocity": 0.8661417322834646
        },
        {
          "duration": 0.2447916666666643,
          "durationTicks": 94,
          "midi": 71,
          "name": "B4",
          "ticks": 24096,
          "time": 62.75,
          "velocity": 0.8661417322834646
        },
        {
          "duration": 0.2447916666666643,
          "durationTicks": 94,
          "midi": 56,
          "name": "G#3",
          "ticks": 24192,
          "time": 63,
          "velocity": 0.8661417322834646
        },
        {
          "duration": 0.2447916666666643,
          "durationTicks": 94,
          "midi": 63,
          "name": "D#4",
          "ticks": 24288,
          "time": 63.25,
          "velocity": 0.8661417322834646
        },
        {
          "duration": 0.2447916666666643,
          "durationTicks": 94,
          "midi": 68,
          "name": "G#4",
          "ticks": 24384,
          "time": 63.5,
          "velocity": 0.8661417322834646
        },
        {
          "duration": 0.2447916666666643,
          "durationTicks": 94,
          "midi": 71,
          "name": "B4",
          "ticks": 24480,
          "time": 63.75,
          "velocity": 0.8661417322834646
        },
        {
          "duration": 0.2447916666666714,
          "durationTicks": 94,
          "midi": 52,
          "name": "E3",
          "ticks": 24576,
          "time": 64,
          "velocity": 0.8661417322834646
        },
        {
          "duration": 0.2447916666666714,
          "durationTicks": 94,
          "midi": 59,
          "name": "B3",
          "ticks": 24672,
          "time": 64.25,
          "velocity": 0.8661417322834646
        },
        {
          "duration": 0.2447916666666714,
          "durationTicks": 94,
          "midi": 64,
          "name": "E4",
          "ticks": 24768,
          "time": 64.5,
          "velocity": 0.8661417322834646
        },
        {
          "duration": 0.2447916666666714,
          "durationTicks": 94,
          "midi": 68,
          "name": "G#4",
          "ticks": 24864,
          "time": 64.75,
          "velocity": 0.8661417322834646
        },
        {
          "duration": 0.2447916666666714,
          "durationTicks": 94,
          "midi": 54,
          "name": "F#3",
          "ticks": 24960,
          "time": 65,
          "velocity": 0.8661417322834646
        },
        {
          "duration": 0.2447916666666714,
          "durationTicks": 94,
          "midi": 61,
          "name": "C#4",
          "ticks": 25056,
          "time": 65.25,
          "velocity": 0.8661417322834646
        },
        {
          "duration": 0.2447916666666714,
          "durationTicks": 94,
          "midi": 66,
          "name": "F#4",
          "ticks": 25152,
          "time": 65.5,
          "velocity": 0.8661417322834646
        },
        {
          "duration": 0.2447916666666714,
          "durationTicks": 94,
          "midi": 70,
          "name": "A#4",
          "ticks": 25248,
          "time": 65.75,
          "velocity": 0.8661417322834646
        },
        {
          "duration": 0.4166666666666714,
          "durationTicks": 160,
          "midi": 54,
          "name": "F#3",
          "ticks": 25344,
          "time": 66,
          "velocity": 0.8661417322834646
        },
        {
          "duration": 0.2447916666666714,
          "durationTicks": 94,
          "midi": 66,
          "name": "F#4",
          "ticks": 25536,
          "time": 66.5,
          "velocity": 0.8661417322834646
        },
        {
          "duration": 0.2447916666666714,
          "durationTicks": 94,
          "midi": 71,
          "name": "B4",
          "ticks": 25632,
          "time": 66.75,
          "velocity": 0.8661417322834646
        },
        {
          "duration": 0.4166666666666714,
          "durationTicks": 160,
          "midi": 56,
          "name": "G#3",
          "ticks": 25728,
          "time": 67,
          "velocity": 0.8661417322834646
        },
        {
          "duration": 0.2447916666666714,
          "durationTicks": 94,
          "midi": 68,
          "name": "G#4",
          "ticks": 25920,
          "time": 67.5,
          "velocity": 0.8661417322834646
        },
        {
          "duration": 0.2447916666666714,
          "durationTicks": 94,
          "midi": 71,
          "name": "B4",
          "ticks": 26016,
          "time": 67.75,
          "velocity": 0.8661417322834646
        },
        {
          "duration": 0.4166666666666714,
          "durationTicks": 160,
          "midi": 52,
          "name": "E3",
          "ticks": 26112,
          "time": 68,
          "velocity": 0.8661417322834646
        },
        {
          "duration": 0.2447916666666714,
          "durationTicks": 94,
          "midi": 64,
          "name": "E4",
          "ticks": 26304,
          "time": 68.5,
          "velocity": 0.8661417322834646
        },
        {
          "duration": 0.2447916666666714,
          "durationTicks": 94,
          "midi": 68,
          "name": "G#4",
          "ticks": 26400,
          "time": 68.75,
          "velocity": 0.8661417322834646
        },
        {
          "duration": 0.4166666666666714,
          "durationTicks": 160,
          "midi": 54,
          "name": "F#3",
          "ticks": 26496,
          "time": 69,
          "velocity": 0.8661417322834646
        },
        {
          "duration": 0.4166666666666714,
          "durationTicks": 160,
          "midi": 66,
          "name": "F#4",
          "ticks": 26688,
          "time": 69.5,
          "velocity": 0.8661417322834646
        },
        {
          "duration": 0.875,
          "durationTicks": 336,
          "midi": 54,
          "name": "F#3",
          "ticks": 26880,
          "time": 70,
          "velocity": 0.8661417322834646
        }
      ]
    },
    {
      "channel": 4,
      "controlChanges": {
        "7": [
          {
            "number": 7,
            "ticks": 0,
            "time": 0,
            "value": 0.4251968503937008
          }
        ],
        "10": [
          {
            "number": 10,
            "ticks": 0,
            "time": 0,
            "value": 0.4251968503937008
          }
        ]
      },
      "pitchBends": [],
      "instrument": {
        "family": "guitar",
        "name": "acoustic guitar (steel)",
        "number": 25
      },
      "name": "",
      "notes": [
        {
          "duration": 0.875,
          "durationTicks": 336,
          "midi": 42,
          "name": "F#2",
          "ticks": 768,
          "time": 2,
          "velocity": 0.8661417322834646
        },
        {
          "duration": 0.875,
          "durationTicks": 336,
          "midi": 44,
          "name": "G#2",
          "ticks": 1152,
          "time": 3,
          "velocity": 0.8661417322834646
        },
        {
          "duration": 0.875,
          "durationTicks": 336,
          "midi": 40,
          "name": "E2",
          "ticks": 1536,
          "time": 4,
          "velocity": 0.8661417322834646
        },
        {
          "duration": 0.875,
          "durationTicks": 336,
          "midi": 42,
          "name": "F#2",
          "ticks": 1920,
          "time": 5,
          "velocity": 0.8661417322834646
        },
        {
          "duration": 0.875,
          "durationTicks": 336,
          "midi": 42,
          "name": "F#2",
          "ticks": 2304,
          "time": 6,
          "velocity": 0.8661417322834646
        },
        {
          "duration": 0.875,
          "durationTicks": 336,
          "midi": 44,
          "name": "G#2",
          "ticks": 2688,
          "time": 7,
          "velocity": 0.8661417322834646
        },
        {
          "duration": 0.875,
          "durationTicks": 336,
          "midi": 40,
          "name": "E2",
          "ticks": 3072,
          "time": 8,
          "velocity": 0.8661417322834646
        },
        {
          "duration": 0.875,
          "durationTicks": 336,
          "midi": 42,
          "name": "F#2",
          "ticks": 3456,
          "time": 9,
          "velocity": 0.8661417322834646
        },
        {
          "duration": 0.875,
          "durationTicks": 336,
          "midi": 42,
          "name": "F#2",
          "ticks": 3840,
          "time": 10,
          "velocity": 0.8661417322834646
        },
        {
          "duration": 0.875,
          "durationTicks": 336,
          "midi": 44,
          "name": "G#2",
          "ticks": 4224,
          "time": 11,
          "velocity": 0.8661417322834646
        },
        {
          "duration": 0.875,
          "durationTicks": 336,
          "midi": 40,
          "name": "E2",
          "ticks": 4608,
          "time": 12,
          "velocity": 0.8661417322834646
        },
        {
          "duration": 0.875,
          "durationTicks": 336,
          "midi": 42,
          "name": "F#2",
          "ticks": 4992,
          "time": 13,
          "velocity": 0.8661417322834646
        },
        {
          "duration": 0.875,
          "durationTicks": 336,
          "midi": 42,
          "name": "F#2",
          "ticks": 5376,
          "time": 14,
          "velocity": 0.8661417322834646
        },
        {
          "duration": 0.875,
          "durationTicks": 336,
          "midi": 44,
          "name": "G#2",
          "ticks": 5760,
          "time": 15,
          "velocity": 0.8661417322834646
        },
        {
          "duration": 0.875,
          "durationTicks": 336,
          "midi": 40,
          "name": "E2",
          "ticks": 6144,
          "time": 16,
          "velocity": 0.8661417322834646
        },
        {
          "duration": 0.875,
          "durationTicks": 336,
          "midi": 42,
          "name": "F#2",
          "ticks": 6528,
          "time": 17,
          "velocity": 0.8661417322834646
        },
        {
          "duration": 0.875,
          "durationTicks": 336,
          "midi": 42,
          "name": "F#2",
          "ticks": 6912,
          "time": 18,
          "velocity": 0.8661417322834646
        },
        {
          "duration": 0.875,
          "durationTicks": 336,
          "midi": 44,
          "name": "G#2",
          "ticks": 7296,
          "time": 19,
          "velocity": 0.8661417322834646
        },
        {
          "duration": 0.875,
          "durationTicks": 336,
          "midi": 40,
          "name": "E2",
          "ticks": 7680,
          "time": 20,
          "velocity": 0.8661417322834646
        },
        {
          "duration": 0.875,
          "durationTicks": 336,
          "midi": 42,
          "name": "F#2",
          "ticks": 8064,
          "time": 21,
          "velocity": 0.8661417322834646
        },
        {
          "duration": 0.875,
          "durationTicks": 336,
          "midi": 42,
          "name": "F#2",
          "ticks": 8448,
          "time": 22,
          "velocity": 0.8661417322834646
        },
        {
          "duration": 0.875,
          "durationTicks": 336,
          "midi": 44,
          "name": "G#2",
          "ticks": 8832,
          "time": 23,
          "velocity": 0.8661417322834646
        },
        {
          "duration": 0.875,
          "durationTicks": 336,
          "midi": 40,
          "name": "E2",
          "ticks": 9216,
          "time": 24,
          "velocity": 0.8661417322834646
        },
        {
          "duration": 0.875,
          "durationTicks": 336,
          "midi": 42,
          "name": "F#2",
          "ticks": 9600,
          "time": 25,
          "velocity": 0.8661417322834646
        },
        {
          "duration": 0.875,
          "durationTicks": 336,
          "midi": 42,
          "name": "F#2",
          "ticks": 9984,
          "time": 26,
          "velocity": 0.8661417322834646
        },
        {
          "duration": 0.875,
          "durationTicks": 336,
          "midi": 44,
          "name": "G#2",
          "ticks": 10368,
          "time": 27,
          "velocity": 0.8661417322834646
        },
        {
          "duration": 0.875,
          "durationTicks": 336,
          "midi": 40,
          "name": "E2",
          "ticks": 10752,
          "time": 28,
          "velocity": 0.8661417322834646
        },
        {
          "duration": 0.875,
          "durationTicks": 336,
          "midi": 42,
          "name": "F#2",
          "ticks": 11136,
          "time": 29,
          "velocity": 0.8661417322834646
        },
        {
          "duration": 0.875,
          "durationTicks": 336,
          "midi": 42,
          "name": "F#2",
          "ticks": 11520,
          "time": 30,
          "velocity": 0.8661417322834646
        },
        {
          "duration": 0.875,
          "durationTicks": 336,
          "midi": 44,
          "name": "G#2",
          "ticks": 11904,
          "time": 31,
          "velocity": 0.8661417322834646
        },
        {
          "duration": 0.875,
          "durationTicks": 336,
          "midi": 40,
          "name": "E2",
          "ticks": 12288,
          "time": 32,
          "velocity": 0.8661417322834646
        },
        {
          "duration": 0.875,
          "durationTicks": 336,
          "midi": 42,
          "name": "F#2",
          "ticks": 12672,
          "time": 33,
          "velocity": 0.8661417322834646
        },
        {
          "duration": 0.875,
          "durationTicks": 336,
          "midi": 42,
          "name": "F#2",
          "ticks": 13056,
          "time": 34,
          "velocity": 0.8661417322834646
        },
        {
          "duration": 0.875,
          "durationTicks": 336,
          "midi": 44,
          "name": "G#2",
          "ticks": 13440,
          "time": 35,
          "velocity": 0.8661417322834646
        },
        {
          "duration": 0.875,
          "durationTicks": 336,
          "midi": 40,
          "name": "E2",
          "ticks": 13824,
          "time": 36,
          "velocity": 0.8661417322834646
        },
        {
          "duration": 0.875,
          "durationTicks": 336,
          "midi": 42,
          "name": "F#2",
          "ticks": 14208,
          "time": 37,
          "velocity": 0.8661417322834646
        },
        {
          "duration": 0.875,
          "durationTicks": 336,
          "midi": 42,
          "name": "F#2",
          "ticks": 14592,
          "time": 38,
          "velocity": 0.8661417322834646
        },
        {
          "duration": 0.875,
          "durationTicks": 336,
          "midi": 44,
          "name": "G#2",
          "ticks": 14976,
          "time": 39,
          "velocity": 0.8661417322834646
        },
        {
          "duration": 0.875,
          "durationTicks": 336,
          "midi": 40,
          "name": "E2",
          "ticks": 15360,
          "time": 40,
          "velocity": 0.8661417322834646
        },
        {
          "duration": 0.875,
          "durationTicks": 336,
          "midi": 42,
          "name": "F#2",
          "ticks": 15744,
          "time": 41,
          "velocity": 0.8661417322834646
        },
        {
          "duration": 0.875,
          "durationTicks": 336,
          "midi": 42,
          "name": "F#2",
          "ticks": 16128,
          "time": 42,
          "velocity": 0.8661417322834646
        },
        {
          "duration": 0.875,
          "durationTicks": 336,
          "midi": 44,
          "name": "G#2",
          "ticks": 16512,
          "time": 43,
          "velocity": 0.8661417322834646
        },
        {
          "duration": 0.875,
          "durationTicks": 336,
          "midi": 40,
          "name": "E2",
          "ticks": 16896,
          "time": 44,
          "velocity": 0.8661417322834646
        },
        {
          "duration": 0.875,
          "durationTicks": 336,
          "midi": 42,
          "name": "F#2",
          "ticks": 17280,
          "time": 45,
          "velocity": 0.8661417322834646
        },
        {
          "duration": 0.875,
          "durationTicks": 336,
          "midi": 42,
          "name": "F#2",
          "ticks": 17664,
          "time": 46,
          "velocity": 0.8661417322834646
        },
        {
          "duration": 0.875,
          "durationTicks": 336,
          "midi": 44,
          "name": "G#2",
          "ticks": 18048,
          "time": 47,
          "velocity": 0.8661417322834646
        },
        {
          "duration": 0.875,
          "durationTicks": 336,
          "midi": 40,
          "name": "E2",
          "ticks": 18432,
          "time": 48,
          "velocity": 0.8661417322834646
        },
        {
          "duration": 0.875,
          "durationTicks": 336,
          "midi": 42,
          "name": "F#2",
          "ticks": 18816,
          "time": 49,
          "velocity": 0.8661417322834646
        },
        {
          "duration": 0.875,
          "durationTicks": 336,
          "midi": 42,
          "name": "F#2",
          "ticks": 19200,
          "time": 50,
          "velocity": 0.8661417322834646
        },
        {
          "duration": 0.875,
          "durationTicks": 336,
          "midi": 44,
          "name": "G#2",
          "ticks": 19584,
          "time": 51,
          "velocity": 0.8661417322834646
        },
        {
          "duration": 0.875,
          "durationTicks": 336,
          "midi": 40,
          "name": "E2",
          "ticks": 19968,
          "time": 52,
          "velocity": 0.8661417322834646
        },
        {
          "duration": 0.875,
          "durationTicks": 336,
          "midi": 42,
          "name": "F#2",
          "ticks": 20352,
          "time": 53,
          "velocity": 0.8661417322834646
        },
        {
          "duration": 0.875,
          "durationTicks": 336,
          "midi": 42,
          "name": "F#2",
          "ticks": 20736,
          "time": 54,
          "velocity": 0.8661417322834646
        },
        {
          "duration": 0.875,
          "durationTicks": 336,
          "midi": 44,
          "name": "G#2",
          "ticks": 21120,
          "time": 55,
          "velocity": 0.8661417322834646
        },
        {
          "duration": 0.875,
          "durationTicks": 336,
          "midi": 40,
          "name": "E2",
          "ticks": 21504,
          "time": 56,
          "velocity": 0.8661417322834646
        },
        {
          "duration": 0.875,
          "durationTicks": 336,
          "midi": 42,
          "name": "F#2",
          "ticks": 21888,
          "time": 57,
          "velocity": 0.8661417322834646
        },
        {
          "duration": 0.875,
          "durationTicks": 336,
          "midi": 42,
          "name": "F#2",
          "ticks": 22272,
          "time": 58,
          "velocity": 0.8661417322834646
        },
        {
          "duration": 0.875,
          "durationTicks": 336,
          "midi": 44,
          "name": "G#2",
          "ticks": 22656,
          "time": 59,
          "velocity": 0.8661417322834646
        },
        {
          "duration": 0.875,
          "durationTicks": 336,
          "midi": 40,
          "name": "E2",
          "ticks": 23040,
          "time": 60,
          "velocity": 0.8661417322834646
        },
        {
          "duration": 0.875,
          "durationTicks": 336,
          "midi": 42,
          "name": "F#2",
          "ticks": 23424,
          "time": 61,
          "velocity": 0.8661417322834646
        },
        {
          "duration": 0.875,
          "durationTicks": 336,
          "midi": 42,
          "name": "F#2",
          "ticks": 23808,
          "time": 62,
          "velocity": 0.8661417322834646
        },
        {
          "duration": 0.875,
          "durationTicks": 336,
          "midi": 44,
          "name": "G#2",
          "ticks": 24192,
          "time": 63,
          "velocity": 0.8661417322834646
        },
        {
          "duration": 0.875,
          "durationTicks": 336,
          "midi": 40,
          "name": "E2",
          "ticks": 24576,
          "time": 64,
          "velocity": 0.8661417322834646
        },
        {
          "duration": 0.875,
          "durationTicks": 336,
          "midi": 42,
          "name": "F#2",
          "ticks": 24960,
          "time": 65,
          "velocity": 0.8661417322834646
        },
        {
          "duration": 0.875,
          "durationTicks": 336,
          "midi": 42,
          "name": "F#2",
          "ticks": 25344,
          "time": 66,
          "velocity": 0.8661417322834646
        },
        {
          "duration": 0.875,
          "durationTicks": 336,
          "midi": 44,
          "name": "G#2",
          "ticks": 25728,
          "time": 67,
          "velocity": 0.8661417322834646
        },
        {
          "duration": 0.875,
          "durationTicks": 336,
          "midi": 40,
          "name": "E2",
          "ticks": 26112,
          "time": 68,
          "velocity": 0.8661417322834646
        },
        {
          "duration": 0.875,
          "durationTicks": 336,
          "midi": 42,
          "name": "F#2",
          "ticks": 26496,
          "time": 69,
          "velocity": 0.8661417322834646
        },
        {
          "duration": 0.875,
          "durationTicks": 336,
          "midi": 42,
          "name": "F#2",
          "ticks": 26880,
          "time": 70,
          "velocity": 0.8661417322834646
        }
      ]
    },
    {
      "channel": 5,
      "controlChanges": {
        "7": [
          {
            "number": 7,
            "ticks": 0,
            "time": 0,
            "value": 0.5039370078740157
          }
        ],
        "10": [
          {
            "number": 10,
            "ticks": 0,
            "time": 0,
            "value": 0.5826771653543307
          }
        ]
      },
      "pitchBends": [],
      "instrument": {
        "family": "guitar",
        "name": "acoustic guitar (nylon)",
        "number": 24
      },
      "name": "",
      "notes": [
        {
          "duration": 0.24479166666666674,
          "durationTicks": 94,
          "midi": 42,
          "name": "F#2",
          "ticks": 396,
          "time": 1.03125,
          "velocity": 0.8661417322834646
        },
        {
          "duration": 0.24479166666666674,
          "durationTicks": 94,
          "midi": 49,
          "name": "C#3",
          "ticks": 492,
          "time": 1.28125,
          "velocity": 0.8661417322834646
        },
        {
          "duration": 0.24479166666666674,
          "durationTicks": 94,
          "midi": 54,
          "name": "F#3",
          "ticks": 588,
          "time": 1.53125,
          "velocity": 0.8661417322834646
        },
        {
          "duration": 0.24479166666666652,
          "durationTicks": 94,
          "midi": 58,
          "name": "A#3",
          "ticks": 684,
          "time": 1.78125,
          "velocity": 0.8661417322834646
        },
        {
          "duration": 0.24479166666666652,
          "durationTicks": 94,
          "midi": 42,
          "name": "F#2",
          "ticks": 780,
          "time": 2.03125,
          "velocity": 0.8661417322834646
        },
        {
          "duration": 0.24479166666666652,
          "durationTicks": 94,
          "midi": 47,
          "name": "B2",
          "ticks": 876,
          "time": 2.28125,
          "velocity": 0.8661417322834646
        },
        {
          "duration": 0.24479166666666652,
          "durationTicks": 94,
          "midi": 54,
          "name": "F#3",
          "ticks": 972,
          "time": 2.53125,
          "velocity": 0.8661417322834646
        },
        {
          "duration": 0.24479166666666652,
          "durationTicks": 94,
          "midi": 59,
          "name": "B3",
          "ticks": 1068,
          "time": 2.78125,
          "velocity": 0.8661417322834646
        },
        {
          "duration": 0.24479166666666652,
          "durationTicks": 94,
          "midi": 44,
          "name": "G#2",
          "ticks": 1164,
          "time": 3.03125,
          "velocity": 0.8661417322834646
        },
        {
          "duration": 0.24479166666666652,
          "durationTicks": 94,
          "midi": 51,
          "name": "D#3",
          "ticks": 1260,
          "time": 3.28125,
          "velocity": 0.8661417322834646
        },
        {
          "duration": 0.24479166666666652,
          "durationTicks": 94,
          "midi": 56,
          "name": "G#3",
          "ticks": 1356,
          "time": 3.53125,
          "velocity": 0.8661417322834646
        },
        {
          "duration": 0.24479166666666696,
          "durationTicks": 94,
          "midi": 59,
          "name": "B3",
          "ticks": 1452,
          "time": 3.78125,
          "velocity": 0.8661417322834646
        },
        {
          "duration": 0.24479166666666696,
          "durationTicks": 94,
          "midi": 40,
          "name": "E2",
          "ticks": 1548,
          "time": 4.03125,
          "velocity": 0.8661417322834646
        },
        {
          "duration": 0.24479166666666696,
          "durationTicks": 94,
          "midi": 47,
          "name": "B2",
          "ticks": 1644,
          "time": 4.28125,
          "velocity": 0.8661417322834646
        },
        {
          "duration": 0.24479166666666696,
          "durationTicks": 94,
          "midi": 52,
          "name": "E3",
          "ticks": 1740,
          "time": 4.53125,
          "velocity": 0.8661417322834646
        },
        {
          "duration": 0.24479166666666696,
          "durationTicks": 94,
          "midi": 56,
          "name": "G#3",
          "ticks": 1836,
          "time": 4.78125,
          "velocity": 0.8661417322834646
        },
        {
          "duration": 0.24479166666666696,
          "durationTicks": 94,
          "midi": 42,
          "name": "F#2",
          "ticks": 1932,
          "time": 5.03125,
          "velocity": 0.8661417322834646
        },
        {
          "duration": 0.24479166666666696,
          "durationTicks": 94,
          "midi": 49,
          "name": "C#3",
          "ticks": 2028,
          "time": 5.28125,
          "velocity": 0.8661417322834646
        },
        {
          "duration": 0.24479166666666696,
          "durationTicks": 94,
          "midi": 54,
          "name": "F#3",
          "ticks": 2124,
          "time": 5.53125,
          "velocity": 0.8661417322834646
        },
        {
          "duration": 0.24479166666666696,
          "durationTicks": 94,
          "midi": 58,
          "name": "A#3",
          "ticks": 2220,
          "time": 5.78125,
          "velocity": 0.8661417322834646
        },
        {
          "duration": 0.24479166666666696,
          "durationTicks": 94,
          "midi": 42,
          "name": "F#2",
          "ticks": 2316,
          "time": 6.03125,
          "velocity": 0.8661417322834646
        },
        {
          "duration": 0.24479166666666696,
          "durationTicks": 94,
          "midi": 47,
          "name": "B2",
          "ticks": 2412,
          "time": 6.28125,
          "velocity": 0.8661417322834646
        },
        {
          "duration": 0.24479166666666696,
          "durationTicks": 94,
          "midi": 54,
          "name": "F#3",
          "ticks": 2508,
          "time": 6.53125,
          "velocity": 0.8661417322834646
        },
        {
          "duration": 0.24479166666666696,
          "durationTicks": 94,
          "midi": 59,
          "name": "B3",
          "ticks": 2604,
          "time": 6.78125,
          "velocity": 0.8661417322834646
        },
        {
          "duration": 0.24479166666666696,
          "durationTicks": 94,
          "midi": 44,
          "name": "G#2",
          "ticks": 2700,
          "time": 7.03125,
          "velocity": 0.8661417322834646
        },
        {
          "duration": 0.24479166666666696,
          "durationTicks": 94,
          "midi": 51,
          "name": "D#3",
          "ticks": 2796,
          "time": 7.28125,
          "velocity": 0.8661417322834646
        },
        {
          "duration": 0.24479166666666696,
          "durationTicks": 94,
          "midi": 56,
          "name": "G#3",
          "ticks": 2892,
          "time": 7.53125,
          "velocity": 0.8661417322834646
        },
        {
          "duration": 0.24479166666666607,
          "durationTicks": 94,
          "midi": 59,
          "name": "B3",
          "ticks": 2988,
          "time": 7.78125,
          "velocity": 0.8661417322834646
        },
        {
          "duration": 0.24479166666666607,
          "durationTicks": 94,
          "midi": 40,
          "name": "E2",
          "ticks": 3084,
          "time": 8.03125,
          "velocity": 0.8661417322834646
        },
        {
          "duration": 0.24479166666666607,
          "durationTicks": 94,
          "midi": 47,
          "name": "B2",
          "ticks": 3180,
          "time": 8.28125,
          "velocity": 0.8661417322834646
        },
        {
          "duration": 0.24479166666666607,
          "durationTicks": 94,
          "midi": 52,
          "name": "E3",
          "ticks": 3276,
          "time": 8.53125,
          "velocity": 0.8661417322834646
        },
        {
          "duration": 0.24479166666666607,
          "durationTicks": 94,
          "midi": 56,
          "name": "G#3",
          "ticks": 3372,
          "time": 8.78125,
          "velocity": 0.8661417322834646
        },
        {
          "duration": 0.24479166666666607,
          "durationTicks": 94,
          "midi": 42,
          "name": "F#2",
          "ticks": 3468,
          "time": 9.03125,
          "velocity": 0.8661417322834646
        },
        {
          "duration": 0.24479166666666607,
          "durationTicks": 94,
          "midi": 49,
          "name": "C#3",
          "ticks": 3564,
          "time": 9.28125,
          "velocity": 0.8661417322834646
        },
        {
          "duration": 0.24479166666666607,
          "durationTicks": 94,
          "midi": 54,
          "name": "F#3",
          "ticks": 3660,
          "time": 9.53125,
          "velocity": 0.8661417322834646
        },
        {
          "duration": 0.24479166666666607,
          "durationTicks": 94,
          "midi": 58,
          "name": "A#3",
          "ticks": 3756,
          "time": 9.78125,
          "velocity": 0.8661417322834646
        },
        {
          "duration": 0.24479166666666607,
          "durationTicks": 94,
          "midi": 42,
          "name": "F#2",
          "ticks": 3852,
          "time": 10.03125,
          "velocity": 0.8661417322834646
        },
        {
          "duration": 0.24479166666666607,
          "durationTicks": 94,
          "midi": 47,
          "name": "B2",
          "ticks": 3948,
          "time": 10.28125,
          "velocity": 0.8661417322834646
        },
        {
          "duration": 0.24479166666666607,
          "durationTicks": 94,
          "midi": 54,
          "name": "F#3",
          "ticks": 4044,
          "time": 10.53125,
          "velocity": 0.8661417322834646
        },
        {
          "duration": 0.24479166666666607,
          "durationTicks": 94,
          "midi": 59,
          "name": "B3",
          "ticks": 4140,
          "time": 10.78125,
          "velocity": 0.8661417322834646
        },
        {
          "duration": 0.24479166666666607,
          "durationTicks": 94,
          "midi": 44,
          "name": "G#2",
          "ticks": 4236,
          "time": 11.03125,
          "velocity": 0.8661417322834646
        },
        {
          "duration": 0.24479166666666607,
          "durationTicks": 94,
          "midi": 51,
          "name": "D#3",
          "ticks": 4332,
          "time": 11.28125,
          "velocity": 0.8661417322834646
        },
        {
          "duration": 0.24479166666666607,
          "durationTicks": 94,
          "midi": 56,
          "name": "G#3",
          "ticks": 4428,
          "time": 11.53125,
          "velocity": 0.8661417322834646
        },
        {
          "duration": 0.24479166666666607,
          "durationTicks": 94,
          "midi": 59,
          "name": "B3",
          "ticks": 4524,
          "time": 11.78125,
          "velocity": 0.8661417322834646
        },
        {
          "duration": 0.24479166666666607,
          "durationTicks": 94,
          "midi": 40,
          "name": "E2",
          "ticks": 4620,
          "time": 12.03125,
          "velocity": 0.8661417322834646
        },
        {
          "duration": 0.24479166666666607,
          "durationTicks": 94,
          "midi": 47,
          "name": "B2",
          "ticks": 4716,
          "time": 12.28125,
          "velocity": 0.8661417322834646
        },
        {
          "duration": 0.24479166666666607,
          "durationTicks": 94,
          "midi": 52,
          "name": "E3",
          "ticks": 4812,
          "time": 12.53125,
          "velocity": 0.8661417322834646
        },
        {
          "duration": 0.24479166666666607,
          "durationTicks": 94,
          "midi": 56,
          "name": "G#3",
          "ticks": 4908,
          "time": 12.78125,
          "velocity": 0.8661417322834646
        },
        {
          "duration": 0.24479166666666607,
          "durationTicks": 94,
          "midi": 42,
          "name": "F#2",
          "ticks": 5004,
          "time": 13.03125,
          "velocity": 0.8661417322834646
        },
        {
          "duration": 0.24479166666666607,
          "durationTicks": 94,
          "midi": 49,
          "name": "C#3",
          "ticks": 5100,
          "time": 13.28125,
          "velocity": 0.8661417322834646
        },
        {
          "duration": 0.24479166666666607,
          "durationTicks": 94,
          "midi": 54,
          "name": "F#3",
          "ticks": 5196,
          "time": 13.53125,
          "velocity": 0.8661417322834646
        },
        {
          "duration": 0.24479166666666607,
          "durationTicks": 94,
          "midi": 58,
          "name": "A#3",
          "ticks": 5292,
          "time": 13.78125,
          "velocity": 0.8661417322834646
        },
        {
          "duration": 0.24479166666666607,
          "durationTicks": 94,
          "midi": 42,
          "name": "F#2",
          "ticks": 5388,
          "time": 14.03125,
          "velocity": 0.8661417322834646
        },
        {
          "duration": 0.24479166666666607,
          "durationTicks": 94,
          "midi": 47,
          "name": "B2",
          "ticks": 5484,
          "time": 14.28125,
          "velocity": 0.8661417322834646
        },
        {
          "duration": 0.24479166666666607,
          "durationTicks": 94,
          "midi": 54,
          "name": "F#3",
          "ticks": 5580,
          "time": 14.53125,
          "velocity": 0.8661417322834646
        },
        {
          "duration": 0.24479166666666607,
          "durationTicks": 94,
          "midi": 59,
          "name": "B3",
          "ticks": 5676,
          "time": 14.78125,
          "velocity": 0.8661417322834646
        },
        {
          "duration": 0.24479166666666607,
          "durationTicks": 94,
          "midi": 44,
          "name": "G#2",
          "ticks": 5772,
          "time": 15.03125,
          "velocity": 0.8661417322834646
        },
        {
          "duration": 0.24479166666666607,
          "durationTicks": 94,
          "midi": 51,
          "name": "D#3",
          "ticks": 5868,
          "time": 15.28125,
          "velocity": 0.8661417322834646
        },
        {
          "duration": 0.24479166666666607,
          "durationTicks": 94,
          "midi": 56,
          "name": "G#3",
          "ticks": 5964,
          "time": 15.53125,
          "velocity": 0.8661417322834646
        },
        {
          "duration": 0.24479166666666785,
          "durationTicks": 94,
          "midi": 59,
          "name": "B3",
          "ticks": 6060,
          "time": 15.78125,
          "velocity": 0.8661417322834646
        },
        {
          "duration": 0.24479166666666785,
          "durationTicks": 94,
          "midi": 40,
          "name": "E2",
          "ticks": 6156,
          "time": 16.03125,
          "velocity": 0.8661417322834646
        },
        {
          "duration": 0.24479166666666785,
          "durationTicks": 94,
          "midi": 47,
          "name": "B2",
          "ticks": 6252,
          "time": 16.28125,
          "velocity": 0.8661417322834646
        },
        {
          "duration": 0.24479166666666785,
          "durationTicks": 94,
          "midi": 52,
          "name": "E3",
          "ticks": 6348,
          "time": 16.53125,
          "velocity": 0.8661417322834646
        },
        {
          "duration": 0.24479166666666785,
          "durationTicks": 94,
          "midi": 56,
          "name": "G#3",
          "ticks": 6444,
          "time": 16.78125,
          "velocity": 0.8661417322834646
        },
        {
          "duration": 0.24479166666666785,
          "durationTicks": 94,
          "midi": 42,
          "name": "F#2",
          "ticks": 6540,
          "time": 17.03125,
          "velocity": 0.8661417322834646
        },
        {
          "duration": 0.24479166666666785,
          "durationTicks": 94,
          "midi": 49,
          "name": "C#3",
          "ticks": 6636,
          "time": 17.28125,
          "velocity": 0.8661417322834646
        },
        {
          "duration": 0.24479166666666785,
          "durationTicks": 94,
          "midi": 54,
          "name": "F#3",
          "ticks": 6732,
          "time": 17.53125,
          "velocity": 0.8661417322834646
        },
        {
          "duration": 0.24479166666666785,
          "durationTicks": 94,
          "midi": 58,
          "name": "A#3",
          "ticks": 6828,
          "time": 17.78125,
          "velocity": 0.8661417322834646
        },
        {
          "duration": 0.24479166666666785,
          "durationTicks": 94,
          "midi": 42,
          "name": "F#2",
          "ticks": 6924,
          "time": 18.03125,
          "velocity": 0.8661417322834646
        },
        {
          "duration": 0.24479166666666785,
          "durationTicks": 94,
          "midi": 47,
          "name": "B2",
          "ticks": 7020,
          "time": 18.28125,
          "velocity": 0.8661417322834646
        },
        {
          "duration": 0.24479166666666785,
          "durationTicks": 94,
          "midi": 54,
          "name": "F#3",
          "ticks": 7116,
          "time": 18.53125,
          "velocity": 0.8661417322834646
        },
        {
          "duration": 0.24479166666666785,
          "durationTicks": 94,
          "midi": 59,
          "name": "B3",
          "ticks": 7212,
          "time": 18.78125,
          "velocity": 0.8661417322834646
        },
        {
          "duration": 0.24479166666666785,
          "durationTicks": 94,
          "midi": 44,
          "name": "G#2",
          "ticks": 7308,
          "time": 19.03125,
          "velocity": 0.8661417322834646
        },
        {
          "duration": 0.24479166666666785,
          "durationTicks": 94,
          "midi": 51,
          "name": "D#3",
          "ticks": 7404,
          "time": 19.28125,
          "velocity": 0.8661417322834646
        },
        {
          "duration": 0.24479166666666785,
          "durationTicks": 94,
          "midi": 56,
          "name": "G#3",
          "ticks": 7500,
          "time": 19.53125,
          "velocity": 0.8661417322834646
        },
        {
          "duration": 0.24479166666666785,
          "durationTicks": 94,
          "midi": 59,
          "name": "B3",
          "ticks": 7596,
          "time": 19.78125,
          "velocity": 0.8661417322834646
        },
        {
          "duration": 0.24479166666666785,
          "durationTicks": 94,
          "midi": 40,
          "name": "E2",
          "ticks": 7692,
          "time": 20.03125,
          "velocity": 0.8661417322834646
        },
        {
          "duration": 0.24479166666666785,
          "durationTicks": 94,
          "midi": 47,
          "name": "B2",
          "ticks": 7788,
          "time": 20.28125,
          "velocity": 0.8661417322834646
        },
        {
          "duration": 0.24479166666666785,
          "durationTicks": 94,
          "midi": 52,
          "name": "E3",
          "ticks": 7884,
          "time": 20.53125,
          "velocity": 0.8661417322834646
        },
        {
          "duration": 0.24479166666666785,
          "durationTicks": 94,
          "midi": 56,
          "name": "G#3",
          "ticks": 7980,
          "time": 20.78125,
          "velocity": 0.8661417322834646
        },
        {
          "duration": 0.24479166666666785,
          "durationTicks": 94,
          "midi": 42,
          "name": "F#2",
          "ticks": 8076,
          "time": 21.03125,
          "velocity": 0.8661417322834646
        },
        {
          "duration": 0.24479166666666785,
          "durationTicks": 94,
          "midi": 49,
          "name": "C#3",
          "ticks": 8172,
          "time": 21.28125,
          "velocity": 0.8661417322834646
        },
        {
          "duration": 0.24479166666666785,
          "durationTicks": 94,
          "midi": 54,
          "name": "F#3",
          "ticks": 8268,
          "time": 21.53125,
          "velocity": 0.8661417322834646
        },
        {
          "duration": 0.24479166666666785,
          "durationTicks": 94,
          "midi": 58,
          "name": "A#3",
          "ticks": 8364,
          "time": 21.78125,
          "velocity": 0.8661417322834646
        },
        {
          "duration": 0.24479166666666785,
          "durationTicks": 94,
          "midi": 42,
          "name": "F#2",
          "ticks": 8460,
          "time": 22.03125,
          "velocity": 0.8661417322834646
        },
        {
          "duration": 0.24479166666666785,
          "durationTicks": 94,
          "midi": 47,
          "name": "B2",
          "ticks": 8556,
          "time": 22.28125,
          "velocity": 0.8661417322834646
        },
        {
          "duration": 0.24479166666666785,
          "durationTicks": 94,
          "midi": 54,
          "name": "F#3",
          "ticks": 8652,
          "time": 22.53125,
          "velocity": 0.8661417322834646
        },
        {
          "duration": 0.24479166666666785,
          "durationTicks": 94,
          "midi": 59,
          "name": "B3",
          "ticks": 8748,
          "time": 22.78125,
          "velocity": 0.8661417322834646
        },
        {
          "duration": 0.24479166666666785,
          "durationTicks": 94,
          "midi": 44,
          "name": "G#2",
          "ticks": 8844,
          "time": 23.03125,
          "velocity": 0.8661417322834646
        },
        {
          "duration": 0.24479166666666785,
          "durationTicks": 94,
          "midi": 51,
          "name": "D#3",
          "ticks": 8940,
          "time": 23.28125,
          "velocity": 0.8661417322834646
        },
        {
          "duration": 0.24479166666666785,
          "durationTicks": 94,
          "midi": 56,
          "name": "G#3",
          "ticks": 9036,
          "time": 23.53125,
          "velocity": 0.8661417322834646
        },
        {
          "duration": 0.24479166666666785,
          "durationTicks": 94,
          "midi": 59,
          "name": "B3",
          "ticks": 9132,
          "time": 23.78125,
          "velocity": 0.8661417322834646
        },
        {
          "duration": 0.24479166666666785,
          "durationTicks": 94,
          "midi": 40,
          "name": "E2",
          "ticks": 9228,
          "time": 24.03125,
          "velocity": 0.8661417322834646
        },
        {
          "duration": 0.24479166666666785,
          "durationTicks": 94,
          "midi": 47,
          "name": "B2",
          "ticks": 9324,
          "time": 24.28125,
          "velocity": 0.8661417322834646
        },
        {
          "duration": 0.24479166666666785,
          "durationTicks": 94,
          "midi": 52,
          "name": "E3",
          "ticks": 9420,
          "time": 24.53125,
          "velocity": 0.8661417322834646
        },
        {
          "duration": 0.24479166666666785,
          "durationTicks": 94,
          "midi": 56,
          "name": "G#3",
          "ticks": 9516,
          "time": 24.78125,
          "velocity": 0.8661417322834646
        },
        {
          "duration": 0.24479166666666785,
          "durationTicks": 94,
          "midi": 42,
          "name": "F#2",
          "ticks": 9612,
          "time": 25.03125,
          "velocity": 0.8661417322834646
        },
        {
          "duration": 0.24479166666666785,
          "durationTicks": 94,
          "midi": 49,
          "name": "C#3",
          "ticks": 9708,
          "time": 25.28125,
          "velocity": 0.8661417322834646
        },
        {
          "duration": 0.24479166666666785,
          "durationTicks": 94,
          "midi": 54,
          "name": "F#3",
          "ticks": 9804,
          "time": 25.53125,
          "velocity": 0.8661417322834646
        },
        {
          "duration": 0.24479166666666785,
          "durationTicks": 94,
          "midi": 58,
          "name": "A#3",
          "ticks": 9900,
          "time": 25.78125,
          "velocity": 0.8661417322834646
        },
        {
          "duration": 0.24479166666666785,
          "durationTicks": 94,
          "midi": 42,
          "name": "F#2",
          "ticks": 9996,
          "time": 26.03125,
          "velocity": 0.8661417322834646
        },
        {
          "duration": 0.24479166666666785,
          "durationTicks": 94,
          "midi": 47,
          "name": "B2",
          "ticks": 10092,
          "time": 26.28125,
          "velocity": 0.8661417322834646
        },
        {
          "duration": 0.24479166666666785,
          "durationTicks": 94,
          "midi": 54,
          "name": "F#3",
          "ticks": 10188,
          "time": 26.53125,
          "velocity": 0.8661417322834646
        },
        {
          "duration": 0.24479166666666785,
          "durationTicks": 94,
          "midi": 59,
          "name": "B3",
          "ticks": 10284,
          "time": 26.78125,
          "velocity": 0.8661417322834646
        },
        {
          "duration": 0.24479166666666785,
          "durationTicks": 94,
          "midi": 44,
          "name": "G#2",
          "ticks": 10380,
          "time": 27.03125,
          "velocity": 0.8661417322834646
        },
        {
          "duration": 0.24479166666666785,
          "durationTicks": 94,
          "midi": 51,
          "name": "D#3",
          "ticks": 10476,
          "time": 27.28125,
          "velocity": 0.8661417322834646
        },
        {
          "duration": 0.24479166666666785,
          "durationTicks": 94,
          "midi": 56,
          "name": "G#3",
          "ticks": 10572,
          "time": 27.53125,
          "velocity": 0.8661417322834646
        },
        {
          "duration": 0.24479166666666785,
          "durationTicks": 94,
          "midi": 59,
          "name": "B3",
          "ticks": 10668,
          "time": 27.78125,
          "velocity": 0.8661417322834646
        },
        {
          "duration": 0.24479166666666785,
          "durationTicks": 94,
          "midi": 40,
          "name": "E2",
          "ticks": 10764,
          "time": 28.03125,
          "velocity": 0.8661417322834646
        },
        {
          "duration": 0.24479166666666785,
          "durationTicks": 94,
          "midi": 47,
          "name": "B2",
          "ticks": 10860,
          "time": 28.28125,
          "velocity": 0.8661417322834646
        },
        {
          "duration": 0.24479166666666785,
          "durationTicks": 94,
          "midi": 52,
          "name": "E3",
          "ticks": 10956,
          "time": 28.53125,
          "velocity": 0.8661417322834646
        },
        {
          "duration": 0.24479166666666785,
          "durationTicks": 94,
          "midi": 56,
          "name": "G#3",
          "ticks": 11052,
          "time": 28.78125,
          "velocity": 0.8661417322834646
        },
        {
          "duration": 0.24479166666666785,
          "durationTicks": 94,
          "midi": 42,
          "name": "F#2",
          "ticks": 11148,
          "time": 29.03125,
          "velocity": 0.8661417322834646
        },
        {
          "duration": 0.24479166666666785,
          "durationTicks": 94,
          "midi": 49,
          "name": "C#3",
          "ticks": 11244,
          "time": 29.28125,
          "velocity": 0.8661417322834646
        },
        {
          "duration": 0.24479166666666785,
          "durationTicks": 94,
          "midi": 54,
          "name": "F#3",
          "ticks": 11340,
          "time": 29.53125,
          "velocity": 0.8661417322834646
        },
        {
          "duration": 0.24479166666666785,
          "durationTicks": 94,
          "midi": 58,
          "name": "A#3",
          "ticks": 11436,
          "time": 29.78125,
          "velocity": 0.8661417322834646
        },
        {
          "duration": 0.24479166666666785,
          "durationTicks": 94,
          "midi": 42,
          "name": "F#2",
          "ticks": 11532,
          "time": 30.03125,
          "velocity": 0.8661417322834646
        },
        {
          "duration": 0.24479166666666785,
          "durationTicks": 94,
          "midi": 47,
          "name": "B2",
          "ticks": 11628,
          "time": 30.28125,
          "velocity": 0.8661417322834646
        },
        {
          "duration": 0.24479166666666785,
          "durationTicks": 94,
          "midi": 54,
          "name": "F#3",
          "ticks": 11724,
          "time": 30.53125,
          "velocity": 0.8661417322834646
        },
        {
          "duration": 0.24479166666666785,
          "durationTicks": 94,
          "midi": 59,
          "name": "B3",
          "ticks": 11820,
          "time": 30.78125,
          "velocity": 0.8661417322834646
        },
        {
          "duration": 0.24479166666666785,
          "durationTicks": 94,
          "midi": 44,
          "name": "G#2",
          "ticks": 11916,
          "time": 31.03125,
          "velocity": 0.8661417322834646
        },
        {
          "duration": 0.24479166666666785,
          "durationTicks": 94,
          "midi": 51,
          "name": "D#3",
          "ticks": 12012,
          "time": 31.28125,
          "velocity": 0.8661417322834646
        },
        {
          "duration": 0.24479166666666785,
          "durationTicks": 94,
          "midi": 56,
          "name": "G#3",
          "ticks": 12108,
          "time": 31.53125,
          "velocity": 0.8661417322834646
        },
        {
          "duration": 0.2447916666666643,
          "durationTicks": 94,
          "midi": 59,
          "name": "B3",
          "ticks": 12204,
          "time": 31.78125,
          "velocity": 0.8661417322834646
        },
        {
          "duration": 0.2447916666666643,
          "durationTicks": 94,
          "midi": 40,
          "name": "E2",
          "ticks": 12300,
          "time": 32.03125,
          "velocity": 0.8661417322834646
        },
        {
          "duration": 0.2447916666666643,
          "durationTicks": 94,
          "midi": 47,
          "name": "B2",
          "ticks": 12396,
          "time": 32.28125,
          "velocity": 0.8661417322834646
        },
        {
          "duration": 0.2447916666666643,
          "durationTicks": 94,
          "midi": 52,
          "name": "E3",
          "ticks": 12492,
          "time": 32.53125,
          "velocity": 0.8661417322834646
        },
        {
          "duration": 0.2447916666666643,
          "durationTicks": 94,
          "midi": 56,
          "name": "G#3",
          "ticks": 12588,
          "time": 32.78125,
          "velocity": 0.8661417322834646
        },
        {
          "duration": 0.2447916666666643,
          "durationTicks": 94,
          "midi": 42,
          "name": "F#2",
          "ticks": 12684,
          "time": 33.03125,
          "velocity": 0.8661417322834646
        },
        {
          "duration": 0.2447916666666643,
          "durationTicks": 94,
          "midi": 49,
          "name": "C#3",
          "ticks": 12780,
          "time": 33.28125,
          "velocity": 0.8661417322834646
        },
        {
          "duration": 0.2447916666666643,
          "durationTicks": 94,
          "midi": 54,
          "name": "F#3",
          "ticks": 12876,
          "time": 33.53125,
          "velocity": 0.8661417322834646
        },
        {
          "duration": 0.2447916666666643,
          "durationTicks": 94,
          "midi": 58,
          "name": "A#3",
          "ticks": 12972,
          "time": 33.78125,
          "velocity": 0.8661417322834646
        },
        {
          "duration": 0.2447916666666643,
          "durationTicks": 94,
          "midi": 42,
          "name": "F#2",
          "ticks": 13068,
          "time": 34.03125,
          "velocity": 0.8661417322834646
        },
        {
          "duration": 0.2447916666666643,
          "durationTicks": 94,
          "midi": 47,
          "name": "B2",
          "ticks": 13164,
          "time": 34.28125,
          "velocity": 0.8661417322834646
        },
        {
          "duration": 0.2447916666666643,
          "durationTicks": 94,
          "midi": 54,
          "name": "F#3",
          "ticks": 13260,
          "time": 34.53125,
          "velocity": 0.8661417322834646
        },
        {
          "duration": 0.2447916666666643,
          "durationTicks": 94,
          "midi": 59,
          "name": "B3",
          "ticks": 13356,
          "time": 34.78125,
          "velocity": 0.8661417322834646
        },
        {
          "duration": 0.2447916666666643,
          "durationTicks": 94,
          "midi": 44,
          "name": "G#2",
          "ticks": 13452,
          "time": 35.03125,
          "velocity": 0.8661417322834646
        },
        {
          "duration": 0.2447916666666643,
          "durationTicks": 94,
          "midi": 51,
          "name": "D#3",
          "ticks": 13548,
          "time": 35.28125,
          "velocity": 0.8661417322834646
        },
        {
          "duration": 0.2447916666666643,
          "durationTicks": 94,
          "midi": 56,
          "name": "G#3",
          "ticks": 13644,
          "time": 35.53125,
          "velocity": 0.8661417322834646
        },
        {
          "duration": 0.2447916666666643,
          "durationTicks": 94,
          "midi": 59,
          "name": "B3",
          "ticks": 13740,
          "time": 35.78125,
          "velocity": 0.8661417322834646
        },
        {
          "duration": 0.2447916666666643,
          "durationTicks": 94,
          "midi": 40,
          "name": "E2",
          "ticks": 13836,
          "time": 36.03125,
          "velocity": 0.8661417322834646
        },
        {
          "duration": 0.2447916666666643,
          "durationTicks": 94,
          "midi": 47,
          "name": "B2",
          "ticks": 13932,
          "time": 36.28125,
          "velocity": 0.8661417322834646
        },
        {
          "duration": 0.2447916666666643,
          "durationTicks": 94,
          "midi": 52,
          "name": "E3",
          "ticks": 14028,
          "time": 36.53125,
          "velocity": 0.8661417322834646
        },
        {
          "duration": 0.2447916666666643,
          "durationTicks": 94,
          "midi": 56,
          "name": "G#3",
          "ticks": 14124,
          "time": 36.78125,
          "velocity": 0.8661417322834646
        },
        {
          "duration": 0.2447916666666643,
          "durationTicks": 94,
          "midi": 42,
          "name": "F#2",
          "ticks": 14220,
          "time": 37.03125,
          "velocity": 0.8661417322834646
        },
        {
          "duration": 0.2447916666666643,
          "durationTicks": 94,
          "midi": 49,
          "name": "C#3",
          "ticks": 14316,
          "time": 37.28125,
          "velocity": 0.8661417322834646
        },
        {
          "duration": 0.2447916666666643,
          "durationTicks": 94,
          "midi": 54,
          "name": "F#3",
          "ticks": 14412,
          "time": 37.53125,
          "velocity": 0.8661417322834646
        },
        {
          "duration": 0.2447916666666643,
          "durationTicks": 94,
          "midi": 58,
          "name": "A#3",
          "ticks": 14508,
          "time": 37.78125,
          "velocity": 0.8661417322834646
        },
        {
          "duration": 0.2447916666666643,
          "durationTicks": 94,
          "midi": 42,
          "name": "F#2",
          "ticks": 14604,
          "time": 38.03125,
          "velocity": 0.8661417322834646
        },
        {
          "duration": 0.2447916666666643,
          "durationTicks": 94,
          "midi": 47,
          "name": "B2",
          "ticks": 14700,
          "time": 38.28125,
          "velocity": 0.8661417322834646
        },
        {
          "duration": 0.2447916666666643,
          "durationTicks": 94,
          "midi": 54,
          "name": "F#3",
          "ticks": 14796,
          "time": 38.53125,
          "velocity": 0.8661417322834646
        },
        {
          "duration": 0.2447916666666643,
          "durationTicks": 94,
          "midi": 59,
          "name": "B3",
          "ticks": 14892,
          "time": 38.78125,
          "velocity": 0.8661417322834646
        },
        {
          "duration": 0.2447916666666643,
          "durationTicks": 94,
          "midi": 44,
          "name": "G#2",
          "ticks": 14988,
          "time": 39.03125,
          "velocity": 0.8661417322834646
        },
        {
          "duration": 0.2447916666666643,
          "durationTicks": 94,
          "midi": 51,
          "name": "D#3",
          "ticks": 15084,
          "time": 39.28125,
          "velocity": 0.8661417322834646
        },
        {
          "duration": 0.2447916666666643,
          "durationTicks": 94,
          "midi": 56,
          "name": "G#3",
          "ticks": 15180,
          "time": 39.53125,
          "velocity": 0.8661417322834646
        },
        {
          "duration": 0.2447916666666643,
          "durationTicks": 94,
          "midi": 59,
          "name": "B3",
          "ticks": 15276,
          "time": 39.78125,
          "velocity": 0.8661417322834646
        },
        {
          "duration": 0.2447916666666643,
          "durationTicks": 94,
          "midi": 40,
          "name": "E2",
          "ticks": 15372,
          "time": 40.03125,
          "velocity": 0.8661417322834646
        },
        {
          "duration": 0.2447916666666643,
          "durationTicks": 94,
          "midi": 47,
          "name": "B2",
          "ticks": 15468,
          "time": 40.28125,
          "velocity": 0.8661417322834646
        },
        {
          "duration": 0.2447916666666643,
          "durationTicks": 94,
          "midi": 52,
          "name": "E3",
          "ticks": 15564,
          "time": 40.53125,
          "velocity": 0.8661417322834646
        },
        {
          "duration": 0.2447916666666643,
          "durationTicks": 94,
          "midi": 56,
          "name": "G#3",
          "ticks": 15660,
          "time": 40.78125,
          "velocity": 0.8661417322834646
        },
        {
          "duration": 0.2447916666666643,
          "durationTicks": 94,
          "midi": 42,
          "name": "F#2",
          "ticks": 15756,
          "time": 41.03125,
          "velocity": 0.8661417322834646
        },
        {
          "duration": 0.2447916666666643,
          "durationTicks": 94,
          "midi": 49,
          "name": "C#3",
          "ticks": 15852,
          "time": 41.28125,
          "velocity": 0.8661417322834646
        },
        {
          "duration": 0.2447916666666643,
          "durationTicks": 94,
          "midi": 54,
          "name": "F#3",
          "ticks": 15948,
          "time": 41.53125,
          "velocity": 0.8661417322834646
        },
        {
          "duration": 0.2447916666666643,
          "durationTicks": 94,
          "midi": 58,
          "name": "A#3",
          "ticks": 16044,
          "time": 41.78125,
          "velocity": 0.8661417322834646
        },
        {
          "duration": 0.2447916666666643,
          "durationTicks": 94,
          "midi": 42,
          "name": "F#2",
          "ticks": 16140,
          "time": 42.03125,
          "velocity": 0.8661417322834646
        },
        {
          "duration": 0.2447916666666643,
          "durationTicks": 94,
          "midi": 47,
          "name": "B2",
          "ticks": 16236,
          "time": 42.28125,
          "velocity": 0.8661417322834646
        },
        {
          "duration": 0.2447916666666643,
          "durationTicks": 94,
          "midi": 54,
          "name": "F#3",
          "ticks": 16332,
          "time": 42.53125,
          "velocity": 0.8661417322834646
        },
        {
          "duration": 0.2447916666666643,
          "durationTicks": 94,
          "midi": 59,
          "name": "B3",
          "ticks": 16428,
          "time": 42.78125,
          "velocity": 0.8661417322834646
        },
        {
          "duration": 0.2447916666666643,
          "durationTicks": 94,
          "midi": 44,
          "name": "G#2",
          "ticks": 16524,
          "time": 43.03125,
          "velocity": 0.8661417322834646
        },
        {
          "duration": 0.2447916666666643,
          "durationTicks": 94,
          "midi": 51,
          "name": "D#3",
          "ticks": 16620,
          "time": 43.28125,
          "velocity": 0.8661417322834646
        },
        {
          "duration": 0.2447916666666643,
          "durationTicks": 94,
          "midi": 56,
          "name": "G#3",
          "ticks": 16716,
          "time": 43.53125,
          "velocity": 0.8661417322834646
        },
        {
          "duration": 0.2447916666666643,
          "durationTicks": 94,
          "midi": 59,
          "name": "B3",
          "ticks": 16812,
          "time": 43.78125,
          "velocity": 0.8661417322834646
        },
        {
          "duration": 0.2447916666666643,
          "durationTicks": 94,
          "midi": 40,
          "name": "E2",
          "ticks": 16908,
          "time": 44.03125,
          "velocity": 0.8661417322834646
        },
        {
          "duration": 0.2447916666666643,
          "durationTicks": 94,
          "midi": 47,
          "name": "B2",
          "ticks": 17004,
          "time": 44.28125,
          "velocity": 0.8661417322834646
        },
        {
          "duration": 0.2447916666666643,
          "durationTicks": 94,
          "midi": 52,
          "name": "E3",
          "ticks": 17100,
          "time": 44.53125,
          "velocity": 0.8661417322834646
        },
        {
          "duration": 0.2447916666666643,
          "durationTicks": 94,
          "midi": 56,
          "name": "G#3",
          "ticks": 17196,
          "time": 44.78125,
          "velocity": 0.8661417322834646
        },
        {
          "duration": 0.2447916666666643,
          "durationTicks": 94,
          "midi": 42,
          "name": "F#2",
          "ticks": 17292,
          "time": 45.03125,
          "velocity": 0.8661417322834646
        },
        {
          "duration": 0.2447916666666643,
          "durationTicks": 94,
          "midi": 49,
          "name": "C#3",
          "ticks": 17388,
          "time": 45.28125,
          "velocity": 0.8661417322834646
        },
        {
          "duration": 0.2447916666666643,
          "durationTicks": 94,
          "midi": 54,
          "name": "F#3",
          "ticks": 17484,
          "time": 45.53125,
          "velocity": 0.8661417322834646
        },
        {
          "duration": 0.2447916666666643,
          "durationTicks": 94,
          "midi": 58,
          "name": "A#3",
          "ticks": 17580,
          "time": 45.78125,
          "velocity": 0.8661417322834646
        },
        {
          "duration": 0.2447916666666643,
          "durationTicks": 94,
          "midi": 42,
          "name": "F#2",
          "ticks": 17676,
          "time": 46.03125,
          "velocity": 0.8661417322834646
        },
        {
          "duration": 0.2447916666666643,
          "durationTicks": 94,
          "midi": 47,
          "name": "B2",
          "ticks": 17772,
          "time": 46.28125,
          "velocity": 0.8661417322834646
        },
        {
          "duration": 0.2447916666666643,
          "durationTicks": 94,
          "midi": 54,
          "name": "F#3",
          "ticks": 17868,
          "time": 46.53125,
          "velocity": 0.8661417322834646
        },
        {
          "duration": 0.2447916666666643,
          "durationTicks": 94,
          "midi": 59,
          "name": "B3",
          "ticks": 17964,
          "time": 46.78125,
          "velocity": 0.8661417322834646
        },
        {
          "duration": 0.2447916666666643,
          "durationTicks": 94,
          "midi": 44,
          "name": "G#2",
          "ticks": 18060,
          "time": 47.03125,
          "velocity": 0.8661417322834646
        },
        {
          "duration": 0.2447916666666643,
          "durationTicks": 94,
          "midi": 51,
          "name": "D#3",
          "ticks": 18156,
          "time": 47.28125,
          "velocity": 0.8661417322834646
        },
        {
          "duration": 0.2447916666666643,
          "durationTicks": 94,
          "midi": 56,
          "name": "G#3",
          "ticks": 18252,
          "time": 47.53125,
          "velocity": 0.8661417322834646
        },
        {
          "duration": 0.2447916666666643,
          "durationTicks": 94,
          "midi": 59,
          "name": "B3",
          "ticks": 18348,
          "time": 47.78125,
          "velocity": 0.8661417322834646
        },
        {
          "duration": 0.2447916666666643,
          "durationTicks": 94,
          "midi": 40,
          "name": "E2",
          "ticks": 18444,
          "time": 48.03125,
          "velocity": 0.8661417322834646
        },
        {
          "duration": 0.2447916666666643,
          "durationTicks": 94,
          "midi": 47,
          "name": "B2",
          "ticks": 18540,
          "time": 48.28125,
          "velocity": 0.8661417322834646
        },
        {
          "duration": 0.2447916666666643,
          "durationTicks": 94,
          "midi": 52,
          "name": "E3",
          "ticks": 18636,
          "time": 48.53125,
          "velocity": 0.8661417322834646
        },
        {
          "duration": 0.2447916666666643,
          "durationTicks": 94,
          "midi": 56,
          "name": "G#3",
          "ticks": 18732,
          "time": 48.78125,
          "velocity": 0.8661417322834646
        },
        {
          "duration": 0.2447916666666643,
          "durationTicks": 94,
          "midi": 42,
          "name": "F#2",
          "ticks": 18828,
          "time": 49.03125,
          "velocity": 0.8661417322834646
        },
        {
          "duration": 0.2447916666666643,
          "durationTicks": 94,
          "midi": 49,
          "name": "C#3",
          "ticks": 18924,
          "time": 49.28125,
          "velocity": 0.8661417322834646
        },
        {
          "duration": 0.2447916666666643,
          "durationTicks": 94,
          "midi": 54,
          "name": "F#3",
          "ticks": 19020,
          "time": 49.53125,
          "velocity": 0.8661417322834646
        },
        {
          "duration": 0.2447916666666643,
          "durationTicks": 94,
          "midi": 58,
          "name": "A#3",
          "ticks": 19116,
          "time": 49.78125,
          "velocity": 0.8661417322834646
        },
        {
          "duration": 0.2447916666666643,
          "durationTicks": 94,
          "midi": 42,
          "name": "F#2",
          "ticks": 19212,
          "time": 50.03125,
          "velocity": 0.8661417322834646
        },
        {
          "duration": 0.2447916666666643,
          "durationTicks": 94,
          "midi": 47,
          "name": "B2",
          "ticks": 19308,
          "time": 50.28125,
          "velocity": 0.8661417322834646
        },
        {
          "duration": 0.2447916666666643,
          "durationTicks": 94,
          "midi": 54,
          "name": "F#3",
          "ticks": 19404,
          "time": 50.53125,
          "velocity": 0.8661417322834646
        },
        {
          "duration": 0.2447916666666643,
          "durationTicks": 94,
          "midi": 59,
          "name": "B3",
          "ticks": 19500,
          "time": 50.78125,
          "velocity": 0.8661417322834646
        },
        {
          "duration": 0.2447916666666643,
          "durationTicks": 94,
          "midi": 44,
          "name": "G#2",
          "ticks": 19596,
          "time": 51.03125,
          "velocity": 0.8661417322834646
        },
        {
          "duration": 0.2447916666666643,
          "durationTicks": 94,
          "midi": 51,
          "name": "D#3",
          "ticks": 19692,
          "time": 51.28125,
          "velocity": 0.8661417322834646
        },
        {
          "duration": 0.2447916666666643,
          "durationTicks": 94,
          "midi": 56,
          "name": "G#3",
          "ticks": 19788,
          "time": 51.53125,
          "velocity": 0.8661417322834646
        },
        {
          "duration": 0.2447916666666643,
          "durationTicks": 94,
          "midi": 59,
          "name": "B3",
          "ticks": 19884,
          "time": 51.78125,
          "velocity": 0.8661417322834646
        },
        {
          "duration": 0.2447916666666643,
          "durationTicks": 94,
          "midi": 40,
          "name": "E2",
          "ticks": 19980,
          "time": 52.03125,
          "velocity": 0.8661417322834646
        },
        {
          "duration": 0.2447916666666643,
          "durationTicks": 94,
          "midi": 47,
          "name": "B2",
          "ticks": 20076,
          "time": 52.28125,
          "velocity": 0.8661417322834646
        },
        {
          "duration": 0.2447916666666643,
          "durationTicks": 94,
          "midi": 52,
          "name": "E3",
          "ticks": 20172,
          "time": 52.53125,
          "velocity": 0.8661417322834646
        },
        {
          "duration": 0.2447916666666643,
          "durationTicks": 94,
          "midi": 56,
          "name": "G#3",
          "ticks": 20268,
          "time": 52.78125,
          "velocity": 0.8661417322834646
        },
        {
          "duration": 0.2447916666666643,
          "durationTicks": 94,
          "midi": 42,
          "name": "F#2",
          "ticks": 20364,
          "time": 53.03125,
          "velocity": 0.8661417322834646
        },
        {
          "duration": 0.2447916666666643,
          "durationTicks": 94,
          "midi": 49,
          "name": "C#3",
          "ticks": 20460,
          "time": 53.28125,
          "velocity": 0.8661417322834646
        },
        {
          "duration": 0.2447916666666643,
          "durationTicks": 94,
          "midi": 54,
          "name": "F#3",
          "ticks": 20556,
          "time": 53.53125,
          "velocity": 0.8661417322834646
        },
        {
          "duration": 0.2447916666666643,
          "durationTicks": 94,
          "midi": 58,
          "name": "A#3",
          "ticks": 20652,
          "time": 53.78125,
          "velocity": 0.8661417322834646
        },
        {
          "duration": 0.2447916666666643,
          "durationTicks": 94,
          "midi": 42,
          "name": "F#2",
          "ticks": 20748,
          "time": 54.03125,
          "velocity": 0.8661417322834646
        },
        {
          "duration": 0.2447916666666643,
          "durationTicks": 94,
          "midi": 47,
          "name": "B2",
          "ticks": 20844,
          "time": 54.28125,
          "velocity": 0.8661417322834646
        },
        {
          "duration": 0.2447916666666643,
          "durationTicks": 94,
          "midi": 54,
          "name": "F#3",
          "ticks": 20940,
          "time": 54.53125,
          "velocity": 0.8661417322834646
        },
        {
          "duration": 0.2447916666666643,
          "durationTicks": 94,
          "midi": 59,
          "name": "B3",
          "ticks": 21036,
          "time": 54.78125,
          "velocity": 0.8661417322834646
        },
        {
          "duration": 0.2447916666666643,
          "durationTicks": 94,
          "midi": 44,
          "name": "G#2",
          "ticks": 21132,
          "time": 55.03125,
          "velocity": 0.8661417322834646
        },
        {
          "duration": 0.2447916666666643,
          "durationTicks": 94,
          "midi": 51,
          "name": "D#3",
          "ticks": 21228,
          "time": 55.28125,
          "velocity": 0.8661417322834646
        },
        {
          "duration": 0.2447916666666643,
          "durationTicks": 94,
          "midi": 56,
          "name": "G#3",
          "ticks": 21324,
          "time": 55.53125,
          "velocity": 0.8661417322834646
        },
        {
          "duration": 0.2447916666666643,
          "durationTicks": 94,
          "midi": 59,
          "name": "B3",
          "ticks": 21420,
          "time": 55.78125,
          "velocity": 0.8661417322834646
        },
        {
          "duration": 0.2447916666666643,
          "durationTicks": 94,
          "midi": 40,
          "name": "E2",
          "ticks": 21516,
          "time": 56.03125,
          "velocity": 0.8661417322834646
        },
        {
          "duration": 0.2447916666666643,
          "durationTicks": 94,
          "midi": 47,
          "name": "B2",
          "ticks": 21612,
          "time": 56.28125,
          "velocity": 0.8661417322834646
        },
        {
          "duration": 0.2447916666666643,
          "durationTicks": 94,
          "midi": 52,
          "name": "E3",
          "ticks": 21708,
          "time": 56.53125,
          "velocity": 0.8661417322834646
        },
        {
          "duration": 0.2447916666666643,
          "durationTicks": 94,
          "midi": 56,
          "name": "G#3",
          "ticks": 21804,
          "time": 56.78125,
          "velocity": 0.8661417322834646
        },
        {
          "duration": 0.2447916666666643,
          "durationTicks": 94,
          "midi": 42,
          "name": "F#2",
          "ticks": 21900,
          "time": 57.03125,
          "velocity": 0.8661417322834646
        },
        {
          "duration": 0.2447916666666643,
          "durationTicks": 94,
          "midi": 49,
          "name": "C#3",
          "ticks": 21996,
          "time": 57.28125,
          "velocity": 0.8661417322834646
        },
        {
          "duration": 0.2447916666666643,
          "durationTicks": 94,
          "midi": 54,
          "name": "F#3",
          "ticks": 22092,
          "time": 57.53125,
          "velocity": 0.8661417322834646
        },
        {
          "duration": 0.2447916666666643,
          "durationTicks": 94,
          "midi": 58,
          "name": "A#3",
          "ticks": 22188,
          "time": 57.78125,
          "velocity": 0.8661417322834646
        },
        {
          "duration": 0.2447916666666643,
          "durationTicks": 94,
          "midi": 42,
          "name": "F#2",
          "ticks": 22284,
          "time": 58.03125,
          "velocity": 0.8661417322834646
        },
        {
          "duration": 0.2447916666666643,
          "durationTicks": 94,
          "midi": 47,
          "name": "B2",
          "ticks": 22380,
          "time": 58.28125,
          "velocity": 0.8661417322834646
        },
        {
          "duration": 0.2447916666666643,
          "durationTicks": 94,
          "midi": 54,
          "name": "F#3",
          "ticks": 22476,
          "time": 58.53125,
          "velocity": 0.8661417322834646
        },
        {
          "duration": 0.2447916666666643,
          "durationTicks": 94,
          "midi": 59,
          "name": "B3",
          "ticks": 22572,
          "time": 58.78125,
          "velocity": 0.8661417322834646
        },
        {
          "duration": 0.2447916666666643,
          "durationTicks": 94,
          "midi": 44,
          "name": "G#2",
          "ticks": 22668,
          "time": 59.03125,
          "velocity": 0.8661417322834646
        },
        {
          "duration": 0.2447916666666643,
          "durationTicks": 94,
          "midi": 51,
          "name": "D#3",
          "ticks": 22764,
          "time": 59.28125,
          "velocity": 0.8661417322834646
        },
        {
          "duration": 0.2447916666666643,
          "durationTicks": 94,
          "midi": 56,
          "name": "G#3",
          "ticks": 22860,
          "time": 59.53125,
          "velocity": 0.8661417322834646
        },
        {
          "duration": 0.2447916666666643,
          "durationTicks": 94,
          "midi": 59,
          "name": "B3",
          "ticks": 22956,
          "time": 59.78125,
          "velocity": 0.8661417322834646
        },
        {
          "duration": 0.2447916666666643,
          "durationTicks": 94,
          "midi": 40,
          "name": "E2",
          "ticks": 23052,
          "time": 60.03125,
          "velocity": 0.8661417322834646
        },
        {
          "duration": 0.2447916666666643,
          "durationTicks": 94,
          "midi": 47,
          "name": "B2",
          "ticks": 23148,
          "time": 60.28125,
          "velocity": 0.8661417322834646
        },
        {
          "duration": 0.2447916666666643,
          "durationTicks": 94,
          "midi": 52,
          "name": "E3",
          "ticks": 23244,
          "time": 60.53125,
          "velocity": 0.8661417322834646
        },
        {
          "duration": 0.2447916666666643,
          "durationTicks": 94,
          "midi": 56,
          "name": "G#3",
          "ticks": 23340,
          "time": 60.78125,
          "velocity": 0.8661417322834646
        },
        {
          "duration": 0.2447916666666643,
          "durationTicks": 94,
          "midi": 42,
          "name": "F#2",
          "ticks": 23436,
          "time": 61.03125,
          "velocity": 0.8661417322834646
        },
        {
          "duration": 0.2447916666666643,
          "durationTicks": 94,
          "midi": 49,
          "name": "C#3",
          "ticks": 23532,
          "time": 61.28125,
          "velocity": 0.8661417322834646
        },
        {
          "duration": 0.2447916666666643,
          "durationTicks": 94,
          "midi": 54,
          "name": "F#3",
          "ticks": 23628,
          "time": 61.53125,
          "velocity": 0.8661417322834646
        },
        {
          "duration": 0.2447916666666643,
          "durationTicks": 94,
          "midi": 58,
          "name": "A#3",
          "ticks": 23724,
          "time": 61.78125,
          "velocity": 0.8661417322834646
        },
        {
          "duration": 0.2447916666666643,
          "durationTicks": 94,
          "midi": 42,
          "name": "F#2",
          "ticks": 23820,
          "time": 62.03125,
          "velocity": 0.8661417322834646
        },
        {
          "duration": 0.2447916666666643,
          "durationTicks": 94,
          "midi": 47,
          "name": "B2",
          "ticks": 23916,
          "time": 62.28125,
          "velocity": 0.8661417322834646
        },
        {
          "duration": 0.2447916666666643,
          "durationTicks": 94,
          "midi": 54,
          "name": "F#3",
          "ticks": 24012,
          "time": 62.53125,
          "velocity": 0.8661417322834646
        },
        {
          "duration": 0.2447916666666643,
          "durationTicks": 94,
          "midi": 59,
          "name": "B3",
          "ticks": 24108,
          "time": 62.78125,
          "velocity": 0.8661417322834646
        },
        {
          "duration": 0.2447916666666643,
          "durationTicks": 94,
          "midi": 44,
          "name": "G#2",
          "ticks": 24204,
          "time": 63.03125,
          "velocity": 0.8661417322834646
        },
        {
          "duration": 0.2447916666666643,
          "durationTicks": 94,
          "midi": 51,
          "name": "D#3",
          "ticks": 24300,
          "time": 63.28125,
          "velocity": 0.8661417322834646
        },
        {
          "duration": 0.2447916666666643,
          "durationTicks": 94,
          "midi": 56,
          "name": "G#3",
          "ticks": 24396,
          "time": 63.53125,
          "velocity": 0.8661417322834646
        },
        {
          "duration": 0.2447916666666714,
          "durationTicks": 94,
          "midi": 59,
          "name": "B3",
          "ticks": 24492,
          "time": 63.78125,
          "velocity": 0.8661417322834646
        },
        {
          "duration": 0.2447916666666714,
          "durationTicks": 94,
          "midi": 40,
          "name": "E2",
          "ticks": 24588,
          "time": 64.03125,
          "velocity": 0.8661417322834646
        },
        {
          "duration": 0.2447916666666714,
          "durationTicks": 94,
          "midi": 47,
          "name": "B2",
          "ticks": 24684,
          "time": 64.28125,
          "velocity": 0.8661417322834646
        },
        {
          "duration": 0.2447916666666714,
          "durationTicks": 94,
          "midi": 52,
          "name": "E3",
          "ticks": 24780,
          "time": 64.53125,
          "velocity": 0.8661417322834646
        },
        {
          "duration": 0.2447916666666714,
          "durationTicks": 94,
          "midi": 56,
          "name": "G#3",
          "ticks": 24876,
          "time": 64.78125,
          "velocity": 0.8661417322834646
        },
        {
          "duration": 0.2447916666666714,
          "durationTicks": 94,
          "midi": 42,
          "name": "F#2",
          "ticks": 24972,
          "time": 65.03125,
          "velocity": 0.8661417322834646
        },
        {
          "duration": 0.2447916666666714,
          "durationTicks": 94,
          "midi": 49,
          "name": "C#3",
          "ticks": 25068,
          "time": 65.28125,
          "velocity": 0.8661417322834646
        },
        {
          "duration": 0.2447916666666714,
          "durationTicks": 94,
          "midi": 54,
          "name": "F#3",
          "ticks": 25164,
          "time": 65.53125,
          "velocity": 0.8661417322834646
        },
        {
          "duration": 0.2447916666666714,
          "durationTicks": 94,
          "midi": 58,
          "name": "A#3",
          "ticks": 25260,
          "time": 65.78125,
          "velocity": 0.8661417322834646
        },
        {
          "duration": 0.4166666666666714,
          "durationTicks": 160,
          "midi": 42,
          "name": "F#2",
          "ticks": 25356,
          "time": 66.03125,
          "velocity": 0.8661417322834646
        },
        {
          "duration": 0.2447916666666714,
          "durationTicks": 94,
          "midi": 54,
          "name": "F#3",
          "ticks": 25548,
          "time": 66.53125,
          "velocity": 0.8661417322834646
        },
        {
          "duration": 0.2447916666666714,
          "durationTicks": 94,
          "midi": 59,
          "name": "B3",
          "ticks": 25644,
          "time": 66.78125,
          "velocity": 0.8661417322834646
        },
        {
          "duration": 0.4166666666666714,
          "durationTicks": 160,
          "midi": 44,
          "name": "G#2",
          "ticks": 25740,
          "time": 67.03125,
          "velocity": 0.8661417322834646
        },
        {
          "duration": 0.2447916666666714,
          "durationTicks": 94,
          "midi": 56,
          "name": "G#3",
          "ticks": 25932,
          "time": 67.53125,
          "velocity": 0.8661417322834646
        },
        {
          "duration": 0.2447916666666714,
          "durationTicks": 94,
          "midi": 59,
          "name": "B3",
          "ticks": 26028,
          "time": 67.78125,
          "velocity": 0.8661417322834646
        },
        {
          "duration": 0.4166666666666714,
          "durationTicks": 160,
          "midi": 40,
          "name": "E2",
          "ticks": 26124,
          "time": 68.03125,
          "velocity": 0.8661417322834646
        },
        {
          "duration": 0.2447916666666714,
          "durationTicks": 94,
          "midi": 52,
          "name": "E3",
          "ticks": 26316,
          "time": 68.53125,
          "velocity": 0.8661417322834646
        },
        {
          "duration": 0.2447916666666714,
          "durationTicks": 94,
          "midi": 56,
          "name": "G#3",
          "ticks": 26412,
          "time": 68.78125,
          "velocity": 0.8661417322834646
        },
        {
          "duration": 0.4166666666666714,
          "durationTicks": 160,
          "midi": 42,
          "name": "F#2",
          "ticks": 26508,
          "time": 69.03125,
          "velocity": 0.8661417322834646
        },
        {
          "duration": 0.4166666666666714,
          "durationTicks": 160,
          "midi": 54,
          "name": "F#3",
          "ticks": 26700,
          "time": 69.53125,
          "velocity": 0.8661417322834646
        },
        {
          "duration": 0.875,
          "durationTicks": 336,
          "midi": 42,
          "name": "F#2",
          "ticks": 26892,
          "time": 70.03125,
          "velocity": 0.8661417322834646
        }
      ]
    },
    {
      "channel": 6,
      "controlChanges": {
        "7": [
          {
            "number": 7,
            "ticks": 0,
            "time": 0,
            "value": 0.5039370078740157
          }
        ],
        "10": [
          {
            "number": 10,
            "ticks": 0,
            "time": 0,
            "value": 0.5039370078740157
          }
        ]
      },
      "pitchBends": [],
      "instrument": {
        "family": "strings",
        "name": "timpani",
        "number": 47
      },
      "name": "",
      "notes": [
        {
          "duration": 0.4166666666666665,
          "durationTicks": 160,
          "midi": 42,
          "name": "F#2",
          "ticks": 768,
          "time": 2,
          "velocity": 0.8661417322834646
        },
        {
          "duration": 0.4166666666666661,
          "durationTicks": 160,
          "midi": 42,
          "name": "F#2",
          "ticks": 3648,
          "time": 9.5,
          "velocity": 0.8661417322834646
        },
        {
          "duration": 0.4166666666666661,
          "durationTicks": 160,
          "midi": 42,
          "name": "F#2",
          "ticks": 3840,
          "time": 10,
          "velocity": 0.8661417322834646
        },
        {
          "duration": 0.41666666666666785,
          "durationTicks": 160,
          "midi": 42,
          "name": "F#2",
          "ticks": 6720,
          "time": 17.5,
          "velocity": 0.8661417322834646
        },
        {
          "duration": 0.41666666666666785,
          "durationTicks": 160,
          "midi": 42,
          "name": "F#2",
          "ticks": 6912,
          "time": 18,
          "velocity": 0.8661417322834646
        },
        {
          "duration": 0.41666666666666785,
          "durationTicks": 160,
          "midi": 42,
          "name": "F#2",
          "ticks": 9792,
          "time": 25.5,
          "velocity": 0.8661417322834646
        },
        {
          "duration": 0.41666666666666785,
          "durationTicks": 160,
          "midi": 42,
          "name": "F#2",
          "ticks": 9984,
          "time": 26,
          "velocity": 0.8661417322834646
        },
        {
          "duration": 0.4166666666666643,
          "durationTicks": 160,
          "midi": 42,
          "name": "F#2",
          "ticks": 12864,
          "time": 33.5,
          "velocity": 0.8661417322834646
        },
        {
          "duration": 0.4166666666666643,
          "durationTicks": 160,
          "midi": 42,
          "name": "F#2",
          "ticks": 13056,
          "time": 34,
          "velocity": 0.8661417322834646
        },
        {
          "duration": 0.4166666666666643,
          "durationTicks": 160,
          "midi": 42,
          "name": "F#2",
          "ticks": 15936,
          "time": 41.5,
          "velocity": 0.8661417322834646
        },
        {
          "duration": 0.4166666666666643,
          "durationTicks": 160,
          "midi": 42,
          "name": "F#2",
          "ticks": 16128,
          "time": 42,
          "velocity": 0.8661417322834646
        },
        {
          "duration": 0.4166666666666643,
          "durationTicks": 160,
          "midi": 42,
          "name": "F#2",
          "ticks": 19008,
          "time": 49.5,
          "velocity": 0.8661417322834646
        },
        {
          "duration": 0.4166666666666643,
          "durationTicks": 160,
          "midi": 42,
          "name": "F#2",
          "ticks": 19200,
          "time": 50,
          "velocity": 0.8661417322834646
        },
        {
          "duration": 0.4166666666666643,
          "durationTicks": 160,
          "midi": 42,
          "name": "F#2",
          "ticks": 22080,
          "time": 57.5,
          "velocity": 0.8661417322834646
        },
        {
          "duration": 0.4166666666666643,
          "durationTicks": 160,
          "midi": 42,
          "name": "F#2",
          "ticks": 22272,
          "time": 58,
          "velocity": 0.8661417322834646
        },
        {
          "duration": 0.4166666666666714,
          "durationTicks": 160,
          "midi": 42,
          "name": "F#2",
          "ticks": 25152,
          "time": 65.5,
          "velocity": 0.8661417322834646
        },
        {
          "duration": 0.4166666666666714,
          "durationTicks": 160,
          "midi": 42,
          "name": "F#2",
          "ticks": 25344,
          "time": 66,
          "velocity": 0.8661417322834646
        }
      ]
    },
    {
      "channel": 7,
      "controlChanges": {
        "7": [
          {
            "number": 7,
            "ticks": 0,
            "time": 0,
            "value": 0.5039370078740157
          }
        ],
        "10": [
          {
            "number": 10,
            "ticks": 0,
            "time": 0,
            "value": 0.5039370078740157
          }
        ]
      },
      "pitchBends": [],
      "instrument": {
        "family": "bass",
        "name": "fretless bass",
        "number": 35
      },
      "name": "",
      "notes": [
        {
          "duration": 0.875,
          "durationTicks": 336,
          "midi": 30,
          "name": "F#1",
          "ticks": 768,
          "time": 2,
          "velocity": 0.8661417322834646
        },
        {
          "duration": 0.875,
          "durationTicks": 336,
          "midi": 32,
          "name": "G#1",
          "ticks": 1152,
          "time": 3,
          "velocity": 0.8661417322834646
        },
        {
          "duration": 0.875,
          "durationTicks": 336,
          "midi": 28,
          "name": "E1",
          "ticks": 1536,
          "time": 4,
          "velocity": 0.8661417322834646
        },
        {
          "duration": 0.875,
          "durationTicks": 336,
          "midi": 30,
          "name": "F#1",
          "ticks": 1920,
          "time": 5,
          "velocity": 0.8661417322834646
        },
        {
          "duration": 0.875,
          "durationTicks": 336,
          "midi": 30,
          "name": "F#1",
          "ticks": 2304,
          "time": 6,
          "velocity": 0.8661417322834646
        },
        {
          "duration": 0.875,
          "durationTicks": 336,
          "midi": 32,
          "name": "G#1",
          "ticks": 2688,
          "time": 7,
          "velocity": 0.8661417322834646
        },
        {
          "duration": 0.875,
          "durationTicks": 336,
          "midi": 28,
          "name": "E1",
          "ticks": 3072,
          "time": 8,
          "velocity": 0.8661417322834646
        },
        {
          "duration": 0.875,
          "durationTicks": 336,
          "midi": 30,
          "name": "F#1",
          "ticks": 3456,
          "time": 9,
          "velocity": 0.8661417322834646
        },
        {
          "duration": 0.875,
          "durationTicks": 336,
          "midi": 30,
          "name": "F#1",
          "ticks": 3840,
          "time": 10,
          "velocity": 0.8661417322834646
        },
        {
          "duration": 0.875,
          "durationTicks": 336,
          "midi": 32,
          "name": "G#1",
          "ticks": 4224,
          "time": 11,
          "velocity": 0.8661417322834646
        },
        {
          "duration": 0.875,
          "durationTicks": 336,
          "midi": 28,
          "name": "E1",
          "ticks": 4608,
          "time": 12,
          "velocity": 0.8661417322834646
        },
        {
          "duration": 0.875,
          "durationTicks": 336,
          "midi": 30,
          "name": "F#1",
          "ticks": 4992,
          "time": 13,
          "velocity": 0.8661417322834646
        },
        {
          "duration": 0.875,
          "durationTicks": 336,
          "midi": 30,
          "name": "F#1",
          "ticks": 5376,
          "time": 14,
          "velocity": 0.8661417322834646
        },
        {
          "duration": 0.875,
          "durationTicks": 336,
          "midi": 32,
          "name": "G#1",
          "ticks": 5760,
          "time": 15,
          "velocity": 0.8661417322834646
        },
        {
          "duration": 0.875,
          "durationTicks": 336,
          "midi": 28,
          "name": "E1",
          "ticks": 6144,
          "time": 16,
          "velocity": 0.8661417322834646
        },
        {
          "duration": 0.875,
          "durationTicks": 336,
          "midi": 30,
          "name": "F#1",
          "ticks": 6528,
          "time": 17,
          "velocity": 0.8661417322834646
        },
        {
          "duration": 0.875,
          "durationTicks": 336,
          "midi": 30,
          "name": "F#1",
          "ticks": 6912,
          "time": 18,
          "velocity": 0.8661417322834646
        },
        {
          "duration": 0.875,
          "durationTicks": 336,
          "midi": 32,
          "name": "G#1",
          "ticks": 7296,
          "time": 19,
          "velocity": 0.8661417322834646
        },
        {
          "duration": 0.875,
          "durationTicks": 336,
          "midi": 28,
          "name": "E1",
          "ticks": 7680,
          "time": 20,
          "velocity": 0.8661417322834646
        },
        {
          "duration": 0.875,
          "durationTicks": 336,
          "midi": 30,
          "name": "F#1",
          "ticks": 8064,
          "time": 21,
          "velocity": 0.8661417322834646
        },
        {
          "duration": 0.875,
          "durationTicks": 336,
          "midi": 30,
          "name": "F#1",
          "ticks": 8448,
          "time": 22,
          "velocity": 0.8661417322834646
        },
        {
          "duration": 0.875,
          "durationTicks": 336,
          "midi": 32,
          "name": "G#1",
          "ticks": 8832,
          "time": 23,
          "velocity": 0.8661417322834646
        },
        {
          "duration": 0.875,
          "durationTicks": 336,
          "midi": 28,
          "name": "E1",
          "ticks": 9216,
          "time": 24,
          "velocity": 0.8661417322834646
        },
        {
          "duration": 0.875,
          "durationTicks": 336,
          "midi": 30,
          "name": "F#1",
          "ticks": 9600,
          "time": 25,
          "velocity": 0.8661417322834646
        },
        {
          "duration": 0.875,
          "durationTicks": 336,
          "midi": 30,
          "name": "F#1",
          "ticks": 9984,
          "time": 26,
          "velocity": 0.8661417322834646
        },
        {
          "duration": 0.875,
          "durationTicks": 336,
          "midi": 32,
          "name": "G#1",
          "ticks": 10368,
          "time": 27,
          "velocity": 0.8661417322834646
        },
        {
          "duration": 0.875,
          "durationTicks": 336,
          "midi": 28,
          "name": "E1",
          "ticks": 10752,
          "time": 28,
          "velocity": 0.8661417322834646
        },
        {
          "duration": 0.875,
          "durationTicks": 336,
          "midi": 30,
          "name": "F#1",
          "ticks": 11136,
          "time": 29,
          "velocity": 0.8661417322834646
        },
        {
          "duration": 0.875,
          "durationTicks": 336,
          "midi": 30,
          "name": "F#1",
          "ticks": 11520,
          "time": 30,
          "velocity": 0.8661417322834646
        },
        {
          "duration": 0.875,
          "durationTicks": 336,
          "midi": 32,
          "name": "G#1",
          "ticks": 11904,
          "time": 31,
          "velocity": 0.8661417322834646
        },
        {
          "duration": 0.875,
          "durationTicks": 336,
          "midi": 28,
          "name": "E1",
          "ticks": 12288,
          "time": 32,
          "velocity": 0.8661417322834646
        },
        {
          "duration": 0.875,
          "durationTicks": 336,
          "midi": 30,
          "name": "F#1",
          "ticks": 12672,
          "time": 33,
          "velocity": 0.8661417322834646
        },
        {
          "duration": 0.875,
          "durationTicks": 336,
          "midi": 30,
          "name": "F#1",
          "ticks": 13056,
          "time": 34,
          "velocity": 0.8661417322834646
        },
        {
          "duration": 0.875,
          "durationTicks": 336,
          "midi": 32,
          "name": "G#1",
          "ticks": 13440,
          "time": 35,
          "velocity": 0.8661417322834646
        },
        {
          "duration": 0.875,
          "durationTicks": 336,
          "midi": 28,
          "name": "E1",
          "ticks": 13824,
          "time": 36,
          "velocity": 0.8661417322834646
        },
        {
          "duration": 0.875,
          "durationTicks": 336,
          "midi": 30,
          "name": "F#1",
          "ticks": 14208,
          "time": 37,
          "velocity": 0.8661417322834646
        },
        {
          "duration": 0.875,
          "durationTicks": 336,
          "midi": 30,
          "name": "F#1",
          "ticks": 14592,
          "time": 38,
          "velocity": 0.8661417322834646
        },
        {
          "duration": 0.875,
          "durationTicks": 336,
          "midi": 32,
          "name": "G#1",
          "ticks": 14976,
          "time": 39,
          "velocity": 0.8661417322834646
        },
        {
          "duration": 0.875,
          "durationTicks": 336,
          "midi": 28,
          "name": "E1",
          "ticks": 15360,
          "time": 40,
          "velocity": 0.8661417322834646
        },
        {
          "duration": 0.875,
          "durationTicks": 336,
          "midi": 30,
          "name": "F#1",
          "ticks": 15744,
          "time": 41,
          "velocity": 0.8661417322834646
        },
        {
          "duration": 0.875,
          "durationTicks": 336,
          "midi": 30,
          "name": "F#1",
          "ticks": 16128,
          "time": 42,
          "velocity": 0.8661417322834646
        },
        {
          "duration": 0.875,
          "durationTicks": 336,
          "midi": 32,
          "name": "G#1",
          "ticks": 16512,
          "time": 43,
          "velocity": 0.8661417322834646
        },
        {
          "duration": 0.875,
          "durationTicks": 336,
          "midi": 28,
          "name": "E1",
          "ticks": 16896,
          "time": 44,
          "velocity": 0.8661417322834646
        },
        {
          "duration": 0.875,
          "durationTicks": 336,
          "midi": 30,
          "name": "F#1",
          "ticks": 17280,
          "time": 45,
          "velocity": 0.8661417322834646
        },
        {
          "duration": 0.875,
          "durationTicks": 336,
          "midi": 30,
          "name": "F#1",
          "ticks": 17664,
          "time": 46,
          "velocity": 0.8661417322834646
        },
        {
          "duration": 0.875,
          "durationTicks": 336,
          "midi": 32,
          "name": "G#1",
          "ticks": 18048,
          "time": 47,
          "velocity": 0.8661417322834646
        },
        {
          "duration": 0.875,
          "durationTicks": 336,
          "midi": 28,
          "name": "E1",
          "ticks": 18432,
          "time": 48,
          "velocity": 0.8661417322834646
        },
        {
          "duration": 0.875,
          "durationTicks": 336,
          "midi": 30,
          "name": "F#1",
          "ticks": 18816,
          "time": 49,
          "velocity": 0.8661417322834646
        },
        {
          "duration": 0.875,
          "durationTicks": 336,
          "midi": 30,
          "name": "F#1",
          "ticks": 19200,
          "time": 50,
          "velocity": 0.8661417322834646
        },
        {
          "duration": 0.875,
          "durationTicks": 336,
          "midi": 32,
          "name": "G#1",
          "ticks": 19584,
          "time": 51,
          "velocity": 0.8661417322834646
        },
        {
          "duration": 0.875,
          "durationTicks": 336,
          "midi": 28,
          "name": "E1",
          "ticks": 19968,
          "time": 52,
          "velocity": 0.8661417322834646
        },
        {
          "duration": 0.875,
          "durationTicks": 336,
          "midi": 30,
          "name": "F#1",
          "ticks": 20352,
          "time": 53,
          "velocity": 0.8661417322834646
        },
        {
          "duration": 0.875,
          "durationTicks": 336,
          "midi": 30,
          "name": "F#1",
          "ticks": 20736,
          "time": 54,
          "velocity": 0.8661417322834646
        },
        {
          "duration": 0.875,
          "durationTicks": 336,
          "midi": 32,
          "name": "G#1",
          "ticks": 21120,
          "time": 55,
          "velocity": 0.8661417322834646
        },
        {
          "duration": 0.875,
          "durationTicks": 336,
          "midi": 28,
          "name": "E1",
          "ticks": 21504,
          "time": 56,
          "velocity": 0.8661417322834646
        },
        {
          "duration": 0.875,
          "durationTicks": 336,
          "midi": 30,
          "name": "F#1",
          "ticks": 21888,
          "time": 57,
          "velocity": 0.8661417322834646
        },
        {
          "duration": 0.875,
          "durationTicks": 336,
          "midi": 30,
          "name": "F#1",
          "ticks": 22272,
          "time": 58,
          "velocity": 0.8661417322834646
        },
        {
          "duration": 0.875,
          "durationTicks": 336,
          "midi": 32,
          "name": "G#1",
          "ticks": 22656,
          "time": 59,
          "velocity": 0.8661417322834646
        },
        {
          "duration": 0.875,
          "durationTicks": 336,
          "midi": 28,
          "name": "E1",
          "ticks": 23040,
          "time": 60,
          "velocity": 0.8661417322834646
        },
        {
          "duration": 0.875,
          "durationTicks": 336,
          "midi": 30,
          "name": "F#1",
          "ticks": 23424,
          "time": 61,
          "velocity": 0.8661417322834646
        },
        {
          "duration": 0.875,
          "durationTicks": 336,
          "midi": 30,
          "name": "F#1",
          "ticks": 23808,
          "time": 62,
          "velocity": 0.8661417322834646
        },
        {
          "duration": 0.875,
          "durationTicks": 336,
          "midi": 32,
          "name": "G#1",
          "ticks": 24192,
          "time": 63,
          "velocity": 0.8661417322834646
        },
        {
          "duration": 0.875,
          "durationTicks": 336,
          "midi": 28,
          "name": "E1",
          "ticks": 24576,
          "time": 64,
          "velocity": 0.8661417322834646
        },
        {
          "duration": 0.875,
          "durationTicks": 336,
          "midi": 30,
          "name": "F#1",
          "ticks": 24960,
          "time": 65,
          "velocity": 0.8661417322834646
        },
        {
          "duration": 0.875,
          "durationTicks": 336,
          "midi": 30,
          "name": "F#1",
          "ticks": 25344,
          "time": 66,
          "velocity": 0.8661417322834646
        }
      ]
    },
    {
      "channel": 8,
      "controlChanges": {
        "7": [
          {
            "number": 7,
            "ticks": 0,
            "time": 0,
            "value": 0.4251968503937008
          }
        ],
        "10": [
          {
            "number": 10,
            "ticks": 0,
            "time": 0,
            "value": 0.4251968503937008
          }
        ]
      },
      "pitchBends": [],
      "instrument": {
        "family": "bass",
        "name": "acoustic bass",
        "number": 32
      },
      "name": "",
      "notes": [
        {
          "duration": 0.6666666666666665,
          "durationTicks": 256,
          "midi": 30,
          "name": "F#1",
          "ticks": 768,
          "time": 2,
          "velocity": 0.8661417322834646
        },
        {
          "duration": 0.24479166666666652,
          "durationTicks": 94,
          "midi": 30,
          "name": "F#1",
          "ticks": 1056,
          "time": 2.75,
          "velocity": 0.8661417322834646
        },
        {
          "duration": 0.6666666666666665,
          "durationTicks": 256,
          "midi": 32,
          "name": "G#1",
          "ticks": 1152,
          "time": 3,
          "velocity": 0.8661417322834646
        },
        {
          "duration": 0.24479166666666652,
          "durationTicks": 94,
          "midi": 32,
          "name": "G#1",
          "ticks": 1440,
          "time": 3.75,
          "velocity": 0.8661417322834646
        },
        {
          "duration": 0.666666666666667,
          "durationTicks": 256,
          "midi": 28,
          "name": "E1",
          "ticks": 1536,
          "time": 4,
          "velocity": 0.8661417322834646
        },
        {
          "duration": 0.24479166666666696,
          "durationTicks": 94,
          "midi": 28,
          "name": "E1",
          "ticks": 1824,
          "time": 4.75,
          "velocity": 0.8661417322834646
        },
        {
          "duration": 0.666666666666667,
          "durationTicks": 256,
          "midi": 30,
          "name": "F#1",
          "ticks": 1920,
          "time": 5,
          "velocity": 0.8661417322834646
        },
        {
          "duration": 0.24479166666666696,
          "durationTicks": 94,
          "midi": 30,
          "name": "F#1",
          "ticks": 2208,
          "time": 5.75,
          "velocity": 0.8661417322834646
        },
        {
          "duration": 0.666666666666667,
          "durationTicks": 256,
          "midi": 30,
          "name": "F#1",
          "ticks": 2304,
          "time": 6,
          "velocity": 0.8661417322834646
        },
        {
          "duration": 0.24479166666666696,
          "durationTicks": 94,
          "midi": 30,
          "name": "F#1",
          "ticks": 2592,
          "time": 6.75,
          "velocity": 0.8661417322834646
        },
        {
          "duration": 0.666666666666667,
          "durationTicks": 256,
          "midi": 32,
          "name": "G#1",
          "ticks": 2688,
          "time": 7,
          "velocity": 0.8661417322834646
        },
        {
          "duration": 0.24479166666666696,
          "durationTicks": 94,
          "midi": 32,
          "name": "G#1",
          "ticks": 2976,
          "time": 7.75,
          "velocity": 0.8661417322834646
        },
        {
          "duration": 0.6666666666666661,
          "durationTicks": 256,
          "midi": 28,
          "name": "E1",
          "ticks": 3072,
          "time": 8,
          "velocity": 0.8661417322834646
        },
        {
          "duration": 0.24479166666666607,
          "durationTicks": 94,
          "midi": 28,
          "name": "E1",
          "ticks": 3360,
          "time": 8.75,
          "velocity": 0.8661417322834646
        },
        {
          "duration": 0.6666666666666661,
          "durationTicks": 256,
          "midi": 30,
          "name": "F#1",
          "ticks": 3456,
          "time": 9,
          "velocity": 0.8661417322834646
        },
        {
          "duration": 0.24479166666666607,
          "durationTicks": 94,
          "midi": 30,
          "name": "F#1",
          "ticks": 3744,
          "time": 9.75,
          "velocity": 0.8661417322834646
        },
        {
          "duration": 0.6666666666666661,
          "durationTicks": 256,
          "midi": 30,
          "name": "F#1",
          "ticks": 3840,
          "time": 10,
          "velocity": 0.8661417322834646
        },
        {
          "duration": 0.24479166666666607,
          "durationTicks": 94,
          "midi": 30,
          "name": "F#1",
          "ticks": 4128,
          "time": 10.75,
          "velocity": 0.8661417322834646
        },
        {
          "duration": 0.6666666666666661,
          "durationTicks": 256,
          "midi": 32,
          "name": "G#1",
          "ticks": 4224,
          "time": 11,
          "velocity": 0.8661417322834646
        },
        {
          "duration": 0.24479166666666607,
          "durationTicks": 94,
          "midi": 32,
          "name": "G#1",
          "ticks": 4512,
          "time": 11.75,
          "velocity": 0.8661417322834646
        },
        {
          "duration": 0.6666666666666661,
          "durationTicks": 256,
          "midi": 28,
          "name": "E1",
          "ticks": 4608,
          "time": 12,
          "velocity": 0.8661417322834646
        },
        {
          "duration": 0.24479166666666607,
          "durationTicks": 94,
          "midi": 28,
          "name": "E1",
          "ticks": 4896,
          "time": 12.75,
          "velocity": 0.8661417322834646
        },
        {
          "duration": 0.6666666666666661,
          "durationTicks": 256,
          "midi": 30,
          "name": "F#1",
          "ticks": 4992,
          "time": 13,
          "velocity": 0.8661417322834646
        },
        {
          "duration": 0.24479166666666607,
          "durationTicks": 94,
          "midi": 30,
          "name": "F#1",
          "ticks": 5280,
          "time": 13.75,
          "velocity": 0.8661417322834646
        },
        {
          "duration": 0.6666666666666661,
          "durationTicks": 256,
          "midi": 30,
          "name": "F#1",
          "ticks": 5376,
          "time": 14,
          "velocity": 0.8661417322834646
        },
        {
          "duration": 0.24479166666666607,
          "durationTicks": 94,
          "midi": 30,
          "name": "F#1",
          "ticks": 5664,
          "time": 14.75,
          "velocity": 0.8661417322834646
        },
        {
          "duration": 0.6666666666666661,
          "durationTicks": 256,
          "midi": 32,
          "name": "G#1",
          "ticks": 5760,
          "time": 15,
          "velocity": 0.8661417322834646
        },
        {
          "duration": 0.24479166666666607,
          "durationTicks": 94,
          "midi": 32,
          "name": "G#1",
          "ticks": 6048,
          "time": 15.75,
          "velocity": 0.8661417322834646
        },
        {
          "duration": 0.6666666666666679,
          "durationTicks": 256,
          "midi": 28,
          "name": "E1",
          "ticks": 6144,
          "time": 16,
          "velocity": 0.8661417322834646
        },
        {
          "duration": 0.24479166666666785,
          "durationTicks": 94,
          "midi": 28,
          "name": "E1",
          "ticks": 6432,
          "time": 16.75,
          "velocity": 0.8661417322834646
        },
        {
          "duration": 0.6666666666666679,
          "durationTicks": 256,
          "midi": 30,
          "name": "F#1",
          "ticks": 6528,
          "time": 17,
          "velocity": 0.8661417322834646
        },
        {
          "duration": 0.24479166666666785,
          "durationTicks": 94,
          "midi": 30,
          "name": "F#1",
          "ticks": 6816,
          "time": 17.75,
          "velocity": 0.8661417322834646
        },
        {
          "duration": 0.6666666666666679,
          "durationTicks": 256,
          "midi": 30,
          "name": "F#1",
          "ticks": 6912,
          "time": 18,
          "velocity": 0.8661417322834646
        },
        {
          "duration": 0.24479166666666785,
          "durationTicks": 94,
          "midi": 30,
          "name": "F#1",
          "ticks": 7200,
          "time": 18.75,
          "velocity": 0.8661417322834646
        },
        {
          "duration": 0.6666666666666679,
          "durationTicks": 256,
          "midi": 32,
          "name": "G#1",
          "ticks": 7296,
          "time": 19,
          "velocity": 0.8661417322834646
        },
        {
          "duration": 0.24479166666666785,
          "durationTicks": 94,
          "midi": 32,
          "name": "G#1",
          "ticks": 7584,
          "time": 19.75,
          "velocity": 0.8661417322834646
        },
        {
          "duration": 0.6666666666666679,
          "durationTicks": 256,
          "midi": 28,
          "name": "E1",
          "ticks": 7680,
          "time": 20,
          "velocity": 0.8661417322834646
        },
        {
          "duration": 0.24479166666666785,
          "durationTicks": 94,
          "midi": 28,
          "name": "E1",
          "ticks": 7968,
          "time": 20.75,
          "velocity": 0.8661417322834646
        },
        {
          "duration": 0.6666666666666679,
          "durationTicks": 256,
          "midi": 30,
          "name": "F#1",
          "ticks": 8064,
          "time": 21,
          "velocity": 0.8661417322834646
        },
        {
          "duration": 0.24479166666666785,
          "durationTicks": 94,
          "midi": 30,
          "name": "F#1",
          "ticks": 8352,
          "time": 21.75,
          "velocity": 0.8661417322834646
        },
        {
          "duration": 0.6666666666666679,
          "durationTicks": 256,
          "midi": 30,
          "name": "F#1",
          "ticks": 8448,
          "time": 22,
          "velocity": 0.8661417322834646
        },
        {
          "duration": 0.24479166666666785,
          "durationTicks": 94,
          "midi": 30,
          "name": "F#1",
          "ticks": 8736,
          "time": 22.75,
          "velocity": 0.8661417322834646
        },
        {
          "duration": 0.6666666666666679,
          "durationTicks": 256,
          "midi": 32,
          "name": "G#1",
          "ticks": 8832,
          "time": 23,
          "velocity": 0.8661417322834646
        },
        {
          "duration": 0.24479166666666785,
          "durationTicks": 94,
          "midi": 32,
          "name": "G#1",
          "ticks": 9120,
          "time": 23.75,
          "velocity": 0.8661417322834646
        },
        {
          "duration": 0.6666666666666679,
          "durationTicks": 256,
          "midi": 28,
          "name": "E1",
          "ticks": 9216,
          "time": 24,
          "velocity": 0.8661417322834646
        },
        {
          "duration": 0.24479166666666785,
          "durationTicks": 94,
          "midi": 28,
          "name": "E1",
          "ticks": 9504,
          "time": 24.75,
          "velocity": 0.8661417322834646
        },
        {
          "duration": 0.6666666666666679,
          "durationTicks": 256,
          "midi": 30,
          "name": "F#1",
          "ticks": 9600,
          "time": 25,
          "velocity": 0.8661417322834646
        },
        {
          "duration": 0.24479166666666785,
          "durationTicks": 94,
          "midi": 30,
          "name": "F#1",
          "ticks": 9888,
          "time": 25.75,
          "velocity": 0.8661417322834646
        },
        {
          "duration": 0.6666666666666679,
          "durationTicks": 256,
          "midi": 30,
          "name": "F#1",
          "ticks": 9984,
          "time": 26,
          "velocity": 0.8661417322834646
        },
        {
          "duration": 0.24479166666666785,
          "durationTicks": 94,
          "midi": 30,
          "name": "F#1",
          "ticks": 10272,
          "time": 26.75,
          "velocity": 0.8661417322834646
        },
        {
          "duration": 0.6666666666666679,
          "durationTicks": 256,
          "midi": 32,
          "name": "G#1",
          "ticks": 10368,
          "time": 27,
          "velocity": 0.8661417322834646
        },
        {
          "duration": 0.24479166666666785,
          "durationTicks": 94,
          "midi": 32,
          "name": "G#1",
          "ticks": 10656,
          "time": 27.75,
          "velocity": 0.8661417322834646
        },
        {
          "duration": 0.6666666666666679,
          "durationTicks": 256,
          "midi": 28,
          "name": "E1",
          "ticks": 10752,
          "time": 28,
          "velocity": 0.8661417322834646
        },
        {
          "duration": 0.24479166666666785,
          "durationTicks": 94,
          "midi": 28,
          "name": "E1",
          "ticks": 11040,
          "time": 28.75,
          "velocity": 0.8661417322834646
        },
        {
          "duration": 0.6666666666666679,
          "durationTicks": 256,
          "midi": 30,
          "name": "F#1",
          "ticks": 11136,
          "time": 29,
          "velocity": 0.8661417322834646
        },
        {
          "duration": 0.24479166666666785,
          "durationTicks": 94,
          "midi": 30,
          "name": "F#1",
          "ticks": 11424,
          "time": 29.75,
          "velocity": 0.8661417322834646
        },
        {
          "duration": 0.6666666666666679,
          "durationTicks": 256,
          "midi": 30,
          "name": "F#1",
          "ticks": 11520,
          "time": 30,
          "velocity": 0.8661417322834646
        },
        {
          "duration": 0.24479166666666785,
          "durationTicks": 94,
          "midi": 30,
          "name": "F#1",
          "ticks": 11808,
          "time": 30.75,
          "velocity": 0.8661417322834646
        },
        {
          "duration": 0.6666666666666679,
          "durationTicks": 256,
          "midi": 32,
          "name": "G#1",
          "ticks": 11904,
          "time": 31,
          "velocity": 0.8661417322834646
        },
        {
          "duration": 0.24479166666666785,
          "durationTicks": 94,
          "midi": 32,
          "name": "G#1",
          "ticks": 12192,
          "time": 31.75,
          "velocity": 0.8661417322834646
        },
        {
          "duration": 0.6666666666666643,
          "durationTicks": 256,
          "midi": 28,
          "name": "E1",
          "ticks": 12288,
          "time": 32,
          "velocity": 0.8661417322834646
        },
        {
          "duration": 0.2447916666666643,
          "durationTicks": 94,
          "midi": 28,
          "name": "E1",
          "ticks": 12576,
          "time": 32.75,
          "velocity": 0.8661417322834646
        },
        {
          "duration": 0.6666666666666643,
          "durationTicks": 256,
          "midi": 30,
          "name": "F#1",
          "ticks": 12672,
          "time": 33,
          "velocity": 0.8661417322834646
        },
        {
          "duration": 0.2447916666666643,
          "durationTicks": 94,
          "midi": 30,
          "name": "F#1",
          "ticks": 12960,
          "time": 33.75,
          "velocity": 0.8661417322834646
        },
        {
          "duration": 0.6666666666666643,
          "durationTicks": 256,
          "midi": 30,
          "name": "F#1",
          "ticks": 13056,
          "time": 34,
          "velocity": 0.8661417322834646
        },
        {
          "duration": 0.2447916666666643,
          "durationTicks": 94,
          "midi": 30,
          "name": "F#1",
          "ticks": 13344,
          "time": 34.75,
          "velocity": 0.8661417322834646
        },
        {
          "duration": 0.6666666666666643,
          "durationTicks": 256,
          "midi": 32,
          "name": "G#1",
          "ticks": 13440,
          "time": 35,
          "velocity": 0.8661417322834646
        },
        {
          "duration": 0.2447916666666643,
          "durationTicks": 94,
          "midi": 32,
          "name": "G#1",
          "ticks": 13728,
          "time": 35.75,
          "velocity": 0.8661417322834646
        },
        {
          "duration": 0.6666666666666643,
          "durationTicks": 256,
          "midi": 28,
          "name": "E1",
          "ticks": 13824,
          "time": 36,
          "velocity": 0.8661417322834646
        },
        {
          "duration": 0.2447916666666643,
          "durationTicks": 94,
          "midi": 28,
          "name": "E1",
          "ticks": 14112,
          "time": 36.75,
          "velocity": 0.8661417322834646
        },
        {
          "duration": 0.6666666666666643,
          "durationTicks": 256,
          "midi": 30,
          "name": "F#1",
          "ticks": 14208,
          "time": 37,
          "velocity": 0.8661417322834646
        },
        {
          "duration": 0.2447916666666643,
          "durationTicks": 94,
          "midi": 30,
          "name": "F#1",
          "ticks": 14496,
          "time": 37.75,
          "velocity": 0.8661417322834646
        },
        {
          "duration": 0.6666666666666643,
          "durationTicks": 256,
          "midi": 30,
          "name": "F#1",
          "ticks": 14592,
          "time": 38,
          "velocity": 0.8661417322834646
        },
        {
          "duration": 0.2447916666666643,
          "durationTicks": 94,
          "midi": 30,
          "name": "F#1",
          "ticks": 14880,
          "time": 38.75,
          "velocity": 0.8661417322834646
        },
        {
          "duration": 0.6666666666666643,
          "durationTicks": 256,
          "midi": 32,
          "name": "G#1",
          "ticks": 14976,
          "time": 39,
          "velocity": 0.8661417322834646
        },
        {
          "duration": 0.2447916666666643,
          "durationTicks": 94,
          "midi": 32,
          "name": "G#1",
          "ticks": 15264,
          "time": 39.75,
          "velocity": 0.8661417322834646
        },
        {
          "duration": 0.6666666666666643,
          "durationTicks": 256,
          "midi": 28,
          "name": "E1",
          "ticks": 15360,
          "time": 40,
          "velocity": 0.8661417322834646
        },
        {
          "duration": 0.2447916666666643,
          "durationTicks": 94,
          "midi": 28,
          "name": "E1",
          "ticks": 15648,
          "time": 40.75,
          "velocity": 0.8661417322834646
        },
        {
          "duration": 0.6666666666666643,
          "durationTicks": 256,
          "midi": 30,
          "name": "F#1",
          "ticks": 15744,
          "time": 41,
          "velocity": 0.8661417322834646
        },
        {
          "duration": 0.2447916666666643,
          "durationTicks": 94,
          "midi": 30,
          "name": "F#1",
          "ticks": 16032,
          "time": 41.75,
          "velocity": 0.8661417322834646
        },
        {
          "duration": 0.6666666666666643,
          "durationTicks": 256,
          "midi": 30,
          "name": "F#1",
          "ticks": 16128,
          "time": 42,
          "velocity": 0.8661417322834646
        },
        {
          "duration": 0.2447916666666643,
          "durationTicks": 94,
          "midi": 30,
          "name": "F#1",
          "ticks": 16416,
          "time": 42.75,
          "velocity": 0.8661417322834646
        },
        {
          "duration": 0.6666666666666643,
          "durationTicks": 256,
          "midi": 32,
          "name": "G#1",
          "ticks": 16512,
          "time": 43,
          "velocity": 0.8661417322834646
        },
        {
          "duration": 0.2447916666666643,
          "durationTicks": 94,
          "midi": 32,
          "name": "G#1",
          "ticks": 16800,
          "time": 43.75,
          "velocity": 0.8661417322834646
        },
        {
          "duration": 0.6666666666666643,
          "durationTicks": 256,
          "midi": 28,
          "name": "E1",
          "ticks": 16896,
          "time": 44,
          "velocity": 0.8661417322834646
        },
        {
          "duration": 0.2447916666666643,
          "durationTicks": 94,
          "midi": 28,
          "name": "E1",
          "ticks": 17184,
          "time": 44.75,
          "velocity": 0.8661417322834646
        },
        {
          "duration": 0.6666666666666643,
          "durationTicks": 256,
          "midi": 30,
          "name": "F#1",
          "ticks": 17280,
          "time": 45,
          "velocity": 0.8661417322834646
        },
        {
          "duration": 0.2447916666666643,
          "durationTicks": 94,
          "midi": 30,
          "name": "F#1",
          "ticks": 17568,
          "time": 45.75,
          "velocity": 0.8661417322834646
        },
        {
          "duration": 0.6666666666666643,
          "durationTicks": 256,
          "midi": 30,
          "name": "F#1",
          "ticks": 17664,
          "time": 46,
          "velocity": 0.8661417322834646
        },
        {
          "duration": 0.2447916666666643,
          "durationTicks": 94,
          "midi": 30,
          "name": "F#1",
          "ticks": 17952,
          "time": 46.75,
          "velocity": 0.8661417322834646
        },
        {
          "duration": 0.6666666666666643,
          "durationTicks": 256,
          "midi": 32,
          "name": "G#1",
          "ticks": 18048,
          "time": 47,
          "velocity": 0.8661417322834646
        },
        {
          "duration": 0.2447916666666643,
          "durationTicks": 94,
          "midi": 32,
          "name": "G#1",
          "ticks": 18336,
          "time": 47.75,
          "velocity": 0.8661417322834646
        },
        {
          "duration": 0.6666666666666643,
          "durationTicks": 256,
          "midi": 28,
          "name": "E1",
          "ticks": 18432,
          "time": 48,
          "velocity": 0.8661417322834646
        },
        {
          "duration": 0.2447916666666643,
          "durationTicks": 94,
          "midi": 28,
          "name": "E1",
          "ticks": 18720,
          "time": 48.75,
          "velocity": 0.8661417322834646
        },
        {
          "duration": 0.6666666666666643,
          "durationTicks": 256,
          "midi": 30,
          "name": "F#1",
          "ticks": 18816,
          "time": 49,
          "velocity": 0.8661417322834646
        },
        {
          "duration": 0.2447916666666643,
          "durationTicks": 94,
          "midi": 30,
          "name": "F#1",
          "ticks": 19104,
          "time": 49.75,
          "velocity": 0.8661417322834646
        },
        {
          "duration": 0.6666666666666643,
          "durationTicks": 256,
          "midi": 30,
          "name": "F#1",
          "ticks": 19200,
          "time": 50,
          "velocity": 0.8661417322834646
        },
        {
          "duration": 0.2447916666666643,
          "durationTicks": 94,
          "midi": 30,
          "name": "F#1",
          "ticks": 19488,
          "time": 50.75,
          "velocity": 0.8661417322834646
        },
        {
          "duration": 0.6666666666666643,
          "durationTicks": 256,
          "midi": 32,
          "name": "G#1",
          "ticks": 19584,
          "time": 51,
          "velocity": 0.8661417322834646
        },
        {
          "duration": 0.2447916666666643,
          "durationTicks": 94,
          "midi": 32,
          "name": "G#1",
          "ticks": 19872,
          "time": 51.75,
          "velocity": 0.8661417322834646
        },
        {
          "duration": 0.6666666666666643,
          "durationTicks": 256,
          "midi": 28,
          "name": "E1",
          "ticks": 19968,
          "time": 52,
          "velocity": 0.8661417322834646
        },
        {
          "duration": 0.2447916666666643,
          "durationTicks": 94,
          "midi": 28,
          "name": "E1",
          "ticks": 20256,
          "time": 52.75,
          "velocity": 0.8661417322834646
        },
        {
          "duration": 0.6666666666666643,
          "durationTicks": 256,
          "midi": 30,
          "name": "F#1",
          "ticks": 20352,
          "time": 53,
          "velocity": 0.8661417322834646
        },
        {
          "duration": 0.2447916666666643,
          "durationTicks": 94,
          "midi": 30,
          "name": "F#1",
          "ticks": 20640,
          "time": 53.75,
          "velocity": 0.8661417322834646
        },
        {
          "duration": 0.6666666666666643,
          "durationTicks": 256,
          "midi": 30,
          "name": "F#1",
          "ticks": 20736,
          "time": 54,
          "velocity": 0.8661417322834646
        },
        {
          "duration": 0.2447916666666643,
          "durationTicks": 94,
          "midi": 30,
          "name": "F#1",
          "ticks": 21024,
          "time": 54.75,
          "velocity": 0.8661417322834646
        },
        {
          "duration": 0.6666666666666643,
          "durationTicks": 256,
          "midi": 32,
          "name": "G#1",
          "ticks": 21120,
          "time": 55,
          "velocity": 0.8661417322834646
        },
        {
          "duration": 0.2447916666666643,
          "durationTicks": 94,
          "midi": 32,
          "name": "G#1",
          "ticks": 21408,
          "time": 55.75,
          "velocity": 0.8661417322834646
        },
        {
          "duration": 0.6666666666666643,
          "durationTicks": 256,
          "midi": 28,
          "name": "E1",
          "ticks": 21504,
          "time": 56,
          "velocity": 0.8661417322834646
        },
        {
          "duration": 0.2447916666666643,
          "durationTicks": 94,
          "midi": 28,
          "name": "E1",
          "ticks": 21792,
          "time": 56.75,
          "velocity": 0.8661417322834646
        },
        {
          "duration": 0.6666666666666643,
          "durationTicks": 256,
          "midi": 30,
          "name": "F#1",
          "ticks": 21888,
          "time": 57,
          "velocity": 0.8661417322834646
        },
        {
          "duration": 0.2447916666666643,
          "durationTicks": 94,
          "midi": 30,
          "name": "F#1",
          "ticks": 22176,
          "time": 57.75,
          "velocity": 0.8661417322834646
        },
        {
          "duration": 0.6666666666666643,
          "durationTicks": 256,
          "midi": 30,
          "name": "F#1",
          "ticks": 22272,
          "time": 58,
          "velocity": 0.8661417322834646
        },
        {
          "duration": 0.2447916666666643,
          "durationTicks": 94,
          "midi": 30,
          "name": "F#1",
          "ticks": 22560,
          "time": 58.75,
          "velocity": 0.8661417322834646
        },
        {
          "duration": 0.6666666666666643,
          "durationTicks": 256,
          "midi": 32,
          "name": "G#1",
          "ticks": 22656,
          "time": 59,
          "velocity": 0.8661417322834646
        },
        {
          "duration": 0.2447916666666643,
          "durationTicks": 94,
          "midi": 32,
          "name": "G#1",
          "ticks": 22944,
          "time": 59.75,
          "velocity": 0.8661417322834646
        },
        {
          "duration": 0.6666666666666643,
          "durationTicks": 256,
          "midi": 28,
          "name": "E1",
          "ticks": 23040,
          "time": 60,
          "velocity": 0.8661417322834646
        },
        {
          "duration": 0.2447916666666643,
          "durationTicks": 94,
          "midi": 28,
          "name": "E1",
          "ticks": 23328,
          "time": 60.75,
          "velocity": 0.8661417322834646
        },
        {
          "duration": 0.6666666666666643,
          "durationTicks": 256,
          "midi": 30,
          "name": "F#1",
          "ticks": 23424,
          "time": 61,
          "velocity": 0.8661417322834646
        },
        {
          "duration": 0.2447916666666643,
          "durationTicks": 94,
          "midi": 30,
          "name": "F#1",
          "ticks": 23712,
          "time": 61.75,
          "velocity": 0.8661417322834646
        },
        {
          "duration": 0.6666666666666643,
          "durationTicks": 256,
          "midi": 30,
          "name": "F#1",
          "ticks": 23808,
          "time": 62,
          "velocity": 0.8661417322834646
        },
        {
          "duration": 0.2447916666666643,
          "durationTicks": 94,
          "midi": 30,
          "name": "F#1",
          "ticks": 24096,
          "time": 62.75,
          "velocity": 0.8661417322834646
        },
        {
          "duration": 0.6666666666666643,
          "durationTicks": 256,
          "midi": 32,
          "name": "G#1",
          "ticks": 24192,
          "time": 63,
          "velocity": 0.8661417322834646
        },
        {
          "duration": 0.2447916666666643,
          "durationTicks": 94,
          "midi": 32,
          "name": "G#1",
          "ticks": 24480,
          "time": 63.75,
          "velocity": 0.8661417322834646
        },
        {
          "duration": 0.6666666666666714,
          "durationTicks": 256,
          "midi": 28,
          "name": "E1",
          "ticks": 24576,
          "time": 64,
          "velocity": 0.8661417322834646
        },
        {
          "duration": 0.2447916666666714,
          "durationTicks": 94,
          "midi": 28,
          "name": "E1",
          "ticks": 24864,
          "time": 64.75,
          "velocity": 0.8661417322834646
        },
        {
          "duration": 0.6666666666666714,
          "durationTicks": 256,
          "midi": 30,
          "name": "F#1",
          "ticks": 24960,
          "time": 65,
          "velocity": 0.8661417322834646
        },
        {
          "duration": 0.2447916666666714,
          "durationTicks": 94,
          "midi": 30,
          "name": "F#1",
          "ticks": 25248,
          "time": 65.75,
          "velocity": 0.8661417322834646
        },
        {
          "duration": 0.875,
          "durationTicks": 336,
          "midi": 30,
          "name": "F#1",
          "ticks": 25344,
          "time": 66,
          "velocity": 0.8661417322834646
        }
      ]
    }
  ]
}
