{
  "header": {
    "keySignatures": [],
    "meta": [
      {
        "text": "Generated by NoteWorthy Composer",
        "ticks": 0,
        "type": "text"
      }
    ],
    "name": "",
    "ppq": 192,
    "tempos": [],
    "timeSignatures": [
      {
        "ticks": 0,
        "timeSignature": [
          4,
          4
        ],
        "measures": 0
      }
    ]
  },
  "tracks": [
    {
      "channel": 0,
      "controlChanges": {
        "7": [
          {
            "number": 7,
            "ticks": 0,
            "time": 0,
            "value": 1
          },
          {
            "number": 7,
            "ticks": 0,
            "time": 0,
            "value": 1
          }
        ],
        "10": [
          {
            "number": 10,
            "ticks": 0,
            "time": 0,
            "value": 0.5039370078740157
          },
          {
            "number": 10,
            "ticks": 0,
            "time": 0,
            "value": 0.5039370078740157
          }
        ]
      },
      "pitchBends": [],
      "instrument": {
        "family": "guitar",
        "name": "distortion guitar",
        "number": 30
      },
      "name": "Right Hand",
      "notes": [
        {
          "duration": 0.24479166666666666,
          "durationTicks": 94,
          "midi": 56,
          "name": "G#3",
          "ticks": 0,
          "time": 0,
          "velocity": 0.8661417322834646
        },
        {
          "duration": 0.24479166666666669,
          "durationTicks": 94,
          "midi": 54,
          "name": "F#3",
          "ticks": 96,
          "time": 0.25,
          "velocity": 0.8661417322834646
        },
        {
          "duration": 1.6197916666666665,
          "durationTicks": 622,
          "midi": 52,
          "name": "E3",
          "ticks": 192,
          "time": 0.5,
          "velocity": 0.8661417322834646
        },
        {
          "duration": 0.08333333333333348,
          "durationTicks": 32,
          "midi": 52,
          "name": "E3",
          "ticks": 816,
          "time": 2.125,
          "velocity": 0.8661417322834646
        },
        {
          "duration": 0.08333333333333348,
          "durationTicks": 32,
          "midi": 59,
          "name": "B3",
          "ticks": 864,
          "time": 2.25,
          "velocity": 0.8661417322834646
        },
        {
          "duration": 0.24479166666666652,
          "durationTicks": 94,
          "midi": 52,
          "name": "E3",
          "ticks": 960,
          "time": 2.5,
          "velocity": 0.8661417322834646
        },
        {
          "duration": 0.08333333333333348,
          "durationTicks": 32,
          "midi": 59,
          "name": "B3",
          "ticks": 1056,
          "time": 2.75,
          "velocity": 0.8661417322834646
        },
        {
          "duration": 0.24479166666666652,
          "durationTicks": 94,
          "midi": 61,
          "name": "C#4",
          "ticks": 1152,
          "time": 3,
          "velocity": 0.8661417322834646
        },
        {
          "duration": 0.24479166666666652,
          "durationTicks": 94,
          "midi": 52,
          "name": "E3",
          "ticks": 1248,
          "time": 3.25,
          "velocity": 0.8661417322834646
        },
        {
          "duration": 0.05729166666666652,
          "durationTicks": 22,
          "midi": 59,
          "name": "B3",
          "ticks": 1344,
          "time": 3.5,
          "velocity": 0.8661417322834646
        },
        {
          "duration": 0.4322916666666665,
          "durationTicks": 166,
          "midi": 64,
          "name": "E4",
          "ticks": 1368,
          "time": 3.5625,
          "velocity": 0.8661417322834646
        },
        {
          "duration": 0.24479166666666696,
          "durationTicks": 94,
          "midi": 56,
          "name": "G#3",
          "ticks": 1536,
          "time": 4,
          "velocity": 0.8661417322834646
        },
        {
          "duration": 0.24479166666666696,
          "durationTicks": 94,
          "midi": 54,
          "name": "F#3",
          "ticks": 1632,
          "time": 4.25,
          "velocity": 0.8661417322834646
        },
        {
          "duration": 1.744791666666667,
          "durationTicks": 670,
          "midi": 52,
          "name": "E3",
          "ticks": 1728,
          "time": 4.5,
          "velocity": 0.8661417322834646
        },
        {
          "duration": 0.24479166666666696,
          "durationTicks": 94,
          "midi": 59,
          "name": "B3",
          "ticks": 2400,
          "time": 6.25,
          "velocity": 0.8661417322834646
        },
        {
          "duration": 0.24479166666666696,
          "durationTicks": 94,
          "midi": 52,
          "name": "E3",
          "ticks": 2496,
          "time": 6.5,
          "velocity": 0.8661417322834646
        },
        {
          "duration": 0.08333333333333304,
          "durationTicks": 32,
          "midi": 59,
          "name": "B3",
          "ticks": 2592,
          "time": 6.75,
          "velocity": 0.8661417322834646
        },
        {
          "duration": 0.24479166666666696,
          "durationTicks": 94,
          "midi": 61,
          "name": "C#4",
          "ticks": 2688,
          "time": 7,
          "velocity": 0.8661417322834646
        },
        {
          "duration": 0.24479166666666696,
          "durationTicks": 94,
          "midi": 52,
          "name": "E3",
          "ticks": 2784,
          "time": 7.25,
          "velocity": 0.8661417322834646
        },
        {
          "duration": 0.05729166666666696,
          "durationTicks": 22,
          "midi": 59,
          "name": "B3",
          "ticks": 2880,
          "time": 7.5,
          "velocity": 0.8661417322834646
        },
        {
          "duration": 0.43229166666666696,
          "durationTicks": 166,
          "midi": 64,
          "name": "E4",
          "ticks": 2904,
          "time": 7.5625,
          "velocity": 0.8661417322834646
        },
        {
          "duration": 0.24479166666666607,
          "durationTicks": 94,
          "midi": 56,
          "name": "G#3",
          "ticks": 3072,
          "time": 8,
          "velocity": 0.8661417322834646
        },
        {
          "duration": 0.24479166666666607,
          "durationTicks": 94,
          "midi": 54,
          "name": "F#3",
          "ticks": 3168,
          "time": 8.25,
          "velocity": 0.8661417322834646
        },
        {
          "duration": 1.619791666666666,
          "durationTicks": 622,
          "midi": 52,
          "name": "E3",
          "ticks": 3264,
          "time": 8.5,
          "velocity": 0.8661417322834646
        },
        {
          "duration": 0.08333333333333393,
          "durationTicks": 32,
          "midi": 52,
          "name": "E3",
          "ticks": 3888,
          "time": 10.125,
          "velocity": 0.8661417322834646
        },
        {
          "duration": 0.08333333333333393,
          "durationTicks": 32,
          "midi": 59,
          "name": "B3",
          "ticks": 3936,
          "time": 10.25,
          "velocity": 0.8661417322834646
        },
        {
          "duration": 0.24479166666666607,
          "durationTicks": 94,
          "midi": 52,
          "name": "E3",
          "ticks": 4032,
          "time": 10.5,
          "velocity": 0.8661417322834646
        },
        {
          "duration": 0.08333333333333393,
          "durationTicks": 32,
          "midi": 59,
          "name": "B3",
          "ticks": 4128,
          "time": 10.75,
          "velocity": 0.8661417322834646
        },
        {
          "duration": 0.24479166666666607,
          "durationTicks": 94,
          "midi": 61,
          "name": "C#4",
          "ticks": 4224,
          "time": 11,
          "velocity": 0.8661417322834646
        },
        {
          "duration": 0.24479166666666607,
          "durationTicks": 94,
          "midi": 52,
          "name": "E3",
          "ticks": 4320,
          "time": 11.25,
          "velocity": 0.8661417322834646
        },
        {
          "duration": 0.057291666666666075,
          "durationTicks": 22,
          "midi": 59,
          "name": "B3",
          "ticks": 4416,
          "time": 11.5,
          "velocity": 0.8661417322834646
        },
        {
          "duration": 0.4322916666666661,
          "durationTicks": 166,
          "midi": 64,
          "name": "E4",
          "ticks": 4440,
          "time": 11.5625,
          "velocity": 0.8661417322834646
        },
        {
          "duration": 0.24479166666666607,
          "durationTicks": 94,
          "midi": 56,
          "name": "G#3",
          "ticks": 4608,
          "time": 12,
          "velocity": 0.8661417322834646
        },
        {
          "duration": 0.24479166666666607,
          "durationTicks": 94,
          "midi": 54,
          "name": "F#3",
          "ticks": 4704,
          "time": 12.25,
          "velocity": 0.8661417322834646
        },
        {
          "duration": 1.744791666666666,
          "durationTicks": 670,
          "midi": 52,
          "name": "E3",
          "ticks": 4800,
          "time": 12.5,
          "velocity": 0.8661417322834646
        },
        {
          "duration": 0.24479166666666607,
          "durationTicks": 94,
          "midi": 59,
          "name": "B3",
          "ticks": 5472,
          "time": 14.25,
          "velocity": 0.8661417322834646
        },
        {
          "duration": 0.24479166666666607,
          "durationTicks": 94,
          "midi": 52,
          "name": "E3",
          "ticks": 5568,
          "time": 14.5,
          "velocity": 0.8661417322834646
        },
        {
          "duration": 0.08333333333333393,
          "durationTicks": 32,
          "midi": 59,
          "name": "B3",
          "ticks": 5664,
          "time": 14.75,
          "velocity": 0.8661417322834646
        },
        {
          "duration": 0.24479166666666607,
          "durationTicks": 94,
          "midi": 61,
          "name": "C#4",
          "ticks": 5760,
          "time": 15,
          "velocity": 0.8661417322834646
        },
        {
          "duration": 0.24479166666666607,
          "durationTicks": 94,
          "midi": 52,
          "name": "E3",
          "ticks": 5856,
          "time": 15.25,
          "velocity": 0.8661417322834646
        },
        {
          "duration": 0.057291666666666075,
          "durationTicks": 22,
          "midi": 59,
          "name": "B3",
          "ticks": 5952,
          "time": 15.5,
          "velocity": 0.8661417322834646
        },
        {
          "duration": 0.4322916666666661,
          "durationTicks": 166,
          "midi": 64,
          "name": "E4",
          "ticks": 5976,
          "time": 15.5625,
          "velocity": 0.8661417322834646
        },
        {
          "duration": 0.24479166666666785,
          "durationTicks": 94,
          "midi": 56,
          "name": "G#3",
          "ticks": 6144,
          "time": 16,
          "velocity": 0.8661417322834646
        },
        {
          "duration": 0.24479166666666785,
          "durationTicks": 94,
          "midi": 52,
          "name": "E3",
          "ticks": 6240,
          "time": 16.25,
          "velocity": 0.8661417322834646
        },
        {
          "duration": 0.41666666666666785,
          "durationTicks": 160,
          "midi": 54,
          "name": "F#3",
          "ticks": 6336,
          "time": 16.5,
          "velocity": 0.8661417322834646
        },
        {
          "duration": 0.36979166666666785,
          "durationTicks": 142,
          "midi": 42,
          "name": "F#2",
          "ticks": 6528,
          "time": 17,
          "velocity": 0.8661417322834646
        },
        {
          "duration": 0.11979166666666785,
          "durationTicks": 46,
          "midi": 49,
          "name": "C#3",
          "ticks": 6672,
          "time": 17.375,
          "velocity": 0.8661417322834646
        },
        {
          "duration": 0.41666666666666785,
          "durationTicks": 160,
          "midi": 54,
          "name": "F#3",
          "ticks": 6720,
          "time": 17.5,
          "velocity": 0.8661417322834646
        },
        {
          "duration": 0.11979166666666785,
          "durationTicks": 46,
          "midi": 42,
          "name": "F#2",
          "ticks": 6912,
          "time": 18,
          "velocity": 0.8661417322834646
        },
        {
          "duration": 0.11979166666666785,
          "durationTicks": 46,
          "midi": 59,
          "name": "B3",
          "ticks": 6960,
          "time": 18.125,
          "velocity": 0.8661417322834646
        },
        {
          "duration": 0.08333333333333215,
          "durationTicks": 32,
          "midi": 49,
          "name": "C#3",
          "ticks": 7008,
          "time": 18.25,
          "velocity": 0.8661417322834646
        },
        {
          "duration": 0.11979166666666785,
          "durationTicks": 46,
          "midi": 52,
          "name": "E3",
          "ticks": 7056,
          "time": 18.375,
          "velocity": 1
        },
        {
          "duration": 0.875,
          "durationTicks": 336,
          "midi": 54,
          "name": "F#3",
          "ticks": 7104,
          "time": 18.5,
          "velocity": 0.8661417322834646
        },
        {
          "duration": 0.05729166666666785,
          "durationTicks": 22,
          "midi": 54,
          "name": "F#3",
          "ticks": 7488,
          "time": 19.5,
          "velocity": 0.8661417322834646
        },
        {
          "duration": 0.43229166666666785,
          "durationTicks": 166,
          "midi": 56,
          "name": "G#3",
          "ticks": 7512,
          "time": 19.5625,
          "velocity": 0.8661417322834646
        },
        {
          "duration": 0.41666666666666785,
          "durationTicks": 160,
          "midi": 54,
          "name": "F#3",
          "ticks": 7680,
          "time": 20,
          "velocity": 0.8661417322834646
        },
        {
          "duration": 1.7447916666666679,
          "durationTicks": 670,
          "midi": 52,
          "name": "E3",
          "ticks": 7872,
          "time": 20.5,
          "velocity": 0.8661417322834646
        },
        {
          "duration": 0.24479166666666785,
          "durationTicks": 94,
          "midi": 59,
          "name": "B3",
          "ticks": 8544,
          "time": 22.25,
          "velocity": 0.8661417322834646
        },
        {
          "duration": 0.24479166666666785,
          "durationTicks": 94,
          "midi": 52,
          "name": "E3",
          "ticks": 8640,
          "time": 22.5,
          "velocity": 0.8661417322834646
        },
        {
          "duration": 0.08333333333333215,
          "durationTicks": 32,
          "midi": 59,
          "name": "B3",
          "ticks": 8736,
          "time": 22.75,
          "velocity": 0.8661417322834646
        },
        {
          "duration": 0.24479166666666785,
          "durationTicks": 94,
          "midi": 61,
          "name": "C#4",
          "ticks": 8832,
          "time": 23,
          "velocity": 0.8661417322834646
        },
        {
          "duration": 0.24479166666666785,
          "durationTicks": 94,
          "midi": 52,
          "name": "E3",
          "ticks": 8928,
          "time": 23.25,
          "velocity": 0.8661417322834646
        },
        {
          "duration": 0.05729166666666785,
          "durationTicks": 22,
          "midi": 59,
          "name": "B3",
          "ticks": 9024,
          "time": 23.5,
          "velocity": 0.8661417322834646
        },
        {
          "duration": 0.18229166666666785,
          "durationTicks": 70,
          "midi": 64,
          "name": "E4",
          "ticks": 9048,
          "time": 23.5625,
          "velocity": 0.8661417322834646
        },
        {
          "duration": 0.08333333333333215,
          "durationTicks": 32,
          "midi": 59,
          "name": "B3",
          "ticks": 9120,
          "time": 23.75,
          "velocity": 0.8661417322834646
        },
        {
          "duration": 0.24479166666666785,
          "durationTicks": 94,
          "midi": 56,
          "name": "G#3",
          "ticks": 9216,
          "time": 24,
          "velocity": 0.8661417322834646
        },
        {
          "duration": 0.24479166666666785,
          "durationTicks": 94,
          "midi": 52,
          "name": "E3",
          "ticks": 9312,
          "time": 24.25,
          "velocity": 0.8661417322834646
        },
        {
          "duration": 0.24479166666666785,
          "durationTicks": 94,
          "midi": 59,
          "name": "B3",
          "ticks": 9408,
          "time": 24.5,
          "velocity": 0.8661417322834646
        },
        {
          "duration": 0.24479166666666785,
          "durationTicks": 94,
          "midi": 52,
          "name": "E3",
          "ticks": 9504,
          "time": 24.75,
          "velocity": 0.8661417322834646
        },
        {
          "duration": 0.24479166666666785,
          "durationTicks": 94,
          "midi": 59,
          "name": "B3",
          "ticks": 9600,
          "time": 25,
          "velocity": 0.8661417322834646
        },
        {
          "duration": 0.24479166666666785,
          "durationTicks": 94,
          "midi": 52,
          "name": "E3",
          "ticks": 9696,
          "time": 25.25,
          "velocity": 0.8661417322834646
        },
        {
          "duration": 0.24479166666666785,
          "durationTicks": 94,
          "midi": 59,
          "name": "B3",
          "ticks": 9792,
          "time": 25.5,
          "velocity": 0.8661417322834646
        },
        {
          "duration": 0.24479166666666785,
          "durationTicks": 94,
          "midi": 52,
          "name": "E3",
          "ticks": 9888,
          "time": 25.75,
          "velocity": 0.8661417322834646
        },
        {
          "duration": 0.24479166666666785,
          "durationTicks": 94,
          "midi": 59,
          "name": "B3",
          "ticks": 9984,
          "time": 26,
          "velocity": 0.8661417322834646
        },
        {
          "duration": 0.24479166666666785,
          "durationTicks": 94,
          "midi": 52,
          "name": "E3",
          "ticks": 10080,
          "time": 26.25,
          "velocity": 0.8661417322834646
        },
        {
          "duration": 0.24479166666666785,
          "durationTicks": 94,
          "midi": 59,
          "name": "B3",
          "ticks": 10176,
          "time": 26.5,
          "velocity": 0.8661417322834646
        },
        {
          "duration": 0.24479166666666785,
          "durationTicks": 94,
          "midi": 52,
          "name": "E3",
          "ticks": 10272,
          "time": 26.75,
          "velocity": 0.8661417322834646
        },
        {
          "duration": 0.24479166666666785,
          "durationTicks": 94,
          "midi": 59,
          "name": "B3",
          "ticks": 10368,
          "time": 27,
          "velocity": 0.8661417322834646
        },
        {
          "duration": 0.24479166666666785,
          "durationTicks": 94,
          "midi": 52,
          "name": "E3",
          "ticks": 10464,
          "time": 27.25,
          "velocity": 0.8661417322834646
        },
        {
          "duration": 0.24479166666666785,
          "durationTicks": 94,
          "midi": 59,
          "name": "B3",
          "ticks": 10560,
          "time": 27.5,
          "velocity": 0.8661417322834646
        },
        {
          "duration": 0.24479166666666785,
          "durationTicks": 94,
          "midi": 52,
          "name": "E3",
          "ticks": 10656,
          "time": 27.75,
          "velocity": 0.8661417322834646
        },
        {
          "duration": 0.24479166666666785,
          "durationTicks": 94,
          "midi": 59,
          "name": "B3",
          "ticks": 10752,
          "time": 28,
          "velocity": 0.8661417322834646
        },
        {
          "duration": 0.24479166666666785,
          "durationTicks": 94,
          "midi": 52,
          "name": "E3",
          "ticks": 10848,
          "time": 28.25,
          "velocity": 0.8661417322834646
        },
        {
          "duration": 0.24479166666666785,
          "durationTicks": 94,
          "midi": 59,
          "name": "B3",
          "ticks": 10944,
          "time": 28.5,
          "velocity": 0.8661417322834646
        },
        {
          "duration": 0.24479166666666785,
          "durationTicks": 94,
          "midi": 52,
          "name": "E3",
          "ticks": 11040,
          "time": 28.75,
          "velocity": 0.8661417322834646
        },
        {
          "duration": 0.24479166666666785,
          "durationTicks": 94,
          "midi": 52,
          "name": "E3",
          "ticks": 11136,
          "time": 29,
          "velocity": 0.8661417322834646
        },
        {
          "duration": 0.24479166666666785,
          "durationTicks": 94,
          "midi": 59,
          "name": "B3",
          "ticks": 11232,
          "time": 29.25,
          "velocity": 0.8661417322834646
        },
        {
          "duration": 0.24479166666666785,
          "durationTicks": 94,
          "midi": 52,
          "name": "E3",
          "ticks": 11328,
          "time": 29.5,
          "velocity": 0.8661417322834646
        },
        {
          "duration": 0.24479166666666785,
          "durationTicks": 94,
          "midi": 52,
          "name": "E3",
          "ticks": 11424,
          "time": 29.75,
          "velocity": 0.8661417322834646
        },
        {
          "duration": 0.24479166666666785,
          "durationTicks": 94,
          "midi": 59,
          "name": "B3",
          "ticks": 11520,
          "time": 30,
          "velocity": 0.8661417322834646
        },
        {
          "duration": 0.24479166666666785,
          "durationTicks": 94,
          "midi": 52,
          "name": "E3",
          "ticks": 11616,
          "time": 30.25,
          "velocity": 0.8661417322834646
        },
        {
          "duration": 0.24479166666666785,
          "durationTicks": 94,
          "midi": 59,
          "name": "B3",
          "ticks": 11712,
          "time": 30.5,
          "velocity": 0.8661417322834646
        },
        {
          "duration": 0.24479166666666785,
          "durationTicks": 94,
          "midi": 52,
          "name": "E3",
          "ticks": 11808,
          "time": 30.75,
          "velocity": 0.8661417322834646
        },
        {
          "duration": 0.24479166666666785,
          "durationTicks": 94,
          "midi": 52,
          "name": "E3",
          "ticks": 11904,
          "time": 31,
          "velocity": 0.8661417322834646
        },
        {
          "duration": 0.24479166666666785,
          "durationTicks": 94,
          "midi": 59,
          "name": "B3",
          "ticks": 12000,
          "time": 31.25,
          "velocity": 0.8661417322834646
        },
        {
          "duration": 0.24479166666666785,
          "durationTicks": 94,
          "midi": 52,
          "name": "E3",
          "ticks": 12096,
          "time": 31.5,
          "velocity": 0.8661417322834646
        },
        {
          "duration": 0.24479166666666785,
          "durationTicks": 94,
          "midi": 52,
          "name": "E3",
          "ticks": 12192,
          "time": 31.75,
          "velocity": 0.8661417322834646
        },
        {
          "duration": 0.2447916666666643,
          "durationTicks": 94,
          "midi": 59,
          "name": "B3",
          "ticks": 12288,
          "time": 32,
          "velocity": 0.8661417322834646
        },
        {
          "duration": 0.2447916666666643,
          "durationTicks": 94,
          "midi": 52,
          "name": "E3",
          "ticks": 12384,
          "time": 32.25,
          "velocity": 0.8661417322834646
        },
        {
          "duration": 0.2447916666666643,
          "durationTicks": 94,
          "midi": 54,
          "name": "F#3",
          "ticks": 12480,
          "time": 32.5,
          "velocity": 0.8661417322834646
        },
        {
          "duration": 0.2447916666666643,
          "durationTicks": 94,
          "midi": 49,
          "name": "C#3",
          "ticks": 12576,
          "time": 32.75,
          "velocity": 0.8661417322834646
        },
        {
          "duration": 0.0833333333333357,
          "durationTicks": 32,
          "midi": 54,
          "name": "F#3",
          "ticks": 12672,
          "time": 33,
          "velocity": 0.8661417322834646
        },
        {
          "duration": 0.2447916666666643,
          "durationTicks": 94,
          "midi": 54,
          "name": "F#3",
          "ticks": 12768,
          "time": 33.25,
          "velocity": 0.8661417322834646
        },
        {
          "duration": 0.2447916666666643,
          "durationTicks": 94,
          "midi": 49,
          "name": "C#3",
          "ticks": 12864,
          "time": 33.5,
          "velocity": 0.8661417322834646
        },
        {
          "duration": 0.0833333333333357,
          "durationTicks": 32,
          "midi": 54,
          "name": "F#3",
          "ticks": 12960,
          "time": 33.75,
          "velocity": 0.8661417322834646
        },
        {
          "duration": 0.2447916666666643,
          "durationTicks": 94,
          "midi": 54,
          "name": "F#3",
          "ticks": 13056,
          "time": 34,
          "velocity": 0.8661417322834646
        },
        {
          "duration": 0.2447916666666643,
          "durationTicks": 94,
          "midi": 49,
          "name": "C#3",
          "ticks": 13152,
          "time": 34.25,
          "velocity": 0.8661417322834646
        },
        {
          "duration": 0.0572916666666643,
          "durationTicks": 22,
          "midi": 52,
          "name": "E3",
          "ticks": 13248,
          "time": 34.5,
          "velocity": 0.8661417322834646
        },
        {
          "duration": 0.8541666666666643,
          "durationTicks": 328,
          "midi": 54,
          "name": "F#3",
          "ticks": 13272,
          "time": 34.5625,
          "velocity": 0.8661417322834646
        },
        {
          "duration": 0.7447916666666643,
          "durationTicks": 286,
          "midi": 56,
          "name": "G#3",
          "ticks": 13632,
          "time": 35.5,
          "velocity": 0.8661417322834646
        },
        {
          "duration": 0.2447916666666643,
          "durationTicks": 94,
          "midi": 54,
          "name": "F#3",
          "ticks": 13920,
          "time": 36.25,
          "velocity": 0.8661417322834646
        },
        {
          "duration": 1.375,
          "durationTicks": 528,
          "midi": 52,
          "name": "E3",
          "ticks": 14016,
          "time": 36.5,
          "velocity": 0.8661417322834646
        },
        {
          "duration": 0.125,
          "durationTicks": 48,
          "midi": 59,
          "name": "B3",
          "ticks": 14592,
          "time": 38,
          "velocity": 0.8661417322834646
        },
        {
          "duration": 0.875,
          "durationTicks": 336,
          "midi": 52,
          "name": "E3",
          "ticks": 14784,
          "time": 38.5,
          "velocity": 0.8661417322834646
        },
        {
          "duration": 0.875,
          "durationTicks": 336,
          "midi": 54,
          "name": "F#3",
          "ticks": 15168,
          "time": 39.5,
          "velocity": 0.8661417322834646
        },
        {
          "duration": 0.4166666666666643,
          "durationTicks": 160,
          "midi": 56,
          "name": "G#3",
          "ticks": 15552,
          "time": 40.5,
          "velocity": 0.8661417322834646
        },
        {
          "duration": 0.875,
          "durationTicks": 336,
          "midi": 52,
          "name": "E3",
          "ticks": 15744,
          "time": 41,
          "velocity": 0.8661417322834646
        },
        {
          "duration": 0.4166666666666643,
          "durationTicks": 160,
          "midi": 54,
          "name": "F#3",
          "ticks": 16128,
          "time": 42,
          "velocity": 0.8661417322834646
        },
        {
          "duration": 5.875,
          "durationTicks": 2256,
          "midi": 52,
          "name": "E3",
          "ticks": 16320,
          "time": 42.5,
          "velocity": 0.8661417322834646
        }
      ]
    },
    {
      "channel": 1,
      "controlChanges": {
        "7": [
          {
            "number": 7,
            "ticks": 0,
            "time": 0,
            "value": 1
          },
          {
            "number": 7,
            "ticks": 0,
            "time": 0,
            "value": 1
          }
        ],
        "10": [
          {
            "number": 10,
            "ticks": 0,
            "time": 0,
            "value": 0.5039370078740157
          },
          {
            "number": 10,
            "ticks": 0,
            "time": 0,
            "value": 0.5039370078740157
          }
        ]
      },
      "pitchBends": [],
      "instrument": {
        "family": "guitar",
        "name": "distortion guitar",
        "number": 30
      },
      "name": "Left Hand",
      "notes": [
        {
          "duration": 0.24479166666666663,
          "durationTicks": 94,
          "midi": 40,
          "name": "E2",
          "ticks": 192,
          "time": 0.5,
          "velocity": 0.8661417322834646
        },
        {
          "duration": 0.24479166666666663,
          "durationTicks": 94,
          "midi": 52,
          "name": "E3",
          "ticks": 288,
          "time": 0.75,
          "velocity": 0.8661417322834646
        },
        {
          "duration": 0.24479166666666674,
          "durationTicks": 94,
          "midi": 40,
          "name": "E2",
          "ticks": 480,
          "time": 1.25,
          "velocity": 0.8661417322834646
        },
        {
          "duration": 0.41666666666666674,
          "durationTicks": 160,
          "midi": 52,
          "name": "E3",
          "ticks": 576,
          "time": 1.5,
          "velocity": 0.8661417322834646
        },
        {
          "duration": 0.24479166666666652,
          "durationTicks": 94,
          "midi": 40,
          "name": "E2",
          "ticks": 768,
          "time": 2,
          "velocity": 0.8661417322834646
        },
        {
          "duration": 0.24479166666666652,
          "durationTicks": 94,
          "midi": 52,
          "name": "E3",
          "ticks": 864,
          "time": 2.25,
          "velocity": 0.8661417322834646
        },
        {
          "duration": 0.11979166666666652,
          "durationTicks": 46,
          "midi": 40,
          "name": "E2",
          "ticks": 960,
          "time": 2.5,
          "velocity": 0.8661417322834646
        },
        {
          "duration": 0.11979166666666652,
          "durationTicks": 46,
          "midi": 47,
          "name": "B2",
          "ticks": 1008,
          "time": 2.625,
          "velocity": 0.8661417322834646
        },
        {
          "duration": 0.08333333333333348,
          "durationTicks": 32,
          "midi": 52,
          "name": "E3",
          "ticks": 1056,
          "time": 2.75,
          "velocity": 0.8661417322834646
        },
        {
          "duration": 0.24479166666666652,
          "durationTicks": 94,
          "midi": 40,
          "name": "E2",
          "ticks": 1248,
          "time": 3.25,
          "velocity": 0.8661417322834646
        },
        {
          "duration": 0.4166666666666665,
          "durationTicks": 160,
          "midi": 52,
          "name": "E3",
          "ticks": 1344,
          "time": 3.5,
          "velocity": 0.8661417322834646
        },
        {
          "duration": 0.24479166666666696,
          "durationTicks": 94,
          "midi": 40,
          "name": "E2",
          "ticks": 1536,
          "time": 4,
          "velocity": 0.8661417322834646
        },
        {
          "duration": 0.24479166666666696,
          "durationTicks": 94,
          "midi": 52,
          "name": "E3",
          "ticks": 1632,
          "time": 4.25,
          "velocity": 0.8661417322834646
        },
        {
          "duration": 0.24479166666666696,
          "durationTicks": 94,
          "midi": 40,
          "name": "E2",
          "ticks": 1728,
          "time": 4.5,
          "velocity": 0.8661417322834646
        },
        {
          "duration": 0.24479166666666696,
          "durationTicks": 94,
          "midi": 52,
          "name": "E3",
          "ticks": 1824,
          "time": 4.75,
          "velocity": 0.8661417322834646
        },
        {
          "duration": 0.24479166666666696,
          "durationTicks": 94,
          "midi": 40,
          "name": "E2",
          "ticks": 2016,
          "time": 5.25,
          "velocity": 0.8661417322834646
        },
        {
          "duration": 0.41666666666666696,
          "durationTicks": 160,
          "midi": 52,
          "name": "E3",
          "ticks": 2112,
          "time": 5.5,
          "velocity": 0.8661417322834646
        },
        {
          "duration": 0.24479166666666696,
          "durationTicks": 94,
          "midi": 40,
          "name": "E2",
          "ticks": 2304,
          "time": 6,
          "velocity": 0.8661417322834646
        },
        {
          "duration": 0.24479166666666696,
          "durationTicks": 94,
          "midi": 52,
          "name": "E3",
          "ticks": 2400,
          "time": 6.25,
          "velocity": 0.8661417322834646
        },
        {
          "duration": 0.24479166666666696,
          "durationTicks": 94,
          "midi": 40,
          "name": "E2",
          "ticks": 2496,
          "time": 6.5,
          "velocity": 0.8661417322834646
        },
        {
          "duration": 0.24479166666666696,
          "durationTicks": 94,
          "midi": 52,
          "name": "E3",
          "ticks": 2592,
          "time": 6.75,
          "velocity": 0.8661417322834646
        },
        {
          "duration": 0.24479166666666696,
          "durationTicks": 94,
          "midi": 40,
          "name": "E2",
          "ticks": 2784,
          "time": 7.25,
          "velocity": 0.8661417322834646
        },
        {
          "duration": 0.41666666666666696,
          "durationTicks": 160,
          "midi": 52,
          "name": "E3",
          "ticks": 2880,
          "time": 7.5,
          "velocity": 0.8661417322834646
        },
        {
          "duration": 0.24479166666666607,
          "durationTicks": 94,
          "midi": 40,
          "name": "E2",
          "ticks": 3072,
          "time": 8,
          "velocity": 0.8661417322834646
        },
        {
          "duration": 0.24479166666666607,
          "durationTicks": 94,
          "midi": 52,
          "name": "E3",
          "ticks": 3168,
          "time": 8.25,
          "velocity": 0.8661417322834646
        },
        {
          "duration": 0.24479166666666607,
          "durationTicks": 94,
          "midi": 40,
          "name": "E2",
          "ticks": 3264,
          "time": 8.5,
          "velocity": 0.8661417322834646
        },
        {
          "duration": 0.24479166666666607,
          "durationTicks": 94,
          "midi": 52,
          "name": "E3",
          "ticks": 3360,
          "time": 8.75,
          "velocity": 0.8661417322834646
        },
        {
          "duration": 0.24479166666666607,
          "durationTicks": 94,
          "midi": 40,
          "name": "E2",
          "ticks": 3552,
          "time": 9.25,
          "velocity": 0.8661417322834646
        },
        {
          "duration": 0.4166666666666661,
          "durationTicks": 160,
          "midi": 52,
          "name": "E3",
          "ticks": 3648,
          "time": 9.5,
          "velocity": 0.8661417322834646
        },
        {
          "duration": 0.24479166666666607,
          "durationTicks": 94,
          "midi": 40,
          "name": "E2",
          "ticks": 3840,
          "time": 10,
          "velocity": 0.8661417322834646
        },
        {
          "duration": 0.24479166666666607,
          "durationTicks": 94,
          "midi": 52,
          "name": "E3",
          "ticks": 3936,
          "time": 10.25,
          "velocity": 0.8661417322834646
        },
        {
          "duration": 0.11979166666666607,
          "durationTicks": 46,
          "midi": 40,
          "name": "E2",
          "ticks": 4032,
          "time": 10.5,
          "velocity": 0.8661417322834646
        },
        {
          "duration": 0.11979166666666607,
          "durationTicks": 46,
          "midi": 47,
          "name": "B2",
          "ticks": 4080,
          "time": 10.625,
          "velocity": 0.8661417322834646
        },
        {
          "duration": 0.08333333333333393,
          "durationTicks": 32,
          "midi": 52,
          "name": "E3",
          "ticks": 4128,
          "time": 10.75,
          "velocity": 0.8661417322834646
        },
        {
          "duration": 0.24479166666666607,
          "durationTicks": 94,
          "midi": 40,
          "name": "E2",
          "ticks": 4320,
          "time": 11.25,
          "velocity": 0.8661417322834646
        },
        {
          "duration": 0.4166666666666661,
          "durationTicks": 160,
          "midi": 52,
          "name": "E3",
          "ticks": 4416,
          "time": 11.5,
          "velocity": 0.8661417322834646
        },
        {
          "duration": 0.24479166666666607,
          "durationTicks": 94,
          "midi": 40,
          "name": "E2",
          "ticks": 4608,
          "time": 12,
          "velocity": 0.8661417322834646
        },
        {
          "duration": 0.24479166666666607,
          "durationTicks": 94,
          "midi": 52,
          "name": "E3",
          "ticks": 4704,
          "time": 12.25,
          "velocity": 0.8661417322834646
        },
        {
          "duration": 0.24479166666666607,
          "durationTicks": 94,
          "midi": 40,
          "name": "E2",
          "ticks": 4800,
          "time": 12.5,
          "velocity": 0.8661417322834646
        },
        {
          "duration": 0.24479166666666607,
          "durationTicks": 94,
          "midi": 52,
          "name": "E3",
          "ticks": 4896,
          "time": 12.75,
          "velocity": 0.8661417322834646
        },
        {
          "duration": 0.24479166666666607,
          "durationTicks": 94,
          "midi": 40,
          "name": "E2",
          "ticks": 5088,
          "time": 13.25,
          "velocity": 0.8661417322834646
        },
        {
          "duration": 0.4166666666666661,
          "durationTicks": 160,
          "midi": 52,
          "name": "E3",
          "ticks": 5184,
          "time": 13.5,
          "velocity": 0.8661417322834646
        },
        {
          "duration": 0.24479166666666607,
          "durationTicks": 94,
          "midi": 40,
          "name": "E2",
          "ticks": 5376,
          "time": 14,
          "velocity": 0.8661417322834646
        },
        {
          "duration": 0.24479166666666607,
          "durationTicks": 94,
          "midi": 52,
          "name": "E3",
          "ticks": 5472,
          "time": 14.25,
          "velocity": 0.8661417322834646
        },
        {
          "duration": 0.24479166666666607,
          "durationTicks": 94,
          "midi": 40,
          "name": "E2",
          "ticks": 5568,
          "time": 14.5,
          "velocity": 0.8661417322834646
        },
        {
          "duration": 0.24479166666666607,
          "durationTicks": 94,
          "midi": 52,
          "name": "E3",
          "ticks": 5664,
          "time": 14.75,
          "velocity": 0.8661417322834646
        },
        {
          "duration": 0.24479166666666607,
          "durationTicks": 94,
          "midi": 40,
          "name": "E2",
          "ticks": 5856,
          "time": 15.25,
          "velocity": 0.8661417322834646
        },
        {
          "duration": 0.4166666666666661,
          "durationTicks": 160,
          "midi": 52,
          "name": "E3",
          "ticks": 5952,
          "time": 15.5,
          "velocity": 0.8661417322834646
        },
        {
          "duration": 0.08333333333333215,
          "durationTicks": 32,
          "midi": 40,
          "name": "E2",
          "ticks": 6144,
          "time": 16,
          "velocity": 0.8661417322834646
        },
        {
          "duration": 0.24479166666666785,
          "durationTicks": 94,
          "midi": 40,
          "name": "E2",
          "ticks": 6240,
          "time": 16.25,
          "velocity": 0.8661417322834646
        },
        {
          "duration": 1.875,
          "durationTicks": 720,
          "midi": 42,
          "name": "F#2",
          "ticks": 6336,
          "time": 16.5,
          "velocity": 0.8661417322834646
        },
        {
          "duration": 0.875,
          "durationTicks": 336,
          "midi": 45,
          "name": "A2",
          "ticks": 7104,
          "time": 18.5,
          "velocity": 0.8661417322834646
        },
        {
          "duration": 0.24479166666666785,
          "durationTicks": 94,
          "midi": 44,
          "name": "G#2",
          "ticks": 7488,
          "time": 19.5,
          "velocity": 0.8661417322834646
        },
        {
          "duration": 0.125,
          "durationTicks": 48,
          "midi": 42,
          "name": "F#2",
          "ticks": 7584,
          "time": 19.75,
          "velocity": 0.8661417322834646
        },
        {
          "duration": 0.24479166666666785,
          "durationTicks": 94,
          "midi": 52,
          "name": "E3",
          "ticks": 7776,
          "time": 20.25,
          "velocity": 0.8661417322834646
        },
        {
          "duration": 0.24479166666666785,
          "durationTicks": 94,
          "midi": 40,
          "name": "E2",
          "ticks": 7872,
          "time": 20.5,
          "velocity": 0.8661417322834646
        },
        {
          "duration": 0.24479166666666785,
          "durationTicks": 94,
          "midi": 52,
          "name": "E3",
          "ticks": 7968,
          "time": 20.75,
          "velocity": 0.8661417322834646
        },
        {
          "duration": 0.24479166666666785,
          "durationTicks": 94,
          "midi": 40,
          "name": "E2",
          "ticks": 8160,
          "time": 21.25,
          "velocity": 0.8661417322834646
        },
        {
          "duration": 0.41666666666666785,
          "durationTicks": 160,
          "midi": 52,
          "name": "E3",
          "ticks": 8256,
          "time": 21.5,
          "velocity": 0.8661417322834646
        },
        {
          "duration": 0.24479166666666785,
          "durationTicks": 94,
          "midi": 40,
          "name": "E2",
          "ticks": 8448,
          "time": 22,
          "velocity": 0.8661417322834646
        },
        {
          "duration": 0.24479166666666785,
          "durationTicks": 94,
          "midi": 52,
          "name": "E3",
          "ticks": 8544,
          "time": 22.25,
          "velocity": 0.8661417322834646
        },
        {
          "duration": 0.24479166666666785,
          "durationTicks": 94,
          "midi": 40,
          "name": "E2",
          "ticks": 8640,
          "time": 22.5,
          "velocity": 0.8661417322834646
        },
        {
          "duration": 0.24479166666666785,
          "durationTicks": 94,
          "midi": 52,
          "name": "E3",
          "ticks": 8736,
          "time": 22.75,
          "velocity": 0.8661417322834646
        },
        {
          "duration": 0.24479166666666785,
          "durationTicks": 94,
          "midi": 40,
          "name": "E2",
          "ticks": 8928,
          "time": 23.25,
          "velocity": 0.8661417322834646
        },
        {
          "duration": 0.41666666666666785,
          "durationTicks": 160,
          "midi": 52,
          "name": "E3",
          "ticks": 9024,
          "time": 23.5,
          "velocity": 0.8661417322834646
        },
        {
          "duration": 0.08333333333333215,
          "durationTicks": 32,
          "midi": 40,
          "name": "E2",
          "ticks": 9216,
          "time": 24,
          "velocity": 0.8661417322834646
        },
        {
          "duration": 0.24479166666666785,
          "durationTicks": 94,
          "midi": 47,
          "name": "B2",
          "ticks": 9312,
          "time": 24.25,
          "velocity": 0.8661417322834646
        },
        {
          "duration": 1.875,
          "durationTicks": 720,
          "midi": 52,
          "name": "E3",
          "ticks": 9408,
          "time": 24.5,
          "velocity": 0.8661417322834646
        },
        {
          "duration": 1.875,
          "durationTicks": 720,
          "midi": 59,
          "name": "B3",
          "ticks": 10176,
          "time": 26.5,
          "velocity": 0.8661417322834646
        },
        {
          "duration": 0.875,
          "durationTicks": 336,
          "midi": 57,
          "name": "A3",
          "ticks": 10944,
          "time": 28.5,
          "velocity": 0.8661417322834646
        },
        {
          "duration": 0.875,
          "durationTicks": 336,
          "midi": 56,
          "name": "G#3",
          "ticks": 11328,
          "time": 29.5,
          "velocity": 0.8661417322834646
        },
        {
          "duration": 0.875,
          "durationTicks": 336,
          "midi": 54,
          "name": "F#3",
          "ticks": 11712,
          "time": 30.5,
          "velocity": 0.8661417322834646
        },
        {
          "duration": 0.875,
          "durationTicks": 336,
          "midi": 52,
          "name": "E3",
          "ticks": 12096,
          "time": 31.5,
          "velocity": 0.8661417322834646
        },
        {
          "duration": 1.875,
          "durationTicks": 720,
          "midi": 54,
          "name": "F#3",
          "ticks": 12480,
          "time": 32.5,
          "velocity": 0.8661417322834646
        },
        {
          "duration": 0.875,
          "durationTicks": 336,
          "midi": 57,
          "name": "A3",
          "ticks": 13248,
          "time": 34.5,
          "velocity": 0.8661417322834646
        },
        {
          "duration": 0.4166666666666643,
          "durationTicks": 160,
          "midi": 56,
          "name": "G#3",
          "ticks": 13632,
          "time": 35.5,
          "velocity": 0.8661417322834646
        },
        {
          "duration": 0.4166666666666643,
          "durationTicks": 160,
          "midi": 54,
          "name": "F#3",
          "ticks": 13824,
          "time": 36,
          "velocity": 0.8661417322834646
        },
        {
          "duration": 2.875,
          "durationTicks": 1104,
          "midi": 52,
          "name": "E3",
          "ticks": 14016,
          "time": 36.5,
          "velocity": 0.8661417322834646
        },
        {
          "duration": 0.4166666666666643,
          "durationTicks": 160,
          "midi": 52,
          "name": "E3",
          "ticks": 15168,
          "time": 39.5,
          "velocity": 0.8661417322834646
        },
        {
          "duration": 0.4166666666666643,
          "durationTicks": 160,
          "midi": 47,
          "name": "B2",
          "ticks": 15360,
          "time": 40,
          "velocity": 0.8661417322834646
        },
        {
          "duration": 0.875,
          "durationTicks": 336,
          "midi": 45,
          "name": "A2",
          "ticks": 15552,
          "time": 40.5,
          "velocity": 0.8661417322834646
        },
        {
          "duration": 0.4166666666666643,
          "durationTicks": 160,
          "midi": 44,
          "name": "G#2",
          "ticks": 15936,
          "time": 41.5,
          "velocity": 0.8661417322834646
        },
        {
          "duration": 0.4166666666666643,
          "durationTicks": 160,
          "midi": 42,
          "name": "F#2",
          "ticks": 16128,
          "time": 42,
          "velocity": 0.8661417322834646
        },
        {
          "duration": 5.875,
          "durationTicks": 2256,
          "midi": 40,
          "name": "E2",
          "ticks": 16320,
          "time": 42.5,
          "velocity": 0.8661417322834646
        }
      ]
    },
    {
      "channel": 2,
      "controlChanges": {
        "7": [
          {
            "number": 7,
            "ticks": 0,
            "time": 0,
            "value": 1
          },
          {
            "number": 7,
            "ticks": 0,
            "time": 0,
            "value": 1
          }
        ],
        "10": [
          {
            "number": 10,
            "ticks": 0,
            "time": 0,
            "value": 0.5039370078740157
          },
          {
            "number": 10,
            "ticks": 0,
            "time": 0,
            "value": 0.5039370078740157
          }
        ]
      },
      "pitchBends": [],
      "instrument": {
        "family": "guitar",
        "name": "overdriven guitar",
        "number": 29
      },
      "name": "Staff-1",
      "notes": [
        {
          "duration": 1.875,
          "durationTicks": 720,
          "midi": 52,
          "name": "E3",
          "ticks": 192,
          "time": 0.5,
          "velocity": 0.8661417322834646
        },
        {
          "duration": 1.875,
          "durationTicks": 720,
          "midi": 59,
          "name": "B3",
          "ticks": 960,
          "time": 2.5,
          "velocity": 0.8661417322834646
        },
        {
          "duration": 0.875,
          "durationTicks": 336,
          "midi": 57,
          "name": "A3",
          "ticks": 1728,
          "time": 4.5,
          "velocity": 0.8661417322834646
        },
        {
          "duration": 0.875,
          "durationTicks": 336,
          "midi": 56,
          "name": "G#3",
          "ticks": 2112,
          "time": 5.5,
          "velocity": 0.8661417322834646
        },
        {
          "duration": 0.875,
          "durationTicks": 336,
          "midi": 54,
          "name": "F#3",
          "ticks": 2496,
          "time": 6.5,
          "velocity": 0.8661417322834646
        },
        {
          "duration": 0.875,
          "durationTicks": 336,
          "midi": 52,
          "name": "E3",
          "ticks": 2880,
          "time": 7.5,
          "velocity": 0.8661417322834646
        },
        {
          "duration": 1.875,
          "durationTicks": 720,
          "midi": 52,
          "name": "E3",
          "ticks": 3264,
          "time": 8.5,
          "velocity": 0.8661417322834646
        },
        {
          "duration": 1.875,
          "durationTicks": 720,
          "midi": 59,
          "name": "B3",
          "ticks": 4032,
          "time": 10.5,
          "velocity": 0.8661417322834646
        },
        {
          "duration": 0.875,
          "durationTicks": 336,
          "midi": 57,
          "name": "A3",
          "ticks": 4800,
          "time": 12.5,
          "velocity": 0.8661417322834646
        },
        {
          "duration": 0.875,
          "durationTicks": 336,
          "midi": 56,
          "name": "G#3",
          "ticks": 5184,
          "time": 13.5,
          "velocity": 0.8661417322834646
        },
        {
          "duration": 0.875,
          "durationTicks": 336,
          "midi": 54,
          "name": "F#3",
          "ticks": 5568,
          "time": 14.5,
          "velocity": 0.8661417322834646
        },
        {
          "duration": 0.875,
          "durationTicks": 336,
          "midi": 52,
          "name": "E3",
          "ticks": 5952,
          "time": 15.5,
          "velocity": 0.8661417322834646
        },
        {
          "duration": 1.875,
          "durationTicks": 720,
          "midi": 54,
          "name": "F#3",
          "ticks": 6336,
          "time": 16.5,
          "velocity": 0.8661417322834646
        },
        {
          "duration": 0.875,
          "durationTicks": 336,
          "midi": 57,
          "name": "A3",
          "ticks": 7104,
          "time": 18.5,
          "velocity": 0.8661417322834646
        },
        {
          "duration": 0.41666666666666785,
          "durationTicks": 160,
          "midi": 56,
          "name": "G#3",
          "ticks": 7488,
          "time": 19.5,
          "velocity": 0.8661417322834646
        },
        {
          "duration": 0.41666666666666785,
          "durationTicks": 160,
          "midi": 54,
          "name": "F#3",
          "ticks": 7680,
          "time": 20,
          "velocity": 0.8661417322834646
        },
        {
          "duration": 3.875,
          "durationTicks": 1488,
          "midi": 52,
          "name": "E3",
          "ticks": 7872,
          "time": 20.5,
          "velocity": 0.8661417322834646
        },
        {
          "duration": 1.875,
          "durationTicks": 720,
          "midi": 52,
          "name": "E3",
          "ticks": 9408,
          "time": 24.5,
          "velocity": 0.8661417322834646
        },
        {
          "duration": 1.875,
          "durationTicks": 720,
          "midi": 59,
          "name": "B3",
          "ticks": 10176,
          "time": 26.5,
          "velocity": 0.8661417322834646
        },
        {
          "duration": 0.875,
          "durationTicks": 336,
          "midi": 57,
          "name": "A3",
          "ticks": 10944,
          "time": 28.5,
          "velocity": 0.8661417322834646
        },
        {
          "duration": 0.875,
          "durationTicks": 336,
          "midi": 56,
          "name": "G#3",
          "ticks": 11328,
          "time": 29.5,
          "velocity": 0.8661417322834646
        },
        {
          "duration": 0.875,
          "durationTicks": 336,
          "midi": 54,
          "name": "F#3",
          "ticks": 11712,
          "time": 30.5,
          "velocity": 0.8661417322834646
        },
        {
          "duration": 0.875,
          "durationTicks": 336,
          "midi": 52,
          "name": "E3",
          "ticks": 12096,
          "time": 31.5,
          "velocity": 0.8661417322834646
        },
        {
          "duration": 1.875,
          "durationTicks": 720,
          "midi": 54,
          "name": "F#3",
          "ticks": 12480,
          "time": 32.5,
          "velocity": 0.8661417322834646
        },
        {
          "duration": 0.875,
          "durationTicks": 336,
          "midi": 57,
          "name": "A3",
          "ticks": 13248,
          "time": 34.5,
          "velocity": 0.8661417322834646
        },
        {
          "duration": 0.4166666666666643,
          "durationTicks": 160,
          "midi": 56,
          "name": "G#3",
          "ticks": 13632,
          "time": 35.5,
          "velocity": 0.8661417322834646
        },
        {
          "duration": 0.4166666666666643,
          "durationTicks": 160,
          "midi": 54,
          "name": "F#3",
          "ticks": 13824,
          "time": 36,
          "velocity": 0.8661417322834646
        },
        {
          "duration": 2.875,
          "durationTicks": 1104,
          "midi": 52,
          "name": "E3",
          "ticks": 14016,
          "time": 36.5,
          "velocity": 0.8661417322834646
        },
        {
          "duration": 0.4166666666666643,
          "durationTicks": 160,
          "midi": 52,
          "name": "E3",
          "ticks": 15168,
          "time": 39.5,
          "velocity": 0.8661417322834646
        },
        {
          "duration": 0.4166666666666643,
          "durationTicks": 160,
          "midi": 47,
          "name": "B2",
          "ticks": 15360,
          "time": 40,
          "velocity": 0.8661417322834646
        },
        {
          "duration": 0.875,
          "durationTicks": 336,
          "midi": 45,
          "name": "A2",
          "ticks": 15552,
          "time": 40.5,
          "velocity": 0.8661417322834646
        },
        {
          "duration": 0.4166666666666643,
          "durationTicks": 160,
          "midi": 44,
          "name": "G#2",
          "ticks": 15936,
          "time": 41.5,
          "velocity": 0.8661417322834646
        },
        {
          "duration": 0.4166666666666643,
          "durationTicks": 160,
          "midi": 42,
          "name": "F#2",
          "ticks": 16128,
          "time": 42,
          "velocity": 0.8661417322834646
        },
        {
          "duration": 5.875,
          "durationTicks": 2256,
          "midi": 40,
          "name": "E2",
          "ticks": 16320,
          "time": 42.5,
          "velocity": 0.8661417322834646
        }
      ]
    },
    {
      "channel": 3,
      "controlChanges": {
        "7": [
          {
            "number": 7,
            "ticks": 0,
            "time": 0,
            "value": 1
          },
          {
            "number": 7,
            "ticks": 0,
            "time": 0,
            "value": 1
          }
        ],
        "10": [
          {
            "number": 10,
            "ticks": 0,
            "time": 0,
            "value": 0.5039370078740157
          },
          {
            "number": 10,
            "ticks": 0,
            "time": 0,
            "value": 0.5039370078740157
          }
        ]
      },
      "pitchBends": [],
      "instrument": {
        "family": "bass",
        "name": "electric bass (finger)",
        "number": 33
      },
      "name": "Staff-2",
      "notes": [
        {
          "duration": 0.24479166666666663,
          "durationTicks": 94,
          "midi": 28,
          "name": "E1",
          "ticks": 192,
          "time": 0.5,
          "velocity": 0.8661417322834646
        },
        {
          "duration": 0.24479166666666663,
          "durationTicks": 94,
          "midi": 40,
          "name": "E2",
          "ticks": 288,
          "time": 0.75,
          "velocity": 0.8661417322834646
        },
        {
          "duration": 0.24479166666666674,
          "durationTicks": 94,
          "midi": 28,
          "name": "E1",
          "ticks": 480,
          "time": 1.25,
          "velocity": 0.8661417322834646
        },
        {
          "duration": 0.41666666666666674,
          "durationTicks": 160,
          "midi": 40,
          "name": "E2",
          "ticks": 576,
          "time": 1.5,
          "velocity": 0.8661417322834646
        },
        {
          "duration": 0.24479166666666652,
          "durationTicks": 94,
          "midi": 28,
          "name": "E1",
          "ticks": 768,
          "time": 2,
          "velocity": 0.8661417322834646
        },
        {
          "duration": 0.24479166666666652,
          "durationTicks": 94,
          "midi": 40,
          "name": "E2",
          "ticks": 864,
          "time": 2.25,
          "velocity": 0.8661417322834646
        },
        {
          "duration": 0.11979166666666652,
          "durationTicks": 46,
          "midi": 28,
          "name": "E1",
          "ticks": 960,
          "time": 2.5,
          "velocity": 0.8661417322834646
        },
        {
          "duration": 0.11979166666666652,
          "durationTicks": 46,
          "midi": 35,
          "name": "B1",
          "ticks": 1008,
          "time": 2.625,
          "velocity": 0.8661417322834646
        },
        {
          "duration": 0.08333333333333348,
          "durationTicks": 32,
          "midi": 40,
          "name": "E2",
          "ticks": 1056,
          "time": 2.75,
          "velocity": 0.8661417322834646
        },
        {
          "duration": 0.24479166666666652,
          "durationTicks": 94,
          "midi": 40,
          "name": "E2",
          "ticks": 1152,
          "time": 3,
          "velocity": 0.8661417322834646
        },
        {
          "duration": 0.24479166666666652,
          "durationTicks": 94,
          "midi": 28,
          "name": "E1",
          "ticks": 1248,
          "time": 3.25,
          "velocity": 0.8661417322834646
        },
        {
          "duration": 0.4166666666666665,
          "durationTicks": 160,
          "midi": 40,
          "name": "E2",
          "ticks": 1344,
          "time": 3.5,
          "velocity": 0.8661417322834646
        },
        {
          "duration": 0.24479166666666696,
          "durationTicks": 94,
          "midi": 28,
          "name": "E1",
          "ticks": 1536,
          "time": 4,
          "velocity": 0.8661417322834646
        },
        {
          "duration": 0.24479166666666696,
          "durationTicks": 94,
          "midi": 40,
          "name": "E2",
          "ticks": 1632,
          "time": 4.25,
          "velocity": 0.8661417322834646
        },
        {
          "duration": 0.11979166666666696,
          "durationTicks": 46,
          "midi": 28,
          "name": "E1",
          "ticks": 1728,
          "time": 4.5,
          "velocity": 0.8661417322834646
        },
        {
          "duration": 0.11979166666666696,
          "durationTicks": 46,
          "midi": 28,
          "name": "E1",
          "ticks": 1776,
          "time": 4.625,
          "velocity": 0.8661417322834646
        },
        {
          "duration": 0.24479166666666696,
          "durationTicks": 94,
          "midi": 40,
          "name": "E2",
          "ticks": 1824,
          "time": 4.75,
          "velocity": 0.8661417322834646
        },
        {
          "duration": 0.24479166666666696,
          "durationTicks": 94,
          "midi": 28,
          "name": "E1",
          "ticks": 2016,
          "time": 5.25,
          "velocity": 0.8661417322834646
        },
        {
          "duration": 0.41666666666666696,
          "durationTicks": 160,
          "midi": 40,
          "name": "E2",
          "ticks": 2112,
          "time": 5.5,
          "velocity": 0.8661417322834646
        },
        {
          "duration": 0.24479166666666696,
          "durationTicks": 94,
          "midi": 28,
          "name": "E1",
          "ticks": 2304,
          "time": 6,
          "velocity": 0.8661417322834646
        },
        {
          "duration": 0.24479166666666696,
          "durationTicks": 94,
          "midi": 40,
          "name": "E2",
          "ticks": 2400,
          "time": 6.25,
          "velocity": 0.8661417322834646
        },
        {
          "duration": 0.24479166666666696,
          "durationTicks": 94,
          "midi": 28,
          "name": "E1",
          "ticks": 2496,
          "time": 6.5,
          "velocity": 0.8661417322834646
        },
        {
          "duration": 0.08333333333333304,
          "durationTicks": 32,
          "midi": 40,
          "name": "E2",
          "ticks": 2592,
          "time": 6.75,
          "velocity": 0.8661417322834646
        },
        {
          "duration": 0.24479166666666696,
          "durationTicks": 94,
          "midi": 40,
          "name": "E2",
          "ticks": 2688,
          "time": 7,
          "velocity": 0.8661417322834646
        },
        {
          "duration": 0.24479166666666696,
          "durationTicks": 94,
          "midi": 28,
          "name": "E1",
          "ticks": 2784,
          "time": 7.25,
          "velocity": 0.8661417322834646
        },
        {
          "duration": 0.41666666666666696,
          "durationTicks": 160,
          "midi": 40,
          "name": "E2",
          "ticks": 2880,
          "time": 7.5,
          "velocity": 0.8661417322834646
        },
        {
          "duration": 0.24479166666666607,
          "durationTicks": 94,
          "midi": 28,
          "name": "E1",
          "ticks": 3072,
          "time": 8,
          "velocity": 0.8661417322834646
        },
        {
          "duration": 0.24479166666666607,
          "durationTicks": 94,
          "midi": 40,
          "name": "E2",
          "ticks": 3168,
          "time": 8.25,
          "velocity": 0.8661417322834646
        },
        {
          "duration": 0.24479166666666607,
          "durationTicks": 94,
          "midi": 28,
          "name": "E1",
          "ticks": 3264,
          "time": 8.5,
          "velocity": 0.8661417322834646
        },
        {
          "duration": 0.24479166666666607,
          "durationTicks": 94,
          "midi": 40,
          "name": "E2",
          "ticks": 3360,
          "time": 8.75,
          "velocity": 0.8661417322834646
        },
        {
          "duration": 0.24479166666666607,
          "durationTicks": 94,
          "midi": 28,
          "name": "E1",
          "ticks": 3552,
          "time": 9.25,
          "velocity": 0.8661417322834646
        },
        {
          "duration": 0.4166666666666661,
          "durationTicks": 160,
          "midi": 40,
          "name": "E2",
          "ticks": 3648,
          "time": 9.5,
          "velocity": 0.8661417322834646
        },
        {
          "duration": 0.24479166666666607,
          "durationTicks": 94,
          "midi": 28,
          "name": "E1",
          "ticks": 3840,
          "time": 10,
          "velocity": 0.8661417322834646
        },
        {
          "duration": 0.24479166666666607,
          "durationTicks": 94,
          "midi": 40,
          "name": "E2",
          "ticks": 3936,
          "time": 10.25,
          "velocity": 0.8661417322834646
        },
        {
          "duration": 0.11979166666666607,
          "durationTicks": 46,
          "midi": 28,
          "name": "E1",
          "ticks": 4032,
          "time": 10.5,
          "velocity": 0.8661417322834646
        },
        {
          "duration": 0.11979166666666607,
          "durationTicks": 46,
          "midi": 35,
          "name": "B1",
          "ticks": 4080,
          "time": 10.625,
          "velocity": 0.8661417322834646
        },
        {
          "duration": 0.08333333333333393,
          "durationTicks": 32,
          "midi": 40,
          "name": "E2",
          "ticks": 4128,
          "time": 10.75,
          "velocity": 0.8661417322834646
        },
        {
          "duration": 0.24479166666666607,
          "durationTicks": 94,
          "midi": 40,
          "name": "E2",
          "ticks": 4224,
          "time": 11,
          "velocity": 0.8661417322834646
        },
        {
          "duration": 0.24479166666666607,
          "durationTicks": 94,
          "midi": 28,
          "name": "E1",
          "ticks": 4320,
          "time": 11.25,
          "velocity": 0.8661417322834646
        },
        {
          "duration": 0.4166666666666661,
          "durationTicks": 160,
          "midi": 40,
          "name": "E2",
          "ticks": 4416,
          "time": 11.5,
          "velocity": 0.8661417322834646
        },
        {
          "duration": 0.24479166666666607,
          "durationTicks": 94,
          "midi": 28,
          "name": "E1",
          "ticks": 4608,
          "time": 12,
          "velocity": 0.8661417322834646
        },
        {
          "duration": 0.24479166666666607,
          "durationTicks": 94,
          "midi": 40,
          "name": "E2",
          "ticks": 4704,
          "time": 12.25,
          "velocity": 0.8661417322834646
        },
        {
          "duration": 0.11979166666666607,
          "durationTicks": 46,
          "midi": 28,
          "name": "E1",
          "ticks": 4800,
          "time": 12.5,
          "velocity": 0.8661417322834646
        },
        {
          "duration": 0.11979166666666607,
          "durationTicks": 46,
          "midi": 28,
          "name": "E1",
          "ticks": 4848,
          "time": 12.625,
          "velocity": 0.8661417322834646
        },
        {
          "duration": 0.24479166666666607,
          "durationTicks": 94,
          "midi": 40,
          "name": "E2",
          "ticks": 4896,
          "time": 12.75,
          "velocity": 0.8661417322834646
        },
        {
          "duration": 0.24479166666666607,
          "durationTicks": 94,
          "midi": 28,
          "name": "E1",
          "ticks": 5088,
          "time": 13.25,
          "velocity": 0.8661417322834646
        },
        {
          "duration": 0.4166666666666661,
          "durationTicks": 160,
          "midi": 40,
          "name": "E2",
          "ticks": 5184,
          "time": 13.5,
          "velocity": 0.8661417322834646
        },
        {
          "duration": 0.24479166666666607,
          "durationTicks": 94,
          "midi": 28,
          "name": "E1",
          "ticks": 5376,
          "time": 14,
          "velocity": 0.8661417322834646
        },
        {
          "duration": 0.24479166666666607,
          "durationTicks": 94,
          "midi": 40,
          "name": "E2",
          "ticks": 5472,
          "time": 14.25,
          "velocity": 0.8661417322834646
        },
        {
          "duration": 0.24479166666666607,
          "durationTicks": 94,
          "midi": 28,
          "name": "E1",
          "ticks": 5568,
          "time": 14.5,
          "velocity": 0.8661417322834646
        },
        {
          "duration": 0.08333333333333393,
          "durationTicks": 32,
          "midi": 40,
          "name": "E2",
          "ticks": 5664,
          "time": 14.75,
          "velocity": 0.8661417322834646
        },
        {
          "duration": 0.24479166666666607,
          "durationTicks": 94,
          "midi": 40,
          "name": "E2",
          "ticks": 5760,
          "time": 15,
          "velocity": 0.8661417322834646
        },
        {
          "duration": 0.24479166666666607,
          "durationTicks": 94,
          "midi": 28,
          "name": "E1",
          "ticks": 5856,
          "time": 15.25,
          "velocity": 0.8661417322834646
        },
        {
          "duration": 0.4166666666666661,
          "durationTicks": 160,
          "midi": 40,
          "name": "E2",
          "ticks": 5952,
          "time": 15.5,
          "velocity": 0.8661417322834646
        },
        {
          "duration": 0.08333333333333215,
          "durationTicks": 32,
          "midi": 28,
          "name": "E1",
          "ticks": 6144,
          "time": 16,
          "velocity": 0.8661417322834646
        },
        {
          "duration": 0.24479166666666785,
          "durationTicks": 94,
          "midi": 28,
          "name": "E1",
          "ticks": 6240,
          "time": 16.25,
          "velocity": 0.8661417322834646
        },
        {
          "duration": 1.375,
          "durationTicks": 528,
          "midi": 30,
          "name": "F#1",
          "ticks": 6336,
          "time": 16.5,
          "velocity": 0.8661417322834646
        },
        {
          "duration": 0.08333333333333215,
          "durationTicks": 32,
          "midi": 37,
          "name": "C#2",
          "ticks": 6912,
          "time": 18,
          "velocity": 0.8661417322834646
        },
        {
          "duration": 0.24479166666666785,
          "durationTicks": 94,
          "midi": 30,
          "name": "F#1",
          "ticks": 7008,
          "time": 18.25,
          "velocity": 0.8661417322834646
        },
        {
          "duration": 0.875,
          "durationTicks": 336,
          "midi": 33,
          "name": "A1",
          "ticks": 7104,
          "time": 18.5,
          "velocity": 0.8661417322834646
        },
        {
          "duration": 0.7447916666666679,
          "durationTicks": 286,
          "midi": 32,
          "name": "G#1",
          "ticks": 7488,
          "time": 19.5,
          "velocity": 0.8661417322834646
        },
        {
          "duration": 0.24479166666666785,
          "durationTicks": 94,
          "midi": 30,
          "name": "F#1",
          "ticks": 7776,
          "time": 20.25,
          "velocity": 0.8661417322834646
        },
        {
          "duration": 0.24479166666666785,
          "durationTicks": 94,
          "midi": 28,
          "name": "E1",
          "ticks": 7872,
          "time": 20.5,
          "velocity": 0.8661417322834646
        },
        {
          "duration": 0.24479166666666785,
          "durationTicks": 94,
          "midi": 40,
          "name": "E2",
          "ticks": 7968,
          "time": 20.75,
          "velocity": 0.8661417322834646
        },
        {
          "duration": 0.24479166666666785,
          "durationTicks": 94,
          "midi": 28,
          "name": "E1",
          "ticks": 8160,
          "time": 21.25,
          "velocity": 0.8661417322834646
        },
        {
          "duration": 0.41666666666666785,
          "durationTicks": 160,
          "midi": 40,
          "name": "E2",
          "ticks": 8256,
          "time": 21.5,
          "velocity": 0.8661417322834646
        },
        {
          "duration": 0.24479166666666785,
          "durationTicks": 94,
          "midi": 28,
          "name": "E1",
          "ticks": 8448,
          "time": 22,
          "velocity": 0.8661417322834646
        },
        {
          "duration": 0.24479166666666785,
          "durationTicks": 94,
          "midi": 40,
          "name": "E2",
          "ticks": 8544,
          "time": 22.25,
          "velocity": 0.8661417322834646
        },
        {
          "duration": 0.24479166666666785,
          "durationTicks": 94,
          "midi": 28,
          "name": "E1",
          "ticks": 8640,
          "time": 22.5,
          "velocity": 0.8661417322834646
        },
        {
          "duration": 0.08333333333333215,
          "durationTicks": 32,
          "midi": 40,
          "name": "E2",
          "ticks": 8736,
          "time": 22.75,
          "velocity": 0.8661417322834646
        },
        {
          "duration": 0.24479166666666785,
          "durationTicks": 94,
          "midi": 40,
          "name": "E2",
          "ticks": 8832,
          "time": 23,
          "velocity": 0.8661417322834646
        },
        {
          "duration": 0.24479166666666785,
          "durationTicks": 94,
          "midi": 28,
          "name": "E1",
          "ticks": 8928,
          "time": 23.25,
          "velocity": 0.8661417322834646
        },
        {
          "duration": 0.41666666666666785,
          "durationTicks": 160,
          "midi": 40,
          "name": "E2",
          "ticks": 9024,
          "time": 23.5,
          "velocity": 0.8661417322834646
        },
        {
          "duration": 0.08333333333333215,
          "durationTicks": 32,
          "midi": 28,
          "name": "E1",
          "ticks": 9216,
          "time": 24,
          "velocity": 0.8661417322834646
        },
        {
          "duration": 0.24479166666666785,
          "durationTicks": 94,
          "midi": 35,
          "name": "B1",
          "ticks": 9312,
          "time": 24.25,
          "velocity": 0.8661417322834646
        },
        {
          "duration": 1.875,
          "durationTicks": 720,
          "midi": 40,
          "name": "E2",
          "ticks": 9408,
          "time": 24.5,
          "velocity": 0.8661417322834646
        },
        {
          "duration": 1.875,
          "durationTicks": 720,
          "midi": 47,
          "name": "B2",
          "ticks": 10176,
          "time": 26.5,
          "velocity": 0.8661417322834646
        },
        {
          "duration": 0.875,
          "durationTicks": 336,
          "midi": 45,
          "name": "A2",
          "ticks": 10944,
          "time": 28.5,
          "velocity": 0.8661417322834646
        },
        {
          "duration": 0.875,
          "durationTicks": 336,
          "midi": 44,
          "name": "G#2",
          "ticks": 11328,
          "time": 29.5,
          "velocity": 0.8661417322834646
        },
        {
          "duration": 0.875,
          "durationTicks": 336,
          "midi": 42,
          "name": "F#2",
          "ticks": 11712,
          "time": 30.5,
          "velocity": 0.8661417322834646
        },
        {
          "duration": 0.875,
          "durationTicks": 336,
          "midi": 40,
          "name": "E2",
          "ticks": 12096,
          "time": 31.5,
          "velocity": 0.8661417322834646
        },
        {
          "duration": 1.875,
          "durationTicks": 720,
          "midi": 42,
          "name": "F#2",
          "ticks": 12480,
          "time": 32.5,
          "velocity": 0.8661417322834646
        },
        {
          "duration": 0.875,
          "durationTicks": 336,
          "midi": 45,
          "name": "A2",
          "ticks": 13248,
          "time": 34.5,
          "velocity": 0.8661417322834646
        },
        {
          "duration": 0.4166666666666643,
          "durationTicks": 160,
          "midi": 44,
          "name": "G#2",
          "ticks": 13632,
          "time": 35.5,
          "velocity": 0.8661417322834646
        },
        {
          "duration": 0.4166666666666643,
          "durationTicks": 160,
          "midi": 42,
          "name": "F#2",
          "ticks": 13824,
          "time": 36,
          "velocity": 0.8661417322834646
        },
        {
          "duration": 2.875,
          "durationTicks": 1104,
          "midi": 40,
          "name": "E2",
          "ticks": 14016,
          "time": 36.5,
          "velocity": 0.8661417322834646
        },
        {
          "duration": 0.4166666666666643,
          "durationTicks": 160,
          "midi": 40,
          "name": "E2",
          "ticks": 15168,
          "time": 39.5,
          "velocity": 0.8661417322834646
        },
        {
          "duration": 0.4166666666666643,
          "durationTicks": 160,
          "midi": 35,
          "name": "B1",
          "ticks": 15360,
          "time": 40,
          "velocity": 0.8661417322834646
        },
        {
          "duration": 0.875,
          "durationTicks": 336,
          "midi": 33,
          "name": "A1",
          "ticks": 15552,
          "time": 40.5,
          "velocity": 0.8661417322834646
        },
        {
          "duration": 0.4166666666666643,
          "durationTicks": 160,
          "midi": 32,
          "name": "G#1",
          "ticks": 15936,
          "time": 41.5,
          "velocity": 0.8661417322834646
        },
        {
          "duration": 0.4166666666666643,
          "durationTicks": 160,
          "midi": 30,
          "name": "F#1",
          "ticks": 16128,
          "time": 42,
          "velocity": 0.8661417322834646
        },
        {
          "duration": 5.875,
          "durationTicks": 2256,
          "midi": 28,
          "name": "E1",
          "ticks": 16320,
          "time": 42.5,
          "velocity": 0.8661417322834646
        }
      ]
    }
  ]
}
