{
  "header": {
    "keySignatures": [],
    "meta": [
      {
        "text": "Generated by NoteWorthy Composer",
        "ticks": 0,
        "type": "text"
      }
    ],
    "name": "Love3",
    "ppq": 192,
    "tempos": [
      {
        "bpm": 100,
        "ticks": 0
      }
    ],
    "timeSignatures": [
      {
        "ticks": 0,
        "timeSignature": [
          3,
          4
        ],
        "measures": 0
      }
    ]
  },
  "tracks": [
    {
      "channel": 0,
      "controlChanges": {
        "7": [
          {
            "number": 7,
            "ticks": 0,
            "time": 0,
            "value": 0.8976377952755905
          }
        ],
        "10": [
          {
            "number": 10,
            "ticks": 0,
            "time": 0,
            "value": 0.5039370078740157
          }
        ]
      },
      "pitchBends": [],
      "instrument": {
        "family": "ensemble",
        "name": "string ensemble 1",
        "number": 48
      },
      "name": "Love3",
      "notes": [
        {
          "duration": 0.2937500000000002,
          "durationTicks": 94,
          "midi": 44,
          "name": "G#2",
          "ticks": 576,
          "time": 1.7999999999999998,
          "velocity": 0.8661417322834646
        },
        {
          "duration": 0.29374999999999973,
          "durationTicks": 94,
          "midi": 51,
          "name": "D#3",
          "ticks": 672,
          "time": 2.1,
          "velocity": 0.8661417322834646
        },
        {
          "duration": 0.29374999999999973,
          "durationTicks": 94,
          "midi": 59,
          "name": "B3",
          "ticks": 768,
          "time": 2.4,
          "velocity": 0.8661417322834646
        },
        {
          "duration": 0.2937500000000002,
          "durationTicks": 94,
          "midi": 44,
          "name": "G#2",
          "ticks": 864,
          "time": 2.6999999999999997,
          "velocity": 0.8661417322834646
        },
        {
          "duration": 0.29374999999999973,
          "durationTicks": 94,
          "midi": 51,
          "name": "D#3",
          "ticks": 960,
          "time": 3,
          "velocity": 0.8661417322834646
        },
        {
          "duration": 0.29374999999999973,
          "durationTicks": 94,
          "midi": 56,
          "name": "G#3",
          "ticks": 1056,
          "time": 3.3,
          "velocity": 0.8661417322834646
        },
        {
          "duration": 0.2937500000000002,
          "durationTicks": 94,
          "midi": 41,
          "name": "F2",
          "ticks": 1152,
          "time": 3.5999999999999996,
          "velocity": 0.8661417322834646
        },
        {
          "duration": 0.29374999999999973,
          "durationTicks": 94,
          "midi": 48,
          "name": "C3",
          "ticks": 1248,
          "time": 3.9,
          "velocity": 0.8661417322834646
        },
        {
          "duration": 0.2937499999999993,
          "durationTicks": 94,
          "midi": 53,
          "name": "F3",
          "ticks": 1344,
          "time": 4.2,
          "velocity": 0.8661417322834646
        },
        {
          "duration": 0.2937499999999993,
          "durationTicks": 94,
          "midi": 44,
          "name": "G#2",
          "ticks": 1440,
          "time": 4.5,
          "velocity": 0.8661417322834646
        },
        {
          "duration": 0.2937500000000002,
          "durationTicks": 94,
          "midi": 51,
          "name": "D#3",
          "ticks": 1536,
          "time": 4.8,
          "velocity": 0.8661417322834646
        },
        {
          "duration": 0.2937500000000002,
          "durationTicks": 94,
          "midi": 56,
          "name": "G#3",
          "ticks": 1632,
          "time": 5.1,
          "velocity": 0.8661417322834646
        },
        {
          "duration": 0.29375000000000107,
          "durationTicks": 94,
          "midi": 44,
          "name": "G#2",
          "ticks": 1728,
          "time": 5.3999999999999995,
          "velocity": 0.8661417322834646
        },
        {
          "duration": 0.2937500000000002,
          "durationTicks": 94,
          "midi": 51,
          "name": "D#3",
          "ticks": 1824,
          "time": 5.7,
          "velocity": 0.8661417322834646
        },
        {
          "duration": 0.2937500000000002,
          "durationTicks": 94,
          "midi": 56,
          "name": "G#3",
          "ticks": 1920,
          "time": 6,
          "velocity": 0.8661417322834646
        },
        {
          "duration": 0.2937500000000002,
          "durationTicks": 94,
          "midi": 44,
          "name": "G#2",
          "ticks": 2016,
          "time": 6.3,
          "velocity": 0.8661417322834646
        },
        {
          "duration": 0.2937500000000002,
          "durationTicks": 94,
          "midi": 51,
          "name": "D#3",
          "ticks": 2112,
          "time": 6.6,
          "velocity": 0.8661417322834646
        },
        {
          "duration": 0.29375000000000107,
          "durationTicks": 94,
          "midi": 59,
          "name": "B3",
          "ticks": 2208,
          "time": 6.8999999999999995,
          "velocity": 0.8661417322834646
        },
        {
          "duration": 0.29375000000000107,
          "durationTicks": 94,
          "midi": 40,
          "name": "E2",
          "ticks": 2304,
          "time": 7.199999999999999,
          "velocity": 0.8661417322834646
        },
        {
          "duration": 0.2937500000000002,
          "durationTicks": 94,
          "midi": 47,
          "name": "B2",
          "ticks": 2400,
          "time": 7.5,
          "velocity": 0.8661417322834646
        },
        {
          "duration": 0.2937500000000002,
          "durationTicks": 94,
          "midi": 52,
          "name": "E3",
          "ticks": 2496,
          "time": 7.8,
          "velocity": 0.8661417322834646
        },
        {
          "duration": 0.29375000000000107,
          "durationTicks": 94,
          "midi": 40,
          "name": "E2",
          "ticks": 2592,
          "time": 8.1,
          "velocity": 0.8661417322834646
        },
        {
          "duration": 0.2937499999999993,
          "durationTicks": 94,
          "midi": 47,
          "name": "B2",
          "ticks": 2688,
          "time": 8.4,
          "velocity": 0.8661417322834646
        },
        {
          "duration": 0.29375000000000107,
          "durationTicks": 94,
          "midi": 52,
          "name": "E3",
          "ticks": 2784,
          "time": 8.7,
          "velocity": 0.8661417322834646
        },
        {
          "duration": 0.2937499999999993,
          "durationTicks": 94,
          "midi": 42,
          "name": "F#2",
          "ticks": 2880,
          "time": 9,
          "velocity": 0.8661417322834646
        },
        {
          "duration": 0.29375000000000107,
          "durationTicks": 94,
          "midi": 49,
          "name": "C#3",
          "ticks": 2976,
          "time": 9.299999999999999,
          "velocity": 0.8661417322834646
        },
        {
          "duration": 0.2937499999999993,
          "durationTicks": 94,
          "midi": 54,
          "name": "F#3",
          "ticks": 3072,
          "time": 9.6,
          "velocity": 0.8661417322834646
        },
        {
          "duration": 0.2937499999999993,
          "durationTicks": 94,
          "midi": 42,
          "name": "F#2",
          "ticks": 3168,
          "time": 9.9,
          "velocity": 0.8661417322834646
        },
        {
          "duration": 0.2937499999999993,
          "durationTicks": 94,
          "midi": 49,
          "name": "C#3",
          "ticks": 3264,
          "time": 10.2,
          "velocity": 0.8661417322834646
        },
        {
          "duration": 0.2937499999999993,
          "durationTicks": 94,
          "midi": 54,
          "name": "F#3",
          "ticks": 3360,
          "time": 10.5,
          "velocity": 0.8661417322834646
        },
        {
          "duration": 0.2937499999999993,
          "durationTicks": 94,
          "midi": 42,
          "name": "F#2",
          "ticks": 3456,
          "time": 10.799999999999999,
          "velocity": 0.8661417322834646
        },
        {
          "duration": 0.2937499999999993,
          "durationTicks": 94,
          "midi": 49,
          "name": "C#3",
          "ticks": 3552,
          "time": 11.1,
          "velocity": 0.8661417322834646
        },
        {
          "duration": 0.2937499999999993,
          "durationTicks": 94,
          "midi": 56,
          "name": "G#3",
          "ticks": 3648,
          "time": 11.4,
          "velocity": 0.8661417322834646
        },
        {
          "duration": 0.2937499999999993,
          "durationTicks": 94,
          "midi": 42,
          "name": "F#2",
          "ticks": 3744,
          "time": 11.7,
          "velocity": 0.8661417322834646
        },
        {
          "duration": 0.2937499999999993,
          "durationTicks": 94,
          "midi": 49,
          "name": "C#3",
          "ticks": 3840,
          "time": 12,
          "velocity": 0.8661417322834646
        },
        {
          "duration": 0.2937499999999993,
          "durationTicks": 94,
          "midi": 54,
          "name": "F#3",
          "ticks": 3936,
          "time": 12.299999999999999,
          "velocity": 0.8661417322834646
        },
        {
          "duration": 0.2937499999999993,
          "durationTicks": 94,
          "midi": 47,
          "name": "B2",
          "ticks": 4032,
          "time": 12.6,
          "velocity": 0.8661417322834646
        },
        {
          "duration": 0.2937499999999993,
          "durationTicks": 94,
          "midi": 54,
          "name": "F#3",
          "ticks": 4128,
          "time": 12.9,
          "velocity": 0.8661417322834646
        },
        {
          "duration": 0.2937499999999993,
          "durationTicks": 94,
          "midi": 59,
          "name": "B3",
          "ticks": 4224,
          "time": 13.2,
          "velocity": 0.8661417322834646
        },
        {
          "duration": 0.2937499999999993,
          "durationTicks": 94,
          "midi": 45,
          "name": "A2",
          "ticks": 4320,
          "time": 13.5,
          "velocity": 0.8661417322834646
        },
        {
          "duration": 0.2937499999999993,
          "durationTicks": 94,
          "midi": 52,
          "name": "E3",
          "ticks": 4416,
          "time": 13.799999999999999,
          "velocity": 0.8661417322834646
        },
        {
          "duration": 0.2937499999999993,
          "durationTicks": 94,
          "midi": 57,
          "name": "A3",
          "ticks": 4512,
          "time": 14.1,
          "velocity": 0.8661417322834646
        },
        {
          "duration": 0.2937499999999993,
          "durationTicks": 94,
          "midi": 40,
          "name": "E2",
          "ticks": 4608,
          "time": 14.399999999999999,
          "velocity": 0.8661417322834646
        },
        {
          "duration": 0.2937499999999993,
          "durationTicks": 94,
          "midi": 47,
          "name": "B2",
          "ticks": 4704,
          "time": 14.7,
          "velocity": 0.8661417322834646
        },
        {
          "duration": 0.2937499999999993,
          "durationTicks": 94,
          "midi": 52,
          "name": "E3",
          "ticks": 4800,
          "time": 15,
          "velocity": 0.8661417322834646
        },
        {
          "duration": 0.2937499999999993,
          "durationTicks": 94,
          "midi": 40,
          "name": "E2",
          "ticks": 4896,
          "time": 15.299999999999999,
          "velocity": 0.8661417322834646
        },
        {
          "duration": 0.2937499999999993,
          "durationTicks": 94,
          "midi": 47,
          "name": "B2",
          "ticks": 4992,
          "time": 15.6,
          "velocity": 0.8661417322834646
        },
        {
          "duration": 0.2937499999999993,
          "durationTicks": 94,
          "midi": 52,
          "name": "E3",
          "ticks": 5088,
          "time": 15.899999999999999,
          "velocity": 0.8661417322834646
        },
        {
          "duration": 0.2937499999999993,
          "durationTicks": 94,
          "midi": 47,
          "name": "B2",
          "ticks": 5184,
          "time": 16.2,
          "velocity": 0.8661417322834646
        },
        {
          "duration": 0.2937499999999993,
          "durationTicks": 94,
          "midi": 54,
          "name": "F#3",
          "ticks": 5280,
          "time": 16.5,
          "velocity": 0.8661417322834646
        },
        {
          "duration": 0.2937499999999993,
          "durationTicks": 94,
          "midi": 59,
          "name": "B3",
          "ticks": 5376,
          "time": 16.8,
          "velocity": 0.8661417322834646
        },
        {
          "duration": 0.2937499999999993,
          "durationTicks": 94,
          "midi": 45,
          "name": "A2",
          "ticks": 5472,
          "time": 17.099999999999998,
          "velocity": 0.8661417322834646
        },
        {
          "duration": 0.2937499999999993,
          "durationTicks": 94,
          "midi": 52,
          "name": "E3",
          "ticks": 5568,
          "time": 17.4,
          "velocity": 0.8661417322834646
        },
        {
          "duration": 0.2937499999999993,
          "durationTicks": 94,
          "midi": 57,
          "name": "A3",
          "ticks": 5664,
          "time": 17.7,
          "velocity": 0.8661417322834646
        },
        {
          "duration": 0.2937499999999993,
          "durationTicks": 94,
          "midi": 40,
          "name": "E2",
          "ticks": 5760,
          "time": 18,
          "velocity": 0.8661417322834646
        },
        {
          "duration": 0.2937499999999993,
          "durationTicks": 94,
          "midi": 47,
          "name": "B2",
          "ticks": 5856,
          "time": 18.3,
          "velocity": 0.8661417322834646
        },
        {
          "duration": 0.2937499999999993,
          "durationTicks": 94,
          "midi": 52,
          "name": "E3",
          "ticks": 5952,
          "time": 18.599999999999998,
          "velocity": 0.8661417322834646
        },
        {
          "duration": 0.2937499999999993,
          "durationTicks": 94,
          "midi": 40,
          "name": "E2",
          "ticks": 6048,
          "time": 18.9,
          "velocity": 0.8661417322834646
        },
        {
          "duration": 0.29375000000000284,
          "durationTicks": 94,
          "midi": 47,
          "name": "B2",
          "ticks": 6144,
          "time": 19.2,
          "velocity": 0.8661417322834646
        },
        {
          "duration": 0.2937499999999993,
          "durationTicks": 94,
          "midi": 52,
          "name": "E3",
          "ticks": 6240,
          "time": 19.5,
          "velocity": 0.8661417322834646
        },
        {
          "duration": 0.2937499999999993,
          "durationTicks": 94,
          "midi": 44,
          "name": "G#2",
          "ticks": 6336,
          "time": 19.8,
          "velocity": 0.8661417322834646
        },
        {
          "duration": 0.29375000000000284,
          "durationTicks": 94,
          "midi": 51,
          "name": "D#3",
          "ticks": 6432,
          "time": 20.099999999999998,
          "velocity": 0.8661417322834646
        },
        {
          "duration": 0.29375000000000284,
          "durationTicks": 94,
          "midi": 56,
          "name": "G#3",
          "ticks": 6528,
          "time": 20.4,
          "velocity": 0.8661417322834646
        },
        {
          "duration": 0.29375000000000284,
          "durationTicks": 94,
          "midi": 44,
          "name": "G#2",
          "ticks": 6624,
          "time": 20.7,
          "velocity": 0.8661417322834646
        },
        {
          "duration": 0.2937499999999993,
          "durationTicks": 94,
          "midi": 51,
          "name": "D#3",
          "ticks": 6720,
          "time": 21,
          "velocity": 0.8661417322834646
        },
        {
          "duration": 0.2937499999999993,
          "durationTicks": 94,
          "midi": 56,
          "name": "G#3",
          "ticks": 6816,
          "time": 21.3,
          "velocity": 0.8661417322834646
        },
        {
          "duration": 0.29375000000000284,
          "durationTicks": 94,
          "midi": 40,
          "name": "E2",
          "ticks": 6912,
          "time": 21.599999999999998,
          "velocity": 0.8661417322834646
        },
        {
          "duration": 0.29375000000000284,
          "durationTicks": 94,
          "midi": 47,
          "name": "B2",
          "ticks": 7008,
          "time": 21.9,
          "velocity": 0.8661417322834646
        },
        {
          "duration": 0.29375000000000284,
          "durationTicks": 94,
          "midi": 52,
          "name": "E3",
          "ticks": 7104,
          "time": 22.2,
          "velocity": 0.8661417322834646
        },
        {
          "duration": 0.2937499999999993,
          "durationTicks": 94,
          "midi": 40,
          "name": "E2",
          "ticks": 7200,
          "time": 22.5,
          "velocity": 0.8661417322834646
        },
        {
          "duration": 0.2937499999999993,
          "durationTicks": 94,
          "midi": 47,
          "name": "B2",
          "ticks": 7296,
          "time": 22.8,
          "velocity": 0.8661417322834646
        },
        {
          "duration": 0.29375000000000284,
          "durationTicks": 94,
          "midi": 52,
          "name": "E3",
          "ticks": 7392,
          "time": 23.099999999999998,
          "velocity": 0.8661417322834646
        },
        {
          "duration": 0.29375000000000284,
          "durationTicks": 94,
          "midi": 44,
          "name": "G#2",
          "ticks": 7488,
          "time": 23.4,
          "velocity": 0.8661417322834646
        },
        {
          "duration": 0.29375000000000284,
          "durationTicks": 94,
          "midi": 51,
          "name": "D#3",
          "ticks": 7584,
          "time": 23.7,
          "velocity": 0.8661417322834646
        },
        {
          "duration": 0.2937499999999993,
          "durationTicks": 94,
          "midi": 56,
          "name": "G#3",
          "ticks": 7680,
          "time": 24,
          "velocity": 0.8661417322834646
        },
        {
          "duration": 0.2937499999999993,
          "durationTicks": 94,
          "midi": 44,
          "name": "G#2",
          "ticks": 7776,
          "time": 24.3,
          "velocity": 0.8661417322834646
        },
        {
          "duration": 0.29375000000000284,
          "durationTicks": 94,
          "midi": 51,
          "name": "D#3",
          "ticks": 7872,
          "time": 24.599999999999998,
          "velocity": 0.8661417322834646
        },
        {
          "duration": 0.29375000000000284,
          "durationTicks": 94,
          "midi": 56,
          "name": "G#3",
          "ticks": 7968,
          "time": 24.9,
          "velocity": 0.8661417322834646
        },
        {
          "duration": 0.29375000000000284,
          "durationTicks": 94,
          "midi": 40,
          "name": "E2",
          "ticks": 8064,
          "time": 25.2,
          "velocity": 0.8661417322834646
        },
        {
          "duration": 0.2937499999999993,
          "durationTicks": 94,
          "midi": 47,
          "name": "B2",
          "ticks": 8160,
          "time": 25.5,
          "velocity": 0.8661417322834646
        },
        {
          "duration": 0.2937499999999993,
          "durationTicks": 94,
          "midi": 52,
          "name": "E3",
          "ticks": 8256,
          "time": 25.8,
          "velocity": 0.8661417322834646
        },
        {
          "duration": 0.29375000000000284,
          "durationTicks": 94,
          "midi": 40,
          "name": "E2",
          "ticks": 8352,
          "time": 26.099999999999998,
          "velocity": 0.8661417322834646
        },
        {
          "duration": 0.29375000000000284,
          "durationTicks": 94,
          "midi": 47,
          "name": "B2",
          "ticks": 8448,
          "time": 26.4,
          "velocity": 0.8661417322834646
        },
        {
          "duration": 0.29375000000000284,
          "durationTicks": 94,
          "midi": 52,
          "name": "E3",
          "ticks": 8544,
          "time": 26.7,
          "velocity": 0.8661417322834646
        },
        {
          "duration": 0.2937499999999993,
          "durationTicks": 94,
          "midi": 42,
          "name": "F#2",
          "ticks": 8640,
          "time": 27,
          "velocity": 0.8661417322834646
        },
        {
          "duration": 0.2937499999999993,
          "durationTicks": 94,
          "midi": 49,
          "name": "C#3",
          "ticks": 8736,
          "time": 27.3,
          "velocity": 0.8661417322834646
        },
        {
          "duration": 0.29375000000000284,
          "durationTicks": 94,
          "midi": 54,
          "name": "F#3",
          "ticks": 8832,
          "time": 27.599999999999998,
          "velocity": 0.8661417322834646
        },
        {
          "duration": 0.29375000000000284,
          "durationTicks": 94,
          "midi": 42,
          "name": "F#2",
          "ticks": 8928,
          "time": 27.9,
          "velocity": 0.8661417322834646
        },
        {
          "duration": 0.29375000000000284,
          "durationTicks": 94,
          "midi": 49,
          "name": "C#3",
          "ticks": 9024,
          "time": 28.2,
          "velocity": 0.8661417322834646
        },
        {
          "duration": 0.2937499999999993,
          "durationTicks": 94,
          "midi": 54,
          "name": "F#3",
          "ticks": 9120,
          "time": 28.5,
          "velocity": 0.8661417322834646
        },
        {
          "duration": 0.29375000000000284,
          "durationTicks": 94,
          "midi": 44,
          "name": "G#2",
          "ticks": 9216,
          "time": 28.799999999999997,
          "velocity": 0.8661417322834646
        },
        {
          "duration": 0.29375000000000284,
          "durationTicks": 94,
          "midi": 51,
          "name": "D#3",
          "ticks": 9312,
          "time": 29.099999999999998,
          "velocity": 0.8661417322834646
        },
        {
          "duration": 0.29375000000000284,
          "durationTicks": 94,
          "midi": 56,
          "name": "G#3",
          "ticks": 9408,
          "time": 29.4,
          "velocity": 0.8661417322834646
        },
        {
          "duration": 0.2937499999999993,
          "durationTicks": 94,
          "midi": 44,
          "name": "G#2",
          "ticks": 9504,
          "time": 29.7,
          "velocity": 0.8661417322834646
        },
        {
          "duration": 0.2937499999999993,
          "durationTicks": 94,
          "midi": 51,
          "name": "D#3",
          "ticks": 9600,
          "time": 30,
          "velocity": 0.8661417322834646
        },
        {
          "duration": 0.29375000000000284,
          "durationTicks": 94,
          "midi": 56,
          "name": "G#3",
          "ticks": 9696,
          "time": 30.299999999999997,
          "velocity": 0.8661417322834646
        },
        {
          "duration": 0.29375000000000284,
          "durationTicks": 94,
          "midi": 44,
          "name": "G#2",
          "ticks": 9792,
          "time": 30.599999999999998,
          "velocity": 0.8661417322834646
        },
        {
          "duration": 0.29375000000000284,
          "durationTicks": 94,
          "midi": 51,
          "name": "D#3",
          "ticks": 9888,
          "time": 30.9,
          "velocity": 0.8661417322834646
        },
        {
          "duration": 0.2937499999999993,
          "durationTicks": 94,
          "midi": 56,
          "name": "G#3",
          "ticks": 9984,
          "time": 31.2,
          "velocity": 0.8661417322834646
        },
        {
          "duration": 0.2937499999999993,
          "durationTicks": 94,
          "midi": 44,
          "name": "G#2",
          "ticks": 10080,
          "time": 31.5,
          "velocity": 0.8661417322834646
        },
        {
          "duration": 0.29375000000000284,
          "durationTicks": 94,
          "midi": 51,
          "name": "D#3",
          "ticks": 10176,
          "time": 31.799999999999997,
          "velocity": 0.8661417322834646
        },
        {
          "duration": 0.29374999999999574,
          "durationTicks": 94,
          "midi": 56,
          "name": "G#3",
          "ticks": 10272,
          "time": 32.1,
          "velocity": 0.8661417322834646
        },
        {
          "duration": 0.29375000000000284,
          "durationTicks": 94,
          "midi": 44,
          "name": "G#2",
          "ticks": 10368,
          "time": 32.4,
          "velocity": 0.8661417322834646
        },
        {
          "duration": 0.29375000000000284,
          "durationTicks": 94,
          "midi": 51,
          "name": "D#3",
          "ticks": 10464,
          "time": 32.699999999999996,
          "velocity": 0.8661417322834646
        },
        {
          "duration": 0.29375000000000284,
          "durationTicks": 94,
          "midi": 59,
          "name": "B3",
          "ticks": 10560,
          "time": 33,
          "velocity": 0.8661417322834646
        },
        {
          "duration": 0.29375000000000284,
          "durationTicks": 94,
          "midi": 44,
          "name": "G#2",
          "ticks": 10656,
          "time": 33.3,
          "velocity": 0.8661417322834646
        },
        {
          "duration": 0.29374999999999574,
          "durationTicks": 94,
          "midi": 51,
          "name": "D#3",
          "ticks": 10752,
          "time": 33.6,
          "velocity": 0.8661417322834646
        },
        {
          "duration": 0.29375000000000284,
          "durationTicks": 94,
          "midi": 56,
          "name": "G#3",
          "ticks": 10848,
          "time": 33.9,
          "velocity": 0.8661417322834646
        },
        {
          "duration": 0.29375000000000284,
          "durationTicks": 94,
          "midi": 41,
          "name": "F2",
          "ticks": 10944,
          "time": 34.199999999999996,
          "velocity": 0.8661417322834646
        },
        {
          "duration": 0.29375000000000284,
          "durationTicks": 94,
          "midi": 48,
          "name": "C3",
          "ticks": 11040,
          "time": 34.5,
          "velocity": 0.8661417322834646
        },
        {
          "duration": 0.29375000000000284,
          "durationTicks": 94,
          "midi": 53,
          "name": "F3",
          "ticks": 11136,
          "time": 34.8,
          "velocity": 0.8661417322834646
        },
        {
          "duration": 0.29374999999999574,
          "durationTicks": 94,
          "midi": 44,
          "name": "G#2",
          "ticks": 11232,
          "time": 35.1,
          "velocity": 0.8661417322834646
        },
        {
          "duration": 0.29375000000000284,
          "durationTicks": 94,
          "midi": 51,
          "name": "D#3",
          "ticks": 11328,
          "time": 35.4,
          "velocity": 0.8661417322834646
        },
        {
          "duration": 0.29375000000000284,
          "durationTicks": 94,
          "midi": 56,
          "name": "G#3",
          "ticks": 11424,
          "time": 35.699999999999996,
          "velocity": 0.8661417322834646
        },
        {
          "duration": 0.29375000000000284,
          "durationTicks": 94,
          "midi": 44,
          "name": "G#2",
          "ticks": 11520,
          "time": 36,
          "velocity": 0.8661417322834646
        },
        {
          "duration": 0.29375000000000284,
          "durationTicks": 94,
          "midi": 51,
          "name": "D#3",
          "ticks": 11616,
          "time": 36.3,
          "velocity": 0.8661417322834646
        },
        {
          "duration": 0.29374999999999574,
          "durationTicks": 94,
          "midi": 56,
          "name": "G#3",
          "ticks": 11712,
          "time": 36.6,
          "velocity": 0.8661417322834646
        },
        {
          "duration": 0.29375000000000284,
          "durationTicks": 94,
          "midi": 44,
          "name": "G#2",
          "ticks": 11808,
          "time": 36.9,
          "velocity": 0.8661417322834646
        },
        {
          "duration": 0.29375000000000284,
          "durationTicks": 94,
          "midi": 51,
          "name": "D#3",
          "ticks": 11904,
          "time": 37.199999999999996,
          "velocity": 0.8661417322834646
        },
        {
          "duration": 0.29375000000000284,
          "durationTicks": 94,
          "midi": 59,
          "name": "B3",
          "ticks": 12000,
          "time": 37.5,
          "velocity": 0.8661417322834646
        },
        {
          "duration": 0.29375000000000284,
          "durationTicks": 94,
          "midi": 40,
          "name": "E2",
          "ticks": 12096,
          "time": 37.8,
          "velocity": 0.8661417322834646
        },
        {
          "duration": 0.29374999999999574,
          "durationTicks": 94,
          "midi": 47,
          "name": "B2",
          "ticks": 12192,
          "time": 38.1,
          "velocity": 0.8661417322834646
        },
        {
          "duration": 0.29374999999999574,
          "durationTicks": 94,
          "midi": 52,
          "name": "E3",
          "ticks": 12288,
          "time": 38.4,
          "velocity": 0.8661417322834646
        },
        {
          "duration": 0.29375000000000284,
          "durationTicks": 94,
          "midi": 40,
          "name": "E2",
          "ticks": 12384,
          "time": 38.699999999999996,
          "velocity": 0.8661417322834646
        },
        {
          "duration": 0.29374999999999574,
          "durationTicks": 94,
          "midi": 47,
          "name": "B2",
          "ticks": 12480,
          "time": 39,
          "velocity": 0.8661417322834646
        },
        {
          "duration": 0.29374999999999574,
          "durationTicks": 94,
          "midi": 52,
          "name": "E3",
          "ticks": 12576,
          "time": 39.3,
          "velocity": 0.8661417322834646
        },
        {
          "duration": 0.29374999999999574,
          "durationTicks": 94,
          "midi": 42,
          "name": "F#2",
          "ticks": 12672,
          "time": 39.6,
          "velocity": 0.8661417322834646
        },
        {
          "duration": 0.29374999999999574,
          "durationTicks": 94,
          "midi": 49,
          "name": "C#3",
          "ticks": 12768,
          "time": 39.9,
          "velocity": 0.8661417322834646
        },
        {
          "duration": 0.29375000000000284,
          "durationTicks": 94,
          "midi": 54,
          "name": "F#3",
          "ticks": 12864,
          "time": 40.199999999999996,
          "velocity": 0.8661417322834646
        },
        {
          "duration": 0.29374999999999574,
          "durationTicks": 94,
          "midi": 42,
          "name": "F#2",
          "ticks": 12960,
          "time": 40.5,
          "velocity": 0.8661417322834646
        },
        {
          "duration": 0.29374999999999574,
          "durationTicks": 94,
          "midi": 49,
          "name": "C#3",
          "ticks": 13056,
          "time": 40.8,
          "velocity": 0.8661417322834646
        },
        {
          "duration": 0.29374999999999574,
          "durationTicks": 94,
          "midi": 54,
          "name": "F#3",
          "ticks": 13152,
          "time": 41.1,
          "velocity": 0.8661417322834646
        },
        {
          "duration": 0.29374999999999574,
          "durationTicks": 94,
          "midi": 42,
          "name": "F#2",
          "ticks": 13248,
          "time": 41.4,
          "velocity": 0.8661417322834646
        },
        {
          "duration": 0.29375000000000284,
          "durationTicks": 94,
          "midi": 49,
          "name": "C#3",
          "ticks": 13344,
          "time": 41.699999999999996,
          "velocity": 0.8661417322834646
        },
        {
          "duration": 0.29374999999999574,
          "durationTicks": 94,
          "midi": 56,
          "name": "G#3",
          "ticks": 13440,
          "time": 42,
          "velocity": 0.8661417322834646
        },
        {
          "duration": 0.29374999999999574,
          "durationTicks": 94,
          "midi": 42,
          "name": "F#2",
          "ticks": 13536,
          "time": 42.3,
          "velocity": 0.8661417322834646
        },
        {
          "duration": 0.29374999999999574,
          "durationTicks": 94,
          "midi": 49,
          "name": "C#3",
          "ticks": 13632,
          "time": 42.6,
          "velocity": 0.8661417322834646
        },
        {
          "duration": 0.29374999999999574,
          "durationTicks": 94,
          "midi": 54,
          "name": "F#3",
          "ticks": 13728,
          "time": 42.9,
          "velocity": 0.8661417322834646
        },
        {
          "duration": 0.29375000000000284,
          "durationTicks": 94,
          "midi": 47,
          "name": "B2",
          "ticks": 13824,
          "time": 43.199999999999996,
          "velocity": 0.8661417322834646
        },
        {
          "duration": 0.29374999999999574,
          "durationTicks": 94,
          "midi": 54,
          "name": "F#3",
          "ticks": 13920,
          "time": 43.5,
          "velocity": 0.8661417322834646
        },
        {
          "duration": 0.29374999999999574,
          "durationTicks": 94,
          "midi": 59,
          "name": "B3",
          "ticks": 14016,
          "time": 43.8,
          "velocity": 0.8661417322834646
        },
        {
          "duration": 0.29374999999999574,
          "durationTicks": 94,
          "midi": 45,
          "name": "A2",
          "ticks": 14112,
          "time": 44.1,
          "velocity": 0.8661417322834646
        },
        {
          "duration": 0.29374999999999574,
          "durationTicks": 94,
          "midi": 52,
          "name": "E3",
          "ticks": 14208,
          "time": 44.4,
          "velocity": 0.8661417322834646
        },
        {
          "duration": 0.29375000000000284,
          "durationTicks": 94,
          "midi": 57,
          "name": "A3",
          "ticks": 14304,
          "time": 44.699999999999996,
          "velocity": 0.8661417322834646
        },
        {
          "duration": 0.29374999999999574,
          "durationTicks": 94,
          "midi": 40,
          "name": "E2",
          "ticks": 14400,
          "time": 45,
          "velocity": 0.8661417322834646
        },
        {
          "duration": 0.29374999999999574,
          "durationTicks": 94,
          "midi": 47,
          "name": "B2",
          "ticks": 14496,
          "time": 45.3,
          "velocity": 0.8661417322834646
        },
        {
          "duration": 0.29374999999999574,
          "durationTicks": 94,
          "midi": 52,
          "name": "E3",
          "ticks": 14592,
          "time": 45.6,
          "velocity": 0.8661417322834646
        },
        {
          "duration": 0.29374999999999574,
          "durationTicks": 94,
          "midi": 40,
          "name": "E2",
          "ticks": 14688,
          "time": 45.9,
          "velocity": 0.8661417322834646
        },
        {
          "duration": 0.29375000000000284,
          "durationTicks": 94,
          "midi": 47,
          "name": "B2",
          "ticks": 14784,
          "time": 46.199999999999996,
          "velocity": 0.8661417322834646
        },
        {
          "duration": 0.29374999999999574,
          "durationTicks": 94,
          "midi": 52,
          "name": "E3",
          "ticks": 14880,
          "time": 46.5,
          "velocity": 0.8661417322834646
        },
        {
          "duration": 0.29374999999999574,
          "durationTicks": 94,
          "midi": 47,
          "name": "B2",
          "ticks": 14976,
          "time": 46.8,
          "velocity": 0.8661417322834646
        },
        {
          "duration": 0.29374999999999574,
          "durationTicks": 94,
          "midi": 54,
          "name": "F#3",
          "ticks": 15072,
          "time": 47.1,
          "velocity": 0.8661417322834646
        },
        {
          "duration": 0.29374999999999574,
          "durationTicks": 94,
          "midi": 59,
          "name": "B3",
          "ticks": 15168,
          "time": 47.4,
          "velocity": 0.8661417322834646
        },
        {
          "duration": 0.29375000000000284,
          "durationTicks": 94,
          "midi": 45,
          "name": "A2",
          "ticks": 15264,
          "time": 47.699999999999996,
          "velocity": 0.8661417322834646
        },
        {
          "duration": 0.29374999999999574,
          "durationTicks": 94,
          "midi": 52,
          "name": "E3",
          "ticks": 15360,
          "time": 48,
          "velocity": 0.8661417322834646
        },
        {
          "duration": 0.29374999999999574,
          "durationTicks": 94,
          "midi": 57,
          "name": "A3",
          "ticks": 15456,
          "time": 48.3,
          "velocity": 0.8661417322834646
        },
        {
          "duration": 0.29374999999999574,
          "durationTicks": 94,
          "midi": 40,
          "name": "E2",
          "ticks": 15552,
          "time": 48.6,
          "velocity": 0.8661417322834646
        },
        {
          "duration": 0.29374999999999574,
          "durationTicks": 94,
          "midi": 47,
          "name": "B2",
          "ticks": 15648,
          "time": 48.9,
          "velocity": 0.8661417322834646
        },
        {
          "duration": 0.29375000000000284,
          "durationTicks": 94,
          "midi": 52,
          "name": "E3",
          "ticks": 15744,
          "time": 49.199999999999996,
          "velocity": 0.8661417322834646
        },
        {
          "duration": 0.29374999999999574,
          "durationTicks": 94,
          "midi": 40,
          "name": "E2",
          "ticks": 15840,
          "time": 49.5,
          "velocity": 0.8661417322834646
        },
        {
          "duration": 0.29374999999999574,
          "durationTicks": 94,
          "midi": 47,
          "name": "B2",
          "ticks": 15936,
          "time": 49.8,
          "velocity": 0.8661417322834646
        },
        {
          "duration": 0.29374999999999574,
          "durationTicks": 94,
          "midi": 52,
          "name": "E3",
          "ticks": 16032,
          "time": 50.1,
          "velocity": 0.8661417322834646
        },
        {
          "duration": 0.29374999999999574,
          "durationTicks": 94,
          "midi": 44,
          "name": "G#2",
          "ticks": 16128,
          "time": 50.4,
          "velocity": 0.8661417322834646
        },
        {
          "duration": 0.29375000000000284,
          "durationTicks": 94,
          "midi": 51,
          "name": "D#3",
          "ticks": 16224,
          "time": 50.699999999999996,
          "velocity": 0.8661417322834646
        },
        {
          "duration": 0.29374999999999574,
          "durationTicks": 94,
          "midi": 56,
          "name": "G#3",
          "ticks": 16320,
          "time": 51,
          "velocity": 0.8661417322834646
        },
        {
          "duration": 0.29374999999999574,
          "durationTicks": 94,
          "midi": 44,
          "name": "G#2",
          "ticks": 16416,
          "time": 51.3,
          "velocity": 0.8661417322834646
        },
        {
          "duration": 0.29374999999999574,
          "durationTicks": 94,
          "midi": 51,
          "name": "D#3",
          "ticks": 16512,
          "time": 51.6,
          "velocity": 0.8661417322834646
        },
        {
          "duration": 0.29374999999999574,
          "durationTicks": 94,
          "midi": 56,
          "name": "G#3",
          "ticks": 16608,
          "time": 51.9,
          "velocity": 0.8661417322834646
        },
        {
          "duration": 0.29375000000000284,
          "durationTicks": 94,
          "midi": 40,
          "name": "E2",
          "ticks": 16704,
          "time": 52.199999999999996,
          "velocity": 0.8661417322834646
        },
        {
          "duration": 0.29374999999999574,
          "durationTicks": 94,
          "midi": 47,
          "name": "B2",
          "ticks": 16800,
          "time": 52.5,
          "velocity": 0.8661417322834646
        },
        {
          "duration": 0.29374999999999574,
          "durationTicks": 94,
          "midi": 52,
          "name": "E3",
          "ticks": 16896,
          "time": 52.8,
          "velocity": 0.8661417322834646
        },
        {
          "duration": 0.29374999999999574,
          "durationTicks": 94,
          "midi": 40,
          "name": "E2",
          "ticks": 16992,
          "time": 53.1,
          "velocity": 0.8661417322834646
        },
        {
          "duration": 0.29374999999999574,
          "durationTicks": 94,
          "midi": 47,
          "name": "B2",
          "ticks": 17088,
          "time": 53.4,
          "velocity": 0.8661417322834646
        },
        {
          "duration": 0.29375000000000284,
          "durationTicks": 94,
          "midi": 52,
          "name": "E3",
          "ticks": 17184,
          "time": 53.699999999999996,
          "velocity": 0.8661417322834646
        },
        {
          "duration": 0.29374999999999574,
          "durationTicks": 94,
          "midi": 44,
          "name": "G#2",
          "ticks": 17280,
          "time": 54,
          "velocity": 0.8661417322834646
        },
        {
          "duration": 0.29374999999999574,
          "durationTicks": 94,
          "midi": 51,
          "name": "D#3",
          "ticks": 17376,
          "time": 54.3,
          "velocity": 0.8661417322834646
        },
        {
          "duration": 0.29374999999999574,
          "durationTicks": 94,
          "midi": 56,
          "name": "G#3",
          "ticks": 17472,
          "time": 54.6,
          "velocity": 0.8661417322834646
        },
        {
          "duration": 0.29374999999999574,
          "durationTicks": 94,
          "midi": 44,
          "name": "G#2",
          "ticks": 17568,
          "time": 54.9,
          "velocity": 0.8661417322834646
        },
        {
          "duration": 0.29375000000000284,
          "durationTicks": 94,
          "midi": 51,
          "name": "D#3",
          "ticks": 17664,
          "time": 55.199999999999996,
          "velocity": 0.8661417322834646
        },
        {
          "duration": 0.29374999999999574,
          "durationTicks": 94,
          "midi": 56,
          "name": "G#3",
          "ticks": 17760,
          "time": 55.5,
          "velocity": 0.8661417322834646
        },
        {
          "duration": 0.29374999999999574,
          "durationTicks": 94,
          "midi": 40,
          "name": "E2",
          "ticks": 17856,
          "time": 55.8,
          "velocity": 0.8661417322834646
        },
        {
          "duration": 0.29374999999999574,
          "durationTicks": 94,
          "midi": 47,
          "name": "B2",
          "ticks": 17952,
          "time": 56.1,
          "velocity": 0.8661417322834646
        },
        {
          "duration": 0.29374999999999574,
          "durationTicks": 94,
          "midi": 52,
          "name": "E3",
          "ticks": 18048,
          "time": 56.4,
          "velocity": 0.8661417322834646
        },
        {
          "duration": 0.29375000000000284,
          "durationTicks": 94,
          "midi": 40,
          "name": "E2",
          "ticks": 18144,
          "time": 56.699999999999996,
          "velocity": 0.8661417322834646
        },
        {
          "duration": 0.29374999999999574,
          "durationTicks": 94,
          "midi": 47,
          "name": "B2",
          "ticks": 18240,
          "time": 57,
          "velocity": 0.8661417322834646
        },
        {
          "duration": 0.29374999999999574,
          "durationTicks": 94,
          "midi": 52,
          "name": "E3",
          "ticks": 18336,
          "time": 57.3,
          "velocity": 0.8661417322834646
        },
        {
          "duration": 0.29375000000000284,
          "durationTicks": 94,
          "midi": 42,
          "name": "F#2",
          "ticks": 18432,
          "time": 57.599999999999994,
          "velocity": 0.8661417322834646
        },
        {
          "duration": 0.29374999999999574,
          "durationTicks": 94,
          "midi": 49,
          "name": "C#3",
          "ticks": 18528,
          "time": 57.9,
          "velocity": 0.8661417322834646
        },
        {
          "duration": 0.29374999999999574,
          "durationTicks": 94,
          "midi": 54,
          "name": "F#3",
          "ticks": 18624,
          "time": 58.199999999999996,
          "velocity": 0.8661417322834646
        },
        {
          "duration": 0.29374999999999574,
          "durationTicks": 94,
          "midi": 42,
          "name": "F#2",
          "ticks": 18720,
          "time": 58.5,
          "velocity": 0.8661417322834646
        },
        {
          "duration": 0.29374999999999574,
          "durationTicks": 94,
          "midi": 49,
          "name": "C#3",
          "ticks": 18816,
          "time": 58.8,
          "velocity": 0.8661417322834646
        },
        {
          "duration": 0.29375000000000284,
          "durationTicks": 94,
          "midi": 54,
          "name": "F#3",
          "ticks": 18912,
          "time": 59.099999999999994,
          "velocity": 0.8661417322834646
        },
        {
          "duration": 0.29374999999999574,
          "durationTicks": 94,
          "midi": 44,
          "name": "G#2",
          "ticks": 19008,
          "time": 59.4,
          "velocity": 0.8661417322834646
        },
        {
          "duration": 0.29374999999999574,
          "durationTicks": 94,
          "midi": 51,
          "name": "D#3",
          "ticks": 19104,
          "time": 59.699999999999996,
          "velocity": 0.8661417322834646
        },
        {
          "duration": 0.29374999999999574,
          "durationTicks": 94,
          "midi": 56,
          "name": "G#3",
          "ticks": 19200,
          "time": 60,
          "velocity": 0.8661417322834646
        },
        {
          "duration": 0.29374999999999574,
          "durationTicks": 94,
          "midi": 44,
          "name": "G#2",
          "ticks": 19296,
          "time": 60.3,
          "velocity": 0.8661417322834646
        },
        {
          "duration": 0.29375000000000284,
          "durationTicks": 94,
          "midi": 51,
          "name": "D#3",
          "ticks": 19392,
          "time": 60.599999999999994,
          "velocity": 0.8661417322834646
        },
        {
          "duration": 0.29374999999999574,
          "durationTicks": 94,
          "midi": 56,
          "name": "G#3",
          "ticks": 19488,
          "time": 60.9,
          "velocity": 0.8661417322834646
        },
        {
          "duration": 0.29374999999999574,
          "durationTicks": 94,
          "midi": 44,
          "name": "G#2",
          "ticks": 19584,
          "time": 61.199999999999996,
          "velocity": 0.8661417322834646
        },
        {
          "duration": 0.29374999999999574,
          "durationTicks": 94,
          "midi": 51,
          "name": "D#3",
          "ticks": 19680,
          "time": 61.5,
          "velocity": 0.8661417322834646
        },
        {
          "duration": 0.29374999999999574,
          "durationTicks": 94,
          "midi": 56,
          "name": "G#3",
          "ticks": 19776,
          "time": 61.8,
          "velocity": 0.8661417322834646
        },
        {
          "duration": 0.29375000000000284,
          "durationTicks": 94,
          "midi": 44,
          "name": "G#2",
          "ticks": 19872,
          "time": 62.099999999999994,
          "velocity": 0.8661417322834646
        },
        {
          "duration": 0.29374999999999574,
          "durationTicks": 94,
          "midi": 51,
          "name": "D#3",
          "ticks": 19968,
          "time": 62.4,
          "velocity": 0.8661417322834646
        },
        {
          "duration": 0.29374999999999574,
          "durationTicks": 94,
          "midi": 56,
          "name": "G#3",
          "ticks": 20064,
          "time": 62.699999999999996,
          "velocity": 0.8661417322834646
        },
        {
          "duration": 0.29374999999999574,
          "durationTicks": 94,
          "midi": 44,
          "name": "G#2",
          "ticks": 20160,
          "time": 63,
          "velocity": 0.8661417322834646
        },
        {
          "duration": 0.29374999999999574,
          "durationTicks": 94,
          "midi": 51,
          "name": "D#3",
          "ticks": 20256,
          "time": 63.3,
          "velocity": 0.8661417322834646
        },
        {
          "duration": 0.29375000000000284,
          "durationTicks": 94,
          "midi": 59,
          "name": "B3",
          "ticks": 20352,
          "time": 63.599999999999994,
          "velocity": 0.8661417322834646
        },
        {
          "duration": 0.29374999999999574,
          "durationTicks": 94,
          "midi": 44,
          "name": "G#2",
          "ticks": 20448,
          "time": 63.9,
          "velocity": 0.8661417322834646
        },
        {
          "duration": 0.29374999999998863,
          "durationTicks": 94,
          "midi": 51,
          "name": "D#3",
          "ticks": 20544,
          "time": 64.2,
          "velocity": 0.8661417322834646
        },
        {
          "duration": 0.29374999999998863,
          "durationTicks": 94,
          "midi": 56,
          "name": "G#3",
          "ticks": 20640,
          "time": 64.5,
          "velocity": 0.8661417322834646
        },
        {
          "duration": 0.29375000000000284,
          "durationTicks": 94,
          "midi": 41,
          "name": "F2",
          "ticks": 20736,
          "time": 64.8,
          "velocity": 0.8661417322834646
        },
        {
          "duration": 0.29375000000000284,
          "durationTicks": 94,
          "midi": 48,
          "name": "C3",
          "ticks": 20832,
          "time": 65.1,
          "velocity": 0.8661417322834646
        },
        {
          "duration": 0.29375000000000284,
          "durationTicks": 94,
          "midi": 53,
          "name": "F3",
          "ticks": 20928,
          "time": 65.39999999999999,
          "velocity": 0.8661417322834646
        },
        {
          "duration": 0.29374999999998863,
          "durationTicks": 94,
          "midi": 44,
          "name": "G#2",
          "ticks": 21024,
          "time": 65.7,
          "velocity": 0.8661417322834646
        },
        {
          "duration": 0.29374999999998863,
          "durationTicks": 94,
          "midi": 51,
          "name": "D#3",
          "ticks": 21120,
          "time": 66,
          "velocity": 0.8661417322834646
        },
        {
          "duration": 0.29375000000000284,
          "durationTicks": 94,
          "midi": 56,
          "name": "G#3",
          "ticks": 21216,
          "time": 66.3,
          "velocity": 0.8661417322834646
        },
        {
          "duration": 0.29375000000000284,
          "durationTicks": 94,
          "midi": 44,
          "name": "G#2",
          "ticks": 21312,
          "time": 66.6,
          "velocity": 0.8661417322834646
        },
        {
          "duration": 0.29375000000000284,
          "durationTicks": 94,
          "midi": 51,
          "name": "D#3",
          "ticks": 21408,
          "time": 66.89999999999999,
          "velocity": 0.8661417322834646
        },
        {
          "duration": 0.29374999999998863,
          "durationTicks": 94,
          "midi": 56,
          "name": "G#3",
          "ticks": 21504,
          "time": 67.2,
          "velocity": 0.8661417322834646
        },
        {
          "duration": 0.29374999999998863,
          "durationTicks": 94,
          "midi": 44,
          "name": "G#2",
          "ticks": 21600,
          "time": 67.5,
          "velocity": 0.8661417322834646
        },
        {
          "duration": 0.29375000000000284,
          "durationTicks": 94,
          "midi": 51,
          "name": "D#3",
          "ticks": 21696,
          "time": 67.8,
          "velocity": 0.8661417322834646
        },
        {
          "duration": 0.29375000000000284,
          "durationTicks": 94,
          "midi": 59,
          "name": "B3",
          "ticks": 21792,
          "time": 68.1,
          "velocity": 0.8661417322834646
        },
        {
          "duration": 0.29375000000000284,
          "durationTicks": 94,
          "midi": 40,
          "name": "E2",
          "ticks": 21888,
          "time": 68.39999999999999,
          "velocity": 0.8661417322834646
        },
        {
          "duration": 0.29374999999998863,
          "durationTicks": 94,
          "midi": 47,
          "name": "B2",
          "ticks": 21984,
          "time": 68.7,
          "velocity": 0.8661417322834646
        },
        {
          "duration": 0.29374999999998863,
          "durationTicks": 94,
          "midi": 52,
          "name": "E3",
          "ticks": 22080,
          "time": 69,
          "velocity": 0.8661417322834646
        },
        {
          "duration": 0.29375000000000284,
          "durationTicks": 94,
          "midi": 40,
          "name": "E2",
          "ticks": 22176,
          "time": 69.3,
          "velocity": 0.8661417322834646
        },
        {
          "duration": 0.29375000000000284,
          "durationTicks": 94,
          "midi": 47,
          "name": "B2",
          "ticks": 22272,
          "time": 69.6,
          "velocity": 0.8661417322834646
        },
        {
          "duration": 0.29375000000000284,
          "durationTicks": 94,
          "midi": 52,
          "name": "E3",
          "ticks": 22368,
          "time": 69.89999999999999,
          "velocity": 0.8661417322834646
        },
        {
          "duration": 0.29374999999998863,
          "durationTicks": 94,
          "midi": 42,
          "name": "F#2",
          "ticks": 22464,
          "time": 70.2,
          "velocity": 0.8661417322834646
        },
        {
          "duration": 0.29374999999998863,
          "durationTicks": 94,
          "midi": 49,
          "name": "C#3",
          "ticks": 22560,
          "time": 70.5,
          "velocity": 0.8661417322834646
        },
        {
          "duration": 0.29375000000000284,
          "durationTicks": 94,
          "midi": 54,
          "name": "F#3",
          "ticks": 22656,
          "time": 70.8,
          "velocity": 0.8661417322834646
        },
        {
          "duration": 0.29375000000000284,
          "durationTicks": 94,
          "midi": 42,
          "name": "F#2",
          "ticks": 22752,
          "time": 71.1,
          "velocity": 0.8661417322834646
        },
        {
          "duration": 0.29375000000000284,
          "durationTicks": 94,
          "midi": 49,
          "name": "C#3",
          "ticks": 22848,
          "time": 71.39999999999999,
          "velocity": 0.8661417322834646
        },
        {
          "duration": 0.29374999999998863,
          "durationTicks": 94,
          "midi": 54,
          "name": "F#3",
          "ticks": 22944,
          "time": 71.7,
          "velocity": 0.8661417322834646
        },
        {
          "duration": 0.29374999999998863,
          "durationTicks": 94,
          "midi": 42,
          "name": "F#2",
          "ticks": 23040,
          "time": 72,
          "velocity": 0.8661417322834646
        },
        {
          "duration": 0.29375000000000284,
          "durationTicks": 94,
          "midi": 49,
          "name": "C#3",
          "ticks": 23136,
          "time": 72.3,
          "velocity": 0.8661417322834646
        },
        {
          "duration": 0.29375000000000284,
          "durationTicks": 94,
          "midi": 56,
          "name": "G#3",
          "ticks": 23232,
          "time": 72.6,
          "velocity": 0.8661417322834646
        },
        {
          "duration": 0.29375000000000284,
          "durationTicks": 94,
          "midi": 42,
          "name": "F#2",
          "ticks": 23328,
          "time": 72.89999999999999,
          "velocity": 0.8661417322834646
        },
        {
          "duration": 0.29374999999998863,
          "durationTicks": 94,
          "midi": 49,
          "name": "C#3",
          "ticks": 23424,
          "time": 73.2,
          "velocity": 0.8661417322834646
        },
        {
          "duration": 0.29374999999998863,
          "durationTicks": 94,
          "midi": 54,
          "name": "F#3",
          "ticks": 23520,
          "time": 73.5,
          "velocity": 0.8661417322834646
        },
        {
          "duration": 0.29375000000000284,
          "durationTicks": 94,
          "midi": 47,
          "name": "B2",
          "ticks": 23616,
          "time": 73.8,
          "velocity": 0.8661417322834646
        },
        {
          "duration": 0.29375000000000284,
          "durationTicks": 94,
          "midi": 54,
          "name": "F#3",
          "ticks": 23712,
          "time": 74.1,
          "velocity": 0.8661417322834646
        },
        {
          "duration": 0.29375000000000284,
          "durationTicks": 94,
          "midi": 59,
          "name": "B3",
          "ticks": 23808,
          "time": 74.39999999999999,
          "velocity": 0.8661417322834646
        },
        {
          "duration": 0.29374999999998863,
          "durationTicks": 94,
          "midi": 45,
          "name": "A2",
          "ticks": 23904,
          "time": 74.7,
          "velocity": 0.8661417322834646
        },
        {
          "duration": 0.29374999999998863,
          "durationTicks": 94,
          "midi": 52,
          "name": "E3",
          "ticks": 24000,
          "time": 75,
          "velocity": 0.8661417322834646
        },
        {
          "duration": 0.29375000000000284,
          "durationTicks": 94,
          "midi": 57,
          "name": "A3",
          "ticks": 24096,
          "time": 75.3,
          "velocity": 0.8661417322834646
        },
        {
          "duration": 0.29375000000000284,
          "durationTicks": 94,
          "midi": 40,
          "name": "E2",
          "ticks": 24192,
          "time": 75.6,
          "velocity": 0.8661417322834646
        },
        {
          "duration": 0.29375000000000284,
          "durationTicks": 94,
          "midi": 47,
          "name": "B2",
          "ticks": 24288,
          "time": 75.89999999999999,
          "velocity": 0.8661417322834646
        },
        {
          "duration": 0.29374999999998863,
          "durationTicks": 94,
          "midi": 52,
          "name": "E3",
          "ticks": 24384,
          "time": 76.2,
          "velocity": 0.8661417322834646
        },
        {
          "duration": 0.29374999999998863,
          "durationTicks": 94,
          "midi": 40,
          "name": "E2",
          "ticks": 24480,
          "time": 76.5,
          "velocity": 0.8661417322834646
        },
        {
          "duration": 0.29375000000000284,
          "durationTicks": 94,
          "midi": 47,
          "name": "B2",
          "ticks": 24576,
          "time": 76.8,
          "velocity": 0.8661417322834646
        },
        {
          "duration": 0.29375000000000284,
          "durationTicks": 94,
          "midi": 52,
          "name": "E3",
          "ticks": 24672,
          "time": 77.1,
          "velocity": 0.8661417322834646
        },
        {
          "duration": 0.29375000000001705,
          "durationTicks": 94,
          "midi": 47,
          "name": "B2",
          "ticks": 24768,
          "time": 77.39999999999999,
          "velocity": 0.8661417322834646
        },
        {
          "duration": 0.29375000000000284,
          "durationTicks": 94,
          "midi": 54,
          "name": "F#3",
          "ticks": 24864,
          "time": 77.7,
          "velocity": 0.8661417322834646
        },
        {
          "duration": 0.29375000000000284,
          "durationTicks": 94,
          "midi": 59,
          "name": "B3",
          "ticks": 24960,
          "time": 78,
          "velocity": 0.8661417322834646
        },
        {
          "duration": 0.29375000000000284,
          "durationTicks": 94,
          "midi": 45,
          "name": "A2",
          "ticks": 25056,
          "time": 78.3,
          "velocity": 0.8661417322834646
        },
        {
          "duration": 0.29375000000000284,
          "durationTicks": 94,
          "midi": 52,
          "name": "E3",
          "ticks": 25152,
          "time": 78.6,
          "velocity": 0.8661417322834646
        },
        {
          "duration": 0.29375000000001705,
          "durationTicks": 94,
          "midi": 57,
          "name": "A3",
          "ticks": 25248,
          "time": 78.89999999999999,
          "velocity": 0.8661417322834646
        },
        {
          "duration": 0.29375000000000284,
          "durationTicks": 94,
          "midi": 40,
          "name": "E2",
          "ticks": 25344,
          "time": 79.2,
          "velocity": 0.8661417322834646
        },
        {
          "duration": 0.29375000000000284,
          "durationTicks": 94,
          "midi": 47,
          "name": "B2",
          "ticks": 25440,
          "time": 79.5,
          "velocity": 0.8661417322834646
        },
        {
          "duration": 0.29375000000000284,
          "durationTicks": 94,
          "midi": 52,
          "name": "E3",
          "ticks": 25536,
          "time": 79.8,
          "velocity": 0.8661417322834646
        },
        {
          "duration": 0.29375000000000284,
          "durationTicks": 94,
          "midi": 40,
          "name": "E2",
          "ticks": 25632,
          "time": 80.1,
          "velocity": 0.8661417322834646
        },
        {
          "duration": 0.29375000000001705,
          "durationTicks": 94,
          "midi": 47,
          "name": "B2",
          "ticks": 25728,
          "time": 80.39999999999999,
          "velocity": 0.8661417322834646
        },
        {
          "duration": 0.29375000000000284,
          "durationTicks": 94,
          "midi": 52,
          "name": "E3",
          "ticks": 25824,
          "time": 80.7,
          "velocity": 0.8661417322834646
        },
        {
          "duration": 0.29375000000000284,
          "durationTicks": 94,
          "midi": 44,
          "name": "G#2",
          "ticks": 25920,
          "time": 81,
          "velocity": 0.8661417322834646
        },
        {
          "duration": 0.29375000000000284,
          "durationTicks": 94,
          "midi": 51,
          "name": "D#3",
          "ticks": 26016,
          "time": 81.3,
          "velocity": 0.8661417322834646
        },
        {
          "duration": 0.29375000000000284,
          "durationTicks": 94,
          "midi": 56,
          "name": "G#3",
          "ticks": 26112,
          "time": 81.6,
          "velocity": 0.8661417322834646
        },
        {
          "duration": 0.29375000000001705,
          "durationTicks": 94,
          "midi": 44,
          "name": "G#2",
          "ticks": 26208,
          "time": 81.89999999999999,
          "velocity": 0.8661417322834646
        },
        {
          "duration": 0.29375000000000284,
          "durationTicks": 94,
          "midi": 51,
          "name": "D#3",
          "ticks": 26304,
          "time": 82.2,
          "velocity": 0.8661417322834646
        },
        {
          "duration": 0.29375000000000284,
          "durationTicks": 94,
          "midi": 56,
          "name": "G#3",
          "ticks": 26400,
          "time": 82.5,
          "velocity": 0.8661417322834646
        },
        {
          "duration": 0.29375000000000284,
          "durationTicks": 94,
          "midi": 40,
          "name": "E2",
          "ticks": 26496,
          "time": 82.8,
          "velocity": 0.8661417322834646
        },
        {
          "duration": 0.29375000000000284,
          "durationTicks": 94,
          "midi": 47,
          "name": "B2",
          "ticks": 26592,
          "time": 83.1,
          "velocity": 0.8661417322834646
        },
        {
          "duration": 0.29375000000001705,
          "durationTicks": 94,
          "midi": 52,
          "name": "E3",
          "ticks": 26688,
          "time": 83.39999999999999,
          "velocity": 0.8661417322834646
        },
        {
          "duration": 0.29375000000000284,
          "durationTicks": 94,
          "midi": 40,
          "name": "E2",
          "ticks": 26784,
          "time": 83.7,
          "velocity": 0.8661417322834646
        },
        {
          "duration": 0.29375000000000284,
          "durationTicks": 94,
          "midi": 47,
          "name": "B2",
          "ticks": 26880,
          "time": 84,
          "velocity": 0.8661417322834646
        },
        {
          "duration": 0.29375000000000284,
          "durationTicks": 94,
          "midi": 52,
          "name": "E3",
          "ticks": 26976,
          "time": 84.3,
          "velocity": 0.8661417322834646
        },
        {
          "duration": 0.29375000000000284,
          "durationTicks": 94,
          "midi": 44,
          "name": "G#2",
          "ticks": 27072,
          "time": 84.6,
          "velocity": 0.8661417322834646
        },
        {
          "duration": 0.29375000000001705,
          "durationTicks": 94,
          "midi": 51,
          "name": "D#3",
          "ticks": 27168,
          "time": 84.89999999999999,
          "velocity": 0.8661417322834646
        },
        {
          "duration": 0.29375000000000284,
          "durationTicks": 94,
          "midi": 56,
          "name": "G#3",
          "ticks": 27264,
          "time": 85.2,
          "velocity": 0.8661417322834646
        },
        {
          "duration": 0.29375000000000284,
          "durationTicks": 94,
          "midi": 44,
          "name": "G#2",
          "ticks": 27360,
          "time": 85.5,
          "velocity": 0.8661417322834646
        },
        {
          "duration": 0.29375000000000284,
          "durationTicks": 94,
          "midi": 51,
          "name": "D#3",
          "ticks": 27456,
          "time": 85.8,
          "velocity": 0.8661417322834646
        },
        {
          "duration": 0.29375000000000284,
          "durationTicks": 94,
          "midi": 56,
          "name": "G#3",
          "ticks": 27552,
          "time": 86.1,
          "velocity": 0.8661417322834646
        },
        {
          "duration": 0.29375000000001705,
          "durationTicks": 94,
          "midi": 40,
          "name": "E2",
          "ticks": 27648,
          "time": 86.39999999999999,
          "velocity": 0.8661417322834646
        },
        {
          "duration": 0.29375000000000284,
          "durationTicks": 94,
          "midi": 47,
          "name": "B2",
          "ticks": 27744,
          "time": 86.7,
          "velocity": 0.8661417322834646
        },
        {
          "duration": 0.29375000000000284,
          "durationTicks": 94,
          "midi": 52,
          "name": "E3",
          "ticks": 27840,
          "time": 87,
          "velocity": 0.8661417322834646
        },
        {
          "duration": 0.29375000000000284,
          "durationTicks": 94,
          "midi": 40,
          "name": "E2",
          "ticks": 27936,
          "time": 87.3,
          "velocity": 0.8661417322834646
        },
        {
          "duration": 0.29375000000000284,
          "durationTicks": 94,
          "midi": 47,
          "name": "B2",
          "ticks": 28032,
          "time": 87.6,
          "velocity": 0.8661417322834646
        },
        {
          "duration": 0.29375000000001705,
          "durationTicks": 94,
          "midi": 52,
          "name": "E3",
          "ticks": 28128,
          "time": 87.89999999999999,
          "velocity": 0.8661417322834646
        },
        {
          "duration": 0.29375000000000284,
          "durationTicks": 94,
          "midi": 42,
          "name": "F#2",
          "ticks": 28224,
          "time": 88.2,
          "velocity": 0.8661417322834646
        },
        {
          "duration": 0.29375000000000284,
          "durationTicks": 94,
          "midi": 49,
          "name": "C#3",
          "ticks": 28320,
          "time": 88.5,
          "velocity": 0.8661417322834646
        },
        {
          "duration": 0.29375000000000284,
          "durationTicks": 94,
          "midi": 54,
          "name": "F#3",
          "ticks": 28416,
          "time": 88.8,
          "velocity": 0.8661417322834646
        },
        {
          "duration": 0.29375000000000284,
          "durationTicks": 94,
          "midi": 42,
          "name": "F#2",
          "ticks": 28512,
          "time": 89.1,
          "velocity": 0.8661417322834646
        },
        {
          "duration": 0.29375000000001705,
          "durationTicks": 94,
          "midi": 49,
          "name": "C#3",
          "ticks": 28608,
          "time": 89.39999999999999,
          "velocity": 0.8661417322834646
        },
        {
          "duration": 0.29375000000000284,
          "durationTicks": 94,
          "midi": 54,
          "name": "F#3",
          "ticks": 28704,
          "time": 89.7,
          "velocity": 0.8661417322834646
        },
        {
          "duration": 0.29375000000000284,
          "durationTicks": 94,
          "midi": 44,
          "name": "G#2",
          "ticks": 28800,
          "time": 90,
          "velocity": 0.8661417322834646
        },
        {
          "duration": 0.29375000000000284,
          "durationTicks": 94,
          "midi": 51,
          "name": "D#3",
          "ticks": 28896,
          "time": 90.3,
          "velocity": 0.8661417322834646
        },
        {
          "duration": 0.29375000000000284,
          "durationTicks": 94,
          "midi": 56,
          "name": "G#3",
          "ticks": 28992,
          "time": 90.6,
          "velocity": 0.8661417322834646
        },
        {
          "duration": 0.29375000000001705,
          "durationTicks": 94,
          "midi": 44,
          "name": "G#2",
          "ticks": 29088,
          "time": 90.89999999999999,
          "velocity": 0.8661417322834646
        },
        {
          "duration": 0.29375000000000284,
          "durationTicks": 94,
          "midi": 51,
          "name": "D#3",
          "ticks": 29184,
          "time": 91.2,
          "velocity": 0.8661417322834646
        },
        {
          "duration": 0.29375000000000284,
          "durationTicks": 94,
          "midi": 56,
          "name": "G#3",
          "ticks": 29280,
          "time": 91.5,
          "velocity": 0.8661417322834646
        },
        {
          "duration": 0.29375000000000284,
          "durationTicks": 94,
          "midi": 44,
          "name": "G#2",
          "ticks": 29376,
          "time": 91.8,
          "velocity": 0.8661417322834646
        },
        {
          "duration": 0.29375000000000284,
          "durationTicks": 94,
          "midi": 51,
          "name": "D#3",
          "ticks": 29472,
          "time": 92.1,
          "velocity": 0.8661417322834646
        },
        {
          "duration": 0.29375000000001705,
          "durationTicks": 94,
          "midi": 56,
          "name": "G#3",
          "ticks": 29568,
          "time": 92.39999999999999,
          "velocity": 0.8661417322834646
        },
        {
          "duration": 0.29375000000000284,
          "durationTicks": 94,
          "midi": 44,
          "name": "G#2",
          "ticks": 29664,
          "time": 92.7,
          "velocity": 0.8661417322834646
        },
        {
          "duration": 0.29375000000000284,
          "durationTicks": 94,
          "midi": 51,
          "name": "D#3",
          "ticks": 29760,
          "time": 93,
          "velocity": 0.8661417322834646
        },
        {
          "duration": 0.29375000000000284,
          "durationTicks": 94,
          "midi": 56,
          "name": "G#3",
          "ticks": 29856,
          "time": 93.3,
          "velocity": 0.8661417322834646
        },
        {
          "duration": 0.29375000000000284,
          "durationTicks": 94,
          "midi": 44,
          "name": "G#2",
          "ticks": 29952,
          "time": 93.6,
          "velocity": 0.8661417322834646
        },
        {
          "duration": 0.29375000000001705,
          "durationTicks": 94,
          "midi": 51,
          "name": "D#3",
          "ticks": 30048,
          "time": 93.89999999999999,
          "velocity": 0.8661417322834646
        },
        {
          "duration": 0.29375000000000284,
          "durationTicks": 94,
          "midi": 59,
          "name": "B3",
          "ticks": 30144,
          "time": 94.2,
          "velocity": 0.8661417322834646
        },
        {
          "duration": 0.29375000000000284,
          "durationTicks": 94,
          "midi": 44,
          "name": "G#2",
          "ticks": 30240,
          "time": 94.5,
          "velocity": 0.8661417322834646
        },
        {
          "duration": 0.29375000000000284,
          "durationTicks": 94,
          "midi": 51,
          "name": "D#3",
          "ticks": 30336,
          "time": 94.8,
          "velocity": 0.8661417322834646
        },
        {
          "duration": 0.29375000000000284,
          "durationTicks": 94,
          "midi": 56,
          "name": "G#3",
          "ticks": 30432,
          "time": 95.1,
          "velocity": 0.8661417322834646
        },
        {
          "duration": 0.29375000000001705,
          "durationTicks": 94,
          "midi": 41,
          "name": "F2",
          "ticks": 30528,
          "time": 95.39999999999999,
          "velocity": 0.8661417322834646
        },
        {
          "duration": 0.29375000000000284,
          "durationTicks": 94,
          "midi": 48,
          "name": "C3",
          "ticks": 30624,
          "time": 95.7,
          "velocity": 0.8661417322834646
        },
        {
          "duration": 0.29375000000000284,
          "durationTicks": 94,
          "midi": 53,
          "name": "F3",
          "ticks": 30720,
          "time": 96,
          "velocity": 0.8661417322834646
        },
        {
          "duration": 0.29375000000000284,
          "durationTicks": 94,
          "midi": 44,
          "name": "G#2",
          "ticks": 30816,
          "time": 96.3,
          "velocity": 0.8661417322834646
        },
        {
          "duration": 0.29375000000000284,
          "durationTicks": 94,
          "midi": 51,
          "name": "D#3",
          "ticks": 30912,
          "time": 96.6,
          "velocity": 0.8661417322834646
        },
        {
          "duration": 0.29375000000001705,
          "durationTicks": 94,
          "midi": 56,
          "name": "G#3",
          "ticks": 31008,
          "time": 96.89999999999999,
          "velocity": 0.8661417322834646
        },
        {
          "duration": 0.29375000000000284,
          "durationTicks": 94,
          "midi": 44,
          "name": "G#2",
          "ticks": 31104,
          "time": 97.2,
          "velocity": 0.8661417322834646
        },
        {
          "duration": 0.29375000000000284,
          "durationTicks": 94,
          "midi": 51,
          "name": "D#3",
          "ticks": 31200,
          "time": 97.5,
          "velocity": 0.8661417322834646
        },
        {
          "duration": 0.29375000000000284,
          "durationTicks": 94,
          "midi": 56,
          "name": "G#3",
          "ticks": 31296,
          "time": 97.8,
          "velocity": 0.8661417322834646
        },
        {
          "duration": 0.29375000000000284,
          "durationTicks": 94,
          "midi": 44,
          "name": "G#2",
          "ticks": 31392,
          "time": 98.1,
          "velocity": 0.8661417322834646
        },
        {
          "duration": 0.29375000000001705,
          "durationTicks": 94,
          "midi": 51,
          "name": "D#3",
          "ticks": 31488,
          "time": 98.39999999999999,
          "velocity": 0.8661417322834646
        },
        {
          "duration": 0.29375000000000284,
          "durationTicks": 94,
          "midi": 59,
          "name": "B3",
          "ticks": 31584,
          "time": 98.7,
          "velocity": 0.8661417322834646
        },
        {
          "duration": 0.29375000000000284,
          "durationTicks": 94,
          "midi": 40,
          "name": "E2",
          "ticks": 31680,
          "time": 99,
          "velocity": 0.8661417322834646
        },
        {
          "duration": 0.29375000000000284,
          "durationTicks": 94,
          "midi": 47,
          "name": "B2",
          "ticks": 31776,
          "time": 99.3,
          "velocity": 0.8661417322834646
        },
        {
          "duration": 0.29375000000000284,
          "durationTicks": 94,
          "midi": 52,
          "name": "E3",
          "ticks": 31872,
          "time": 99.6,
          "velocity": 0.8661417322834646
        },
        {
          "duration": 0.29375000000001705,
          "durationTicks": 94,
          "midi": 40,
          "name": "E2",
          "ticks": 31968,
          "time": 99.89999999999999,
          "velocity": 0.8661417322834646
        },
        {
          "duration": 0.29375000000000284,
          "durationTicks": 94,
          "midi": 47,
          "name": "B2",
          "ticks": 32064,
          "time": 100.2,
          "velocity": 0.8661417322834646
        },
        {
          "duration": 0.29375000000000284,
          "durationTicks": 94,
          "midi": 52,
          "name": "E3",
          "ticks": 32160,
          "time": 100.5,
          "velocity": 0.8661417322834646
        },
        {
          "duration": 0.29375000000000284,
          "durationTicks": 94,
          "midi": 42,
          "name": "F#2",
          "ticks": 32256,
          "time": 100.8,
          "velocity": 0.8661417322834646
        },
        {
          "duration": 0.29375000000000284,
          "durationTicks": 94,
          "midi": 49,
          "name": "C#3",
          "ticks": 32352,
          "time": 101.1,
          "velocity": 0.8661417322834646
        },
        {
          "duration": 0.29375000000001705,
          "durationTicks": 94,
          "midi": 54,
          "name": "F#3",
          "ticks": 32448,
          "time": 101.39999999999999,
          "velocity": 0.8661417322834646
        },
        {
          "duration": 0.29375000000000284,
          "durationTicks": 94,
          "midi": 42,
          "name": "F#2",
          "ticks": 32544,
          "time": 101.7,
          "velocity": 0.8661417322834646
        },
        {
          "duration": 0.29375000000000284,
          "durationTicks": 94,
          "midi": 49,
          "name": "C#3",
          "ticks": 32640,
          "time": 102,
          "velocity": 0.8661417322834646
        },
        {
          "duration": 0.29375000000000284,
          "durationTicks": 94,
          "midi": 54,
          "name": "F#3",
          "ticks": 32736,
          "time": 102.3,
          "velocity": 0.8661417322834646
        },
        {
          "duration": 0.29375000000000284,
          "durationTicks": 94,
          "midi": 42,
          "name": "F#2",
          "ticks": 32832,
          "time": 102.6,
          "velocity": 0.8661417322834646
        },
        {
          "duration": 0.29375000000001705,
          "durationTicks": 94,
          "midi": 49,
          "name": "C#3",
          "ticks": 32928,
          "time": 102.89999999999999,
          "velocity": 0.8661417322834646
        },
        {
          "duration": 0.29375000000000284,
          "durationTicks": 94,
          "midi": 56,
          "name": "G#3",
          "ticks": 33024,
          "time": 103.2,
          "velocity": 0.8661417322834646
        },
        {
          "duration": 0.29375000000000284,
          "durationTicks": 94,
          "midi": 42,
          "name": "F#2",
          "ticks": 33120,
          "time": 103.5,
          "velocity": 0.8661417322834646
        },
        {
          "duration": 0.29375000000000284,
          "durationTicks": 94,
          "midi": 49,
          "name": "C#3",
          "ticks": 33216,
          "time": 103.8,
          "velocity": 0.8661417322834646
        },
        {
          "duration": 0.29375000000000284,
          "durationTicks": 94,
          "midi": 54,
          "name": "F#3",
          "ticks": 33312,
          "time": 104.1,
          "velocity": 0.8661417322834646
        },
        {
          "duration": 0.29375000000001705,
          "durationTicks": 94,
          "midi": 47,
          "name": "B2",
          "ticks": 33408,
          "time": 104.39999999999999,
          "velocity": 0.8661417322834646
        },
        {
          "duration": 0.29375000000000284,
          "durationTicks": 94,
          "midi": 54,
          "name": "F#3",
          "ticks": 33504,
          "time": 104.7,
          "velocity": 0.8661417322834646
        },
        {
          "duration": 0.29375000000000284,
          "durationTicks": 94,
          "midi": 59,
          "name": "B3",
          "ticks": 33600,
          "time": 105,
          "velocity": 0.8661417322834646
        },
        {
          "duration": 0.29375000000000284,
          "durationTicks": 94,
          "midi": 45,
          "name": "A2",
          "ticks": 33696,
          "time": 105.3,
          "velocity": 0.8661417322834646
        },
        {
          "duration": 0.29375000000000284,
          "durationTicks": 94,
          "midi": 52,
          "name": "E3",
          "ticks": 33792,
          "time": 105.6,
          "velocity": 0.8661417322834646
        },
        {
          "duration": 0.29375000000001705,
          "durationTicks": 94,
          "midi": 57,
          "name": "A3",
          "ticks": 33888,
          "time": 105.89999999999999,
          "velocity": 0.8661417322834646
        },
        {
          "duration": 0.29375000000000284,
          "durationTicks": 94,
          "midi": 40,
          "name": "E2",
          "ticks": 33984,
          "time": 106.2,
          "velocity": 0.8661417322834646
        },
        {
          "duration": 0.29375000000000284,
          "durationTicks": 94,
          "midi": 47,
          "name": "B2",
          "ticks": 34080,
          "time": 106.5,
          "velocity": 0.8661417322834646
        },
        {
          "duration": 0.29375000000000284,
          "durationTicks": 94,
          "midi": 52,
          "name": "E3",
          "ticks": 34176,
          "time": 106.8,
          "velocity": 0.8661417322834646
        },
        {
          "duration": 0.29375000000000284,
          "durationTicks": 94,
          "midi": 40,
          "name": "E2",
          "ticks": 34272,
          "time": 107.1,
          "velocity": 0.8661417322834646
        },
        {
          "duration": 0.29375000000001705,
          "durationTicks": 94,
          "midi": 47,
          "name": "B2",
          "ticks": 34368,
          "time": 107.39999999999999,
          "velocity": 0.8661417322834646
        },
        {
          "duration": 0.29375000000000284,
          "durationTicks": 94,
          "midi": 52,
          "name": "E3",
          "ticks": 34464,
          "time": 107.7,
          "velocity": 0.8661417322834646
        },
        {
          "duration": 0.29375000000000284,
          "durationTicks": 94,
          "midi": 47,
          "name": "B2",
          "ticks": 34560,
          "time": 108,
          "velocity": 0.8661417322834646
        },
        {
          "duration": 0.29375000000000284,
          "durationTicks": 94,
          "midi": 54,
          "name": "F#3",
          "ticks": 34656,
          "time": 108.3,
          "velocity": 0.8661417322834646
        },
        {
          "duration": 0.29375000000000284,
          "durationTicks": 94,
          "midi": 59,
          "name": "B3",
          "ticks": 34752,
          "time": 108.6,
          "velocity": 0.8661417322834646
        },
        {
          "duration": 0.29375000000001705,
          "durationTicks": 94,
          "midi": 45,
          "name": "A2",
          "ticks": 34848,
          "time": 108.89999999999999,
          "velocity": 0.8661417322834646
        },
        {
          "duration": 0.29375000000000284,
          "durationTicks": 94,
          "midi": 52,
          "name": "E3",
          "ticks": 34944,
          "time": 109.2,
          "velocity": 0.8661417322834646
        },
        {
          "duration": 0.29375000000000284,
          "durationTicks": 94,
          "midi": 57,
          "name": "A3",
          "ticks": 35040,
          "time": 109.5,
          "velocity": 0.8661417322834646
        },
        {
          "duration": 0.29375000000000284,
          "durationTicks": 94,
          "midi": 40,
          "name": "E2",
          "ticks": 35136,
          "time": 109.8,
          "velocity": 0.8661417322834646
        },
        {
          "duration": 0.29375000000000284,
          "durationTicks": 94,
          "midi": 47,
          "name": "B2",
          "ticks": 35232,
          "time": 110.1,
          "velocity": 0.8661417322834646
        },
        {
          "duration": 0.29375000000001705,
          "durationTicks": 94,
          "midi": 52,
          "name": "E3",
          "ticks": 35328,
          "time": 110.39999999999999,
          "velocity": 0.8661417322834646
        },
        {
          "duration": 0.29375000000000284,
          "durationTicks": 94,
          "midi": 40,
          "name": "E2",
          "ticks": 35424,
          "time": 110.7,
          "velocity": 0.8661417322834646
        },
        {
          "duration": 0.29375000000000284,
          "durationTicks": 94,
          "midi": 47,
          "name": "B2",
          "ticks": 35520,
          "time": 111,
          "velocity": 0.8661417322834646
        },
        {
          "duration": 0.29375000000000284,
          "durationTicks": 94,
          "midi": 52,
          "name": "E3",
          "ticks": 35616,
          "time": 111.3,
          "velocity": 0.8661417322834646
        },
        {
          "duration": 0.29375000000000284,
          "durationTicks": 94,
          "midi": 44,
          "name": "G#2",
          "ticks": 35712,
          "time": 111.6,
          "velocity": 0.8661417322834646
        },
        {
          "duration": 0.29375000000001705,
          "durationTicks": 94,
          "midi": 51,
          "name": "D#3",
          "ticks": 35808,
          "time": 111.89999999999999,
          "velocity": 0.8661417322834646
        },
        {
          "duration": 0.29375000000000284,
          "durationTicks": 94,
          "midi": 56,
          "name": "G#3",
          "ticks": 35904,
          "time": 112.2,
          "velocity": 0.8661417322834646
        },
        {
          "duration": 0.29375000000000284,
          "durationTicks": 94,
          "midi": 44,
          "name": "G#2",
          "ticks": 36000,
          "time": 112.5,
          "velocity": 0.8661417322834646
        },
        {
          "duration": 0.29375000000000284,
          "durationTicks": 94,
          "midi": 51,
          "name": "D#3",
          "ticks": 36096,
          "time": 112.8,
          "velocity": 0.8661417322834646
        },
        {
          "duration": 0.29375000000000284,
          "durationTicks": 94,
          "midi": 56,
          "name": "G#3",
          "ticks": 36192,
          "time": 113.1,
          "velocity": 0.8661417322834646
        },
        {
          "duration": 0.29375000000001705,
          "durationTicks": 94,
          "midi": 40,
          "name": "E2",
          "ticks": 36288,
          "time": 113.39999999999999,
          "velocity": 0.8661417322834646
        },
        {
          "duration": 0.29375000000000284,
          "durationTicks": 94,
          "midi": 47,
          "name": "B2",
          "ticks": 36384,
          "time": 113.7,
          "velocity": 0.8661417322834646
        },
        {
          "duration": 0.29375000000000284,
          "durationTicks": 94,
          "midi": 52,
          "name": "E3",
          "ticks": 36480,
          "time": 114,
          "velocity": 0.8661417322834646
        },
        {
          "duration": 0.29375000000000284,
          "durationTicks": 94,
          "midi": 40,
          "name": "E2",
          "ticks": 36576,
          "time": 114.3,
          "velocity": 0.8661417322834646
        },
        {
          "duration": 0.29375000000000284,
          "durationTicks": 94,
          "midi": 47,
          "name": "B2",
          "ticks": 36672,
          "time": 114.6,
          "velocity": 0.8661417322834646
        },
        {
          "duration": 0.29375000000001705,
          "durationTicks": 94,
          "midi": 52,
          "name": "E3",
          "ticks": 36768,
          "time": 114.89999999999999,
          "velocity": 0.8661417322834646
        },
        {
          "duration": 0.29375000000001705,
          "durationTicks": 94,
          "midi": 44,
          "name": "G#2",
          "ticks": 36864,
          "time": 115.19999999999999,
          "velocity": 0.8661417322834646
        },
        {
          "duration": 0.29375000000000284,
          "durationTicks": 94,
          "midi": 51,
          "name": "D#3",
          "ticks": 36960,
          "time": 115.5,
          "velocity": 0.8661417322834646
        },
        {
          "duration": 0.29375000000000284,
          "durationTicks": 94,
          "midi": 56,
          "name": "G#3",
          "ticks": 37056,
          "time": 115.8,
          "velocity": 0.8661417322834646
        },
        {
          "duration": 0.29375000000000284,
          "durationTicks": 94,
          "midi": 44,
          "name": "G#2",
          "ticks": 37152,
          "time": 116.1,
          "velocity": 0.8661417322834646
        },
        {
          "duration": 0.29375000000000284,
          "durationTicks": 94,
          "midi": 51,
          "name": "D#3",
          "ticks": 37248,
          "time": 116.39999999999999,
          "velocity": 0.8661417322834646
        },
        {
          "duration": 0.29375000000001705,
          "durationTicks": 94,
          "midi": 56,
          "name": "G#3",
          "ticks": 37344,
          "time": 116.69999999999999,
          "velocity": 0.8661417322834646
        },
        {
          "duration": 0.29375000000000284,
          "durationTicks": 94,
          "midi": 40,
          "name": "E2",
          "ticks": 37440,
          "time": 117,
          "velocity": 0.8661417322834646
        },
        {
          "duration": 0.29375000000000284,
          "durationTicks": 94,
          "midi": 47,
          "name": "B2",
          "ticks": 37536,
          "time": 117.3,
          "velocity": 0.8661417322834646
        },
        {
          "duration": 0.29375000000000284,
          "durationTicks": 94,
          "midi": 52,
          "name": "E3",
          "ticks": 37632,
          "time": 117.6,
          "velocity": 0.8661417322834646
        },
        {
          "duration": 0.29375000000000284,
          "durationTicks": 94,
          "midi": 40,
          "name": "E2",
          "ticks": 37728,
          "time": 117.89999999999999,
          "velocity": 0.8661417322834646
        },
        {
          "duration": 0.29375000000001705,
          "durationTicks": 94,
          "midi": 47,
          "name": "B2",
          "ticks": 37824,
          "time": 118.19999999999999,
          "velocity": 0.8661417322834646
        },
        {
          "duration": 0.29375000000000284,
          "durationTicks": 94,
          "midi": 52,
          "name": "E3",
          "ticks": 37920,
          "time": 118.5,
          "velocity": 0.8661417322834646
        },
        {
          "duration": 0.29375000000000284,
          "durationTicks": 94,
          "midi": 42,
          "name": "F#2",
          "ticks": 38016,
          "time": 118.8,
          "velocity": 0.8661417322834646
        },
        {
          "duration": 0.29375000000000284,
          "durationTicks": 94,
          "midi": 49,
          "name": "C#3",
          "ticks": 38112,
          "time": 119.1,
          "velocity": 0.8661417322834646
        },
        {
          "duration": 0.29375000000000284,
          "durationTicks": 94,
          "midi": 54,
          "name": "F#3",
          "ticks": 38208,
          "time": 119.39999999999999,
          "velocity": 0.8661417322834646
        },
        {
          "duration": 0.29375000000001705,
          "durationTicks": 94,
          "midi": 42,
          "name": "F#2",
          "ticks": 38304,
          "time": 119.69999999999999,
          "velocity": 0.8661417322834646
        },
        {
          "duration": 0.29375000000000284,
          "durationTicks": 94,
          "midi": 49,
          "name": "C#3",
          "ticks": 38400,
          "time": 120,
          "velocity": 0.8661417322834646
        },
        {
          "duration": 0.29375000000000284,
          "durationTicks": 94,
          "midi": 54,
          "name": "F#3",
          "ticks": 38496,
          "time": 120.3,
          "velocity": 0.8661417322834646
        },
        {
          "duration": 0.29375000000000284,
          "durationTicks": 94,
          "midi": 44,
          "name": "G#2",
          "ticks": 38592,
          "time": 120.6,
          "velocity": 0.8661417322834646
        },
        {
          "duration": 0.29375000000000284,
          "durationTicks": 94,
          "midi": 51,
          "name": "D#3",
          "ticks": 38688,
          "time": 120.89999999999999,
          "velocity": 0.8661417322834646
        },
        {
          "duration": 0.29375000000001705,
          "durationTicks": 94,
          "midi": 56,
          "name": "G#3",
          "ticks": 38784,
          "time": 121.19999999999999,
          "velocity": 0.8661417322834646
        },
        {
          "duration": 0.29375000000000284,
          "durationTicks": 94,
          "midi": 44,
          "name": "G#2",
          "ticks": 38880,
          "time": 121.5,
          "velocity": 0.8661417322834646
        },
        {
          "duration": 0.29375000000000284,
          "durationTicks": 94,
          "midi": 51,
          "name": "D#3",
          "ticks": 38976,
          "time": 121.8,
          "velocity": 0.8661417322834646
        },
        {
          "duration": 0.29375000000000284,
          "durationTicks": 94,
          "midi": 56,
          "name": "G#3",
          "ticks": 39072,
          "time": 122.1,
          "velocity": 0.8661417322834646
        },
        {
          "duration": 0.29375000000000284,
          "durationTicks": 94,
          "midi": 44,
          "name": "G#2",
          "ticks": 39168,
          "time": 122.39999999999999,
          "velocity": 0.8661417322834646
        },
        {
          "duration": 0.29375000000001705,
          "durationTicks": 94,
          "midi": 51,
          "name": "D#3",
          "ticks": 39264,
          "time": 122.69999999999999,
          "velocity": 0.8661417322834646
        },
        {
          "duration": 0.29375000000000284,
          "durationTicks": 94,
          "midi": 56,
          "name": "G#3",
          "ticks": 39360,
          "time": 123,
          "velocity": 0.8661417322834646
        },
        {
          "duration": 0.29375000000000284,
          "durationTicks": 94,
          "midi": 44,
          "name": "G#2",
          "ticks": 39456,
          "time": 123.3,
          "velocity": 0.8661417322834646
        },
        {
          "duration": 0.29375000000000284,
          "durationTicks": 94,
          "midi": 51,
          "name": "D#3",
          "ticks": 39552,
          "time": 123.6,
          "velocity": 0.8661417322834646
        },
        {
          "duration": 0.29375000000000284,
          "durationTicks": 94,
          "midi": 56,
          "name": "G#3",
          "ticks": 39648,
          "time": 123.89999999999999,
          "velocity": 0.8661417322834646
        },
        {
          "duration": 1.6500000000000057,
          "durationTicks": 528,
          "midi": 44,
          "name": "G#2",
          "ticks": 39744,
          "time": 124.19999999999999,
          "velocity": 0.8661417322834646
        }
      ]
    },
    {
      "channel": 1,
      "controlChanges": {
        "7": [
          {
            "number": 7,
            "ticks": 0,
            "time": 0,
            "value": 0.5039370078740157
          }
        ],
        "10": [
          {
            "number": 10,
            "ticks": 0,
            "time": 0,
            "value": 0.4251968503937008
          }
        ]
      },
      "pitchBends": [],
      "instrument": {
        "family": "ensemble",
        "name": "string ensemble 2",
        "number": 49
      },
      "name": "",
      "notes": [
        {
          "duration": 1.6499999999999986,
          "durationTicks": 528,
          "midi": 44,
          "name": "G#2",
          "ticks": 10368,
          "time": 32.4,
          "velocity": 0.8661417322834646
        },
        {
          "duration": 1.6499999999999986,
          "durationTicks": 528,
          "midi": 51,
          "name": "D#3",
          "ticks": 10368,
          "time": 32.4,
          "velocity": 0.8661417322834646
        },
        {
          "duration": 1.6499999999999986,
          "durationTicks": 528,
          "midi": 56,
          "name": "G#3",
          "ticks": 10368,
          "time": 32.4,
          "velocity": 0.8661417322834646
        },
        {
          "duration": 0.8000000000000043,
          "durationTicks": 256,
          "midi": 41,
          "name": "F2",
          "ticks": 10944,
          "time": 34.199999999999996,
          "velocity": 0.8661417322834646
        },
        {
          "duration": 0.8000000000000043,
          "durationTicks": 256,
          "midi": 48,
          "name": "C3",
          "ticks": 10944,
          "time": 34.199999999999996,
          "velocity": 0.8661417322834646
        },
        {
          "duration": 0.8000000000000043,
          "durationTicks": 256,
          "midi": 53,
          "name": "F3",
          "ticks": 10944,
          "time": 34.199999999999996,
          "velocity": 0.8661417322834646
        },
        {
          "duration": 0.7999999999999972,
          "durationTicks": 256,
          "midi": 44,
          "name": "G#2",
          "ticks": 11232,
          "time": 35.1,
          "velocity": 0.8661417322834646
        },
        {
          "duration": 0.7999999999999972,
          "durationTicks": 256,
          "midi": 51,
          "name": "D#3",
          "ticks": 11232,
          "time": 35.1,
          "velocity": 0.8661417322834646
        },
        {
          "duration": 0.7999999999999972,
          "durationTicks": 256,
          "midi": 56,
          "name": "G#3",
          "ticks": 11232,
          "time": 35.1,
          "velocity": 0.8661417322834646
        },
        {
          "duration": 1.6499999999999986,
          "durationTicks": 528,
          "midi": 44,
          "name": "G#2",
          "ticks": 11520,
          "time": 36,
          "velocity": 0.8661417322834646
        },
        {
          "duration": 1.6499999999999986,
          "durationTicks": 528,
          "midi": 51,
          "name": "D#3",
          "ticks": 11520,
          "time": 36,
          "velocity": 0.8661417322834646
        },
        {
          "duration": 1.6499999999999986,
          "durationTicks": 528,
          "midi": 56,
          "name": "G#3",
          "ticks": 11520,
          "time": 36,
          "velocity": 0.8661417322834646
        },
        {
          "duration": 1.6499999999999986,
          "durationTicks": 528,
          "midi": 40,
          "name": "E2",
          "ticks": 12096,
          "time": 37.8,
          "velocity": 0.8661417322834646
        },
        {
          "duration": 1.6499999999999986,
          "durationTicks": 528,
          "midi": 47,
          "name": "B2",
          "ticks": 12096,
          "time": 37.8,
          "velocity": 0.8661417322834646
        },
        {
          "duration": 1.6499999999999986,
          "durationTicks": 528,
          "midi": 52,
          "name": "E3",
          "ticks": 12096,
          "time": 37.8,
          "velocity": 0.8661417322834646
        },
        {
          "duration": 1.6499999999999986,
          "durationTicks": 528,
          "midi": 42,
          "name": "F#2",
          "ticks": 12672,
          "time": 39.6,
          "velocity": 0.8661417322834646
        },
        {
          "duration": 1.6499999999999986,
          "durationTicks": 528,
          "midi": 49,
          "name": "C#3",
          "ticks": 12672,
          "time": 39.6,
          "velocity": 0.8661417322834646
        },
        {
          "duration": 1.6499999999999986,
          "durationTicks": 528,
          "midi": 54,
          "name": "F#3",
          "ticks": 12672,
          "time": 39.6,
          "velocity": 0.8661417322834646
        },
        {
          "duration": 1.6499999999999986,
          "durationTicks": 528,
          "midi": 42,
          "name": "F#2",
          "ticks": 13248,
          "time": 41.4,
          "velocity": 0.8661417322834646
        },
        {
          "duration": 1.6499999999999986,
          "durationTicks": 528,
          "midi": 49,
          "name": "C#3",
          "ticks": 13248,
          "time": 41.4,
          "velocity": 0.8661417322834646
        },
        {
          "duration": 1.6499999999999986,
          "durationTicks": 528,
          "midi": 54,
          "name": "F#3",
          "ticks": 13248,
          "time": 41.4,
          "velocity": 0.8661417322834646
        },
        {
          "duration": 0.7999999999999972,
          "durationTicks": 256,
          "midi": 47,
          "name": "B2",
          "ticks": 13824,
          "time": 43.199999999999996,
          "velocity": 0.8661417322834646
        },
        {
          "duration": 0.7999999999999972,
          "durationTicks": 256,
          "midi": 54,
          "name": "F#3",
          "ticks": 13824,
          "time": 43.199999999999996,
          "velocity": 0.8661417322834646
        },
        {
          "duration": 0.7999999999999972,
          "durationTicks": 256,
          "midi": 59,
          "name": "B3",
          "ticks": 13824,
          "time": 43.199999999999996,
          "velocity": 0.8661417322834646
        },
        {
          "duration": 0.7999999999999972,
          "durationTicks": 256,
          "midi": 45,
          "name": "A2",
          "ticks": 14112,
          "time": 44.1,
          "velocity": 0.8661417322834646
        },
        {
          "duration": 0.7999999999999972,
          "durationTicks": 256,
          "midi": 52,
          "name": "E3",
          "ticks": 14112,
          "time": 44.1,
          "velocity": 0.8661417322834646
        },
        {
          "duration": 0.7999999999999972,
          "durationTicks": 256,
          "midi": 57,
          "name": "A3",
          "ticks": 14112,
          "time": 44.1,
          "velocity": 0.8661417322834646
        },
        {
          "duration": 1.6499999999999986,
          "durationTicks": 528,
          "midi": 40,
          "name": "E2",
          "ticks": 14400,
          "time": 45,
          "velocity": 0.8661417322834646
        },
        {
          "duration": 1.6499999999999986,
          "durationTicks": 528,
          "midi": 47,
          "name": "B2",
          "ticks": 14400,
          "time": 45,
          "velocity": 0.8661417322834646
        },
        {
          "duration": 1.6499999999999986,
          "durationTicks": 528,
          "midi": 52,
          "name": "E3",
          "ticks": 14400,
          "time": 45,
          "velocity": 0.8661417322834646
        },
        {
          "duration": 0.7999999999999972,
          "durationTicks": 256,
          "midi": 47,
          "name": "B2",
          "ticks": 14976,
          "time": 46.8,
          "velocity": 0.8661417322834646
        },
        {
          "duration": 0.7999999999999972,
          "durationTicks": 256,
          "midi": 54,
          "name": "F#3",
          "ticks": 14976,
          "time": 46.8,
          "velocity": 0.8661417322834646
        },
        {
          "duration": 0.7999999999999972,
          "durationTicks": 256,
          "midi": 59,
          "name": "B3",
          "ticks": 14976,
          "time": 46.8,
          "velocity": 0.8661417322834646
        },
        {
          "duration": 0.7999999999999972,
          "durationTicks": 256,
          "midi": 45,
          "name": "A2",
          "ticks": 15264,
          "time": 47.699999999999996,
          "velocity": 0.8661417322834646
        },
        {
          "duration": 0.7999999999999972,
          "durationTicks": 256,
          "midi": 52,
          "name": "E3",
          "ticks": 15264,
          "time": 47.699999999999996,
          "velocity": 0.8661417322834646
        },
        {
          "duration": 0.7999999999999972,
          "durationTicks": 256,
          "midi": 57,
          "name": "A3",
          "ticks": 15264,
          "time": 47.699999999999996,
          "velocity": 0.8661417322834646
        },
        {
          "duration": 1.6499999999999986,
          "durationTicks": 528,
          "midi": 40,
          "name": "E2",
          "ticks": 15552,
          "time": 48.6,
          "velocity": 0.8661417322834646
        },
        {
          "duration": 1.6499999999999986,
          "durationTicks": 528,
          "midi": 47,
          "name": "B2",
          "ticks": 15552,
          "time": 48.6,
          "velocity": 0.8661417322834646
        },
        {
          "duration": 1.6499999999999986,
          "durationTicks": 528,
          "midi": 52,
          "name": "E3",
          "ticks": 15552,
          "time": 48.6,
          "velocity": 0.8661417322834646
        },
        {
          "duration": 1.6499999999999986,
          "durationTicks": 528,
          "midi": 44,
          "name": "G#2",
          "ticks": 16128,
          "time": 50.4,
          "velocity": 0.8661417322834646
        },
        {
          "duration": 1.6499999999999986,
          "durationTicks": 528,
          "midi": 51,
          "name": "D#3",
          "ticks": 16128,
          "time": 50.4,
          "velocity": 0.8661417322834646
        },
        {
          "duration": 1.6499999999999986,
          "durationTicks": 528,
          "midi": 56,
          "name": "G#3",
          "ticks": 16128,
          "time": 50.4,
          "velocity": 0.8661417322834646
        },
        {
          "duration": 1.6500000000000057,
          "durationTicks": 528,
          "midi": 40,
          "name": "E2",
          "ticks": 16704,
          "time": 52.199999999999996,
          "velocity": 0.8661417322834646
        },
        {
          "duration": 1.6500000000000057,
          "durationTicks": 528,
          "midi": 47,
          "name": "B2",
          "ticks": 16704,
          "time": 52.199999999999996,
          "velocity": 0.8661417322834646
        },
        {
          "duration": 1.6500000000000057,
          "durationTicks": 528,
          "midi": 52,
          "name": "E3",
          "ticks": 16704,
          "time": 52.199999999999996,
          "velocity": 0.8661417322834646
        },
        {
          "duration": 1.6499999999999986,
          "durationTicks": 528,
          "midi": 44,
          "name": "G#2",
          "ticks": 17280,
          "time": 54,
          "velocity": 0.8661417322834646
        },
        {
          "duration": 1.6499999999999986,
          "durationTicks": 528,
          "midi": 51,
          "name": "D#3",
          "ticks": 17280,
          "time": 54,
          "velocity": 0.8661417322834646
        },
        {
          "duration": 1.6499999999999986,
          "durationTicks": 528,
          "midi": 56,
          "name": "G#3",
          "ticks": 17280,
          "time": 54,
          "velocity": 0.8661417322834646
        },
        {
          "duration": 1.6499999999999986,
          "durationTicks": 528,
          "midi": 40,
          "name": "E2",
          "ticks": 17856,
          "time": 55.8,
          "velocity": 0.8661417322834646
        },
        {
          "duration": 1.6499999999999986,
          "durationTicks": 528,
          "midi": 47,
          "name": "B2",
          "ticks": 17856,
          "time": 55.8,
          "velocity": 0.8661417322834646
        },
        {
          "duration": 1.6499999999999986,
          "durationTicks": 528,
          "midi": 52,
          "name": "E3",
          "ticks": 17856,
          "time": 55.8,
          "velocity": 0.8661417322834646
        },
        {
          "duration": 1.6500000000000057,
          "durationTicks": 528,
          "midi": 42,
          "name": "F#2",
          "ticks": 18432,
          "time": 57.599999999999994,
          "velocity": 0.8661417322834646
        },
        {
          "duration": 1.6500000000000057,
          "durationTicks": 528,
          "midi": 49,
          "name": "C#3",
          "ticks": 18432,
          "time": 57.599999999999994,
          "velocity": 0.8661417322834646
        },
        {
          "duration": 1.6500000000000057,
          "durationTicks": 528,
          "midi": 54,
          "name": "F#3",
          "ticks": 18432,
          "time": 57.599999999999994,
          "velocity": 0.8661417322834646
        },
        {
          "duration": 3.4499999999999957,
          "durationTicks": 1104,
          "midi": 44,
          "name": "G#2",
          "ticks": 19008,
          "time": 59.4,
          "velocity": 0.8661417322834646
        },
        {
          "duration": 3.4499999999999957,
          "durationTicks": 1104,
          "midi": 51,
          "name": "D#3",
          "ticks": 19008,
          "time": 59.4,
          "velocity": 0.8661417322834646
        },
        {
          "duration": 3.4499999999999957,
          "durationTicks": 1104,
          "midi": 56,
          "name": "G#3",
          "ticks": 19008,
          "time": 59.4,
          "velocity": 0.8661417322834646
        },
        {
          "duration": 1.6499999999999915,
          "durationTicks": 528,
          "midi": 44,
          "name": "G#2",
          "ticks": 20160,
          "time": 63,
          "velocity": 0.8661417322834646
        },
        {
          "duration": 1.6499999999999915,
          "durationTicks": 528,
          "midi": 51,
          "name": "D#3",
          "ticks": 20160,
          "time": 63,
          "velocity": 0.8661417322834646
        },
        {
          "duration": 1.6499999999999915,
          "durationTicks": 528,
          "midi": 56,
          "name": "G#3",
          "ticks": 20160,
          "time": 63,
          "velocity": 0.8661417322834646
        },
        {
          "duration": 0.7999999999999972,
          "durationTicks": 256,
          "midi": 41,
          "name": "F2",
          "ticks": 20736,
          "time": 64.8,
          "velocity": 0.8661417322834646
        },
        {
          "duration": 0.7999999999999972,
          "durationTicks": 256,
          "midi": 48,
          "name": "C3",
          "ticks": 20736,
          "time": 64.8,
          "velocity": 0.8661417322834646
        },
        {
          "duration": 0.7999999999999972,
          "durationTicks": 256,
          "midi": 53,
          "name": "F3",
          "ticks": 20736,
          "time": 64.8,
          "velocity": 0.8661417322834646
        },
        {
          "duration": 0.7999999999999972,
          "durationTicks": 256,
          "midi": 44,
          "name": "G#2",
          "ticks": 21024,
          "time": 65.7,
          "velocity": 0.8661417322834646
        },
        {
          "duration": 0.7999999999999972,
          "durationTicks": 256,
          "midi": 51,
          "name": "D#3",
          "ticks": 21024,
          "time": 65.7,
          "velocity": 0.8661417322834646
        },
        {
          "duration": 0.7999999999999972,
          "durationTicks": 256,
          "midi": 56,
          "name": "G#3",
          "ticks": 21024,
          "time": 65.7,
          "velocity": 0.8661417322834646
        },
        {
          "duration": 1.6500000000000057,
          "durationTicks": 528,
          "midi": 44,
          "name": "G#2",
          "ticks": 21312,
          "time": 66.6,
          "velocity": 0.8661417322834646
        },
        {
          "duration": 1.6500000000000057,
          "durationTicks": 528,
          "midi": 51,
          "name": "D#3",
          "ticks": 21312,
          "time": 66.6,
          "velocity": 0.8661417322834646
        },
        {
          "duration": 1.6500000000000057,
          "durationTicks": 528,
          "midi": 56,
          "name": "G#3",
          "ticks": 21312,
          "time": 66.6,
          "velocity": 0.8661417322834646
        },
        {
          "duration": 1.6500000000000057,
          "durationTicks": 528,
          "midi": 40,
          "name": "E2",
          "ticks": 21888,
          "time": 68.39999999999999,
          "velocity": 0.8661417322834646
        },
        {
          "duration": 1.6500000000000057,
          "durationTicks": 528,
          "midi": 52,
          "name": "E3",
          "ticks": 21888,
          "time": 68.39999999999999,
          "velocity": 0.8661417322834646
        },
        {
          "duration": 1.6500000000000057,
          "durationTicks": 528,
          "midi": 47,
          "name": "B2",
          "ticks": 21888,
          "time": 68.39999999999999,
          "velocity": 0.8661417322834646
        },
        {
          "duration": 1.6499999999999915,
          "durationTicks": 528,
          "midi": 42,
          "name": "F#2",
          "ticks": 22464,
          "time": 70.2,
          "velocity": 0.8661417322834646
        },
        {
          "duration": 1.6499999999999915,
          "durationTicks": 528,
          "midi": 49,
          "name": "C#3",
          "ticks": 22464,
          "time": 70.2,
          "velocity": 0.8661417322834646
        },
        {
          "duration": 1.6499999999999915,
          "durationTicks": 528,
          "midi": 54,
          "name": "F#3",
          "ticks": 22464,
          "time": 70.2,
          "velocity": 0.8661417322834646
        },
        {
          "duration": 1.6499999999999915,
          "durationTicks": 528,
          "midi": 42,
          "name": "F#2",
          "ticks": 23040,
          "time": 72,
          "velocity": 0.8661417322834646
        },
        {
          "duration": 1.6499999999999915,
          "durationTicks": 528,
          "midi": 49,
          "name": "C#3",
          "ticks": 23040,
          "time": 72,
          "velocity": 0.8661417322834646
        },
        {
          "duration": 1.6499999999999915,
          "durationTicks": 528,
          "midi": 54,
          "name": "F#3",
          "ticks": 23040,
          "time": 72,
          "velocity": 0.8661417322834646
        },
        {
          "duration": 0.7999999999999972,
          "durationTicks": 256,
          "midi": 47,
          "name": "B2",
          "ticks": 23616,
          "time": 73.8,
          "velocity": 0.8661417322834646
        },
        {
          "duration": 0.7999999999999972,
          "durationTicks": 256,
          "midi": 54,
          "name": "F#3",
          "ticks": 23616,
          "time": 73.8,
          "velocity": 0.8661417322834646
        },
        {
          "duration": 0.7999999999999972,
          "durationTicks": 256,
          "midi": 59,
          "name": "B3",
          "ticks": 23616,
          "time": 73.8,
          "velocity": 0.8661417322834646
        },
        {
          "duration": 0.7999999999999972,
          "durationTicks": 256,
          "midi": 45,
          "name": "A2",
          "ticks": 23904,
          "time": 74.7,
          "velocity": 0.8661417322834646
        },
        {
          "duration": 0.7999999999999972,
          "durationTicks": 256,
          "midi": 52,
          "name": "E3",
          "ticks": 23904,
          "time": 74.7,
          "velocity": 0.8661417322834646
        },
        {
          "duration": 0.7999999999999972,
          "durationTicks": 256,
          "midi": 57,
          "name": "A3",
          "ticks": 23904,
          "time": 74.7,
          "velocity": 0.8661417322834646
        },
        {
          "duration": 1.6500000000000057,
          "durationTicks": 528,
          "midi": 40,
          "name": "E2",
          "ticks": 24192,
          "time": 75.6,
          "velocity": 0.8661417322834646
        },
        {
          "duration": 1.6500000000000057,
          "durationTicks": 528,
          "midi": 47,
          "name": "B2",
          "ticks": 24192,
          "time": 75.6,
          "velocity": 0.8661417322834646
        },
        {
          "duration": 1.6500000000000057,
          "durationTicks": 528,
          "midi": 52,
          "name": "E3",
          "ticks": 24192,
          "time": 75.6,
          "velocity": 0.8661417322834646
        },
        {
          "duration": 0.8000000000000114,
          "durationTicks": 256,
          "midi": 47,
          "name": "B2",
          "ticks": 24768,
          "time": 77.39999999999999,
          "velocity": 0.8661417322834646
        },
        {
          "duration": 0.8000000000000114,
          "durationTicks": 256,
          "midi": 54,
          "name": "F#3",
          "ticks": 24768,
          "time": 77.39999999999999,
          "velocity": 0.8661417322834646
        },
        {
          "duration": 0.8000000000000114,
          "durationTicks": 256,
          "midi": 59,
          "name": "B3",
          "ticks": 24768,
          "time": 77.39999999999999,
          "velocity": 0.8661417322834646
        },
        {
          "duration": 0.8000000000000114,
          "durationTicks": 256,
          "midi": 45,
          "name": "A2",
          "ticks": 25056,
          "time": 78.3,
          "velocity": 0.8661417322834646
        },
        {
          "duration": 0.8000000000000114,
          "durationTicks": 256,
          "midi": 52,
          "name": "E3",
          "ticks": 25056,
          "time": 78.3,
          "velocity": 0.8661417322834646
        },
        {
          "duration": 0.8000000000000114,
          "durationTicks": 256,
          "midi": 57,
          "name": "A3",
          "ticks": 25056,
          "time": 78.3,
          "velocity": 0.8661417322834646
        },
        {
          "duration": 1.6499999999999915,
          "durationTicks": 528,
          "midi": 40,
          "name": "E2",
          "ticks": 25344,
          "time": 79.2,
          "velocity": 0.8661417322834646
        },
        {
          "duration": 1.6499999999999915,
          "durationTicks": 528,
          "midi": 47,
          "name": "B2",
          "ticks": 25344,
          "time": 79.2,
          "velocity": 0.8661417322834646
        },
        {
          "duration": 1.6499999999999915,
          "durationTicks": 528,
          "midi": 52,
          "name": "E3",
          "ticks": 25344,
          "time": 79.2,
          "velocity": 0.8661417322834646
        },
        {
          "duration": 1.6499999999999915,
          "durationTicks": 528,
          "midi": 44,
          "name": "G#2",
          "ticks": 25920,
          "time": 81,
          "velocity": 0.8661417322834646
        },
        {
          "duration": 1.6499999999999915,
          "durationTicks": 528,
          "midi": 51,
          "name": "D#3",
          "ticks": 25920,
          "time": 81,
          "velocity": 0.8661417322834646
        },
        {
          "duration": 1.6499999999999915,
          "durationTicks": 528,
          "midi": 56,
          "name": "G#3",
          "ticks": 25920,
          "time": 81,
          "velocity": 0.8661417322834646
        },
        {
          "duration": 1.6500000000000057,
          "durationTicks": 528,
          "midi": 40,
          "name": "E2",
          "ticks": 26496,
          "time": 82.8,
          "velocity": 0.8661417322834646
        },
        {
          "duration": 1.6500000000000057,
          "durationTicks": 528,
          "midi": 47,
          "name": "B2",
          "ticks": 26496,
          "time": 82.8,
          "velocity": 0.8661417322834646
        },
        {
          "duration": 1.6500000000000057,
          "durationTicks": 528,
          "midi": 52,
          "name": "E3",
          "ticks": 26496,
          "time": 82.8,
          "velocity": 0.8661417322834646
        },
        {
          "duration": 1.6500000000000057,
          "durationTicks": 528,
          "midi": 44,
          "name": "G#2",
          "ticks": 27072,
          "time": 84.6,
          "velocity": 0.8661417322834646
        },
        {
          "duration": 1.6500000000000057,
          "durationTicks": 528,
          "midi": 51,
          "name": "D#3",
          "ticks": 27072,
          "time": 84.6,
          "velocity": 0.8661417322834646
        },
        {
          "duration": 1.6500000000000057,
          "durationTicks": 528,
          "midi": 56,
          "name": "G#3",
          "ticks": 27072,
          "time": 84.6,
          "velocity": 0.8661417322834646
        },
        {
          "duration": 1.6500000000000057,
          "durationTicks": 528,
          "midi": 40,
          "name": "E2",
          "ticks": 27648,
          "time": 86.39999999999999,
          "velocity": 0.8661417322834646
        },
        {
          "duration": 1.6500000000000057,
          "durationTicks": 528,
          "midi": 47,
          "name": "B2",
          "ticks": 27648,
          "time": 86.39999999999999,
          "velocity": 0.8661417322834646
        },
        {
          "duration": 1.6500000000000057,
          "durationTicks": 528,
          "midi": 52,
          "name": "E3",
          "ticks": 27648,
          "time": 86.39999999999999,
          "velocity": 0.8661417322834646
        },
        {
          "duration": 1.6499999999999915,
          "durationTicks": 528,
          "midi": 42,
          "name": "F#2",
          "ticks": 28224,
          "time": 88.2,
          "velocity": 0.8661417322834646
        },
        {
          "duration": 1.6499999999999915,
          "durationTicks": 528,
          "midi": 49,
          "name": "C#3",
          "ticks": 28224,
          "time": 88.2,
          "velocity": 0.8661417322834646
        },
        {
          "duration": 1.6499999999999915,
          "durationTicks": 528,
          "midi": 54,
          "name": "F#3",
          "ticks": 28224,
          "time": 88.2,
          "velocity": 0.8661417322834646
        },
        {
          "duration": 3.450000000000003,
          "durationTicks": 1104,
          "midi": 44,
          "name": "G#2",
          "ticks": 28800,
          "time": 90,
          "velocity": 0.8661417322834646
        },
        {
          "duration": 3.450000000000003,
          "durationTicks": 1104,
          "midi": 51,
          "name": "D#3",
          "ticks": 28800,
          "time": 90,
          "velocity": 0.8661417322834646
        },
        {
          "duration": 3.450000000000003,
          "durationTicks": 1104,
          "midi": 56,
          "name": "G#3",
          "ticks": 28800,
          "time": 90,
          "velocity": 0.8661417322834646
        },
        {
          "duration": 1.6500000000000057,
          "durationTicks": 528,
          "midi": 44,
          "name": "G#2",
          "ticks": 29952,
          "time": 93.6,
          "velocity": 0.8661417322834646
        },
        {
          "duration": 1.6500000000000057,
          "durationTicks": 528,
          "midi": 51,
          "name": "D#3",
          "ticks": 29952,
          "time": 93.6,
          "velocity": 0.8661417322834646
        },
        {
          "duration": 1.6500000000000057,
          "durationTicks": 528,
          "midi": 56,
          "name": "G#3",
          "ticks": 29952,
          "time": 93.6,
          "velocity": 0.8661417322834646
        },
        {
          "duration": 0.8000000000000114,
          "durationTicks": 256,
          "midi": 41,
          "name": "F2",
          "ticks": 30528,
          "time": 95.39999999999999,
          "velocity": 0.8661417322834646
        },
        {
          "duration": 0.8000000000000114,
          "durationTicks": 256,
          "midi": 48,
          "name": "C3",
          "ticks": 30528,
          "time": 95.39999999999999,
          "velocity": 0.8661417322834646
        },
        {
          "duration": 0.8000000000000114,
          "durationTicks": 256,
          "midi": 53,
          "name": "F3",
          "ticks": 30528,
          "time": 95.39999999999999,
          "velocity": 0.8661417322834646
        },
        {
          "duration": 0.8000000000000114,
          "durationTicks": 256,
          "midi": 44,
          "name": "G#2",
          "ticks": 30816,
          "time": 96.3,
          "velocity": 0.8661417322834646
        },
        {
          "duration": 0.8000000000000114,
          "durationTicks": 256,
          "midi": 51,
          "name": "D#3",
          "ticks": 30816,
          "time": 96.3,
          "velocity": 0.8661417322834646
        },
        {
          "duration": 0.8000000000000114,
          "durationTicks": 256,
          "midi": 56,
          "name": "G#3",
          "ticks": 30816,
          "time": 96.3,
          "velocity": 0.8661417322834646
        },
        {
          "duration": 1.6499999999999915,
          "durationTicks": 528,
          "midi": 44,
          "name": "G#2",
          "ticks": 31104,
          "time": 97.2,
          "velocity": 0.8661417322834646
        },
        {
          "duration": 1.6499999999999915,
          "durationTicks": 528,
          "midi": 51,
          "name": "D#3",
          "ticks": 31104,
          "time": 97.2,
          "velocity": 0.8661417322834646
        },
        {
          "duration": 1.6499999999999915,
          "durationTicks": 528,
          "midi": 56,
          "name": "G#3",
          "ticks": 31104,
          "time": 97.2,
          "velocity": 0.8661417322834646
        },
        {
          "duration": 1.6499999999999915,
          "durationTicks": 528,
          "midi": 40,
          "name": "E2",
          "ticks": 31680,
          "time": 99,
          "velocity": 0.8661417322834646
        },
        {
          "duration": 1.6499999999999915,
          "durationTicks": 528,
          "midi": 47,
          "name": "B2",
          "ticks": 31680,
          "time": 99,
          "velocity": 0.8661417322834646
        },
        {
          "duration": 1.6499999999999915,
          "durationTicks": 528,
          "midi": 52,
          "name": "E3",
          "ticks": 31680,
          "time": 99,
          "velocity": 0.8661417322834646
        },
        {
          "duration": 1.6500000000000057,
          "durationTicks": 528,
          "midi": 42,
          "name": "F#2",
          "ticks": 32256,
          "time": 100.8,
          "velocity": 0.8661417322834646
        },
        {
          "duration": 1.6500000000000057,
          "durationTicks": 528,
          "midi": 49,
          "name": "C#3",
          "ticks": 32256,
          "time": 100.8,
          "velocity": 0.8661417322834646
        },
        {
          "duration": 1.6500000000000057,
          "durationTicks": 528,
          "midi": 54,
          "name": "F#3",
          "ticks": 32256,
          "time": 100.8,
          "velocity": 0.8661417322834646
        },
        {
          "duration": 1.6500000000000057,
          "durationTicks": 528,
          "midi": 42,
          "name": "F#2",
          "ticks": 32832,
          "time": 102.6,
          "velocity": 0.8661417322834646
        },
        {
          "duration": 1.6500000000000057,
          "durationTicks": 528,
          "midi": 49,
          "name": "C#3",
          "ticks": 32832,
          "time": 102.6,
          "velocity": 0.8661417322834646
        },
        {
          "duration": 1.6500000000000057,
          "durationTicks": 528,
          "midi": 54,
          "name": "F#3",
          "ticks": 32832,
          "time": 102.6,
          "velocity": 0.8661417322834646
        },
        {
          "duration": 0.8000000000000114,
          "durationTicks": 256,
          "midi": 47,
          "name": "B2",
          "ticks": 33408,
          "time": 104.39999999999999,
          "velocity": 0.8661417322834646
        },
        {
          "duration": 0.8000000000000114,
          "durationTicks": 256,
          "midi": 54,
          "name": "F#3",
          "ticks": 33408,
          "time": 104.39999999999999,
          "velocity": 0.8661417322834646
        },
        {
          "duration": 0.8000000000000114,
          "durationTicks": 256,
          "midi": 59,
          "name": "B3",
          "ticks": 33408,
          "time": 104.39999999999999,
          "velocity": 0.8661417322834646
        },
        {
          "duration": 0.8000000000000114,
          "durationTicks": 256,
          "midi": 45,
          "name": "A2",
          "ticks": 33696,
          "time": 105.3,
          "velocity": 0.8661417322834646
        },
        {
          "duration": 0.8000000000000114,
          "durationTicks": 256,
          "midi": 52,
          "name": "E3",
          "ticks": 33696,
          "time": 105.3,
          "velocity": 0.8661417322834646
        },
        {
          "duration": 0.8000000000000114,
          "durationTicks": 256,
          "midi": 57,
          "name": "A3",
          "ticks": 33696,
          "time": 105.3,
          "velocity": 0.8661417322834646
        },
        {
          "duration": 1.6499999999999915,
          "durationTicks": 528,
          "midi": 40,
          "name": "E2",
          "ticks": 33984,
          "time": 106.2,
          "velocity": 0.8661417322834646
        },
        {
          "duration": 1.6499999999999915,
          "durationTicks": 528,
          "midi": 47,
          "name": "B2",
          "ticks": 33984,
          "time": 106.2,
          "velocity": 0.8661417322834646
        },
        {
          "duration": 1.6499999999999915,
          "durationTicks": 528,
          "midi": 52,
          "name": "E3",
          "ticks": 33984,
          "time": 106.2,
          "velocity": 0.8661417322834646
        },
        {
          "duration": 0.7999999999999972,
          "durationTicks": 256,
          "midi": 47,
          "name": "B2",
          "ticks": 34560,
          "time": 108,
          "velocity": 0.8661417322834646
        },
        {
          "duration": 0.7999999999999972,
          "durationTicks": 256,
          "midi": 54,
          "name": "F#3",
          "ticks": 34560,
          "time": 108,
          "velocity": 0.8661417322834646
        },
        {
          "duration": 0.7999999999999972,
          "durationTicks": 256,
          "midi": 59,
          "name": "B3",
          "ticks": 34560,
          "time": 108,
          "velocity": 0.8661417322834646
        },
        {
          "duration": 0.8000000000000114,
          "durationTicks": 256,
          "midi": 45,
          "name": "A2",
          "ticks": 34848,
          "time": 108.89999999999999,
          "velocity": 0.8661417322834646
        },
        {
          "duration": 0.8000000000000114,
          "durationTicks": 256,
          "midi": 52,
          "name": "E3",
          "ticks": 34848,
          "time": 108.89999999999999,
          "velocity": 0.8661417322834646
        },
        {
          "duration": 0.8000000000000114,
          "durationTicks": 256,
          "midi": 57,
          "name": "A3",
          "ticks": 34848,
          "time": 108.89999999999999,
          "velocity": 0.8661417322834646
        },
        {
          "duration": 1.6500000000000057,
          "durationTicks": 528,
          "midi": 40,
          "name": "E2",
          "ticks": 35136,
          "time": 109.8,
          "velocity": 0.8661417322834646
        },
        {
          "duration": 1.6500000000000057,
          "durationTicks": 528,
          "midi": 47,
          "name": "B2",
          "ticks": 35136,
          "time": 109.8,
          "velocity": 0.8661417322834646
        },
        {
          "duration": 1.6500000000000057,
          "durationTicks": 528,
          "midi": 52,
          "name": "E3",
          "ticks": 35136,
          "time": 109.8,
          "velocity": 0.8661417322834646
        },
        {
          "duration": 1.6500000000000057,
          "durationTicks": 528,
          "midi": 44,
          "name": "G#2",
          "ticks": 35712,
          "time": 111.6,
          "velocity": 0.8661417322834646
        },
        {
          "duration": 1.6500000000000057,
          "durationTicks": 528,
          "midi": 51,
          "name": "D#3",
          "ticks": 35712,
          "time": 111.6,
          "velocity": 0.8661417322834646
        },
        {
          "duration": 1.6500000000000057,
          "durationTicks": 528,
          "midi": 56,
          "name": "G#3",
          "ticks": 35712,
          "time": 111.6,
          "velocity": 0.8661417322834646
        },
        {
          "duration": 1.6500000000000057,
          "durationTicks": 528,
          "midi": 40,
          "name": "E2",
          "ticks": 36288,
          "time": 113.39999999999999,
          "velocity": 0.8661417322834646
        },
        {
          "duration": 1.6500000000000057,
          "durationTicks": 528,
          "midi": 47,
          "name": "B2",
          "ticks": 36288,
          "time": 113.39999999999999,
          "velocity": 0.8661417322834646
        },
        {
          "duration": 1.6500000000000057,
          "durationTicks": 528,
          "midi": 52,
          "name": "E3",
          "ticks": 36288,
          "time": 113.39999999999999,
          "velocity": 0.8661417322834646
        },
        {
          "duration": 1.6500000000000057,
          "durationTicks": 528,
          "midi": 44,
          "name": "G#2",
          "ticks": 36864,
          "time": 115.19999999999999,
          "velocity": 0.8661417322834646
        },
        {
          "duration": 1.6500000000000057,
          "durationTicks": 528,
          "midi": 51,
          "name": "D#3",
          "ticks": 36864,
          "time": 115.19999999999999,
          "velocity": 0.8661417322834646
        },
        {
          "duration": 1.6500000000000057,
          "durationTicks": 528,
          "midi": 56,
          "name": "G#3",
          "ticks": 36864,
          "time": 115.19999999999999,
          "velocity": 0.8661417322834646
        },
        {
          "duration": 1.6499999999999915,
          "durationTicks": 528,
          "midi": 40,
          "name": "E2",
          "ticks": 37440,
          "time": 117,
          "velocity": 0.8661417322834646
        },
        {
          "duration": 1.6499999999999915,
          "durationTicks": 528,
          "midi": 47,
          "name": "B2",
          "ticks": 37440,
          "time": 117,
          "velocity": 0.8661417322834646
        },
        {
          "duration": 1.6499999999999915,
          "durationTicks": 528,
          "midi": 52,
          "name": "E3",
          "ticks": 37440,
          "time": 117,
          "velocity": 0.8661417322834646
        },
        {
          "duration": 1.6499999999999915,
          "durationTicks": 528,
          "midi": 42,
          "name": "F#2",
          "ticks": 38016,
          "time": 118.8,
          "velocity": 0.8661417322834646
        },
        {
          "duration": 1.6499999999999915,
          "durationTicks": 528,
          "midi": 49,
          "name": "C#3",
          "ticks": 38016,
          "time": 118.8,
          "velocity": 0.8661417322834646
        },
        {
          "duration": 1.6499999999999915,
          "durationTicks": 528,
          "midi": 54,
          "name": "F#3",
          "ticks": 38016,
          "time": 118.8,
          "velocity": 0.8661417322834646
        },
        {
          "duration": 5.25,
          "durationTicks": 1680,
          "midi": 44,
          "name": "G#2",
          "ticks": 38592,
          "time": 120.6,
          "velocity": 0.8661417322834646
        },
        {
          "duration": 5.25,
          "durationTicks": 1680,
          "midi": 51,
          "name": "D#3",
          "ticks": 38592,
          "time": 120.6,
          "velocity": 0.8661417322834646
        },
        {
          "duration": 5.25,
          "durationTicks": 1680,
          "midi": 56,
          "name": "G#3",
          "ticks": 38592,
          "time": 120.6,
          "velocity": 0.8661417322834646
        }
      ]
    },
    {
      "channel": 2,
      "controlChanges": {
        "7": [
          {
            "number": 7,
            "ticks": 0,
            "time": 0,
            "value": 0.8188976377952756
          }
        ],
        "10": [
          {
            "number": 10,
            "ticks": 0,
            "time": 0,
            "value": 0.5826771653543307
          }
        ]
      },
      "pitchBends": [],
      "instrument": {
        "family": "ensemble",
        "name": "string ensemble 1",
        "number": 48
      },
      "name": "",
      "notes": [
        {
          "duration": 0.29374999999999996,
          "durationTicks": 94,
          "midi": 70,
          "name": "A#4",
          "ticks": 480,
          "time": 1.5,
          "velocity": 0.8661417322834646
        },
        {
          "duration": 0.2937500000000002,
          "durationTicks": 94,
          "midi": 68,
          "name": "G#4",
          "ticks": 576,
          "time": 1.7999999999999998,
          "velocity": 0.8661417322834646
        },
        {
          "duration": 0.29374999999999973,
          "durationTicks": 94,
          "midi": 70,
          "name": "A#4",
          "ticks": 672,
          "time": 2.1,
          "velocity": 0.8661417322834646
        },
        {
          "duration": 0.29374999999999973,
          "durationTicks": 94,
          "midi": 71,
          "name": "B4",
          "ticks": 768,
          "time": 2.4,
          "velocity": 0.8661417322834646
        },
        {
          "duration": 0.2937500000000002,
          "durationTicks": 94,
          "midi": 71,
          "name": "B4",
          "ticks": 864,
          "time": 2.6999999999999997,
          "velocity": 0.8661417322834646
        },
        {
          "duration": 0.29374999999999973,
          "durationTicks": 94,
          "midi": 70,
          "name": "A#4",
          "ticks": 960,
          "time": 3,
          "velocity": 0.8661417322834646
        },
        {
          "duration": 0.29374999999999973,
          "durationTicks": 94,
          "midi": 68,
          "name": "G#4",
          "ticks": 1056,
          "time": 3.3,
          "velocity": 0.8661417322834646
        },
        {
          "duration": 0.2937500000000002,
          "durationTicks": 94,
          "midi": 67,
          "name": "G4",
          "ticks": 1152,
          "time": 3.5999999999999996,
          "velocity": 0.8661417322834646
        },
        {
          "duration": 0.29374999999999973,
          "durationTicks": 94,
          "midi": 65,
          "name": "F4",
          "ticks": 1248,
          "time": 3.9,
          "velocity": 0.8661417322834646
        },
        {
          "duration": 0.2937499999999993,
          "durationTicks": 94,
          "midi": 67,
          "name": "G4",
          "ticks": 1344,
          "time": 4.2,
          "velocity": 0.8661417322834646
        },
        {
          "duration": 0.2937499999999993,
          "durationTicks": 94,
          "midi": 70,
          "name": "A#4",
          "ticks": 1440,
          "time": 4.5,
          "velocity": 0.8661417322834646
        },
        {
          "duration": 0.2937500000000002,
          "durationTicks": 94,
          "midi": 68,
          "name": "G#4",
          "ticks": 1536,
          "time": 4.8,
          "velocity": 0.8661417322834646
        },
        {
          "duration": 0.2937500000000002,
          "durationTicks": 94,
          "midi": 68,
          "name": "G#4",
          "ticks": 1632,
          "time": 5.1,
          "velocity": 0.8661417322834646
        },
        {
          "duration": 0.29375000000000107,
          "durationTicks": 94,
          "midi": 70,
          "name": "A#4",
          "ticks": 1728,
          "time": 5.3999999999999995,
          "velocity": 0.8661417322834646
        },
        {
          "duration": 0.2937500000000002,
          "durationTicks": 94,
          "midi": 68,
          "name": "G#4",
          "ticks": 1824,
          "time": 5.7,
          "velocity": 0.8661417322834646
        },
        {
          "duration": 0.2937500000000002,
          "durationTicks": 94,
          "midi": 68,
          "name": "G#4",
          "ticks": 1920,
          "time": 6,
          "velocity": 0.8661417322834646
        },
        {
          "duration": 0.2937500000000002,
          "durationTicks": 94,
          "midi": 68,
          "name": "G#4",
          "ticks": 2016,
          "time": 6.3,
          "velocity": 0.8661417322834646
        },
        {
          "duration": 0.2937500000000002,
          "durationTicks": 94,
          "midi": 70,
          "name": "A#4",
          "ticks": 2112,
          "time": 6.6,
          "velocity": 0.8661417322834646
        },
        {
          "duration": 0.29375000000000107,
          "durationTicks": 94,
          "midi": 71,
          "name": "B4",
          "ticks": 2208,
          "time": 6.8999999999999995,
          "velocity": 0.8661417322834646
        },
        {
          "duration": 1.6500000000000004,
          "durationTicks": 528,
          "midi": 68,
          "name": "G#4",
          "ticks": 2304,
          "time": 7.199999999999999,
          "velocity": 0.8661417322834646
        },
        {
          "duration": 1.6500000000000004,
          "durationTicks": 528,
          "midi": 66,
          "name": "F#4",
          "ticks": 2880,
          "time": 9,
          "velocity": 0.8661417322834646
        },
        {
          "duration": 0.2937499999999993,
          "durationTicks": 94,
          "midi": 70,
          "name": "A#4",
          "ticks": 3456,
          "time": 10.799999999999999,
          "velocity": 0.8661417322834646
        },
        {
          "duration": 0.59375,
          "durationTicks": 190,
          "midi": 68,
          "name": "G#4",
          "ticks": 3552,
          "time": 11.1,
          "velocity": 0.8661417322834646
        },
        {
          "duration": 0.2937499999999993,
          "durationTicks": 94,
          "midi": 66,
          "name": "F#4",
          "ticks": 3744,
          "time": 11.7,
          "velocity": 0.8661417322834646
        },
        {
          "duration": 0.2937499999999993,
          "durationTicks": 94,
          "midi": 68,
          "name": "G#4",
          "ticks": 3840,
          "time": 12,
          "velocity": 0.8661417322834646
        },
        {
          "duration": 0.2937499999999993,
          "durationTicks": 94,
          "midi": 71,
          "name": "B4",
          "ticks": 3936,
          "time": 12.299999999999999,
          "velocity": 0.8661417322834646
        },
        {
          "duration": 0.7999999999999989,
          "durationTicks": 256,
          "midi": 73,
          "name": "C#5",
          "ticks": 4032,
          "time": 12.6,
          "velocity": 0.8661417322834646
        },
        {
          "duration": 0.7999999999999989,
          "durationTicks": 256,
          "midi": 71,
          "name": "B4",
          "ticks": 4320,
          "time": 13.5,
          "velocity": 0.8661417322834646
        },
        {
          "duration": 1.6500000000000021,
          "durationTicks": 528,
          "midi": 64,
          "name": "E4",
          "ticks": 4608,
          "time": 14.399999999999999,
          "velocity": 0.8661417322834646
        },
        {
          "duration": 0.8000000000000007,
          "durationTicks": 256,
          "midi": 73,
          "name": "C#5",
          "ticks": 5184,
          "time": 16.2,
          "velocity": 0.8661417322834646
        },
        {
          "duration": 0.8000000000000007,
          "durationTicks": 256,
          "midi": 71,
          "name": "B4",
          "ticks": 5472,
          "time": 17.099999999999998,
          "velocity": 0.8661417322834646
        },
        {
          "duration": 1.6499999999999986,
          "durationTicks": 528,
          "midi": 68,
          "name": "G#4",
          "ticks": 5760,
          "time": 18,
          "velocity": 0.8661417322834646
        },
        {
          "duration": 0.5,
          "durationTicks": 160,
          "midi": 68,
          "name": "G#4",
          "ticks": 6336,
          "time": 19.8,
          "velocity": 0.8661417322834646
        },
        {
          "duration": 0.29375000000000284,
          "durationTicks": 94,
          "midi": 68,
          "name": "G#4",
          "ticks": 6528,
          "time": 20.4,
          "velocity": 0.8661417322834646
        },
        {
          "duration": 0.29375000000000284,
          "durationTicks": 94,
          "midi": 68,
          "name": "G#4",
          "ticks": 6624,
          "time": 20.7,
          "velocity": 0.8661417322834646
        },
        {
          "duration": 0.2937499999999993,
          "durationTicks": 94,
          "midi": 70,
          "name": "A#4",
          "ticks": 6720,
          "time": 21,
          "velocity": 0.8661417322834646
        },
        {
          "duration": 0.2937499999999993,
          "durationTicks": 94,
          "midi": 68,
          "name": "G#4",
          "ticks": 6816,
          "time": 21.3,
          "velocity": 0.8661417322834646
        },
        {
          "duration": 1.6500000000000021,
          "durationTicks": 528,
          "midi": 64,
          "name": "E4",
          "ticks": 6912,
          "time": 21.599999999999998,
          "velocity": 0.8661417322834646
        },
        {
          "duration": 0.8000000000000007,
          "durationTicks": 256,
          "midi": 68,
          "name": "G#4",
          "ticks": 7488,
          "time": 23.4,
          "velocity": 0.8661417322834646
        },
        {
          "duration": 0.2937499999999993,
          "durationTicks": 94,
          "midi": 68,
          "name": "G#4",
          "ticks": 7776,
          "time": 24.3,
          "velocity": 0.8661417322834646
        },
        {
          "duration": 0.29375000000000284,
          "durationTicks": 94,
          "midi": 70,
          "name": "A#4",
          "ticks": 7872,
          "time": 24.599999999999998,
          "velocity": 0.8661417322834646
        },
        {
          "duration": 0.29375000000000284,
          "durationTicks": 94,
          "midi": 68,
          "name": "G#4",
          "ticks": 7968,
          "time": 24.9,
          "velocity": 0.8661417322834646
        },
        {
          "duration": 0.8000000000000007,
          "durationTicks": 256,
          "midi": 71,
          "name": "B4",
          "ticks": 8064,
          "time": 25.2,
          "velocity": 0.8661417322834646
        },
        {
          "duration": 0.8000000000000043,
          "durationTicks": 256,
          "midi": 70,
          "name": "A#4",
          "ticks": 8352,
          "time": 26.099999999999998,
          "velocity": 0.8661417322834646
        },
        {
          "duration": 0.8000000000000007,
          "durationTicks": 256,
          "midi": 66,
          "name": "F#4",
          "ticks": 8640,
          "time": 27,
          "velocity": 0.8661417322834646
        },
        {
          "duration": 0.8000000000000007,
          "durationTicks": 256,
          "midi": 68,
          "name": "G#4",
          "ticks": 8928,
          "time": 27.9,
          "velocity": 0.8661417322834646
        },
        {
          "duration": 3.293750000000003,
          "durationTicks": 1054,
          "midi": 68,
          "name": "G#4",
          "ticks": 9216,
          "time": 28.799999999999997,
          "velocity": 0.8661417322834646
        },
        {
          "duration": 0.29374999999999574,
          "durationTicks": 94,
          "midi": 70,
          "name": "A#4",
          "ticks": 10272,
          "time": 32.1,
          "velocity": 0.8661417322834646
        },
        {
          "duration": 0.29375000000000284,
          "durationTicks": 94,
          "midi": 68,
          "name": "G#4",
          "ticks": 10368,
          "time": 32.4,
          "velocity": 0.8661417322834646
        },
        {
          "duration": 0.29375000000000284,
          "durationTicks": 94,
          "midi": 70,
          "name": "A#4",
          "ticks": 10464,
          "time": 32.699999999999996,
          "velocity": 0.8661417322834646
        },
        {
          "duration": 0.29375000000000284,
          "durationTicks": 94,
          "midi": 71,
          "name": "B4",
          "ticks": 10560,
          "time": 33,
          "velocity": 0.8661417322834646
        },
        {
          "duration": 0.29375000000000284,
          "durationTicks": 94,
          "midi": 71,
          "name": "B4",
          "ticks": 10656,
          "time": 33.3,
          "velocity": 0.8661417322834646
        },
        {
          "duration": 0.29374999999999574,
          "durationTicks": 94,
          "midi": 70,
          "name": "A#4",
          "ticks": 10752,
          "time": 33.6,
          "velocity": 0.8661417322834646
        },
        {
          "duration": 0.29375000000000284,
          "durationTicks": 94,
          "midi": 68,
          "name": "G#4",
          "ticks": 10848,
          "time": 33.9,
          "velocity": 0.8661417322834646
        },
        {
          "duration": 0.29375000000000284,
          "durationTicks": 94,
          "midi": 67,
          "name": "G4",
          "ticks": 10944,
          "time": 34.199999999999996,
          "velocity": 0.8661417322834646
        },
        {
          "duration": 0.29375000000000284,
          "durationTicks": 94,
          "midi": 65,
          "name": "F4",
          "ticks": 11040,
          "time": 34.5,
          "velocity": 0.8661417322834646
        },
        {
          "duration": 0.29375000000000284,
          "durationTicks": 94,
          "midi": 67,
          "name": "G4",
          "ticks": 11136,
          "time": 34.8,
          "velocity": 0.8661417322834646
        },
        {
          "duration": 0.29374999999999574,
          "durationTicks": 94,
          "midi": 70,
          "name": "A#4",
          "ticks": 11232,
          "time": 35.1,
          "velocity": 0.8661417322834646
        },
        {
          "duration": 0.29375000000000284,
          "durationTicks": 94,
          "midi": 68,
          "name": "G#4",
          "ticks": 11328,
          "time": 35.4,
          "velocity": 0.8661417322834646
        },
        {
          "duration": 0.29375000000000284,
          "durationTicks": 94,
          "midi": 68,
          "name": "G#4",
          "ticks": 11424,
          "time": 35.699999999999996,
          "velocity": 0.8661417322834646
        },
        {
          "duration": 0.29375000000000284,
          "durationTicks": 94,
          "midi": 70,
          "name": "A#4",
          "ticks": 11520,
          "time": 36,
          "velocity": 0.8661417322834646
        },
        {
          "duration": 0.29375000000000284,
          "durationTicks": 94,
          "midi": 68,
          "name": "G#4",
          "ticks": 11616,
          "time": 36.3,
          "velocity": 0.8661417322834646
        },
        {
          "duration": 0.29374999999999574,
          "durationTicks": 94,
          "midi": 68,
          "name": "G#4",
          "ticks": 11712,
          "time": 36.6,
          "velocity": 0.8661417322834646
        },
        {
          "duration": 0.29375000000000284,
          "durationTicks": 94,
          "midi": 68,
          "name": "G#4",
          "ticks": 11808,
          "time": 36.9,
          "velocity": 0.8661417322834646
        },
        {
          "duration": 0.29375000000000284,
          "durationTicks": 94,
          "midi": 70,
          "name": "A#4",
          "ticks": 11904,
          "time": 37.199999999999996,
          "velocity": 0.8661417322834646
        },
        {
          "duration": 0.29375000000000284,
          "durationTicks": 94,
          "midi": 71,
          "name": "B4",
          "ticks": 12000,
          "time": 37.5,
          "velocity": 0.8661417322834646
        },
        {
          "duration": 1.6499999999999986,
          "durationTicks": 528,
          "midi": 68,
          "name": "G#4",
          "ticks": 12096,
          "time": 37.8,
          "velocity": 0.8661417322834646
        },
        {
          "duration": 1.6499999999999986,
          "durationTicks": 528,
          "midi": 66,
          "name": "F#4",
          "ticks": 12672,
          "time": 39.6,
          "velocity": 0.8661417322834646
        },
        {
          "duration": 0.29374999999999574,
          "durationTicks": 94,
          "midi": 70,
          "name": "A#4",
          "ticks": 13248,
          "time": 41.4,
          "velocity": 0.8661417322834646
        },
        {
          "duration": 0.59375,
          "durationTicks": 190,
          "midi": 68,
          "name": "G#4",
          "ticks": 13344,
          "time": 41.699999999999996,
          "velocity": 0.8661417322834646
        },
        {
          "duration": 0.29374999999999574,
          "durationTicks": 94,
          "midi": 66,
          "name": "F#4",
          "ticks": 13536,
          "time": 42.3,
          "velocity": 0.8661417322834646
        },
        {
          "duration": 0.29374999999999574,
          "durationTicks": 94,
          "midi": 68,
          "name": "G#4",
          "ticks": 13632,
          "time": 42.6,
          "velocity": 0.8661417322834646
        },
        {
          "duration": 0.29374999999999574,
          "durationTicks": 94,
          "midi": 71,
          "name": "B4",
          "ticks": 13728,
          "time": 42.9,
          "velocity": 0.8661417322834646
        },
        {
          "duration": 0.7999999999999972,
          "durationTicks": 256,
          "midi": 73,
          "name": "C#5",
          "ticks": 13824,
          "time": 43.199999999999996,
          "velocity": 0.8661417322834646
        },
        {
          "duration": 0.7999999999999972,
          "durationTicks": 256,
          "midi": 71,
          "name": "B4",
          "ticks": 14112,
          "time": 44.1,
          "velocity": 0.8661417322834646
        },
        {
          "duration": 1.6499999999999986,
          "durationTicks": 528,
          "midi": 64,
          "name": "E4",
          "ticks": 14400,
          "time": 45,
          "velocity": 0.8661417322834646
        },
        {
          "duration": 0.7999999999999972,
          "durationTicks": 256,
          "midi": 73,
          "name": "C#5",
          "ticks": 14976,
          "time": 46.8,
          "velocity": 0.8661417322834646
        },
        {
          "duration": 0.7999999999999972,
          "durationTicks": 256,
          "midi": 71,
          "name": "B4",
          "ticks": 15264,
          "time": 47.699999999999996,
          "velocity": 0.8661417322834646
        },
        {
          "duration": 1.6499999999999986,
          "durationTicks": 528,
          "midi": 68,
          "name": "G#4",
          "ticks": 15552,
          "time": 48.6,
          "velocity": 0.8661417322834646
        },
        {
          "duration": 0.5,
          "durationTicks": 160,
          "midi": 68,
          "name": "G#4",
          "ticks": 16128,
          "time": 50.4,
          "velocity": 0.8661417322834646
        },
        {
          "duration": 0.29374999999999574,
          "durationTicks": 94,
          "midi": 68,
          "name": "G#4",
          "ticks": 16320,
          "time": 51,
          "velocity": 0.8661417322834646
        },
        {
          "duration": 0.29374999999999574,
          "durationTicks": 94,
          "midi": 68,
          "name": "G#4",
          "ticks": 16416,
          "time": 51.3,
          "velocity": 0.8661417322834646
        },
        {
          "duration": 0.29374999999999574,
          "durationTicks": 94,
          "midi": 70,
          "name": "A#4",
          "ticks": 16512,
          "time": 51.6,
          "velocity": 0.8661417322834646
        },
        {
          "duration": 0.29374999999999574,
          "durationTicks": 94,
          "midi": 68,
          "name": "G#4",
          "ticks": 16608,
          "time": 51.9,
          "velocity": 0.8661417322834646
        },
        {
          "duration": 1.6500000000000057,
          "durationTicks": 528,
          "midi": 64,
          "name": "E4",
          "ticks": 16704,
          "time": 52.199999999999996,
          "velocity": 0.8661417322834646
        },
        {
          "duration": 0.7999999999999972,
          "durationTicks": 256,
          "midi": 68,
          "name": "G#4",
          "ticks": 17280,
          "time": 54,
          "velocity": 0.8661417322834646
        },
        {
          "duration": 0.29374999999999574,
          "durationTicks": 94,
          "midi": 68,
          "name": "G#4",
          "ticks": 17568,
          "time": 54.9,
          "velocity": 0.8661417322834646
        },
        {
          "duration": 0.29375000000000284,
          "durationTicks": 94,
          "midi": 70,
          "name": "A#4",
          "ticks": 17664,
          "time": 55.199999999999996,
          "velocity": 0.8661417322834646
        },
        {
          "duration": 0.29374999999999574,
          "durationTicks": 94,
          "midi": 68,
          "name": "G#4",
          "ticks": 17760,
          "time": 55.5,
          "velocity": 0.8661417322834646
        },
        {
          "duration": 0.7999999999999972,
          "durationTicks": 256,
          "midi": 71,
          "name": "B4",
          "ticks": 17856,
          "time": 55.8,
          "velocity": 0.8661417322834646
        },
        {
          "duration": 0.7999999999999972,
          "durationTicks": 256,
          "midi": 70,
          "name": "A#4",
          "ticks": 18144,
          "time": 56.699999999999996,
          "velocity": 0.8661417322834646
        },
        {
          "duration": 0.7999999999999972,
          "durationTicks": 256,
          "midi": 66,
          "name": "F#4",
          "ticks": 18432,
          "time": 57.599999999999994,
          "velocity": 0.8661417322834646
        },
        {
          "duration": 0.7999999999999972,
          "durationTicks": 256,
          "midi": 68,
          "name": "G#4",
          "ticks": 18720,
          "time": 58.5,
          "velocity": 0.8661417322834646
        },
        {
          "duration": 3.4499999999999957,
          "durationTicks": 1104,
          "midi": 68,
          "name": "G#4",
          "ticks": 19008,
          "time": 59.4,
          "velocity": 0.8661417322834646
        },
        {
          "duration": 0.29375000000000284,
          "durationTicks": 94,
          "midi": 70,
          "name": "A#4",
          "ticks": 29856,
          "time": 93.3,
          "velocity": 0.8661417322834646
        },
        {
          "duration": 0.29375000000000284,
          "durationTicks": 94,
          "midi": 68,
          "name": "G#4",
          "ticks": 29952,
          "time": 93.6,
          "velocity": 0.8661417322834646
        },
        {
          "duration": 0.29375000000001705,
          "durationTicks": 94,
          "midi": 70,
          "name": "A#4",
          "ticks": 30048,
          "time": 93.89999999999999,
          "velocity": 0.8661417322834646
        },
        {
          "duration": 0.29375000000000284,
          "durationTicks": 94,
          "midi": 71,
          "name": "B4",
          "ticks": 30144,
          "time": 94.2,
          "velocity": 0.8661417322834646
        },
        {
          "duration": 0.29375000000000284,
          "durationTicks": 94,
          "midi": 71,
          "name": "B4",
          "ticks": 30240,
          "time": 94.5,
          "velocity": 0.8661417322834646
        },
        {
          "duration": 0.29375000000000284,
          "durationTicks": 94,
          "midi": 70,
          "name": "A#4",
          "ticks": 30336,
          "time": 94.8,
          "velocity": 0.8661417322834646
        },
        {
          "duration": 0.29375000000000284,
          "durationTicks": 94,
          "midi": 68,
          "name": "G#4",
          "ticks": 30432,
          "time": 95.1,
          "velocity": 0.8661417322834646
        },
        {
          "duration": 0.29375000000001705,
          "durationTicks": 94,
          "midi": 67,
          "name": "G4",
          "ticks": 30528,
          "time": 95.39999999999999,
          "velocity": 0.8661417322834646
        },
        {
          "duration": 0.29375000000000284,
          "durationTicks": 94,
          "midi": 65,
          "name": "F4",
          "ticks": 30624,
          "time": 95.7,
          "velocity": 0.8661417322834646
        },
        {
          "duration": 0.29375000000000284,
          "durationTicks": 94,
          "midi": 67,
          "name": "G4",
          "ticks": 30720,
          "time": 96,
          "velocity": 0.8661417322834646
        },
        {
          "duration": 0.29375000000000284,
          "durationTicks": 94,
          "midi": 70,
          "name": "A#4",
          "ticks": 30816,
          "time": 96.3,
          "velocity": 0.8661417322834646
        },
        {
          "duration": 0.29375000000000284,
          "durationTicks": 94,
          "midi": 68,
          "name": "G#4",
          "ticks": 30912,
          "time": 96.6,
          "velocity": 0.8661417322834646
        },
        {
          "duration": 0.29375000000001705,
          "durationTicks": 94,
          "midi": 68,
          "name": "G#4",
          "ticks": 31008,
          "time": 96.89999999999999,
          "velocity": 0.8661417322834646
        },
        {
          "duration": 0.29375000000000284,
          "durationTicks": 94,
          "midi": 70,
          "name": "A#4",
          "ticks": 31104,
          "time": 97.2,
          "velocity": 0.8661417322834646
        },
        {
          "duration": 0.29375000000000284,
          "durationTicks": 94,
          "midi": 68,
          "name": "G#4",
          "ticks": 31200,
          "time": 97.5,
          "velocity": 0.8661417322834646
        },
        {
          "duration": 0.29375000000000284,
          "durationTicks": 94,
          "midi": 68,
          "name": "G#4",
          "ticks": 31296,
          "time": 97.8,
          "velocity": 0.8661417322834646
        },
        {
          "duration": 0.29375000000000284,
          "durationTicks": 94,
          "midi": 68,
          "name": "G#4",
          "ticks": 31392,
          "time": 98.1,
          "velocity": 0.8661417322834646
        },
        {
          "duration": 0.29375000000001705,
          "durationTicks": 94,
          "midi": 70,
          "name": "A#4",
          "ticks": 31488,
          "time": 98.39999999999999,
          "velocity": 0.8661417322834646
        },
        {
          "duration": 0.29375000000000284,
          "durationTicks": 94,
          "midi": 71,
          "name": "B4",
          "ticks": 31584,
          "time": 98.7,
          "velocity": 0.8661417322834646
        },
        {
          "duration": 1.6499999999999915,
          "durationTicks": 528,
          "midi": 68,
          "name": "G#4",
          "ticks": 31680,
          "time": 99,
          "velocity": 0.8661417322834646
        },
        {
          "duration": 1.6500000000000057,
          "durationTicks": 528,
          "midi": 66,
          "name": "F#4",
          "ticks": 32256,
          "time": 100.8,
          "velocity": 0.8661417322834646
        },
        {
          "duration": 0.29375000000000284,
          "durationTicks": 94,
          "midi": 70,
          "name": "A#4",
          "ticks": 32832,
          "time": 102.6,
          "velocity": 0.8661417322834646
        },
        {
          "duration": 0.5937500000000142,
          "durationTicks": 190,
          "midi": 68,
          "name": "G#4",
          "ticks": 32928,
          "time": 102.89999999999999,
          "velocity": 0.8661417322834646
        },
        {
          "duration": 0.29375000000000284,
          "durationTicks": 94,
          "midi": 66,
          "name": "F#4",
          "ticks": 33120,
          "time": 103.5,
          "velocity": 0.8661417322834646
        },
        {
          "duration": 0.29375000000000284,
          "durationTicks": 94,
          "midi": 68,
          "name": "G#4",
          "ticks": 33216,
          "time": 103.8,
          "velocity": 0.8661417322834646
        },
        {
          "duration": 0.29375000000000284,
          "durationTicks": 94,
          "midi": 71,
          "name": "B4",
          "ticks": 33312,
          "time": 104.1,
          "velocity": 0.8661417322834646
        },
        {
          "duration": 0.8000000000000114,
          "durationTicks": 256,
          "midi": 73,
          "name": "C#5",
          "ticks": 33408,
          "time": 104.39999999999999,
          "velocity": 0.8661417322834646
        },
        {
          "duration": 0.8000000000000114,
          "durationTicks": 256,
          "midi": 71,
          "name": "B4",
          "ticks": 33696,
          "time": 105.3,
          "velocity": 0.8661417322834646
        },
        {
          "duration": 1.6499999999999915,
          "durationTicks": 528,
          "midi": 64,
          "name": "E4",
          "ticks": 33984,
          "time": 106.2,
          "velocity": 0.8661417322834646
        },
        {
          "duration": 0.7999999999999972,
          "durationTicks": 256,
          "midi": 73,
          "name": "C#5",
          "ticks": 34560,
          "time": 108,
          "velocity": 0.8661417322834646
        },
        {
          "duration": 0.8000000000000114,
          "durationTicks": 256,
          "midi": 71,
          "name": "B4",
          "ticks": 34848,
          "time": 108.89999999999999,
          "velocity": 0.8661417322834646
        },
        {
          "duration": 1.6500000000000057,
          "durationTicks": 528,
          "midi": 68,
          "name": "G#4",
          "ticks": 35136,
          "time": 109.8,
          "velocity": 0.8661417322834646
        },
        {
          "duration": 0.5000000000000142,
          "durationTicks": 160,
          "midi": 68,
          "name": "G#4",
          "ticks": 35712,
          "time": 111.6,
          "velocity": 0.8661417322834646
        },
        {
          "duration": 0.29375000000000284,
          "durationTicks": 94,
          "midi": 68,
          "name": "G#4",
          "ticks": 35904,
          "time": 112.2,
          "velocity": 0.8661417322834646
        },
        {
          "duration": 0.29375000000000284,
          "durationTicks": 94,
          "midi": 68,
          "name": "G#4",
          "ticks": 36000,
          "time": 112.5,
          "velocity": 0.8661417322834646
        },
        {
          "duration": 0.29375000000000284,
          "durationTicks": 94,
          "midi": 70,
          "name": "A#4",
          "ticks": 36096,
          "time": 112.8,
          "velocity": 0.8661417322834646
        },
        {
          "duration": 0.29375000000000284,
          "durationTicks": 94,
          "midi": 68,
          "name": "G#4",
          "ticks": 36192,
          "time": 113.1,
          "velocity": 0.8661417322834646
        },
        {
          "duration": 1.6500000000000057,
          "durationTicks": 528,
          "midi": 64,
          "name": "E4",
          "ticks": 36288,
          "time": 113.39999999999999,
          "velocity": 0.8661417322834646
        },
        {
          "duration": 0.8000000000000114,
          "durationTicks": 256,
          "midi": 68,
          "name": "G#4",
          "ticks": 36864,
          "time": 115.19999999999999,
          "velocity": 0.8661417322834646
        },
        {
          "duration": 0.29375000000000284,
          "durationTicks": 94,
          "midi": 68,
          "name": "G#4",
          "ticks": 37152,
          "time": 116.1,
          "velocity": 0.8661417322834646
        },
        {
          "duration": 0.29375000000000284,
          "durationTicks": 94,
          "midi": 70,
          "name": "A#4",
          "ticks": 37248,
          "time": 116.39999999999999,
          "velocity": 0.8661417322834646
        },
        {
          "duration": 0.29375000000001705,
          "durationTicks": 94,
          "midi": 68,
          "name": "G#4",
          "ticks": 37344,
          "time": 116.69999999999999,
          "velocity": 0.8661417322834646
        },
        {
          "duration": 0.7999999999999972,
          "durationTicks": 256,
          "midi": 71,
          "name": "B4",
          "ticks": 37440,
          "time": 117,
          "velocity": 0.8661417322834646
        },
        {
          "duration": 0.8000000000000114,
          "durationTicks": 256,
          "midi": 70,
          "name": "A#4",
          "ticks": 37728,
          "time": 117.89999999999999,
          "velocity": 0.8661417322834646
        },
        {
          "duration": 0.7999999999999972,
          "durationTicks": 256,
          "midi": 66,
          "name": "F#4",
          "ticks": 38016,
          "time": 118.8,
          "velocity": 0.8661417322834646
        },
        {
          "duration": 0.8000000000000114,
          "durationTicks": 256,
          "midi": 68,
          "name": "G#4",
          "ticks": 38304,
          "time": 119.69999999999999,
          "velocity": 0.8661417322834646
        },
        {
          "duration": 5.25,
          "durationTicks": 1680,
          "midi": 68,
          "name": "G#4",
          "ticks": 38592,
          "time": 120.6,
          "velocity": 0.8661417322834646
        }
      ]
    },
    {
      "channel": 3,
      "controlChanges": {
        "7": [
          {
            "number": 7,
            "ticks": 0,
            "time": 0,
            "value": 0.5039370078740157
          }
        ],
        "10": [
          {
            "number": 10,
            "ticks": 0,
            "time": 0,
            "value": 0.5039370078740157
          }
        ]
      },
      "pitchBends": [],
      "instrument": {
        "family": "bass",
        "name": "electric bass (finger)",
        "number": 33
      },
      "name": "",
      "notes": [
        {
          "duration": 0.7999999999999998,
          "durationTicks": 256,
          "midi": 32,
          "name": "G#1",
          "ticks": 576,
          "time": 1.7999999999999998,
          "velocity": 0.8661417322834646
        },
        {
          "duration": 0.7999999999999998,
          "durationTicks": 256,
          "midi": 32,
          "name": "G#1",
          "ticks": 864,
          "time": 2.6999999999999997,
          "velocity": 0.8661417322834646
        },
        {
          "duration": 0.7999999999999998,
          "durationTicks": 256,
          "midi": 29,
          "name": "F1",
          "ticks": 1152,
          "time": 3.5999999999999996,
          "velocity": 0.8661417322834646
        },
        {
          "duration": 0.7999999999999998,
          "durationTicks": 256,
          "midi": 32,
          "name": "G#1",
          "ticks": 1440,
          "time": 4.5,
          "velocity": 0.8661417322834646
        },
        {
          "duration": 0.8000000000000007,
          "durationTicks": 256,
          "midi": 32,
          "name": "G#1",
          "ticks": 1728,
          "time": 5.3999999999999995,
          "velocity": 0.8661417322834646
        },
        {
          "duration": 0.8000000000000007,
          "durationTicks": 256,
          "midi": 32,
          "name": "G#1",
          "ticks": 2016,
          "time": 6.3,
          "velocity": 0.8661417322834646
        },
        {
          "duration": 0.8000000000000007,
          "durationTicks": 256,
          "midi": 28,
          "name": "E1",
          "ticks": 2304,
          "time": 7.199999999999999,
          "velocity": 0.8661417322834646
        },
        {
          "duration": 0.8000000000000007,
          "durationTicks": 256,
          "midi": 28,
          "name": "E1",
          "ticks": 2592,
          "time": 8.1,
          "velocity": 0.8661417322834646
        },
        {
          "duration": 0.7999999999999989,
          "durationTicks": 256,
          "midi": 30,
          "name": "F#1",
          "ticks": 2880,
          "time": 9,
          "velocity": 0.8661417322834646
        },
        {
          "duration": 0.7999999999999989,
          "durationTicks": 256,
          "midi": 30,
          "name": "F#1",
          "ticks": 3168,
          "time": 9.9,
          "velocity": 0.8661417322834646
        },
        {
          "duration": 0.8000000000000007,
          "durationTicks": 256,
          "midi": 30,
          "name": "F#1",
          "ticks": 3456,
          "time": 10.799999999999999,
          "velocity": 0.8661417322834646
        },
        {
          "duration": 0.7999999999999989,
          "durationTicks": 256,
          "midi": 30,
          "name": "F#1",
          "ticks": 3744,
          "time": 11.7,
          "velocity": 0.8661417322834646
        },
        {
          "duration": 0.7999999999999989,
          "durationTicks": 256,
          "midi": 35,
          "name": "B1",
          "ticks": 4032,
          "time": 12.6,
          "velocity": 0.8661417322834646
        },
        {
          "duration": 0.7999999999999989,
          "durationTicks": 256,
          "midi": 33,
          "name": "A1",
          "ticks": 4320,
          "time": 13.5,
          "velocity": 0.8661417322834646
        },
        {
          "duration": 0.8000000000000007,
          "durationTicks": 256,
          "midi": 28,
          "name": "E1",
          "ticks": 4608,
          "time": 14.399999999999999,
          "velocity": 0.8661417322834646
        },
        {
          "duration": 0.7999999999999989,
          "durationTicks": 256,
          "midi": 28,
          "name": "E1",
          "ticks": 4896,
          "time": 15.299999999999999,
          "velocity": 0.8661417322834646
        },
        {
          "duration": 0.8000000000000007,
          "durationTicks": 256,
          "midi": 35,
          "name": "B1",
          "ticks": 5184,
          "time": 16.2,
          "velocity": 0.8661417322834646
        },
        {
          "duration": 0.8000000000000007,
          "durationTicks": 256,
          "midi": 33,
          "name": "A1",
          "ticks": 5472,
          "time": 17.099999999999998,
          "velocity": 0.8661417322834646
        },
        {
          "duration": 0.7999999999999972,
          "durationTicks": 256,
          "midi": 28,
          "name": "E1",
          "ticks": 5760,
          "time": 18,
          "velocity": 0.8661417322834646
        },
        {
          "duration": 0.8000000000000007,
          "durationTicks": 256,
          "midi": 28,
          "name": "E1",
          "ticks": 6048,
          "time": 18.9,
          "velocity": 0.8661417322834646
        },
        {
          "duration": 0.8000000000000007,
          "durationTicks": 256,
          "midi": 32,
          "name": "G#1",
          "ticks": 6336,
          "time": 19.8,
          "velocity": 0.8661417322834646
        },
        {
          "duration": 0.8000000000000007,
          "durationTicks": 256,
          "midi": 32,
          "name": "G#1",
          "ticks": 6624,
          "time": 20.7,
          "velocity": 0.8661417322834646
        },
        {
          "duration": 0.8000000000000043,
          "durationTicks": 256,
          "midi": 28,
          "name": "E1",
          "ticks": 6912,
          "time": 21.599999999999998,
          "velocity": 0.8661417322834646
        },
        {
          "duration": 0.8000000000000007,
          "durationTicks": 256,
          "midi": 28,
          "name": "E1",
          "ticks": 7200,
          "time": 22.5,
          "velocity": 0.8661417322834646
        },
        {
          "duration": 0.8000000000000007,
          "durationTicks": 256,
          "midi": 32,
          "name": "G#1",
          "ticks": 7488,
          "time": 23.4,
          "velocity": 0.8661417322834646
        },
        {
          "duration": 0.8000000000000007,
          "durationTicks": 256,
          "midi": 32,
          "name": "G#1",
          "ticks": 7776,
          "time": 24.3,
          "velocity": 0.8661417322834646
        },
        {
          "duration": 0.8000000000000007,
          "durationTicks": 256,
          "midi": 28,
          "name": "E1",
          "ticks": 8064,
          "time": 25.2,
          "velocity": 0.8661417322834646
        },
        {
          "duration": 0.8000000000000043,
          "durationTicks": 256,
          "midi": 28,
          "name": "E1",
          "ticks": 8352,
          "time": 26.099999999999998,
          "velocity": 0.8661417322834646
        },
        {
          "duration": 0.8000000000000007,
          "durationTicks": 256,
          "midi": 30,
          "name": "F#1",
          "ticks": 8640,
          "time": 27,
          "velocity": 0.8661417322834646
        },
        {
          "duration": 0.8000000000000007,
          "durationTicks": 256,
          "midi": 30,
          "name": "F#1",
          "ticks": 8928,
          "time": 27.9,
          "velocity": 0.8661417322834646
        },
        {
          "duration": 0.8000000000000043,
          "durationTicks": 256,
          "midi": 32,
          "name": "G#1",
          "ticks": 9216,
          "time": 28.799999999999997,
          "velocity": 0.8661417322834646
        },
        {
          "duration": 0.8000000000000007,
          "durationTicks": 256,
          "midi": 32,
          "name": "G#1",
          "ticks": 9504,
          "time": 29.7,
          "velocity": 0.8661417322834646
        },
        {
          "duration": 0.8000000000000007,
          "durationTicks": 256,
          "midi": 32,
          "name": "G#1",
          "ticks": 9792,
          "time": 30.599999999999998,
          "velocity": 0.8661417322834646
        },
        {
          "duration": 0.7999999999999972,
          "durationTicks": 256,
          "midi": 32,
          "name": "G#1",
          "ticks": 10080,
          "time": 31.5,
          "velocity": 0.8661417322834646
        },
        {
          "duration": 0.8000000000000043,
          "durationTicks": 256,
          "midi": 32,
          "name": "G#1",
          "ticks": 10368,
          "time": 32.4,
          "velocity": 0.8661417322834646
        },
        {
          "duration": 0.8000000000000043,
          "durationTicks": 256,
          "midi": 32,
          "name": "G#1",
          "ticks": 10656,
          "time": 33.3,
          "velocity": 0.8661417322834646
        },
        {
          "duration": 0.8000000000000043,
          "durationTicks": 256,
          "midi": 29,
          "name": "F1",
          "ticks": 10944,
          "time": 34.199999999999996,
          "velocity": 0.8661417322834646
        },
        {
          "duration": 0.7999999999999972,
          "durationTicks": 256,
          "midi": 32,
          "name": "G#1",
          "ticks": 11232,
          "time": 35.1,
          "velocity": 0.8661417322834646
        },
        {
          "duration": 0.7999999999999972,
          "durationTicks": 256,
          "midi": 32,
          "name": "G#1",
          "ticks": 11520,
          "time": 36,
          "velocity": 0.8661417322834646
        },
        {
          "duration": 0.8000000000000043,
          "durationTicks": 256,
          "midi": 32,
          "name": "G#1",
          "ticks": 11808,
          "time": 36.9,
          "velocity": 0.8661417322834646
        },
        {
          "duration": 0.7999999999999972,
          "durationTicks": 256,
          "midi": 28,
          "name": "E1",
          "ticks": 12096,
          "time": 37.8,
          "velocity": 0.8661417322834646
        },
        {
          "duration": 0.7999999999999972,
          "durationTicks": 256,
          "midi": 28,
          "name": "E1",
          "ticks": 12384,
          "time": 38.699999999999996,
          "velocity": 0.8661417322834646
        },
        {
          "duration": 0.7999999999999972,
          "durationTicks": 256,
          "midi": 30,
          "name": "F#1",
          "ticks": 12672,
          "time": 39.6,
          "velocity": 0.8661417322834646
        },
        {
          "duration": 0.7999999999999972,
          "durationTicks": 256,
          "midi": 30,
          "name": "F#1",
          "ticks": 12960,
          "time": 40.5,
          "velocity": 0.8661417322834646
        },
        {
          "duration": 0.7999999999999972,
          "durationTicks": 256,
          "midi": 30,
          "name": "F#1",
          "ticks": 13248,
          "time": 41.4,
          "velocity": 0.8661417322834646
        },
        {
          "duration": 0.7999999999999972,
          "durationTicks": 256,
          "midi": 30,
          "name": "F#1",
          "ticks": 13536,
          "time": 42.3,
          "velocity": 0.8661417322834646
        },
        {
          "duration": 0.7999999999999972,
          "durationTicks": 256,
          "midi": 35,
          "name": "B1",
          "ticks": 13824,
          "time": 43.199999999999996,
          "velocity": 0.8661417322834646
        },
        {
          "duration": 0.7999999999999972,
          "durationTicks": 256,
          "midi": 33,
          "name": "A1",
          "ticks": 14112,
          "time": 44.1,
          "velocity": 0.8661417322834646
        },
        {
          "duration": 0.7999999999999972,
          "durationTicks": 256,
          "midi": 28,
          "name": "E1",
          "ticks": 14400,
          "time": 45,
          "velocity": 0.8661417322834646
        },
        {
          "duration": 0.7999999999999972,
          "durationTicks": 256,
          "midi": 28,
          "name": "E1",
          "ticks": 14688,
          "time": 45.9,
          "velocity": 0.8661417322834646
        },
        {
          "duration": 0.7999999999999972,
          "durationTicks": 256,
          "midi": 35,
          "name": "B1",
          "ticks": 14976,
          "time": 46.8,
          "velocity": 0.8661417322834646
        },
        {
          "duration": 0.7999999999999972,
          "durationTicks": 256,
          "midi": 33,
          "name": "A1",
          "ticks": 15264,
          "time": 47.699999999999996,
          "velocity": 0.8661417322834646
        },
        {
          "duration": 0.7999999999999972,
          "durationTicks": 256,
          "midi": 28,
          "name": "E1",
          "ticks": 15552,
          "time": 48.6,
          "velocity": 0.8661417322834646
        },
        {
          "duration": 0.7999999999999972,
          "durationTicks": 256,
          "midi": 28,
          "name": "E1",
          "ticks": 15840,
          "time": 49.5,
          "velocity": 0.8661417322834646
        },
        {
          "duration": 0.7999999999999972,
          "durationTicks": 256,
          "midi": 32,
          "name": "G#1",
          "ticks": 16128,
          "time": 50.4,
          "velocity": 0.8661417322834646
        },
        {
          "duration": 0.7999999999999972,
          "durationTicks": 256,
          "midi": 32,
          "name": "G#1",
          "ticks": 16416,
          "time": 51.3,
          "velocity": 0.8661417322834646
        },
        {
          "duration": 0.7999999999999972,
          "durationTicks": 256,
          "midi": 28,
          "name": "E1",
          "ticks": 16704,
          "time": 52.199999999999996,
          "velocity": 0.8661417322834646
        },
        {
          "duration": 0.7999999999999972,
          "durationTicks": 256,
          "midi": 28,
          "name": "E1",
          "ticks": 16992,
          "time": 53.1,
          "velocity": 0.8661417322834646
        },
        {
          "duration": 0.7999999999999972,
          "durationTicks": 256,
          "midi": 32,
          "name": "G#1",
          "ticks": 17280,
          "time": 54,
          "velocity": 0.8661417322834646
        },
        {
          "duration": 0.7999999999999972,
          "durationTicks": 256,
          "midi": 32,
          "name": "G#1",
          "ticks": 17568,
          "time": 54.9,
          "velocity": 0.8661417322834646
        },
        {
          "duration": 0.7999999999999972,
          "durationTicks": 256,
          "midi": 28,
          "name": "E1",
          "ticks": 17856,
          "time": 55.8,
          "velocity": 0.8661417322834646
        },
        {
          "duration": 0.7999999999999972,
          "durationTicks": 256,
          "midi": 28,
          "name": "E1",
          "ticks": 18144,
          "time": 56.699999999999996,
          "velocity": 0.8661417322834646
        },
        {
          "duration": 0.7999999999999972,
          "durationTicks": 256,
          "midi": 30,
          "name": "F#1",
          "ticks": 18432,
          "time": 57.599999999999994,
          "velocity": 0.8661417322834646
        },
        {
          "duration": 0.7999999999999972,
          "durationTicks": 256,
          "midi": 30,
          "name": "F#1",
          "ticks": 18720,
          "time": 58.5,
          "velocity": 0.8661417322834646
        },
        {
          "duration": 0.7999999999999972,
          "durationTicks": 256,
          "midi": 32,
          "name": "G#1",
          "ticks": 19008,
          "time": 59.4,
          "velocity": 0.8661417322834646
        },
        {
          "duration": 0.7999999999999972,
          "durationTicks": 256,
          "midi": 32,
          "name": "G#1",
          "ticks": 19296,
          "time": 60.3,
          "velocity": 0.8661417322834646
        },
        {
          "duration": 0.7999999999999972,
          "durationTicks": 256,
          "midi": 32,
          "name": "G#1",
          "ticks": 19584,
          "time": 61.199999999999996,
          "velocity": 0.8661417322834646
        },
        {
          "duration": 0.7999999999999972,
          "durationTicks": 256,
          "midi": 32,
          "name": "G#1",
          "ticks": 19872,
          "time": 62.099999999999994,
          "velocity": 0.8661417322834646
        },
        {
          "duration": 0.7999999999999972,
          "durationTicks": 256,
          "midi": 32,
          "name": "G#1",
          "ticks": 20160,
          "time": 63,
          "velocity": 0.8661417322834646
        },
        {
          "duration": 0.79999999999999,
          "durationTicks": 256,
          "midi": 32,
          "name": "G#1",
          "ticks": 20448,
          "time": 63.9,
          "velocity": 0.8661417322834646
        },
        {
          "duration": 0.7999999999999972,
          "durationTicks": 256,
          "midi": 29,
          "name": "F1",
          "ticks": 20736,
          "time": 64.8,
          "velocity": 0.8661417322834646
        },
        {
          "duration": 0.7999999999999972,
          "durationTicks": 256,
          "midi": 32,
          "name": "G#1",
          "ticks": 21024,
          "time": 65.7,
          "velocity": 0.8661417322834646
        },
        {
          "duration": 0.7999999999999972,
          "durationTicks": 256,
          "midi": 32,
          "name": "G#1",
          "ticks": 21312,
          "time": 66.6,
          "velocity": 0.8661417322834646
        },
        {
          "duration": 0.7999999999999972,
          "durationTicks": 256,
          "midi": 32,
          "name": "G#1",
          "ticks": 21600,
          "time": 67.5,
          "velocity": 0.8661417322834646
        },
        {
          "duration": 0.7999999999999972,
          "durationTicks": 256,
          "midi": 28,
          "name": "E1",
          "ticks": 21888,
          "time": 68.39999999999999,
          "velocity": 0.8661417322834646
        },
        {
          "duration": 0.7999999999999972,
          "durationTicks": 256,
          "midi": 28,
          "name": "E1",
          "ticks": 22176,
          "time": 69.3,
          "velocity": 0.8661417322834646
        },
        {
          "duration": 0.7999999999999972,
          "durationTicks": 256,
          "midi": 30,
          "name": "F#1",
          "ticks": 22464,
          "time": 70.2,
          "velocity": 0.8661417322834646
        },
        {
          "duration": 0.7999999999999972,
          "durationTicks": 256,
          "midi": 30,
          "name": "F#1",
          "ticks": 22752,
          "time": 71.1,
          "velocity": 0.8661417322834646
        },
        {
          "duration": 0.7999999999999972,
          "durationTicks": 256,
          "midi": 30,
          "name": "F#1",
          "ticks": 23040,
          "time": 72,
          "velocity": 0.8661417322834646
        },
        {
          "duration": 0.7999999999999972,
          "durationTicks": 256,
          "midi": 30,
          "name": "F#1",
          "ticks": 23328,
          "time": 72.89999999999999,
          "velocity": 0.8661417322834646
        },
        {
          "duration": 0.7999999999999972,
          "durationTicks": 256,
          "midi": 35,
          "name": "B1",
          "ticks": 23616,
          "time": 73.8,
          "velocity": 0.8661417322834646
        },
        {
          "duration": 0.7999999999999972,
          "durationTicks": 256,
          "midi": 33,
          "name": "A1",
          "ticks": 23904,
          "time": 74.7,
          "velocity": 0.8661417322834646
        },
        {
          "duration": 0.7999999999999972,
          "durationTicks": 256,
          "midi": 28,
          "name": "E1",
          "ticks": 24192,
          "time": 75.6,
          "velocity": 0.8661417322834646
        },
        {
          "duration": 0.7999999999999972,
          "durationTicks": 256,
          "midi": 28,
          "name": "E1",
          "ticks": 24480,
          "time": 76.5,
          "velocity": 0.8661417322834646
        },
        {
          "duration": 0.8000000000000114,
          "durationTicks": 256,
          "midi": 35,
          "name": "B1",
          "ticks": 24768,
          "time": 77.39999999999999,
          "velocity": 0.8661417322834646
        },
        {
          "duration": 0.8000000000000114,
          "durationTicks": 256,
          "midi": 33,
          "name": "A1",
          "ticks": 25056,
          "time": 78.3,
          "velocity": 0.8661417322834646
        },
        {
          "duration": 0.7999999999999972,
          "durationTicks": 256,
          "midi": 28,
          "name": "E1",
          "ticks": 25344,
          "time": 79.2,
          "velocity": 0.8661417322834646
        },
        {
          "duration": 0.8000000000000114,
          "durationTicks": 256,
          "midi": 28,
          "name": "E1",
          "ticks": 25632,
          "time": 80.1,
          "velocity": 0.8661417322834646
        },
        {
          "duration": 0.7999999999999972,
          "durationTicks": 256,
          "midi": 32,
          "name": "G#1",
          "ticks": 25920,
          "time": 81,
          "velocity": 0.8661417322834646
        },
        {
          "duration": 0.8000000000000114,
          "durationTicks": 256,
          "midi": 32,
          "name": "G#1",
          "ticks": 26208,
          "time": 81.89999999999999,
          "velocity": 0.8661417322834646
        },
        {
          "duration": 0.8000000000000114,
          "durationTicks": 256,
          "midi": 28,
          "name": "E1",
          "ticks": 26496,
          "time": 82.8,
          "velocity": 0.8661417322834646
        },
        {
          "duration": 0.7999999999999972,
          "durationTicks": 256,
          "midi": 28,
          "name": "E1",
          "ticks": 26784,
          "time": 83.7,
          "velocity": 0.8661417322834646
        },
        {
          "duration": 0.8000000000000114,
          "durationTicks": 256,
          "midi": 32,
          "name": "G#1",
          "ticks": 27072,
          "time": 84.6,
          "velocity": 0.8661417322834646
        },
        {
          "duration": 0.7999999999999972,
          "durationTicks": 256,
          "midi": 32,
          "name": "G#1",
          "ticks": 27360,
          "time": 85.5,
          "velocity": 0.8661417322834646
        },
        {
          "duration": 0.8000000000000114,
          "durationTicks": 256,
          "midi": 28,
          "name": "E1",
          "ticks": 27648,
          "time": 86.39999999999999,
          "velocity": 0.8661417322834646
        },
        {
          "duration": 0.8000000000000114,
          "durationTicks": 256,
          "midi": 28,
          "name": "E1",
          "ticks": 27936,
          "time": 87.3,
          "velocity": 0.8661417322834646
        },
        {
          "duration": 0.7999999999999972,
          "durationTicks": 256,
          "midi": 30,
          "name": "F#1",
          "ticks": 28224,
          "time": 88.2,
          "velocity": 0.8661417322834646
        },
        {
          "duration": 0.8000000000000114,
          "durationTicks": 256,
          "midi": 30,
          "name": "F#1",
          "ticks": 28512,
          "time": 89.1,
          "velocity": 0.8661417322834646
        },
        {
          "duration": 0.7999999999999972,
          "durationTicks": 256,
          "midi": 32,
          "name": "G#1",
          "ticks": 28800,
          "time": 90,
          "velocity": 0.8661417322834646
        },
        {
          "duration": 0.8000000000000114,
          "durationTicks": 256,
          "midi": 32,
          "name": "G#1",
          "ticks": 29088,
          "time": 90.89999999999999,
          "velocity": 0.8661417322834646
        },
        {
          "duration": 0.8000000000000114,
          "durationTicks": 256,
          "midi": 32,
          "name": "G#1",
          "ticks": 29376,
          "time": 91.8,
          "velocity": 0.8661417322834646
        },
        {
          "duration": 0.7999999999999972,
          "durationTicks": 256,
          "midi": 32,
          "name": "G#1",
          "ticks": 29664,
          "time": 92.7,
          "velocity": 0.8661417322834646
        },
        {
          "duration": 0.8000000000000114,
          "durationTicks": 256,
          "midi": 32,
          "name": "G#1",
          "ticks": 29952,
          "time": 93.6,
          "velocity": 0.8661417322834646
        },
        {
          "duration": 0.7999999999999972,
          "durationTicks": 256,
          "midi": 32,
          "name": "G#1",
          "ticks": 30240,
          "time": 94.5,
          "velocity": 0.8661417322834646
        },
        {
          "duration": 0.8000000000000114,
          "durationTicks": 256,
          "midi": 29,
          "name": "F1",
          "ticks": 30528,
          "time": 95.39999999999999,
          "velocity": 0.8661417322834646
        },
        {
          "duration": 0.8000000000000114,
          "durationTicks": 256,
          "midi": 32,
          "name": "G#1",
          "ticks": 30816,
          "time": 96.3,
          "velocity": 0.8661417322834646
        },
        {
          "duration": 0.7999999999999972,
          "durationTicks": 256,
          "midi": 32,
          "name": "G#1",
          "ticks": 31104,
          "time": 97.2,
          "velocity": 0.8661417322834646
        },
        {
          "duration": 0.8000000000000114,
          "durationTicks": 256,
          "midi": 32,
          "name": "G#1",
          "ticks": 31392,
          "time": 98.1,
          "velocity": 0.8661417322834646
        },
        {
          "duration": 0.7999999999999972,
          "durationTicks": 256,
          "midi": 28,
          "name": "E1",
          "ticks": 31680,
          "time": 99,
          "velocity": 0.8661417322834646
        },
        {
          "duration": 0.8000000000000114,
          "durationTicks": 256,
          "midi": 28,
          "name": "E1",
          "ticks": 31968,
          "time": 99.89999999999999,
          "velocity": 0.8661417322834646
        },
        {
          "duration": 0.8000000000000114,
          "durationTicks": 256,
          "midi": 30,
          "name": "F#1",
          "ticks": 32256,
          "time": 100.8,
          "velocity": 0.8661417322834646
        },
        {
          "duration": 0.7999999999999972,
          "durationTicks": 256,
          "midi": 30,
          "name": "F#1",
          "ticks": 32544,
          "time": 101.7,
          "velocity": 0.8661417322834646
        },
        {
          "duration": 0.8000000000000114,
          "durationTicks": 256,
          "midi": 30,
          "name": "F#1",
          "ticks": 32832,
          "time": 102.6,
          "velocity": 0.8661417322834646
        },
        {
          "duration": 0.7999999999999972,
          "durationTicks": 256,
          "midi": 30,
          "name": "F#1",
          "ticks": 33120,
          "time": 103.5,
          "velocity": 0.8661417322834646
        },
        {
          "duration": 0.8000000000000114,
          "durationTicks": 256,
          "midi": 35,
          "name": "B1",
          "ticks": 33408,
          "time": 104.39999999999999,
          "velocity": 0.8661417322834646
        },
        {
          "duration": 0.8000000000000114,
          "durationTicks": 256,
          "midi": 33,
          "name": "A1",
          "ticks": 33696,
          "time": 105.3,
          "velocity": 0.8661417322834646
        },
        {
          "duration": 0.7999999999999972,
          "durationTicks": 256,
          "midi": 28,
          "name": "E1",
          "ticks": 33984,
          "time": 106.2,
          "velocity": 0.8661417322834646
        },
        {
          "duration": 0.8000000000000114,
          "durationTicks": 256,
          "midi": 28,
          "name": "E1",
          "ticks": 34272,
          "time": 107.1,
          "velocity": 0.8661417322834646
        },
        {
          "duration": 0.7999999999999972,
          "durationTicks": 256,
          "midi": 35,
          "name": "B1",
          "ticks": 34560,
          "time": 108,
          "velocity": 0.8661417322834646
        },
        {
          "duration": 0.8000000000000114,
          "durationTicks": 256,
          "midi": 33,
          "name": "A1",
          "ticks": 34848,
          "time": 108.89999999999999,
          "velocity": 0.8661417322834646
        },
        {
          "duration": 0.8000000000000114,
          "durationTicks": 256,
          "midi": 28,
          "name": "E1",
          "ticks": 35136,
          "time": 109.8,
          "velocity": 0.8661417322834646
        },
        {
          "duration": 0.7999999999999972,
          "durationTicks": 256,
          "midi": 28,
          "name": "E1",
          "ticks": 35424,
          "time": 110.7,
          "velocity": 0.8661417322834646
        },
        {
          "duration": 0.8000000000000114,
          "durationTicks": 256,
          "midi": 32,
          "name": "G#1",
          "ticks": 35712,
          "time": 111.6,
          "velocity": 0.8661417322834646
        },
        {
          "duration": 0.7999999999999972,
          "durationTicks": 256,
          "midi": 32,
          "name": "G#1",
          "ticks": 36000,
          "time": 112.5,
          "velocity": 0.8661417322834646
        },
        {
          "duration": 0.8000000000000114,
          "durationTicks": 256,
          "midi": 28,
          "name": "E1",
          "ticks": 36288,
          "time": 113.39999999999999,
          "velocity": 0.8661417322834646
        },
        {
          "duration": 0.8000000000000114,
          "durationTicks": 256,
          "midi": 28,
          "name": "E1",
          "ticks": 36576,
          "time": 114.3,
          "velocity": 0.8661417322834646
        },
        {
          "duration": 0.8000000000000114,
          "durationTicks": 256,
          "midi": 32,
          "name": "G#1",
          "ticks": 36864,
          "time": 115.19999999999999,
          "velocity": 0.8661417322834646
        },
        {
          "duration": 0.8000000000000114,
          "durationTicks": 256,
          "midi": 32,
          "name": "G#1",
          "ticks": 37152,
          "time": 116.1,
          "velocity": 0.8661417322834646
        },
        {
          "duration": 0.7999999999999972,
          "durationTicks": 256,
          "midi": 28,
          "name": "E1",
          "ticks": 37440,
          "time": 117,
          "velocity": 0.8661417322834646
        },
        {
          "duration": 0.8000000000000114,
          "durationTicks": 256,
          "midi": 28,
          "name": "E1",
          "ticks": 37728,
          "time": 117.89999999999999,
          "velocity": 0.8661417322834646
        },
        {
          "duration": 0.7999999999999972,
          "durationTicks": 256,
          "midi": 30,
          "name": "F#1",
          "ticks": 38016,
          "time": 118.8,
          "velocity": 0.8661417322834646
        },
        {
          "duration": 0.8000000000000114,
          "durationTicks": 256,
          "midi": 30,
          "name": "F#1",
          "ticks": 38304,
          "time": 119.69999999999999,
          "velocity": 0.8661417322834646
        },
        {
          "duration": 0.8000000000000114,
          "durationTicks": 256,
          "midi": 32,
          "name": "G#1",
          "ticks": 38592,
          "time": 120.6,
          "velocity": 0.8661417322834646
        },
        {
          "duration": 0.7999999999999972,
          "durationTicks": 256,
          "midi": 32,
          "name": "G#1",
          "ticks": 38880,
          "time": 121.5,
          "velocity": 0.8661417322834646
        },
        {
          "duration": 0.8000000000000114,
          "durationTicks": 256,
          "midi": 32,
          "name": "G#1",
          "ticks": 39168,
          "time": 122.39999999999999,
          "velocity": 0.8661417322834646
        },
        {
          "duration": 0.7999999999999972,
          "durationTicks": 256,
          "midi": 32,
          "name": "G#1",
          "ticks": 39456,
          "time": 123.3,
          "velocity": 0.8661417322834646
        },
        {
          "duration": 1.6500000000000057,
          "durationTicks": 528,
          "midi": 32,
          "name": "G#1",
          "ticks": 39744,
          "time": 124.19999999999999,
          "velocity": 0.8661417322834646
        }
      ]
    },
    {
      "channel": 4,
      "controlChanges": {
        "7": [
          {
            "number": 7,
            "ticks": 0,
            "time": 0,
            "value": 0.8188976377952756
          }
        ],
        "10": [
          {
            "number": 10,
            "ticks": 0,
            "time": 0,
            "value": 0.3464566929133858
          }
        ]
      },
      "pitchBends": [],
      "instrument": {
        "family": "chromatic percussion",
        "name": "tubular bells",
        "number": 14
      },
      "name": "",
      "notes": [
        {
          "duration": 1.6500000000000004,
          "durationTicks": 528,
          "midi": 42,
          "name": "F#2",
          "ticks": 2880,
          "time": 9,
          "velocity": 0.8661417322834646
        },
        {
          "duration": 1.6500000000000004,
          "durationTicks": 528,
          "midi": 49,
          "name": "C#3",
          "ticks": 2880,
          "time": 9,
          "velocity": 0.8661417322834646
        },
        {
          "duration": 1.6500000000000004,
          "durationTicks": 528,
          "midi": 54,
          "name": "F#3",
          "ticks": 2880,
          "time": 9,
          "velocity": 0.8661417322834646
        },
        {
          "duration": 1.6499999999999986,
          "durationTicks": 528,
          "midi": 44,
          "name": "G#2",
          "ticks": 6336,
          "time": 19.8,
          "velocity": 0.8661417322834646
        },
        {
          "duration": 1.6499999999999986,
          "durationTicks": 528,
          "midi": 51,
          "name": "D#3",
          "ticks": 6336,
          "time": 19.8,
          "velocity": 0.8661417322834646
        },
        {
          "duration": 1.6499999999999986,
          "durationTicks": 528,
          "midi": 56,
          "name": "G#3",
          "ticks": 6336,
          "time": 19.8,
          "velocity": 0.8661417322834646
        },
        {
          "duration": 1.6499999999999986,
          "durationTicks": 528,
          "midi": 42,
          "name": "F#2",
          "ticks": 12672,
          "time": 39.6,
          "velocity": 0.8661417322834646
        },
        {
          "duration": 1.6499999999999986,
          "durationTicks": 528,
          "midi": 49,
          "name": "C#3",
          "ticks": 12672,
          "time": 39.6,
          "velocity": 0.8661417322834646
        },
        {
          "duration": 1.6499999999999986,
          "durationTicks": 528,
          "midi": 54,
          "name": "F#3",
          "ticks": 12672,
          "time": 39.6,
          "velocity": 0.8661417322834646
        },
        {
          "duration": 1.6499999999999986,
          "durationTicks": 528,
          "midi": 44,
          "name": "G#2",
          "ticks": 16128,
          "time": 50.4,
          "velocity": 0.8661417322834646
        },
        {
          "duration": 1.6499999999999986,
          "durationTicks": 528,
          "midi": 51,
          "name": "D#3",
          "ticks": 16128,
          "time": 50.4,
          "velocity": 0.8661417322834646
        },
        {
          "duration": 1.6499999999999986,
          "durationTicks": 528,
          "midi": 56,
          "name": "G#3",
          "ticks": 16128,
          "time": 50.4,
          "velocity": 0.8661417322834646
        },
        {
          "duration": 1.6499999999999915,
          "durationTicks": 528,
          "midi": 42,
          "name": "F#2",
          "ticks": 22464,
          "time": 70.2,
          "velocity": 0.8661417322834646
        },
        {
          "duration": 1.6499999999999915,
          "durationTicks": 528,
          "midi": 49,
          "name": "C#3",
          "ticks": 22464,
          "time": 70.2,
          "velocity": 0.8661417322834646
        },
        {
          "duration": 1.6499999999999915,
          "durationTicks": 528,
          "midi": 54,
          "name": "F#3",
          "ticks": 22464,
          "time": 70.2,
          "velocity": 0.8661417322834646
        },
        {
          "duration": 1.6499999999999915,
          "durationTicks": 528,
          "midi": 44,
          "name": "G#2",
          "ticks": 25920,
          "time": 81,
          "velocity": 0.8661417322834646
        },
        {
          "duration": 1.6499999999999915,
          "durationTicks": 528,
          "midi": 51,
          "name": "D#3",
          "ticks": 25920,
          "time": 81,
          "velocity": 0.8661417322834646
        },
        {
          "duration": 1.6499999999999915,
          "durationTicks": 528,
          "midi": 56,
          "name": "G#3",
          "ticks": 25920,
          "time": 81,
          "velocity": 0.8661417322834646
        },
        {
          "duration": 1.6500000000000057,
          "durationTicks": 528,
          "midi": 42,
          "name": "F#2",
          "ticks": 32256,
          "time": 100.8,
          "velocity": 0.8661417322834646
        },
        {
          "duration": 1.6500000000000057,
          "durationTicks": 528,
          "midi": 49,
          "name": "C#3",
          "ticks": 32256,
          "time": 100.8,
          "velocity": 0.8661417322834646
        },
        {
          "duration": 1.6500000000000057,
          "durationTicks": 528,
          "midi": 54,
          "name": "F#3",
          "ticks": 32256,
          "time": 100.8,
          "velocity": 0.8661417322834646
        },
        {
          "duration": 1.6500000000000057,
          "durationTicks": 528,
          "midi": 44,
          "name": "G#2",
          "ticks": 35712,
          "time": 111.6,
          "velocity": 0.8661417322834646
        },
        {
          "duration": 1.6500000000000057,
          "durationTicks": 528,
          "midi": 51,
          "name": "D#3",
          "ticks": 35712,
          "time": 111.6,
          "velocity": 0.8661417322834646
        },
        {
          "duration": 1.6500000000000057,
          "durationTicks": 528,
          "midi": 56,
          "name": "G#3",
          "ticks": 35712,
          "time": 111.6,
          "velocity": 0.8661417322834646
        }
      ]
    },
    {
      "channel": 5,
      "controlChanges": {
        "7": [
          {
            "number": 7,
            "ticks": 0,
            "time": 0,
            "value": 0.8976377952755905
          }
        ],
        "10": [
          {
            "number": 10,
            "ticks": 0,
            "time": 0,
            "value": 0.6614173228346457
          }
        ]
      },
      "pitchBends": [],
      "instrument": {
        "family": "chromatic percussion",
        "name": "tubular bells",
        "number": 14
      },
      "name": "",
      "notes": [
        {
          "duration": 1.6500000000000004,
          "durationTicks": 528,
          "midi": 42,
          "name": "F#2",
          "ticks": 2880,
          "time": 9,
          "velocity": 0.8661417322834646
        },
        {
          "duration": 1.6500000000000004,
          "durationTicks": 528,
          "midi": 49,
          "name": "C#3",
          "ticks": 2880,
          "time": 9,
          "velocity": 0.8661417322834646
        },
        {
          "duration": 1.6500000000000004,
          "durationTicks": 528,
          "midi": 54,
          "name": "F#3",
          "ticks": 2880,
          "time": 9,
          "velocity": 0.8661417322834646
        },
        {
          "duration": 1.6499999999999986,
          "durationTicks": 528,
          "midi": 44,
          "name": "G#2",
          "ticks": 6336,
          "time": 19.8,
          "velocity": 0.8661417322834646
        },
        {
          "duration": 1.6499999999999986,
          "durationTicks": 528,
          "midi": 51,
          "name": "D#3",
          "ticks": 6336,
          "time": 19.8,
          "velocity": 0.8661417322834646
        },
        {
          "duration": 1.6499999999999986,
          "durationTicks": 528,
          "midi": 56,
          "name": "G#3",
          "ticks": 6336,
          "time": 19.8,
          "velocity": 0.8661417322834646
        },
        {
          "duration": 1.6499999999999986,
          "durationTicks": 528,
          "midi": 42,
          "name": "F#2",
          "ticks": 12672,
          "time": 39.6,
          "velocity": 0.8661417322834646
        },
        {
          "duration": 1.6499999999999986,
          "durationTicks": 528,
          "midi": 49,
          "name": "C#3",
          "ticks": 12672,
          "time": 39.6,
          "velocity": 0.8661417322834646
        },
        {
          "duration": 1.6499999999999986,
          "durationTicks": 528,
          "midi": 54,
          "name": "F#3",
          "ticks": 12672,
          "time": 39.6,
          "velocity": 0.8661417322834646
        },
        {
          "duration": 1.6499999999999986,
          "durationTicks": 528,
          "midi": 44,
          "name": "G#2",
          "ticks": 16128,
          "time": 50.4,
          "velocity": 0.8661417322834646
        },
        {
          "duration": 1.6499999999999986,
          "durationTicks": 528,
          "midi": 51,
          "name": "D#3",
          "ticks": 16128,
          "time": 50.4,
          "velocity": 0.8661417322834646
        },
        {
          "duration": 1.6499999999999986,
          "durationTicks": 528,
          "midi": 56,
          "name": "G#3",
          "ticks": 16128,
          "time": 50.4,
          "velocity": 0.8661417322834646
        },
        {
          "duration": 1.6499999999999915,
          "durationTicks": 528,
          "midi": 42,
          "name": "F#2",
          "ticks": 22464,
          "time": 70.2,
          "velocity": 0.8661417322834646
        },
        {
          "duration": 1.6499999999999915,
          "durationTicks": 528,
          "midi": 49,
          "name": "C#3",
          "ticks": 22464,
          "time": 70.2,
          "velocity": 0.8661417322834646
        },
        {
          "duration": 1.6499999999999915,
          "durationTicks": 528,
          "midi": 54,
          "name": "F#3",
          "ticks": 22464,
          "time": 70.2,
          "velocity": 0.8661417322834646
        },
        {
          "duration": 1.6499999999999915,
          "durationTicks": 528,
          "midi": 44,
          "name": "G#2",
          "ticks": 25920,
          "time": 81,
          "velocity": 0.8661417322834646
        },
        {
          "duration": 1.6499999999999915,
          "durationTicks": 528,
          "midi": 51,
          "name": "D#3",
          "ticks": 25920,
          "time": 81,
          "velocity": 0.8661417322834646
        },
        {
          "duration": 1.6499999999999915,
          "durationTicks": 528,
          "midi": 56,
          "name": "G#3",
          "ticks": 25920,
          "time": 81,
          "velocity": 0.8661417322834646
        },
        {
          "duration": 1.6500000000000057,
          "durationTicks": 528,
          "midi": 42,
          "name": "F#2",
          "ticks": 32256,
          "time": 100.8,
          "velocity": 0.8661417322834646
        },
        {
          "duration": 1.6500000000000057,
          "durationTicks": 528,
          "midi": 49,
          "name": "C#3",
          "ticks": 32256,
          "time": 100.8,
          "velocity": 0.8661417322834646
        },
        {
          "duration": 1.6500000000000057,
          "durationTicks": 528,
          "midi": 54,
          "name": "F#3",
          "ticks": 32256,
          "time": 100.8,
          "velocity": 0.8661417322834646
        },
        {
          "duration": 1.6500000000000057,
          "durationTicks": 528,
          "midi": 44,
          "name": "G#2",
          "ticks": 35712,
          "time": 111.6,
          "velocity": 0.8661417322834646
        },
        {
          "duration": 1.6500000000000057,
          "durationTicks": 528,
          "midi": 51,
          "name": "D#3",
          "ticks": 35712,
          "time": 111.6,
          "velocity": 0.8661417322834646
        },
        {
          "duration": 1.6500000000000057,
          "durationTicks": 528,
          "midi": 56,
          "name": "G#3",
          "ticks": 35712,
          "time": 111.6,
          "velocity": 0.8661417322834646
        }
      ]
    },
    {
      "channel": 9,
      "controlChanges": {
        "7": [
          {
            "number": 7,
            "ticks": 0,
            "time": 0,
            "value": 0.5826771653543307
          },
          {
            "number": 7,
            "ticks": 0,
            "time": 0,
            "value": 0.5826771653543307
          }
        ],
        "10": [
          {
            "number": 10,
            "ticks": 0,
            "time": 0,
            "value": 0.4251968503937008
          },
          {
            "number": 10,
            "ticks": 0,
            "time": 0,
            "value": 0.4251968503937008
          }
        ]
      },
      "pitchBends": [],
      "instrument": {
        "family": "drums",
        "name": "standard kit",
        "number": 0
      },
      "name": "",
      "notes": [
        {
          "duration": 0.29375000000000107,
          "durationTicks": 94,
          "midi": 44,
          "name": "G#2",
          "ticks": 2592,
          "time": 8.1,
          "velocity": 0.8661417322834646
        },
        {
          "duration": 0.2937499999999993,
          "durationTicks": 94,
          "midi": 46,
          "name": "A#2",
          "ticks": 2688,
          "time": 8.4,
          "velocity": 0.8661417322834646
        },
        {
          "duration": 0.29375000000000107,
          "durationTicks": 94,
          "midi": 44,
          "name": "G#2",
          "ticks": 2784,
          "time": 8.7,
          "velocity": 0.8661417322834646
        },
        {
          "duration": 1.6500000000000004,
          "durationTicks": 528,
          "midi": 49,
          "name": "C#3",
          "ticks": 2880,
          "time": 9,
          "velocity": 0.8661417322834646
        },
        {
          "duration": 0.2937499999999993,
          "durationTicks": 94,
          "midi": 44,
          "name": "G#2",
          "ticks": 6048,
          "time": 18.9,
          "velocity": 0.8661417322834646
        },
        {
          "duration": 0.29375000000000284,
          "durationTicks": 94,
          "midi": 46,
          "name": "A#2",
          "ticks": 6144,
          "time": 19.2,
          "velocity": 0.8661417322834646
        },
        {
          "duration": 0.2937499999999993,
          "durationTicks": 94,
          "midi": 44,
          "name": "G#2",
          "ticks": 6240,
          "time": 19.5,
          "velocity": 0.8661417322834646
        },
        {
          "duration": 1.6499999999999986,
          "durationTicks": 528,
          "midi": 49,
          "name": "C#3",
          "ticks": 6336,
          "time": 19.8,
          "velocity": 0.8661417322834646
        },
        {
          "duration": 0.29375000000000284,
          "durationTicks": 94,
          "midi": 44,
          "name": "G#2",
          "ticks": 12384,
          "time": 38.699999999999996,
          "velocity": 0.8661417322834646
        },
        {
          "duration": 0.29374999999999574,
          "durationTicks": 94,
          "midi": 46,
          "name": "A#2",
          "ticks": 12480,
          "time": 39,
          "velocity": 0.8661417322834646
        },
        {
          "duration": 0.29374999999999574,
          "durationTicks": 94,
          "midi": 44,
          "name": "G#2",
          "ticks": 12576,
          "time": 39.3,
          "velocity": 0.8661417322834646
        },
        {
          "duration": 1.6499999999999986,
          "durationTicks": 528,
          "midi": 49,
          "name": "C#3",
          "ticks": 12672,
          "time": 39.6,
          "velocity": 0.8661417322834646
        },
        {
          "duration": 0.29374999999999574,
          "durationTicks": 94,
          "midi": 44,
          "name": "G#2",
          "ticks": 15840,
          "time": 49.5,
          "velocity": 0.8661417322834646
        },
        {
          "duration": 0.29374999999999574,
          "durationTicks": 94,
          "midi": 46,
          "name": "A#2",
          "ticks": 15936,
          "time": 49.8,
          "velocity": 0.8661417322834646
        },
        {
          "duration": 0.29374999999999574,
          "durationTicks": 94,
          "midi": 44,
          "name": "G#2",
          "ticks": 16032,
          "time": 50.1,
          "velocity": 0.8661417322834646
        },
        {
          "duration": 1.6499999999999986,
          "durationTicks": 528,
          "midi": 49,
          "name": "C#3",
          "ticks": 16128,
          "time": 50.4,
          "velocity": 0.8661417322834646
        },
        {
          "duration": 0.29375000000000284,
          "durationTicks": 94,
          "midi": 44,
          "name": "G#2",
          "ticks": 22176,
          "time": 69.3,
          "velocity": 0.8661417322834646
        },
        {
          "duration": 0.29375000000000284,
          "durationTicks": 94,
          "midi": 46,
          "name": "A#2",
          "ticks": 22272,
          "time": 69.6,
          "velocity": 0.8661417322834646
        },
        {
          "duration": 0.29375000000000284,
          "durationTicks": 94,
          "midi": 44,
          "name": "G#2",
          "ticks": 22368,
          "time": 69.89999999999999,
          "velocity": 0.8661417322834646
        },
        {
          "duration": 1.6499999999999915,
          "durationTicks": 528,
          "midi": 49,
          "name": "C#3",
          "ticks": 22464,
          "time": 70.2,
          "velocity": 0.8661417322834646
        },
        {
          "duration": 0.29375000000000284,
          "durationTicks": 94,
          "midi": 44,
          "name": "G#2",
          "ticks": 25632,
          "time": 80.1,
          "velocity": 0.8661417322834646
        },
        {
          "duration": 0.29375000000001705,
          "durationTicks": 94,
          "midi": 46,
          "name": "A#2",
          "ticks": 25728,
          "time": 80.39999999999999,
          "velocity": 0.8661417322834646
        },
        {
          "duration": 0.29375000000000284,
          "durationTicks": 94,
          "midi": 44,
          "name": "G#2",
          "ticks": 25824,
          "time": 80.7,
          "velocity": 0.8661417322834646
        },
        {
          "duration": 1.6499999999999915,
          "durationTicks": 528,
          "midi": 49,
          "name": "C#3",
          "ticks": 25920,
          "time": 81,
          "velocity": 0.8661417322834646
        },
        {
          "duration": 0.29375000000001705,
          "durationTicks": 94,
          "midi": 44,
          "name": "G#2",
          "ticks": 31968,
          "time": 99.89999999999999,
          "velocity": 0.8661417322834646
        },
        {
          "duration": 0.29375000000000284,
          "durationTicks": 94,
          "midi": 46,
          "name": "A#2",
          "ticks": 32064,
          "time": 100.2,
          "velocity": 0.8661417322834646
        },
        {
          "duration": 0.29375000000000284,
          "durationTicks": 94,
          "midi": 44,
          "name": "G#2",
          "ticks": 32160,
          "time": 100.5,
          "velocity": 0.8661417322834646
        },
        {
          "duration": 1.6500000000000057,
          "durationTicks": 528,
          "midi": 49,
          "name": "C#3",
          "ticks": 32256,
          "time": 100.8,
          "velocity": 0.8661417322834646
        },
        {
          "duration": 0.29375000000000284,
          "durationTicks": 94,
          "midi": 44,
          "name": "G#2",
          "ticks": 35424,
          "time": 110.7,
          "velocity": 0.8661417322834646
        },
        {
          "duration": 0.29375000000000284,
          "durationTicks": 94,
          "midi": 46,
          "name": "A#2",
          "ticks": 35520,
          "time": 111,
          "velocity": 0.8661417322834646
        },
        {
          "duration": 0.29375000000000284,
          "durationTicks": 94,
          "midi": 44,
          "name": "G#2",
          "ticks": 35616,
          "time": 111.3,
          "velocity": 0.8661417322834646
        },
        {
          "duration": 1.6500000000000057,
          "durationTicks": 528,
          "midi": 49,
          "name": "C#3",
          "ticks": 35712,
          "time": 111.6,
          "velocity": 0.8661417322834646
        }
      ]
    }
  ]
}
